<svg width="1500" height="1000" viewBox="0 0 1500 1000" fill="none" xmlns="http://www.w3.org/2000/svg">
<g filter="url(#filter0_f_146_309)">
<ellipse cx="750" cy="500" rx="500" ry="250" fill="#111111" fill-opacity="0.5"/>
</g>
<path d="M455.138 467.34C455.858 458.52 457.118 438.18 457.118 402.72C457.118 371.22 455.678 348.54 454.778 338.28C454.418 335.04 448.658 332.34 448.658 332.34H516.698C535.238 332.34 548.558 330 548.558 330C548.558 330 546.398 338.82 545.318 346.02C544.238 355.2 544.058 371.04 544.058 371.04C544.058 371.04 536.678 338.28 515.438 338.28H476.378C475.478 348.36 474.218 370.32 474.038 400.02L501.218 399.84C516.518 399.48 519.938 390.12 519.938 390.12V416.04C519.938 416.04 515.978 406.68 501.398 406.14H474.038C474.218 439.44 475.658 459.6 476.378 468.24H515.618C536.678 468.06 544.058 434.94 544.058 434.94C544.058 434.94 544.238 450.96 545.318 459.96C546.398 467.16 548.558 476.16 548.558 476.16C548.558 476.16 535.238 473.82 516.698 473.82H448.658C448.658 473.82 454.418 470.58 455.138 467.34ZM666.374 463.74C668.534 470.94 674.654 474 674.654 474H636.674C636.674 474 645.494 469.5 645.494 463.74C645.494 451.68 640.094 430.44 633.794 402.9C626.954 373.02 621.194 352.86 617.954 342.06L583.754 463.56C583.574 464.1 583.574 464.82 583.574 465.36C583.574 471.3 592.214 474 592.214 474H562.874C562.874 474 573.134 468.42 575.114 462.66C579.254 451.14 586.634 430.26 594.734 402.36C604.094 369.96 610.934 348 610.934 339.72C610.934 335.22 603.914 332.34 603.914 332.34H645.854C645.854 332.34 638.474 334.14 638.474 340.44C638.474 340.8 638.654 341.16 638.654 341.7C640.274 352.32 643.694 372.3 650.714 402.9C657.014 430.98 662.954 452.22 666.374 463.74ZM697.365 467.34C698.085 458.52 699.345 438.18 699.345 402.72C699.345 371.22 697.905 348.54 697.005 338.28C696.645 335.04 690.885 332.34 690.885 332.34H758.925C777.465 332.34 790.785 330 790.785 330C790.785 330 788.625 338.82 787.545 346.02C786.465 355.2 786.285 371.04 786.285 371.04C786.285 371.04 778.905 338.28 757.665 338.28H718.605C717.705 348.36 716.445 370.32 716.265 400.02L743.445 399.84C758.745 399.48 762.165 390.12 762.165 390.12V416.04C762.165 416.04 758.205 406.68 743.625 406.14H716.265C716.445 439.44 717.885 459.6 718.605 468.24H757.845C778.905 468.06 786.285 434.94 786.285 434.94C786.285 434.94 786.465 450.96 787.545 459.96C788.625 467.16 790.785 476.16 790.785 476.16C790.785 476.16 777.465 473.82 758.925 473.82H690.885C690.885 473.82 696.645 470.58 697.365 467.34ZM815.54 463.74C816.44 452.94 817.52 433.14 817.52 403.08C817.52 374.82 816.44 353.4 815.54 342.06C815 334.5 807.08 332.34 807.08 332.34H844.88C843.26 332.88 837.14 335.94 836.42 342.06C834.98 354.48 834.44 373.56 834.44 400.02C835.52 400.02 853.34 400.56 867.02 400.56C880.52 400.56 899.24 400.02 899.78 400.02C899.78 373.2 898.34 353.04 897.62 342.06C897.08 334.5 889.34 332.34 889.34 332.34L927.14 332.16C926.06 333.06 919.22 337.92 918.68 342.06C917.42 351.6 916.52 367.98 916.52 389.4C916.52 393.72 916.7 398.4 916.7 403.08C917.24 432.96 917.06 450.6 918.86 463.92C919.58 469.86 927.14 474 927.14 474H889.34C889.34 474 897.26 471.3 897.8 463.74C898.52 453.3 899.78 434.58 899.78 406.14C899.6 406.14 879.44 405.6 866.84 405.6C853.7 405.6 835.52 406.14 834.44 406.14C834.44 434.22 836.6 463.56 836.6 463.56C837.14 469.5 845.06 474 845.06 474H806.9C806.9 474 815 471.3 815.54 463.74ZM979.847 400.02H1011.53C1004.87 371.22 999.287 351.78 996.227 341.52L979.847 400.02ZM941.507 473.82C941.507 473.82 950.867 469.32 953.387 462.66C966.167 428.28 978.047 386.16 989.027 338.46C989.027 338.46 989.027 338.28 989.027 338.1C989.027 335.4 982.547 332.34 982.547 332.34H1024.31C1024.31 332.34 1017.11 334.32 1017.11 340.62C1017.11 340.98 1017.29 341.34 1017.29 341.88C1018.91 352.5 1022.15 372.48 1029.17 403.08C1035.47 431.16 1041.59 452.4 1045.01 463.92C1047.17 471.12 1053.11 473.82 1053.11 473.82H1015.13C1015.13 473.82 1023.95 469.68 1023.95 463.92C1023.95 452.4 1018.73 432.06 1012.97 405.96H978.047L962.027 463.38C961.847 463.92 961.847 464.64 961.847 465.18C961.847 471.12 970.667 473.82 970.667 473.82H941.507ZM336.046 523.14C334.966 532.14 334.786 549.6 334.786 568.86L382.306 521.34C383.566 519.72 384.106 518.28 384.106 517.2C384.106 513.96 380.506 512.34 380.506 512.34H410.566C410.566 512.34 401.926 515.04 391.666 524.58L339.826 576.6C339.826 576.6 387.526 624.66 403.546 640.5C413.446 650.22 424.246 653.82 424.246 653.82H382.126C382.126 653.82 388.966 651.48 388.966 647.52C388.966 646.44 388.426 645.18 387.166 643.92L334.786 591.54C334.966 615.12 335.866 631.68 336.586 641.76C337.126 647.88 345.586 653.82 345.586 653.82H307.246C307.246 653.82 315.346 650.22 316.066 642.84C316.966 631.86 317.866 612.24 317.866 582.9C317.866 555.18 316.786 534.3 315.886 522.78C315.166 515.58 307.066 512.34 307.066 512.34H344.866C344.866 512.34 336.766 517.02 336.046 523.14ZM449.124 643.38C450.024 632.58 450.924 612.78 450.924 582.72C450.924 554.46 449.844 533.22 448.944 521.88C448.404 514.32 440.664 512.34 440.664 512.34H478.104C478.104 512.34 470.364 515.94 470.004 521.88H469.824C468.924 533.4 467.844 554.82 467.844 582.72C467.844 608.28 468.744 626.46 469.464 637.98C476.844 625.56 487.464 606.12 499.524 581.28C520.224 538.44 530.304 514.68 530.304 512.52C530.304 512.52 530.304 512.52 530.304 512.34H560.364C560.364 512.34 553.164 516.3 552.084 522.24C551.004 528 550.104 548.34 550.104 571.74V582.72C550.464 612.6 551.904 643.38 551.904 643.38C552.444 649.32 560.364 653.82 560.364 653.82H522.744C522.744 653.82 530.664 650.94 531.204 643.38C532.104 632.58 533.184 612.78 533.184 582.72C533.184 558.78 532.284 539.88 531.564 527.64L470.724 653.82V654L440.484 653.82C440.484 653.82 448.584 650.94 449.124 643.38ZM594.899 558.78C594.179 564.72 593.639 570.48 593.639 576.24C593.639 582.18 594.179 587.94 595.439 594.06C597.779 605.04 603.539 617.28 608.039 624.3C617.759 639.24 634.499 648.42 652.679 648.42C656.459 648.42 660.419 648.06 664.379 647.16C680.759 643.56 693.719 632.94 700.739 619.08L696.779 642.48C695.879 642.12 694.079 642.66 692.639 643.74C684.899 649.14 675.899 653.1 665.999 655.26C660.599 656.34 655.199 657.06 649.979 657.06C615.419 657.06 584.279 632.94 576.539 597.84C575.459 592.44 574.739 587.04 574.739 581.82C574.739 547.26 598.859 516.12 633.959 508.38C639.359 507.12 644.939 506.58 650.339 506.58C660.239 506.58 669.959 508.56 678.779 512.34C679.499 512.7 682.919 511.98 683.459 510.54L689.939 536.1C679.859 523.32 664.199 515.4 647.459 515.4C643.679 515.4 639.899 515.76 636.119 516.66C614.699 521.34 597.599 538.26 594.899 558.78ZM806.032 643.74C808.192 650.94 814.312 654 814.312 654H776.332C776.332 654 785.152 649.5 785.152 643.74C785.152 631.68 779.752 610.44 773.452 582.9C766.612 553.02 760.852 532.86 757.612 522.06L723.412 643.56C723.232 644.1 723.232 644.82 723.232 645.36C723.232 651.3 731.872 654 731.872 654H702.532C702.532 654 712.792 648.42 714.772 642.66C718.912 631.14 726.292 610.26 734.392 582.36C743.752 549.96 750.592 528 750.592 519.72C750.592 515.22 743.572 512.34 743.572 512.34H785.512C785.512 512.34 778.132 514.14 778.132 520.44C778.132 520.8 778.312 521.16 778.312 521.7C779.932 532.32 783.352 552.3 790.372 582.9C796.672 610.98 802.612 632.22 806.032 643.74ZM835.887 558.96C834.987 563.64 834.447 569.04 834.447 574.8C834.447 581.28 835.167 587.94 836.427 594.24C838.767 605.22 844.707 617.46 849.027 624.3C858.027 638.34 875.847 648.42 894.567 648.42C898.167 648.42 901.767 648.06 905.367 647.34C927.507 642.48 943.707 623.58 946.767 603.42C947.487 599.46 947.847 593.88 947.847 588.12C947.847 582.36 947.307 576.06 946.227 570.66C943.707 558.78 938.847 546.72 932.187 538.08C922.107 525.12 905.547 515.94 887.907 515.94C884.307 515.94 880.707 516.3 877.107 517.02C855.687 521.7 839.667 540.06 835.887 558.96ZM817.527 598.02C816.447 593.16 816.087 588.12 816.087 583.44C816.087 546.54 844.707 515.22 874.767 508.74C880.167 507.48 885.387 506.94 890.787 506.94C925.347 506.94 956.667 530.88 964.227 565.98C965.487 571.38 966.027 576.78 966.027 582C966.027 616.56 942.087 647.7 906.987 655.26C900.687 656.7 894.567 657.24 888.447 657.24C854.967 657.24 825.447 636.9 817.527 598.02ZM987.144 518.46C986.604 515.58 980.484 512.34 980.484 512.34H993.624L1028.72 511.98C1048.7 511.98 1064.9 528.36 1064.9 548.34C1064.9 561.48 1057.88 573 1047.26 579.3C1066.34 581.1 1081.28 597.12 1081.28 616.56C1081.28 637.26 1064.54 653.82 1043.84 653.82H980.664C980.664 653.82 986.604 650.58 986.964 647.52C987.864 637.98 989.124 617.28 989.124 583.26C989.124 549.42 988.764 527.64 987.144 518.46ZM1066.34 616.56C1066.34 600.54 1053.74 585.96 1037.72 585.24C1032.86 585.06 1026.2 584.88 1019.54 584.88C1014.86 584.88 1010.18 585.06 1006.04 585.06C1006.04 616.74 1007.3 636.72 1008.2 646.44C1017.74 647.16 1029.08 648.06 1037 648.06C1053.02 648.06 1066.34 632.58 1066.34 616.56ZM1023.14 518.1H1019.36C1015.76 518.1 1011.98 518.28 1008.38 518.46C1007.66 528.18 1006.22 549.6 1006.04 578.76H1022.24C1037.72 578.76 1050.5 563.82 1050.5 548.34C1050.5 532.86 1038.44 518.82 1023.14 518.1ZM1121.44 580.02H1153.12C1146.46 551.22 1140.88 531.78 1137.82 521.52L1121.44 580.02ZM1083.1 653.82C1083.1 653.82 1092.46 649.32 1094.98 642.66C1107.76 608.28 1119.64 566.16 1130.62 518.46C1130.62 518.46 1130.62 518.28 1130.62 518.1C1130.62 515.4 1124.14 512.34 1124.14 512.34H1165.9C1165.9 512.34 1158.7 514.32 1158.7 520.62C1158.7 520.98 1158.88 521.34 1158.88 521.88C1160.5 532.5 1163.74 552.48 1170.76 583.08C1177.06 611.16 1183.18 632.4 1186.6 643.92C1188.76 651.12 1194.7 653.82 1194.7 653.82H1156.72C1156.72 653.82 1165.54 649.68 1165.54 643.92C1165.54 632.4 1160.32 612.06 1154.56 585.96H1119.64L1103.62 643.38C1103.44 643.92 1103.44 644.64 1103.44 645.18C1103.44 651.12 1112.26 653.82 1112.26 653.82H1083.1Z" fill="#DA79DA"/>
<defs>
<filter id="filter0_f_146_309" x="0" y="0" width="1500" height="1000" filterUnits="userSpaceOnUse" color-interpolation-filters="sRGB">
<feFlood flood-opacity="0" result="BackgroundImageFix"/>
<feBlend mode="normal" in="SourceGraphic" in2="BackgroundImageFix" result="shape"/>
<feGaussianBlur stdDeviation="125" result="effect1_foregroundBlur_146_309"/>
</filter>
</defs>
</svg>
