<svg width="1500" height="700" viewBox="0 0 1500 700" fill="none" xmlns="http://www.w3.org/2000/svg">
<path d="M455.138 299.34C455.858 290.52 457.118 270.18 457.118 234.72C457.118 203.22 455.678 180.54 454.778 170.28C454.418 167.04 448.658 164.34 448.658 164.34H516.698C535.238 164.34 548.558 162 548.558 162C548.558 162 546.398 170.82 545.318 178.02C544.238 187.2 544.058 203.04 544.058 203.04C544.058 203.04 536.678 170.28 515.438 170.28H476.378C475.478 180.36 474.218 202.32 474.038 232.02L501.218 231.84C516.518 231.48 519.938 222.12 519.938 222.12V248.04C519.938 248.04 515.978 238.68 501.398 238.14H474.038C474.218 271.44 475.658 291.6 476.378 300.24H515.618C536.678 300.06 544.058 266.94 544.058 266.94C544.058 266.94 544.238 282.96 545.318 291.96C546.398 299.16 548.558 308.16 548.558 308.16C548.558 308.16 535.238 305.82 516.698 305.82H448.658C448.658 305.82 454.418 302.58 455.138 299.34ZM666.374 295.74C668.534 302.94 674.654 306 674.654 306H636.674C636.674 306 645.494 301.5 645.494 295.74C645.494 283.68 640.094 262.44 633.794 234.9C626.954 205.02 621.194 184.86 617.954 174.06L583.754 295.56C583.574 296.1 583.574 296.82 583.574 297.36C583.574 303.3 592.214 306 592.214 306H562.874C562.874 306 573.134 300.42 575.114 294.66C579.254 283.14 586.634 262.26 594.734 234.36C604.094 201.96 610.934 180 610.934 171.72C610.934 167.22 603.914 164.34 603.914 164.34H645.854C645.854 164.34 638.474 166.14 638.474 172.44C638.474 172.8 638.654 173.16 638.654 173.7C640.274 184.32 643.694 204.3 650.714 234.9C657.014 262.98 662.954 284.22 666.374 295.74ZM697.365 299.34C698.085 290.52 699.345 270.18 699.345 234.72C699.345 203.22 697.905 180.54 697.005 170.28C696.645 167.04 690.885 164.34 690.885 164.34H758.925C777.465 164.34 790.785 162 790.785 162C790.785 162 788.625 170.82 787.545 178.02C786.465 187.2 786.285 203.04 786.285 203.04C786.285 203.04 778.905 170.28 757.665 170.28H718.605C717.705 180.36 716.445 202.32 716.265 232.02L743.445 231.84C758.745 231.48 762.165 222.12 762.165 222.12V248.04C762.165 248.04 758.205 238.68 743.625 238.14H716.265C716.445 271.44 717.885 291.6 718.605 300.24H757.845C778.905 300.06 786.285 266.94 786.285 266.94C786.285 266.94 786.465 282.96 787.545 291.96C788.625 299.16 790.785 308.16 790.785 308.16C790.785 308.16 777.465 305.82 758.925 305.82H690.885C690.885 305.82 696.645 302.58 697.365 299.34ZM815.54 295.74C816.44 284.94 817.52 265.14 817.52 235.08C817.52 206.82 816.44 185.4 815.54 174.06C815 166.5 807.08 164.34 807.08 164.34H844.88C843.26 164.88 837.14 167.94 836.42 174.06C834.98 186.48 834.44 205.56 834.44 232.02C835.52 232.02 853.34 232.56 867.02 232.56C880.52 232.56 899.24 232.02 899.78 232.02C899.78 205.2 898.34 185.04 897.62 174.06C897.08 166.5 889.34 164.34 889.34 164.34L927.14 164.16C926.06 165.06 919.22 169.92 918.68 174.06C917.42 183.6 916.52 199.98 916.52 221.4C916.52 225.72 916.7 230.4 916.7 235.08C917.24 264.96 917.06 282.6 918.86 295.92C919.58 301.86 927.14 306 927.14 306H889.34C889.34 306 897.26 303.3 897.8 295.74C898.52 285.3 899.78 266.58 899.78 238.14C899.6 238.14 879.44 237.6 866.84 237.6C853.7 237.6 835.52 238.14 834.44 238.14C834.44 266.22 836.6 295.56 836.6 295.56C837.14 301.5 845.06 306 845.06 306H806.9C806.9 306 815 303.3 815.54 295.74ZM979.847 232.02H1011.53C1004.87 203.22 999.287 183.78 996.227 173.52L979.847 232.02ZM941.507 305.82C941.507 305.82 950.867 301.32 953.387 294.66C966.167 260.28 978.047 218.16 989.027 170.46C989.027 170.46 989.027 170.28 989.027 170.1C989.027 167.4 982.547 164.34 982.547 164.34H1024.31C1024.31 164.34 1017.11 166.32 1017.11 172.62C1017.11 172.98 1017.29 173.34 1017.29 173.88C1018.91 184.5 1022.15 204.48 1029.17 235.08C1035.47 263.16 1041.59 284.4 1045.01 295.92C1047.17 303.12 1053.11 305.82 1053.11 305.82H1015.13C1015.13 305.82 1023.95 301.68 1023.95 295.92C1023.95 284.4 1018.73 264.06 1012.97 237.96H978.047L962.027 295.38C961.847 295.92 961.847 296.64 961.847 297.18C961.847 303.12 970.667 305.82 970.667 305.82H941.507ZM336.046 355.14C334.966 364.14 334.786 381.6 334.786 400.86L382.306 353.34C383.566 351.72 384.106 350.28 384.106 349.2C384.106 345.96 380.506 344.34 380.506 344.34H410.566C410.566 344.34 401.926 347.04 391.666 356.58L339.826 408.6C339.826 408.6 387.526 456.66 403.546 472.5C413.446 482.22 424.246 485.82 424.246 485.82H382.126C382.126 485.82 388.966 483.48 388.966 479.52C388.966 478.44 388.426 477.18 387.166 475.92L334.786 423.54C334.966 447.12 335.866 463.68 336.586 473.76C337.126 479.88 345.586 485.82 345.586 485.82H307.246C307.246 485.82 315.346 482.22 316.066 474.84C316.966 463.86 317.866 444.24 317.866 414.9C317.866 387.18 316.786 366.3 315.886 354.78C315.166 347.58 307.066 344.34 307.066 344.34H344.866C344.866 344.34 336.766 349.02 336.046 355.14ZM449.124 475.38C450.024 464.58 450.924 444.78 450.924 414.72C450.924 386.46 449.844 365.22 448.944 353.88C448.404 346.32 440.664 344.34 440.664 344.34H478.104C478.104 344.34 470.364 347.94 470.004 353.88H469.824C468.924 365.4 467.844 386.82 467.844 414.72C467.844 440.28 468.744 458.46 469.464 469.98C476.844 457.56 487.464 438.12 499.524 413.28C520.224 370.44 530.304 346.68 530.304 344.52C530.304 344.52 530.304 344.52 530.304 344.34H560.364C560.364 344.34 553.164 348.3 552.084 354.24C551.004 360 550.104 380.34 550.104 403.74V414.72C550.464 444.6 551.904 475.38 551.904 475.38C552.444 481.32 560.364 485.82 560.364 485.82H522.744C522.744 485.82 530.664 482.94 531.204 475.38C532.104 464.58 533.184 444.78 533.184 414.72C533.184 390.78 532.284 371.88 531.564 359.64L470.724 485.82V486L440.484 485.82C440.484 485.82 448.584 482.94 449.124 475.38ZM594.899 390.78C594.179 396.72 593.639 402.48 593.639 408.24C593.639 414.18 594.179 419.94 595.439 426.06C597.779 437.04 603.539 449.28 608.039 456.3C617.759 471.24 634.499 480.42 652.679 480.42C656.459 480.42 660.419 480.06 664.379 479.16C680.759 475.56 693.719 464.94 700.739 451.08L696.779 474.48C695.879 474.12 694.079 474.66 692.639 475.74C684.899 481.14 675.899 485.1 665.999 487.26C660.599 488.34 655.199 489.06 649.979 489.06C615.419 489.06 584.279 464.94 576.539 429.84C575.459 424.44 574.739 419.04 574.739 413.82C574.739 379.26 598.859 348.12 633.959 340.38C639.359 339.12 644.939 338.58 650.339 338.58C660.239 338.58 669.959 340.56 678.779 344.34C679.499 344.7 682.919 343.98 683.459 342.54L689.939 368.1C679.859 355.32 664.199 347.4 647.459 347.4C643.679 347.4 639.899 347.76 636.119 348.66C614.699 353.34 597.599 370.26 594.899 390.78ZM806.032 475.74C808.192 482.94 814.312 486 814.312 486H776.332C776.332 486 785.152 481.5 785.152 475.74C785.152 463.68 779.752 442.44 773.452 414.9C766.612 385.02 760.852 364.86 757.612 354.06L723.412 475.56C723.232 476.1 723.232 476.82 723.232 477.36C723.232 483.3 731.872 486 731.872 486H702.532C702.532 486 712.792 480.42 714.772 474.66C718.912 463.14 726.292 442.26 734.392 414.36C743.752 381.96 750.592 360 750.592 351.72C750.592 347.22 743.572 344.34 743.572 344.34H785.512C785.512 344.34 778.132 346.14 778.132 352.44C778.132 352.8 778.312 353.16 778.312 353.7C779.932 364.32 783.352 384.3 790.372 414.9C796.672 442.98 802.612 464.22 806.032 475.74ZM835.887 390.96C834.987 395.64 834.447 401.04 834.447 406.8C834.447 413.28 835.167 419.94 836.427 426.24C838.767 437.22 844.707 449.46 849.027 456.3C858.027 470.34 875.847 480.42 894.567 480.42C898.167 480.42 901.767 480.06 905.367 479.34C927.507 474.48 943.707 455.58 946.767 435.42C947.487 431.46 947.847 425.88 947.847 420.12C947.847 414.36 947.307 408.06 946.227 402.66C943.707 390.78 938.847 378.72 932.187 370.08C922.107 357.12 905.547 347.94 887.907 347.94C884.307 347.94 880.707 348.3 877.107 349.02C855.687 353.7 839.667 372.06 835.887 390.96ZM817.527 430.02C816.447 425.16 816.087 420.12 816.087 415.44C816.087 378.54 844.707 347.22 874.767 340.74C880.167 339.48 885.387 338.94 890.787 338.94C925.347 338.94 956.667 362.88 964.227 397.98C965.487 403.38 966.027 408.78 966.027 414C966.027 448.56 942.087 479.7 906.987 487.26C900.687 488.7 894.567 489.24 888.447 489.24C854.967 489.24 825.447 468.9 817.527 430.02ZM987.144 350.46C986.604 347.58 980.484 344.34 980.484 344.34H993.624L1028.72 343.98C1048.7 343.98 1064.9 360.36 1064.9 380.34C1064.9 393.48 1057.88 405 1047.26 411.3C1066.34 413.1 1081.28 429.12 1081.28 448.56C1081.28 469.26 1064.54 485.82 1043.84 485.82H980.664C980.664 485.82 986.604 482.58 986.964 479.52C987.864 469.98 989.124 449.28 989.124 415.26C989.124 381.42 988.764 359.64 987.144 350.46ZM1066.34 448.56C1066.34 432.54 1053.74 417.96 1037.72 417.24C1032.86 417.06 1026.2 416.88 1019.54 416.88C1014.86 416.88 1010.18 417.06 1006.04 417.06C1006.04 448.74 1007.3 468.72 1008.2 478.44C1017.74 479.16 1029.08 480.06 1037 480.06C1053.02 480.06 1066.34 464.58 1066.34 448.56ZM1023.14 350.1H1019.36C1015.76 350.1 1011.98 350.28 1008.38 350.46C1007.66 360.18 1006.22 381.6 1006.04 410.76H1022.24C1037.72 410.76 1050.5 395.82 1050.5 380.34C1050.5 364.86 1038.44 350.82 1023.14 350.1ZM1121.44 412.02H1153.12C1146.46 383.22 1140.88 363.78 1137.82 353.52L1121.44 412.02ZM1083.1 485.82C1083.1 485.82 1092.46 481.32 1094.98 474.66C1107.76 440.28 1119.64 398.16 1130.62 350.46C1130.62 350.46 1130.62 350.28 1130.62 350.1C1130.62 347.4 1124.14 344.34 1124.14 344.34H1165.9C1165.9 344.34 1158.7 346.32 1158.7 352.62C1158.7 352.98 1158.88 353.34 1158.88 353.88C1160.5 364.5 1163.74 384.48 1170.76 415.08C1177.06 443.16 1183.18 464.4 1186.6 475.92C1188.76 483.12 1194.7 485.82 1194.7 485.82H1156.72C1156.72 485.82 1165.54 481.68 1165.54 475.92C1165.54 464.4 1160.32 444.06 1154.56 417.96H1119.64L1103.62 475.38C1103.44 475.92 1103.44 476.64 1103.44 477.18C1103.44 483.12 1112.26 485.82 1112.26 485.82H1083.1Z" fill="#383838"/>
</svg>
