<?xml version="1.0" encoding="UTF-8"?> <svg xmlns="http://www.w3.org/2000/svg" width="1340" height="564" viewBox="0 0 1340 564" fill="none"><g clip-path="url(#clip0_106_358)"><g filter="url(#filter0_f_106_358)"><ellipse cx="882.5" cy="325.5" rx="352.5" ry="154.5" fill="#111111" fill-opacity="0.6"></ellipse></g><g filter="url(#filter1_f_106_358)"><ellipse cx="392" cy="187.5" rx="181" ry="103.5" fill="#111111" fill-opacity="0.82"></ellipse></g><g filter="url(#filter2_d_106_358)"><path d="M18.62 238.71C19.3 230.38 20.49 211.17 20.49 177.68C20.49 147.93 19.13 126.51 18.28 116.82C17.94 113.76 12.5 111.21 12.5 111.21H76.76C94.27 111.21 106.85 109 106.85 109C106.85 109 104.81 117.33 103.79 124.13C102.77 132.8 102.6 147.76 102.6 147.76C102.6 147.76 95.63 116.82 75.57 116.82H38.68C37.83 126.34 36.64 147.08 36.47 175.13L62.14 174.96C76.59 174.62 79.82 165.78 79.82 165.78V190.26C79.82 190.26 76.08 181.42 62.31 180.91H36.47C36.64 212.36 38 231.4 38.68 239.56H75.74C95.63 239.39 102.6 208.11 102.6 208.11C102.6 208.11 102.77 223.24 103.79 231.74C104.81 238.54 106.85 247.04 106.85 247.04C106.85 247.04 94.27 244.83 76.76 244.83H12.5C12.5 244.83 17.94 241.77 18.62 238.71ZM209.62 235.31C211.66 242.11 217.44 245 217.44 245H181.57C181.57 245 189.9 240.75 189.9 235.31C189.9 223.92 184.8 203.86 178.85 177.85C172.39 149.63 166.95 130.59 163.89 120.39L131.59 235.14C131.42 235.65 131.42 236.33 131.42 236.84C131.42 242.45 139.58 245 139.58 245H111.87C111.87 245 121.56 239.73 123.43 234.29C127.34 223.41 134.31 203.69 141.96 177.34C150.8 146.74 157.26 126 157.26 118.18C157.26 113.93 150.63 111.21 150.63 111.21H190.24C190.24 111.21 183.27 112.91 183.27 118.86C183.27 119.2 183.44 119.54 183.44 120.05C184.97 130.08 188.2 148.95 194.83 177.85C200.78 204.37 206.39 224.43 209.62 235.31ZM230.39 238.71C231.07 230.38 232.26 211.17 232.26 177.68C232.26 147.93 230.9 126.51 230.05 116.82C229.71 113.76 224.27 111.21 224.27 111.21H288.53C306.04 111.21 318.62 109 318.62 109C318.62 109 316.58 117.33 315.56 124.13C314.54 132.8 314.37 147.76 314.37 147.76C314.37 147.76 307.4 116.82 287.34 116.82H250.45C249.6 126.34 248.41 147.08 248.24 175.13L273.91 174.96C288.36 174.62 291.59 165.78 291.59 165.78V190.26C291.59 190.26 287.85 181.42 274.08 180.91H248.24C248.41 212.36 249.77 231.4 250.45 239.56H287.51C307.4 239.39 314.37 208.11 314.37 208.11C314.37 208.11 314.54 223.24 315.56 231.74C316.58 238.54 318.62 247.04 318.62 247.04C318.62 247.04 306.04 244.83 288.53 244.83H224.27C224.27 244.83 229.71 241.77 230.39 238.71ZM333.5 235.31C334.35 225.11 335.37 206.41 335.37 178.02C335.37 151.33 334.35 131.1 333.5 120.39C332.99 113.25 325.51 111.21 325.51 111.21H361.21C359.68 111.72 353.9 114.61 353.22 120.39C351.86 132.12 351.35 150.14 351.35 175.13C352.37 175.13 369.2 175.64 382.12 175.64C394.87 175.64 412.55 175.13 413.06 175.13C413.06 149.8 411.7 130.76 411.02 120.39C410.51 113.25 403.2 111.21 403.2 111.21L438.9 111.04C437.88 111.89 431.42 116.48 430.91 120.39C429.72 129.4 428.87 144.87 428.87 165.1C428.87 169.18 429.04 173.6 429.04 178.02C429.55 206.24 429.38 222.9 431.08 235.48C431.76 241.09 438.9 245 438.9 245H403.2C403.2 245 410.68 242.45 411.19 235.31C411.87 225.45 413.06 207.77 413.06 180.91C412.89 180.91 393.85 180.4 381.95 180.4C369.54 180.4 352.37 180.91 351.35 180.91C351.35 207.43 353.39 235.14 353.39 235.14C353.9 240.75 361.38 245 361.38 245H325.34C325.34 245 332.99 242.45 333.5 235.31ZM480.178 175.13H510.098C503.808 147.93 498.538 129.57 495.648 119.88L480.178 175.13ZM443.968 244.83C443.968 244.83 452.808 240.58 455.188 234.29C467.258 201.82 478.478 162.04 488.848 116.99C488.848 116.99 488.848 116.82 488.848 116.65C488.848 114.1 482.728 111.21 482.728 111.21H522.168C522.168 111.21 515.368 113.08 515.368 119.03C515.368 119.37 515.538 119.71 515.538 120.22C517.068 130.25 520.128 149.12 526.758 178.02C532.708 204.54 538.488 224.6 541.718 235.48C543.758 242.28 549.368 244.83 549.368 244.83H513.498C513.498 244.83 521.828 240.92 521.828 235.48C521.828 224.6 516.898 205.39 511.458 180.74H478.478L463.348 234.97C463.178 235.48 463.178 236.16 463.178 236.67C463.178 242.28 471.508 244.83 471.508 244.83H443.968Z" fill="#DD7CDD"></path></g><g filter="url(#filter3_d_106_358)"><path d="M565.87 291.41C564.85 299.91 564.68 316.4 564.68 334.59L609.56 289.71C610.75 288.18 611.26 286.82 611.26 285.8C611.26 282.74 607.86 281.21 607.86 281.21H636.25C636.25 281.21 628.09 283.76 618.4 292.77L569.44 341.9C569.44 341.9 614.49 387.29 629.62 402.25C638.97 411.43 649.17 414.83 649.17 414.83H609.39C609.39 414.83 615.85 412.62 615.85 408.88C615.85 407.86 615.34 406.67 614.15 405.48L564.68 356.01C564.85 378.28 565.7 393.92 566.38 403.44C566.89 409.22 574.88 414.83 574.88 414.83H538.67C538.67 414.83 546.32 411.43 547 404.46C547.85 394.09 548.7 375.56 548.7 347.85C548.7 321.67 547.68 301.95 546.83 291.07C546.15 284.27 538.5 281.21 538.5 281.21H574.2C574.2 281.21 566.55 285.63 565.87 291.41ZM664.166 404.97C665.016 394.77 665.866 376.07 665.866 347.68C665.866 320.99 664.846 300.93 663.996 290.22C663.486 283.08 656.176 281.21 656.176 281.21H691.536C691.536 281.21 684.226 284.61 683.886 290.22H683.716C682.866 301.1 681.846 321.33 681.846 347.68C681.846 371.82 682.696 388.99 683.376 399.87C690.346 388.14 700.376 369.78 711.766 346.32C731.316 305.86 740.836 283.42 740.836 281.38C740.836 281.38 740.836 281.38 740.836 281.21H769.226C769.226 281.21 762.426 284.95 761.406 290.56C760.386 296 759.536 315.21 759.536 337.31V347.68C759.876 375.9 761.236 404.97 761.236 404.97C761.746 410.58 769.226 414.83 769.226 414.83H733.696C733.696 414.83 741.176 412.11 741.686 404.97C742.536 394.77 743.556 376.07 743.556 347.68C743.556 325.07 742.706 307.22 742.026 295.66L684.566 414.83V415L656.006 414.83C656.006 414.83 663.656 412.11 664.166 404.97ZM793.342 325.07C792.662 330.68 792.152 336.12 792.152 341.56C792.152 347.17 792.662 352.61 793.852 358.39C796.062 368.76 801.502 380.32 805.752 386.95C814.932 401.06 830.742 409.73 847.912 409.73C851.482 409.73 855.222 409.39 858.962 408.54C874.432 405.14 886.672 395.11 893.302 382.02L889.562 404.12C888.712 403.78 887.012 404.29 885.652 405.31C878.342 410.41 869.842 414.15 860.492 416.19C855.392 417.21 850.292 417.89 845.362 417.89C812.722 417.89 783.312 395.11 776.002 361.96C774.982 356.86 774.302 351.76 774.302 346.83C774.302 314.19 797.082 284.78 830.232 277.47C835.332 276.28 840.602 275.77 845.702 275.77C855.052 275.77 864.232 277.64 872.562 281.21C873.242 281.55 876.472 280.87 876.982 279.51L883.102 303.65C873.582 291.58 858.792 284.1 842.982 284.1C839.412 284.1 835.842 284.44 832.272 285.29C812.042 289.71 795.892 305.69 793.342 325.07ZM984.245 405.31C986.285 412.11 992.065 415 992.065 415H956.195C956.195 415 964.525 410.75 964.525 405.31C964.525 393.92 959.425 373.86 953.475 347.85C947.015 319.63 941.575 300.59 938.515 290.39L906.215 405.14C906.045 405.65 906.045 406.33 906.045 406.84C906.045 412.45 914.205 415 914.205 415H886.495C886.495 415 896.185 409.73 898.055 404.29C901.965 393.41 908.935 373.69 916.585 347.34C925.425 316.74 931.885 296 931.885 288.18C931.885 283.93 925.255 281.21 925.255 281.21H964.865C964.865 281.21 957.895 282.91 957.895 288.86C957.895 289.2 958.065 289.54 958.065 290.05C959.595 300.08 962.825 318.95 969.455 347.85C975.405 374.37 981.015 394.43 984.245 405.31ZM1003.94 325.24C1003.09 329.66 1002.58 334.76 1002.58 340.2C1002.58 346.32 1003.26 352.61 1004.45 358.56C1006.66 368.93 1012.27 380.49 1016.35 386.95C1024.85 400.21 1041.68 409.73 1059.36 409.73C1062.76 409.73 1066.16 409.39 1069.56 408.71C1090.47 404.12 1105.77 386.27 1108.66 367.23C1109.34 363.49 1109.68 358.22 1109.68 352.78C1109.68 347.34 1109.17 341.39 1108.15 336.29C1105.77 325.07 1101.18 313.68 1094.89 305.52C1085.37 293.28 1069.73 284.61 1053.07 284.61C1049.67 284.61 1046.27 284.95 1042.87 285.63C1022.64 290.05 1007.51 307.39 1003.94 325.24ZM986.601 362.13C985.581 357.54 985.241 352.78 985.241 348.36C985.241 313.51 1012.27 283.93 1040.66 277.81C1045.76 276.62 1050.69 276.11 1055.79 276.11C1088.43 276.11 1118.01 298.72 1125.15 331.87C1126.34 336.97 1126.85 342.07 1126.85 347C1126.85 379.64 1104.24 409.05 1071.09 416.19C1065.14 417.55 1059.36 418.06 1053.58 418.06C1021.96 418.06 994.081 398.85 986.601 362.13ZM1138.3 286.99C1137.79 284.27 1132.01 281.21 1132.01 281.21H1144.42L1177.57 280.87C1196.44 280.87 1211.74 296.34 1211.74 315.21C1211.74 327.62 1205.11 338.5 1195.08 344.45C1213.1 346.15 1227.21 361.28 1227.21 379.64C1227.21 399.19 1211.4 414.83 1191.85 414.83H1132.18C1132.18 414.83 1137.79 411.77 1138.13 408.88C1138.98 399.87 1140.17 380.32 1140.17 348.19C1140.17 316.23 1139.83 295.66 1138.3 286.99ZM1213.1 379.64C1213.1 364.51 1201.2 350.74 1186.07 350.06C1181.48 349.89 1175.19 349.72 1168.9 349.72C1164.48 349.72 1160.06 349.89 1156.15 349.89C1156.15 379.81 1157.34 398.68 1158.19 407.86C1167.2 408.54 1177.91 409.39 1185.39 409.39C1200.52 409.39 1213.1 394.77 1213.1 379.64ZM1172.3 286.65H1168.73C1165.33 286.65 1161.76 286.82 1158.36 286.99C1157.68 296.17 1156.32 316.4 1156.15 343.94H1171.45C1186.07 343.94 1198.14 329.83 1198.14 315.21C1198.14 300.59 1186.75 287.33 1172.3 286.65ZM1256.63 345.13H1286.55C1280.26 317.93 1274.99 299.57 1272.1 289.88L1256.63 345.13ZM1220.42 414.83C1220.42 414.83 1229.26 410.58 1231.64 404.29C1243.71 371.82 1254.93 332.04 1265.3 286.99C1265.3 286.99 1265.3 286.82 1265.3 286.65C1265.3 284.1 1259.18 281.21 1259.18 281.21H1298.62C1298.62 281.21 1291.82 283.08 1291.82 289.03C1291.82 289.37 1291.99 289.71 1291.99 290.22C1293.52 300.25 1296.58 319.12 1303.21 348.02C1309.16 374.54 1314.94 394.6 1318.17 405.48C1320.21 412.28 1325.82 414.83 1325.82 414.83H1289.95C1289.95 414.83 1298.28 410.92 1298.28 405.48C1298.28 394.6 1293.35 375.39 1287.91 350.74H1254.93L1239.8 404.97C1239.63 405.48 1239.63 406.16 1239.63 406.67C1239.63 412.28 1247.96 414.83 1247.96 414.83H1220.42Z" fill="#DD7CDD"></path></g></g><defs><filter id="filter0_f_106_358" x="400" y="41" width="965" height="569" filterUnits="userSpaceOnUse" color-interpolation-filters="sRGB"><feFlood flood-opacity="0" result="BackgroundImageFix"></feFlood><feBlend mode="normal" in="SourceGraphic" in2="BackgroundImageFix" result="shape"></feBlend><feGaussianBlur stdDeviation="65" result="effect1_foregroundBlur_106_358"></feGaussianBlur></filter><filter id="filter1_f_106_358" x="81" y="-46" width="622" height="467" filterUnits="userSpaceOnUse" color-interpolation-filters="sRGB"><feFlood flood-opacity="0" result="BackgroundImageFix"></feFlood><feBlend mode="normal" in="SourceGraphic" in2="BackgroundImageFix" result="shape"></feBlend><feGaussianBlur stdDeviation="65" result="effect1_foregroundBlur_106_358"></feGaussianBlur></filter><filter id="filter2_d_106_358" x="0.5" y="97" width="568.868" height="170.04" filterUnits="userSpaceOnUse" color-interpolation-filters="sRGB"><feFlood flood-opacity="0" result="BackgroundImageFix"></feFlood><feColorMatrix in="SourceAlpha" type="matrix" values="0 0 0 0 0 0 0 0 0 0 0 0 0 0 0 0 0 0 127 0" result="hardAlpha"></feColorMatrix><feOffset dx="4" dy="4"></feOffset><feGaussianBlur stdDeviation="8"></feGaussianBlur><feComposite in2="hardAlpha" operator="out"></feComposite><feColorMatrix type="matrix" values="0 0 0 0 0.00013146 0 0 0 0 0.00013146 0 0 0 0 0.00013146 0 0 0 0.6 0"></feColorMatrix><feBlend mode="normal" in2="BackgroundImageFix" result="effect1_dropShadow_106_358"></feBlend><feBlend mode="normal" in="SourceGraphic" in2="effect1_dropShadow_106_358" result="shape"></feBlend></filter><filter id="filter3_d_106_358" x="526.5" y="263.77" width="819.319" height="174.29" filterUnits="userSpaceOnUse" color-interpolation-filters="sRGB"><feFlood flood-opacity="0" result="BackgroundImageFix"></feFlood><feColorMatrix in="SourceAlpha" type="matrix" values="0 0 0 0 0 0 0 0 0 0 0 0 0 0 0 0 0 0 127 0" result="hardAlpha"></feColorMatrix><feOffset dx="4" dy="4"></feOffset><feGaussianBlur stdDeviation="8"></feGaussianBlur><feComposite in2="hardAlpha" operator="out"></feComposite><feColorMatrix type="matrix" values="0 0 0 0 0.00013146 0 0 0 0 0.00013146 0 0 0 0 0.00013146 0 0 0 0.6 0"></feColorMatrix><feBlend mode="normal" in2="BackgroundImageFix" result="effect1_dropShadow_106_358"></feBlend><feBlend mode="normal" in="SourceGraphic" in2="effect1_dropShadow_106_358" result="shape"></feBlend></filter><clipPath id="clip0_106_358"><rect width="1340" height="564" fill="white"></rect></clipPath></defs></svg> 