<?xml version="1.0" encoding="UTF-8"?> <svg xmlns="http://www.w3.org/2000/svg" viewBox="0 0 1200 107.132568359375" fill="none"><path d="M4.977333887043189 108.11885382059799C5.530365448504983 101.34418604651162 6.498189368770764 85.72076411960133 6.498189368770764 58.48380398671096C6.498189368770764 34.28845514950166 5.392126245847176 16.867649501661127 4.700830564784053 8.98686877076412C4.424302325581396 6.498189368770764 0 4.424302325581396 0 4.424302325581396H52.26204318936877C66.50282392026578 4.424302325581396 76.73397009966777 2.626943521594684 76.73397009966777 2.626943521594684C76.73397009966777 2.626943521594684 75.07499999999999 9.401636212624584 74.24526578073089 14.932026578073089C73.41578073089701 21.98324750830565 73.27749169435215 34.15016611295681 73.27749169435215 34.15016611295681C73.27749169435215 34.15016611295681 67.60888704318937 8.98686877076412 51.29426910299003 8.98686877076412H21.291951827242524C20.600656146179404 16.729385382059803 19.63283222591362 33.597009966777414 19.494568106312293 56.409966777408634L40.37167774086379 56.27167774086379C52.12375415282392 55.995099667774085 54.75074750830565 48.80556478405315 54.75074750830565 48.80556478405315V68.71495016611296C54.75074750830565 68.71495016611296 51.709136212624585 61.525415282392025 40.50996677740864 61.11079734219269H19.494568106312293C19.63283222591362 86.68878737541529 20.73892026578073 102.17367109634552 21.291951827242524 108.81029900332226H51.43255813953488C67.60888704318937 108.67200996677741 73.27749169435215 83.23205980066446 73.27749169435215 83.23205980066446C73.27749169435215 83.23205980066446 73.41578073089701 95.53729235880398 74.24526578073089 102.45024916943521C75.07499999999999 107.98056478405316 76.73397009966777 114.89352159468439 76.73397009966777 114.89352159468439C76.73397009966777 114.89352159468439 66.50282392026578 113.09626245847176 52.26204318936877 113.09626245847176H0C0 113.09626245847176 4.424302325581396 110.60755813953487 4.977333887043189 108.11885382059799Z" fill="url(#paint0_linear_219_248)"></path><path d="M167.22906976744184 105.35357142857143C168.88828903654485 110.88413621262458 173.58911960132892 113.2345514950166 173.58911960132892 113.2345514950166H144.41636212624584C144.41636212624584 113.2345514950166 151.1910299003322 109.778073089701 151.1910299003322 105.35357142857143C151.1910299003322 96.09019933554816 147.04310631229237 79.77558139534884 142.20423588039867 58.622093023255815C136.9502491694352 35.67084717607973 132.52599667774086 20.185888704318934 130.037292358804 11.89031561461794L103.76810631229236 105.21553156146179C103.62981727574751 105.63014950166112 103.62981727574751 106.18330564784053 103.62981727574751 106.59792358803986C103.62981727574751 111.16046511627907 110.26619601328905 113.2345514950166 110.26619601328905 113.2345514950166H87.72981727574751C87.72981727574751 113.2345514950166 95.6107973421927 108.94833887043188 97.13147840531562 104.52408637873754C100.31162790697674 95.67558139534884 105.98023255813953 79.63754152823921 112.20174418604651 58.20722591362126C119.39127906976744 33.320431893687704 124.6452657807309 16.452882059800665 124.6452657807309 10.092931893687709C124.6452657807309 6.6364534883720925 119.25299003322259 4.424302325581396 119.25299003322259 4.424302325581396H151.46760797342193C151.46760797342193 4.424302325581396 145.79875415282393 5.806893687707641 145.79875415282393 10.645988372093024C145.79875415282393 10.922491694352159 145.93704318936875 11.199019933554817 145.93704318936875 11.613787375415281C147.1813953488372 19.771096345514948 149.80838870431893 35.11794019933555 155.20041528239202 58.622093023255815C160.03953488372093 80.1904485049834 164.60207641196013 96.50506644518272 167.22906976744184 105.35357142857143Z" fill="url(#paint1_linear_219_248)"></path><path d="M191.03347176079734 108.11885382059799C191.58662790697673 101.34418604651162 192.55440199335547 85.72076411960133 192.55440199335547 58.48380398671096C192.55440199335547 34.28845514950166 191.44833887043188 16.867649501661127 190.75689368770765 8.98686877076412C190.48031561461795 6.498189368770764 186.0560631229236 4.424302325581396 186.0560631229236 4.424302325581396H238.31810631229237C252.5581395348837 4.424302325581396 262.7890365448505 2.626943521594684 262.7890365448505 2.626943521594684C262.7890365448505 2.626943521594684 261.1320598006644 9.401636212624584 260.30232558139534 14.932026578073089C259.4725913621262 21.98324750830565 259.3330564784053 34.15016611295681 259.3330564784053 34.15016611295681C259.3330564784053 34.15016611295681 253.66445182724252 8.98686877076412 237.35033222591363 8.98686877076412H207.3480897009967C206.65689368770765 16.729385382059803 205.6888704318937 33.597009966777414 205.55083056478404 56.409966777408634L226.42799003322258 56.27167774086379C238.1798172757475 55.995099667774085 240.80681063122924 48.80556478405315 240.80681063122924 48.80556478405315V68.71495016611296C240.80681063122924 68.71495016611296 237.76519933554817 61.525415282392025 226.5660299003322 61.11079734219269H205.55083056478404C205.6888704318937 86.68878737541529 206.79493355481728 102.17367109634552 207.3480897009967 108.81029900332226H237.48862126245845C253.66445182724252 108.67200996677741 259.3330564784053 83.23205980066446 259.3330564784053 83.23205980066446C259.3330564784053 83.23205980066446 259.4725913621262 95.53729235880398 260.30232558139534 102.45024916943521C261.1320598006644 107.98056478405316 262.7890365448505 114.89352159468439 262.7890365448505 114.89352159468439C262.7890365448505 114.89352159468439 252.5581395348837 113.09626245847176 238.31810631229237 113.09626245847176H186.0560631229236C186.0560631229236 113.09626245847176 190.48031561461795 110.60755813953487 191.03347176079734 108.11885382059799Z" fill="url(#paint2_linear_219_248)"></path><path d="M281.80564784053155 105.35357142857143C282.49584717607974 97.05822259136212 283.3255813953488 81.84966777408638 283.3255813953488 58.76038205980066C283.3255813953488 37.05348837209302 282.49584717607974 20.600656146179404 281.80564784053155 11.89031561461794C281.3895348837209 6.083421926910299 275.3073089700997 4.424302325581396 275.3073089700997 4.424302325581396H304.34053156146183C303.09717607973425 4.8390946843853815 298.39534883720927 7.189485049833887 297.8421926910299 11.89031561461794C296.7358803986711 21.430215946843855 296.3222591362126 36.08571428571429 296.3222591362126 56.409966777408634C297.1519933554817 56.409966777408634 310.83887043189367 56.824584717607976 321.3463455149502 56.824584717607976C331.7167774086379 56.824584717607976 346.09634551495014 56.409966777408634 346.50996677740864 56.409966777408634C346.50996677740864 35.80913621262459 345.40365448504986 20.32412790697674 344.8504983388704 11.89031561461794C344.4368770764119 6.083421926910299 338.49169435215947 4.424302325581396 338.49169435215947 4.424302325581396L367.5249169435216 4.286038205980066C366.6951827242525 4.977333887043189 361.4426910299003 8.710340531561462 361.0265780730897 11.89031561461794C360.0598006644518 19.218064784053155 359.3696013289036 31.799750830564786 359.3696013289036 48.25265780730897C359.3696013289036 51.57084717607973 359.5066445182724 55.1656146179402 359.5066445182724 58.76038205980066C359.9227574750831 81.71137873754152 359.7832225913621 95.26071428571429 361.16611295681065 105.49186046511629C361.71926910299004 110.05440199335548 367.5249169435216 113.2345514950166 367.5249169435216 113.2345514950166H338.49169435215947C338.49169435215947 113.2345514950166 344.57392026578077 111.16046511627907 344.99003322259136 105.35357142857143C345.54318936877075 97.33455149501661 346.50996677740864 82.95573089700996 346.50996677740864 61.11079734219269C346.37292358803984 61.11079734219269 330.8870431893688 60.69593023255813 321.20930232558135 60.69593023255813C311.11544850498336 60.69593023255813 297.1519933554817 61.11079734219269 296.3222591362126 61.11079734219269C296.3222591362126 82.67915282392026 297.98172757475083 105.21553156146179 297.98172757475083 105.21553156146179C298.39534883720927 109.778073089701 304.48006644518273 113.2345514950166 304.48006644518273 113.2345514950166H275.1677740863787C275.1677740863787 113.2345514950166 281.3895348837209 111.16046511627907 281.80564784053155 105.35357142857143Z" fill="url(#paint3_linear_219_248)"></path><path d="M408.00996677740864 56.409966777408634H432.34385382059804C427.22840531561457 34.28845514950166 422.94269102990035 19.356328903654486 420.5905315614618 11.475523255813954L408.00996677740864 56.409966777408634ZM378.56063122923587 113.09626245847176C378.56063122923587 113.09626245847176 385.74916943521595 109.63978405315615 387.68521594684387 104.52408637873754C397.50249169435216 78.11661129568105 406.62707641196016 45.76395348837209 415.0614617940199 9.125132890365448C415.0614617940199 9.125132890365448 415.0614617940199 8.98686877076412 415.0614617940199 8.848604651162791C415.0614617940199 6.774717607973422 410.0830564784053 4.424302325581396 410.0830564784053 4.424302325581396H442.1611295681063C442.1611295681063 4.424302325581396 436.62956810631226 5.94515780730897 436.62956810631226 10.784227574750831C436.62956810631226 11.060755813953488 436.7691029900332 11.337284053156147 436.7691029900332 11.752051495016612C438.0124584717608 19.90936046511628 440.5016611295681 35.2562292358804 445.89368770764116 58.76038205980066C450.7325581395349 80.32873754152824 455.4318936877076 96.64335548172758 458.06063122923587 105.49186046511629C459.7200996677741 111.02242524916943 464.28239202657807 113.09626245847176 464.28239202657807 113.09626245847176H435.109634551495C435.109634551495 113.09626245847176 441.88455149501664 109.91636212624584 441.88455149501664 105.49186046511629C441.88455149501664 96.64335548172758 437.87292358803984 81.01993355481729 433.45016611295677 60.97250830564784H406.62707641196016L394.32308970099666 105.07724252491694C394.18355481727576 105.49186046511629 394.18355481727576 106.04501661129568 394.18355481727576 106.45963455149501C394.18355481727576 111.02242524916943 400.95847176079735 113.09626245847176 400.95847176079735 113.09626245847176H378.56063122923587Z" fill="url(#paint4_linear_219_248)"></path><path d="M540.4634551495017 12.719875415282392C539.6337209302326 19.63283222591362 539.4941860465117 33.04410299003322 539.4941860465117 47.83779069767442L575.9950166112957 11.337284053156147C576.9642857142858 10.092931893687709 577.3779069767442 8.98686877076412 577.3779069767442 8.157308970099667C577.3779069767442 5.668629568106312 574.6121262458472 4.424302325581396 574.6121262458472 4.424302325581396H597.702657807309C597.702657807309 4.424302325581396 591.0647840531561 6.498189368770764 583.1835548172758 13.82593853820598L543.3662790697674 53.782973421926904C543.3662790697674 53.782973421926904 580.0041528239202 90.69817275747508 592.3106312292358 102.86511627906977C599.9152823920265 110.33098006644518 608.2101328903653 113.09626245847176 608.2101328903653 113.09626245847176H575.8579734219269C575.8579734219269 113.09626245847176 581.1104651162791 111.29875415282392 581.1104651162791 108.25714285714285C581.1104651162791 107.42765780730896 580.6968438538206 106.45988372093024 579.7275747508305 105.49186046511629L539.4941860465117 65.25847176079733C539.6337209302326 83.3703488372093 540.3239202657808 96.09019933554816 540.87707641196 103.8328903654485C541.2931893687708 108.53372093023255 547.7915282392026 113.09626245847176 547.7915282392026 113.09626245847176H518.3421926910299C518.3421926910299 113.09626245847176 524.5639534883721 110.33098006644518 525.1146179401993 104.6623754152824C525.8073089700996 96.22848837209303 526.4975083056479 81.15822259136212 526.4975083056479 58.622093023255815C526.4975083056479 37.33006644518272 525.6677740863787 21.291951827242524 524.9775747508305 12.443347176079735C524.4244186046511 6.912981727574751 518.2026578073089 4.424302325581396 518.2026578073089 4.424302325581396H547.2383720930233C547.2383720930233 4.424302325581396 541.0166112956811 8.01904485049834 540.4634551495017 12.719875415282392Z" fill="url(#paint5_linear_219_248)"></path><path d="M627.3189368770763 105.07724252491694C628.0091362126245 96.78164451827242 628.7018272425249 81.57308970099668 628.7018272425249 58.48380398671096C628.7018272425249 36.776910299003326 627.8720930232558 20.462392026578073 627.1794019933554 11.752051495016612C626.7657807308971 5.94515780730897 620.8205980066444 4.424302325581396 620.8205980066444 4.424302325581396H649.5772425249169C649.5772425249169 4.424302325581396 643.6320598006645 7.189485049833887 643.3554817275748 11.752051495016612H643.2184385382059C642.5282392026578 20.600656146179404 641.6985049833887 37.05348837209302 641.6985049833887 58.48380398671096C641.6985049833887 78.11661129568105 642.3887043189368 92.08081395348837 642.9418604651163 100.92931893687707C648.6104651162791 91.38936877076412 656.7682724252492 76.45739202657806 666.0323920265781 57.37774086378737C681.9318936877077 24.471926910299004 689.673588039867 6.2216860465116275 689.673588039867 4.562566445182724C689.673588039867 4.562566445182724 689.673588039867 4.562566445182724 689.673588039867 4.424302325581396H712.7641196013288C712.7641196013288 4.424302325581396 707.232558139535 7.466013289036544 706.4028239202659 12.028579734219269C705.5730897009967 16.452882059800665 704.8828903654485 32.07607973421927 704.8828903654485 50.049916943521595V58.48380398671096C705.1594684385382 81.43480066445183 706.265780730897 105.07724252491694 706.265780730897 105.07724252491694C706.6794019933554 109.63978405315615 712.7641196013288 113.09626245847176 712.7641196013288 113.09626245847176H683.8679401993355C683.8679401993355 113.09626245847176 689.9501661129568 110.88413621262458 690.3637873754152 105.07724252491694C691.0564784053156 96.78164451827242 691.8862126245847 81.57308970099668 691.8862126245847 58.48380398671096C691.8862126245847 40.0953488372093 691.1935215946843 25.57799003322259 690.640365448505 16.176353820598006L643.9086378737541 113.09626245847176V113.2345514950166L620.6810631229235 113.09626245847176C620.6810631229235 113.09626245847176 626.9028239202657 110.88413621262458 627.3189368770763 105.07724252491694Z" fill="url(#paint6_linear_219_248)"></path><path d="M739.2882059800664 40.0953488372093C738.735049833887 44.6578903654485 738.3214285714286 49.082142857142856 738.3214285714286 53.50639534883721C738.3214285714286 58.06893687707641 738.7375415282393 62.493189368770764 739.704318936877 67.19401993355483C741.500830564784 75.62790697674419 745.9260797342192 85.0295681063123 749.3820598006645 90.42159468438538C756.8471760797343 101.8970930232558 769.7068106312292 108.94833887043188 783.6702657807309 108.94833887043188C786.5730897009967 108.94833887043188 789.6154485049833 108.67200996677741 792.6578073089701 107.98056478405316C805.2383720930233 105.21553156146179 815.1926910299003 97.05822259136212 820.5847176079734 86.41220930232558L817.5448504983389 104.38579734219269C816.8521594684386 104.10946843853822 815.46926910299 104.52408637873754 814.3629568106312 105.35357142857143C808.4177740863787 109.5014950166113 801.5058139534883 112.54310631229235 793.9011627906976 114.20232558139534C789.7549833887043 115.03181063122923 785.6063122923588 115.58496677740862 781.5971760797341 115.58496677740862C755.0506644518272 115.58496677740862 731.1328903654486 97.05822259136212 725.187707641196 70.09759136212624C724.3579734219269 65.94966777408638 723.8048172757475 61.80199335548173 723.8048172757475 57.79235880398671C723.8048172757475 31.246594684385382 742.3305647840531 7.327749169435216 769.2906976744187 1.3826013289036545C773.4393687707642 0.4147823920265781 777.7250830564784 0 781.873754152824 0C789.4784053156146 0 796.9435215946844 1.520857973421927 803.718438538206 4.424302325581396C804.2715946843854 4.700830564784053 806.8978405315614 4.147799003322259 807.313953488372 3.0417109634551496L812.2898671096344 22.67454318936877C804.5481727574751 12.85813953488372 792.5182724252492 6.774717607973422 779.6611295681063 6.774717607973422C776.7583056478405 6.774717607973422 773.8529900332226 7.051245847176079 770.9501661129568 7.742541528239203C754.4975083056479 11.337284053156147 741.3637873754153 24.333662790697673 739.2882059800664 40.0953488372093Z" fill="url(#paint7_linear_219_248)"></path><path d="M901.4626245847176 105.35357142857143C903.1220930232558 110.88413621262458 907.8214285714286 113.2345514950166 907.8214285714286 113.2345514950166H878.6486710963455C878.6486710963455 113.2345514950166 885.4235880398671 109.778073089701 885.4235880398671 105.35357142857143C885.4235880398671 96.09019933554816 881.2774086378738 79.77558139534884 876.4360465116279 58.622093023255815C871.1835548172758 35.67084717607973 866.7583056478405 20.185888704318934 864.2715946843854 11.89031561461794L838.001661129568 105.21553156146179C837.8621262458471 105.63014950166112 837.8621262458471 106.18330564784053 837.8621262458471 106.59792358803986C837.8621262458471 111.16046511627907 844.5 113.2345514950166 844.5 113.2345514950166H821.9626245847176C821.9626245847176 113.2345514950166 829.843853820598 108.94833887043188 831.3637873754152 104.52408637873754C834.5456810631229 95.67558139534884 840.2142857142857 79.63754152823921 846.436046511628 58.20722591362126C853.624584717608 33.320431893687704 858.8795681063123 16.452882059800665 858.8795681063123 10.092931893687709C858.8795681063123 6.6364534883720925 853.485049833887 4.424302325581396 853.485049833887 4.424302325581396H885.7001661129568C885.7001661129568 4.424302325581396 880.031561461794 5.806893687707641 880.031561461794 10.645988372093024C880.031561461794 10.922491694352159 880.1710963455149 11.199019933554817 880.1710963455149 11.613787375415281C881.4144518272425 19.771096345514948 884.0406976744185 35.11794019933555 889.4327242524918 58.622093023255815C894.2715946843854 80.1904485049834 898.8363787375415 96.50506644518272 901.4626245847176 105.35357142857143Z" fill="url(#paint8_linear_219_248)"></path><path d="M924.3936877076412 40.23338870431893C923.703488372093 43.828156146179396 923.2873754152823 47.97607973421927 923.2873754152823 52.40033222591362C923.2873754152823 57.37774086378737 923.8405315614617 62.493189368770764 924.8098006644518 67.33230897009966C926.6063122923588 75.76619601328903 931.1686046511628 85.16785714285714 934.4875415282391 90.42159468438538C941.3995016611295 101.20589700996678 955.0863787375415 108.94833887043188 969.4659468438538 108.94833887043188C972.2317275747507 108.94833887043188 974.9975083056478 108.67200996677741 977.7607973421926 108.11885382059799C994.7691029900333 104.38579734219269 1007.2101328903655 89.8686877076412 1009.562292358804 74.38355481727575C1010.1154485049833 71.34194352159469 1010.3920265780731 67.05573089700997 1010.3920265780731 62.63147840531561C1010.3920265780731 58.20722591362126 1009.9759136212624 53.368106312292355 1009.1461794019933 49.22043189368771C1007.2101328903655 40.0953488372093 1003.4775747508305 30.831976744186047 998.3621262458472 24.195398671096346C990.6204318936877 14.240730897009966 977.9003322259135 7.189485049833887 964.3504983388705 7.189485049833887C961.5847176079734 7.189485049833887 958.8214285714286 7.466013289036544 956.0556478405315 8.01904485049834C939.6029900332226 11.613787375415281 927.296511627907 25.71627906976744 924.3936877076412 40.23338870431893ZM910.2906976744187 70.2358803986711C909.4609634551495 66.50282392026578 909.1843853820598 62.63147840531561 909.1843853820598 59.03671096345515C909.1843853820598 30.693687707641196 931.1686046511628 6.6364534883720925 954.2566445182724 1.6591171096345516C958.405315614618 0.6913056478405315 962.4144518272425 0.2765232558139535 966.563122923588 0.2765232558139535C993.109634551495 0.2765232558139535 1017.1669435215947 18.66503322259136 1022.9725913621262 45.62566445182724C1023.9393687707641 49.77333887043189 1024.3554817275747 53.92126245847176 1024.3554817275747 57.93064784053156C1024.3554817275747 84.47641196013288 1005.9667774086379 108.3954318936877 979.0066445182724 114.20232558139534C974.1677740863787 115.30838870431894 969.4659468438538 115.72325581395349 964.766611295681 115.72325581395349C939.0498338870431 115.72325581395349 916.3754152823919 100.09983388704319 910.2906976744187 70.2358803986711Z" fill="url(#paint9_linear_219_248)"></path><path d="M1040.5764119601329 9.125132890365448C1040.1602990033223 6.912981727574751 1035.4609634551493 4.424302325581396 1035.4609634551493 4.424302325581396H1045.5523255813953L1072.5149501661128 4.147799003322259C1087.861295681063 4.147799003322259 1100.3048172757476 16.729385382059803 1100.3048172757476 32.07607973421927C1100.3048172757476 42.169186046511626 1094.9127906976744 51.017691029900334 1086.7549833887044 55.85681063122924C1101.4111295681062 57.239451827242526 1112.8853820598006 69.54443521594685 1112.8853820598006 84.47641196013288C1112.8853820598006 100.37641196013288 1100.0282392026577 113.09626245847176 1084.1287375415284 113.09626245847176H1035.5980066445181C1035.5980066445181 113.09626245847176 1040.1602990033223 110.60755813953487 1040.436877076412 108.25714285714285C1041.1295681063123 100.92931893687707 1042.0963455149501 85.0295681063123 1042.0963455149501 58.898421926910295C1042.0963455149501 32.90581395348838 1041.8197674418604 16.176353820598006 1040.5764119601329 9.125132890365448ZM1101.4111295681062 84.47641196013288C1101.4111295681062 72.17142857142858 1091.7308970099666 60.97250830564784 1079.4269102990033 60.41935215946844C1075.6943521594683 60.281063122923584 1070.578903654485 60.142774086378736 1065.4634551495017 60.142774086378736C1061.8679401993356 60.142774086378736 1058.2724252491694 60.281063122923584 1055.093023255814 60.281063122923584C1055.093023255814 84.61470099667774 1056.062292358804 99.96154485049833 1056.7524916943523 107.42765780730896C1064.0805647840532 107.98056478405316 1072.7915282392028 108.67200996677741 1078.873754152824 108.67200996677741C1091.1802325581396 108.67200996677741 1101.4111295681062 96.78164451827242 1101.4111295681062 84.47641196013288ZM1068.2267441860463 8.848604651162791H1065.3239202657808C1062.5581395348836 8.848604651162791 1059.6553156146178 8.98686877076412 1056.889534883721 9.125132890365448C1056.3388704318936 16.591121262458472 1055.2325581395348 33.04410299003322 1055.093023255814 55.44194352159469H1067.5365448504983C1079.4269102990033 55.44194352159469 1089.2441860465117 43.96644518272425 1089.2441860465117 32.07607973421927C1089.2441860465117 20.185888704318934 1079.9800664451827 9.401636212624584 1068.2267441860463 8.848604651162791Z" fill="url(#paint10_linear_219_248)"></path><path d="M1143.7275747508304 56.409966777408634H1168.0614617940198C1162.9460132890365 34.28845514950166 1158.6602990033223 19.356328903654486 1156.310631229236 11.475523255813954L1143.7275747508304 56.409966777408634ZM1114.278239202658 113.09626245847176C1114.278239202658 113.09626245847176 1121.46926910299 109.63978405315615 1123.405315614618 104.52408637873754C1133.220099667774 78.11661129568105 1142.344684385382 45.76395348837209 1150.7790697674418 9.125132890365448C1150.7790697674418 9.125132890365448 1150.7790697674418 8.98686877076412 1150.7790697674418 8.848604651162791C1150.7790697674418 6.774717607973422 1145.8031561461794 4.424302325581396 1145.8031561461794 4.424302325581396H1177.8787375415284C1177.8787375415284 4.424302325581396 1172.3471760797343 5.94515780730897 1172.3471760797343 10.784227574750831C1172.3471760797343 11.060755813953488 1172.4867109634552 11.337284053156147 1172.4867109634552 11.752051495016612C1173.7300664451827 19.90936046511628 1176.2192691029902 35.2562292358804 1181.611295681063 58.76038205980066C1186.4501661129568 80.32873754152824 1191.1519933554816 96.64335548172758 1193.7782392026577 105.49186046511629C1195.4377076411959 111.02242524916943 1200 113.09626245847176 1200 113.09626245847176H1170.827242524917C1170.827242524917 113.09626245847176 1177.6021594684385 109.91636212624584 1177.6021594684385 105.49186046511629C1177.6021594684385 96.64335548172758 1173.593023255814 81.01993355481729 1169.1677740863788 60.97250830564784H1142.344684385382L1130.0406976744184 105.07724252491694C1129.9011627906978 105.49186046511629 1129.9036544850499 106.04501661129568 1129.9036544850499 106.45963455149501C1129.9036544850499 111.02242524916943 1136.6760797342192 113.09626245847176 1136.6760797342192 113.09626245847176H1114.278239202658Z" fill="url(#paint11_linear_219_248)"></path><defs><linearGradient id="paint0_linear_219_248" x1="0" y1="232.218" x2="4816" y2="232.218" gradientUnits="userSpaceOnUse"><stop offset="1" stop-color="#C566C5"></stop><stop offset="1" stop-color="#AD55AD"></stop></linearGradient><linearGradient id="paint1_linear_219_248" x1="0" y1="232.218" x2="4816" y2="232.218" gradientUnits="userSpaceOnUse"><stop offset="1" stop-color="#C566C5"></stop><stop offset="1" stop-color="#AD55AD"></stop></linearGradient><linearGradient id="paint2_linear_219_248" x1="0" y1="232.218" x2="4816" y2="232.218" gradientUnits="userSpaceOnUse"><stop offset="1" stop-color="#C566C5"></stop><stop offset="1" stop-color="#AD55AD"></stop></linearGradient><linearGradient id="paint3_linear_219_248" x1="0" y1="232.218" x2="4816" y2="232.218" gradientUnits="userSpaceOnUse"><stop offset="1" stop-color="#C566C5"></stop><stop offset="1" stop-color="#AD55AD"></stop></linearGradient><linearGradient id="paint4_linear_219_248" x1="0" y1="232.218" x2="4816" y2="232.218" gradientUnits="userSpaceOnUse"><stop offset="1" stop-color="#C566C5"></stop><stop offset="1" stop-color="#AD55AD"></stop></linearGradient><linearGradient id="paint5_linear_219_248" x1="0" y1="232.218" x2="4816" y2="232.218" gradientUnits="userSpaceOnUse"><stop offset="1" stop-color="#C566C5"></stop><stop offset="1" stop-color="#AD55AD"></stop></linearGradient><linearGradient id="paint6_linear_219_248" x1="0" y1="232.218" x2="4816" y2="232.218" gradientUnits="userSpaceOnUse"><stop offset="1" stop-color="#C566C5"></stop><stop offset="1" stop-color="#AD55AD"></stop></linearGradient><linearGradient id="paint7_linear_219_248" x1="0" y1="232.218" x2="4816" y2="232.218" gradientUnits="userSpaceOnUse"><stop offset="1" stop-color="#C566C5"></stop><stop offset="1" stop-color="#AD55AD"></stop></linearGradient><linearGradient id="paint8_linear_219_248" x1="0" y1="232.218" x2="4816" y2="232.218" gradientUnits="userSpaceOnUse"><stop offset="1" stop-color="#C566C5"></stop><stop offset="1" stop-color="#AD55AD"></stop></linearGradient><linearGradient id="paint9_linear_219_248" x1="0" y1="232.218" x2="4816" y2="232.218" gradientUnits="userSpaceOnUse"><stop offset="1" stop-color="#C566C5"></stop><stop offset="1" stop-color="#AD55AD"></stop></linearGradient><linearGradient id="paint10_linear_219_248" x1="0" y1="232.218" x2="4816" y2="232.218" gradientUnits="userSpaceOnUse"><stop offset="1" stop-color="#C566C5"></stop><stop offset="1" stop-color="#AD55AD"></stop></linearGradient><linearGradient id="paint11_linear_219_248" x1="0" y1="232.218" x2="4816" y2="232.218" gradientUnits="userSpaceOnUse"><stop offset="1" stop-color="#C566C5"></stop><stop offset="1" stop-color="#AD55AD"></stop></linearGradient></defs></svg> 