<svg width="258" height="258" viewBox="0 0 258 258" fill="none" xmlns="http://www.w3.org/2000/svg">
<g clip-path="url(#clip0_2094_274)">
<path d="M205.09 258H52.9102C23.7355 258 0 234.265 0 205.09V52.9102C0 23.7355 23.7355 0 52.9102 0H205.09C234.265 0 258 23.7355 258 52.9102V205.09C258 234.265 234.265 258 205.09 258Z" fill="white"/>
<path d="M205.09 0H129V258H205.09C234.265 258 258 234.265 258 205.09V52.9102C258 23.7355 234.265 0 205.09 0Z" fill="#F2F2F2"/>
<path d="M129 53.4141C81.6893 53.4141 43.3359 84.9989 43.3359 123.961C43.3359 146.473 56.1402 166.521 76.0777 179.438L71.5547 206.602L102.125 190.962C110.578 193.26 119.612 194.508 129 194.508C176.311 194.508 214.664 162.923 214.664 123.961C214.664 84.9989 176.311 53.4141 129 53.4141Z" fill="#DD8DDD"/>
<path d="M129 53.4141V194.508C176.311 194.508 214.664 162.923 214.664 123.961C214.664 84.9989 176.311 53.4141 129 53.4141Z" fill="#DA7EDA"/>
</g>
<defs>
<clipPath id="clip0_2094_274">
<rect width="258" height="258" fill="white"/>
</clipPath>
</defs>
</svg>
