<svg width="500" height="500" viewBox="0 0 500 500" fill="none" xmlns="http://www.w3.org/2000/svg">
<g clip-path="url(#clip0_167_249)">
<rect width="500" height="500" rx="12" fill="url(#paint0_linear_167_249)"/>
<mask id="path-2-outside-1_167_249" maskUnits="userSpaceOnUse" x="222" y="170" width="262" height="317" fill="black">
<rect fill="white" x="222" y="170" width="262" height="317"/>
<path d="M287.658 195.2C285.258 215.2 284.858 254 284.858 296.8L390.458 191.2C393.258 187.6 394.458 184.4 394.458 182C394.458 174.8 386.458 171.2 386.458 171.2H453.258C453.258 171.2 434.058 177.2 411.258 198.4L296.058 314C296.058 314 402.058 420.8 437.658 456C459.658 477.6 483.658 485.6 483.658 485.6H390.058C390.058 485.6 405.258 480.4 405.258 471.6C405.258 469.2 404.058 466.4 401.258 463.6L284.858 347.2C285.258 399.6 287.258 436.4 288.858 458.8C290.058 472.4 308.858 485.6 308.858 485.6H223.658C223.658 485.6 241.658 477.6 243.258 461.2C245.258 436.8 247.258 393.2 247.258 328C247.258 266.4 244.858 220 242.858 194.4C241.258 178.4 223.258 171.2 223.258 171.2H307.258C307.258 171.2 289.258 181.6 287.658 195.2Z"/>
</mask>
<path d="M287.658 195.2C285.258 215.2 284.858 254 284.858 296.8L390.458 191.2C393.258 187.6 394.458 184.4 394.458 182C394.458 174.8 386.458 171.2 386.458 171.2H453.258C453.258 171.2 434.058 177.2 411.258 198.4L296.058 314C296.058 314 402.058 420.8 437.658 456C459.658 477.6 483.658 485.6 483.658 485.6H390.058C390.058 485.6 405.258 480.4 405.258 471.6C405.258 469.2 404.058 466.4 401.258 463.6L284.858 347.2C285.258 399.6 287.258 436.4 288.858 458.8C290.058 472.4 308.858 485.6 308.858 485.6H223.658C223.658 485.6 241.658 477.6 243.258 461.2C245.258 436.8 247.258 393.2 247.258 328C247.258 266.4 244.858 220 242.858 194.4C241.258 178.4 223.258 171.2 223.258 171.2H307.258C307.258 171.2 289.258 181.6 287.658 195.2Z" fill="#131213"/>
<path d="M287.658 195.2L288.651 195.319L288.651 195.317L287.658 195.2ZM284.858 296.8H283.858V299.214L285.565 297.507L284.858 296.8ZM390.458 191.2L391.165 191.907L391.209 191.863L391.247 191.814L390.458 191.2ZM386.458 171.2V170.2L386.047 172.112L386.458 171.2ZM453.258 171.2L453.556 172.154L453.258 170.2V171.2ZM411.258 198.4L410.577 197.668L410.563 197.681L410.549 197.694L411.258 198.4ZM296.058 314L295.349 313.294L294.647 313.999L295.348 314.704L296.058 314ZM437.658 456L436.955 456.711L436.957 456.714L437.658 456ZM483.658 485.6V486.6L483.974 484.651L483.658 485.6ZM390.058 485.6L389.734 484.654L390.058 486.6V485.6ZM401.258 463.6L401.965 462.893L401.965 462.893L401.258 463.6ZM284.858 347.2L285.565 346.493L283.839 344.767L283.858 347.208L284.858 347.2ZM288.858 458.8L287.86 458.871L287.861 458.88L287.862 458.888L288.858 458.8ZM308.858 485.6V486.6H312.022L309.432 484.782L308.858 485.6ZM223.658 485.6L223.252 484.686L223.658 486.6V485.6ZM243.258 461.2L244.253 461.297L244.254 461.289L244.254 461.282L243.258 461.2ZM242.858 194.4L243.855 194.322L243.854 194.311L243.853 194.3L242.858 194.4ZM223.258 171.2V170.2L222.886 172.128L223.258 171.2ZM307.258 171.2L307.758 172.066L310.987 170.2H307.258V171.2ZM287.658 195.2L286.665 195.081C284.256 215.154 283.858 254.025 283.858 296.8H284.858H285.858C285.858 253.975 286.259 215.246 288.651 195.319L287.658 195.2ZM284.858 296.8L285.565 297.507L391.165 191.907L390.458 191.2L389.751 190.493L284.151 296.093L284.858 296.8ZM390.458 191.2L391.247 191.814C394.121 188.12 395.458 184.707 395.458 182H394.458H393.458C393.458 184.093 392.395 187.08 389.668 190.586L390.458 191.2ZM394.458 182H395.458C395.458 178.001 393.233 175.052 391.127 173.157C390.067 172.203 389.012 171.491 388.222 171.017C387.826 170.78 387.495 170.601 387.259 170.479C387.141 170.419 387.047 170.373 386.98 170.341C386.947 170.325 386.921 170.312 386.902 170.304C386.893 170.299 386.885 170.296 386.879 170.293C386.877 170.292 386.874 170.291 386.872 170.29C386.871 170.29 386.871 170.289 386.87 170.289C386.87 170.289 386.869 170.288 386.869 170.288C386.869 170.288 386.868 170.288 386.458 171.2C386.047 172.112 386.047 172.112 386.047 172.112C386.047 172.112 386.047 172.112 386.046 172.111C386.046 172.111 386.046 172.111 386.046 172.111C386.046 172.111 386.047 172.112 386.048 172.112C386.05 172.113 386.054 172.115 386.059 172.117C386.071 172.123 386.09 172.131 386.115 172.144C386.166 172.168 386.243 172.206 386.344 172.258C386.546 172.362 386.839 172.52 387.193 172.732C387.904 173.159 388.848 173.797 389.789 174.643C391.683 176.348 393.458 178.799 393.458 182H394.458ZM386.458 171.2V172.2H453.258V171.2V170.2H386.458V171.2ZM453.258 171.2C452.96 170.245 452.959 170.246 452.959 170.246C452.958 170.246 452.958 170.246 452.957 170.246C452.956 170.246 452.955 170.247 452.954 170.247C452.95 170.248 452.946 170.25 452.941 170.252C452.93 170.255 452.914 170.26 452.894 170.267C452.853 170.28 452.795 170.299 452.718 170.325C452.565 170.376 452.341 170.453 452.049 170.559C451.465 170.769 450.612 171.092 449.519 171.545C447.333 172.451 444.189 173.878 440.331 175.971C432.616 180.156 422.045 187.004 410.577 197.668L411.258 198.4L411.939 199.132C423.27 188.596 433.7 181.844 441.285 177.729C445.077 175.672 448.158 174.274 450.284 173.393C451.348 172.952 452.172 172.64 452.728 172.44C453.005 172.34 453.216 172.267 453.355 172.22C453.425 172.197 453.477 172.18 453.51 172.169C453.527 172.164 453.539 172.16 453.547 172.157C453.551 172.156 453.554 172.155 453.555 172.155C453.556 172.155 453.556 172.154 453.556 172.154C453.557 172.154 453.556 172.154 453.556 172.154C453.556 172.154 453.556 172.154 453.258 171.2ZM411.258 198.4L410.549 197.694L295.349 313.294L296.058 314L296.766 314.706L411.966 199.106L411.258 198.4ZM296.058 314C295.348 314.704 295.348 314.705 295.349 314.706C295.35 314.706 295.351 314.708 295.353 314.709C295.356 314.713 295.361 314.717 295.367 314.724C295.38 314.737 295.399 314.756 295.425 314.782C295.476 314.833 295.552 314.91 295.653 315.012C295.855 315.215 296.155 315.517 296.547 315.913C297.332 316.703 298.488 317.868 299.972 319.362C302.94 322.352 307.22 326.661 312.467 331.942C322.961 342.505 337.324 356.955 352.799 372.505C383.748 403.605 419.151 439.108 436.955 456.711L437.658 456L438.361 455.289C420.564 437.692 385.167 402.195 354.217 371.095C338.742 355.545 324.38 341.095 313.886 330.533C308.639 325.252 304.36 320.942 301.392 317.953C299.908 316.459 298.752 315.294 297.967 314.503C297.574 314.108 297.274 313.806 297.073 313.603C296.972 313.501 296.896 313.425 296.845 313.373C296.819 313.347 296.8 313.328 296.787 313.315C296.78 313.309 296.776 313.304 296.772 313.3C296.771 313.299 296.77 313.298 296.769 313.297C296.768 313.296 296.768 313.296 296.058 314ZM437.658 456L436.957 456.714C448.041 467.596 459.624 475.048 468.435 479.781C472.841 482.148 476.558 483.836 479.177 484.935C480.487 485.484 481.523 485.886 482.234 486.151C482.589 486.284 482.864 486.382 483.05 486.448C483.144 486.481 483.215 486.506 483.264 486.522C483.288 486.531 483.307 486.537 483.32 486.541C483.327 486.544 483.332 486.545 483.335 486.547C483.337 486.547 483.338 486.548 483.34 486.548C483.34 486.548 483.341 486.548 483.341 486.548C483.341 486.549 483.342 486.549 483.658 485.6C483.974 484.651 483.974 484.651 483.974 484.651C483.974 484.651 483.974 484.651 483.974 484.651C483.974 484.651 483.973 484.651 483.972 484.651C483.969 484.65 483.966 484.649 483.961 484.647C483.95 484.643 483.934 484.638 483.913 484.63C483.869 484.616 483.803 484.593 483.715 484.562C483.54 484.5 483.277 484.405 482.933 484.277C482.246 484.021 481.235 483.629 479.951 483.09C477.383 482.014 473.724 480.352 469.381 478.019C460.692 473.352 449.275 466.004 438.358 455.286L437.658 456ZM483.658 485.6V484.6H390.058V485.6V486.6H483.658V485.6ZM390.058 485.6C390.382 486.546 390.382 486.546 390.382 486.546C390.382 486.546 390.383 486.546 390.383 486.546C390.384 486.545 390.385 486.545 390.386 486.545C390.389 486.544 390.392 486.543 390.396 486.541C390.405 486.538 390.417 486.534 390.433 486.528C390.464 486.517 390.51 486.501 390.568 486.48C390.685 486.438 390.855 486.375 391.069 486.293C391.497 486.129 392.106 485.885 392.834 485.566C394.289 484.928 396.237 483.98 398.192 482.745C400.141 481.515 402.136 479.974 403.654 478.137C405.174 476.296 406.258 474.104 406.258 471.6H405.258H404.258C404.258 473.496 403.441 475.254 402.112 476.863C400.779 478.476 398.975 479.885 397.124 481.055C395.279 482.22 393.426 483.122 392.031 483.734C391.335 484.04 390.756 484.271 390.353 484.426C390.151 484.503 389.994 484.561 389.889 484.599C389.836 484.618 389.796 484.632 389.77 484.641C389.757 484.646 389.747 484.649 389.741 484.651C389.738 484.652 389.736 484.653 389.735 484.654C389.734 484.654 389.734 484.654 389.734 484.654C389.734 484.654 389.734 484.654 389.734 484.654C389.734 484.654 389.734 484.654 390.058 485.6ZM405.258 471.6H406.258C406.258 468.859 404.891 465.819 401.965 462.893L401.258 463.6L400.551 464.307C403.224 466.981 404.258 469.541 404.258 471.6H405.258ZM401.258 463.6L401.965 462.893L285.565 346.493L284.858 347.2L284.151 347.907L400.551 464.307L401.258 463.6ZM284.858 347.2L283.858 347.208C284.258 399.63 286.259 436.451 287.86 458.871L288.858 458.8L289.855 458.729C288.257 436.349 286.258 399.57 285.858 347.192L284.858 347.2ZM288.858 458.8L287.862 458.888C288.494 466.058 293.719 472.975 298.59 477.996C301.049 480.532 303.468 482.633 305.27 484.101C306.172 484.835 306.922 485.412 307.447 485.806C307.71 486.003 307.917 486.155 308.06 486.258C308.131 486.31 308.186 486.349 308.223 486.376C308.242 486.389 308.257 486.4 308.267 486.407C308.272 486.41 308.276 486.413 308.278 486.415C308.28 486.416 308.281 486.417 308.282 486.417C308.282 486.418 308.282 486.418 308.283 486.418C308.283 486.418 308.283 486.418 308.858 485.6C309.432 484.782 309.433 484.782 309.433 484.782C309.433 484.782 309.432 484.782 309.432 484.781C309.432 484.781 309.431 484.781 309.43 484.78C309.429 484.779 309.426 484.777 309.422 484.774C309.414 484.768 309.401 484.759 309.384 484.748C309.351 484.724 309.3 484.687 309.233 484.639C309.099 484.542 308.901 484.397 308.648 484.206C308.141 483.826 307.412 483.265 306.533 482.549C304.773 481.117 302.416 479.068 300.026 476.604C295.196 471.625 290.421 465.142 289.854 458.712L288.858 458.8ZM308.858 485.6V484.6H223.658V485.6V486.6H308.858V485.6ZM223.658 485.6C224.064 486.514 224.064 486.514 224.065 486.513C224.065 486.513 224.066 486.513 224.066 486.513C224.067 486.512 224.068 486.512 224.07 486.511C224.073 486.51 224.077 486.508 224.082 486.506C224.093 486.501 224.107 486.494 224.126 486.486C224.164 486.468 224.218 486.443 224.288 486.41C224.428 486.344 224.63 486.246 224.886 486.116C225.398 485.857 226.126 485.471 227.002 484.956C228.753 483.927 231.105 482.381 233.511 480.308C238.309 476.173 243.418 469.857 244.253 461.297L243.258 461.2L242.263 461.103C241.498 468.943 236.807 474.827 232.205 478.792C229.911 480.769 227.663 482.248 225.989 483.232C225.152 483.723 224.462 484.09 223.983 484.332C223.743 484.453 223.557 484.543 223.432 484.602C223.37 484.632 223.323 484.654 223.293 484.668C223.277 484.675 223.266 484.68 223.259 484.683C223.256 484.684 223.254 484.685 223.252 484.686C223.252 484.686 223.251 484.686 223.251 484.686C223.251 484.686 223.251 484.686 223.251 484.686C223.251 484.686 223.252 484.686 223.658 485.6ZM243.258 461.2L244.254 461.282C246.257 436.846 248.258 393.217 248.258 328H247.258H246.258C246.258 393.183 244.258 436.754 242.261 461.118L243.258 461.2ZM247.258 328H248.258C248.258 266.376 245.857 219.95 243.855 194.322L242.858 194.4L241.861 194.478C243.859 220.05 246.258 266.424 246.258 328H247.258ZM242.858 194.4L243.853 194.3C243.015 185.926 237.891 179.907 233.087 176.022C230.677 174.074 228.323 172.642 226.571 171.695C225.694 171.221 224.965 170.868 224.453 170.632C224.196 170.514 223.994 170.426 223.854 170.366C223.784 170.336 223.73 170.313 223.692 170.297C223.673 170.289 223.658 170.283 223.648 170.279C223.642 170.277 223.638 170.275 223.635 170.274C223.634 170.273 223.632 170.273 223.631 170.272C223.631 170.272 223.63 170.272 223.63 170.272C223.63 170.272 223.629 170.271 223.258 171.2C222.886 172.128 222.886 172.128 222.886 172.128C222.886 172.128 222.886 172.128 222.886 172.128C222.886 172.128 222.886 172.128 222.887 172.129C222.888 172.129 222.891 172.13 222.894 172.132C222.901 172.134 222.912 172.139 222.927 172.145C222.958 172.158 223.004 172.177 223.067 172.204C223.191 172.257 223.377 172.339 223.616 172.449C224.094 172.669 224.785 173.004 225.62 173.455C227.293 174.358 229.538 175.726 231.829 177.578C236.425 181.293 241.1 186.874 241.863 194.499L242.858 194.4ZM223.258 171.2V172.2H307.258V171.2V170.2H223.258V171.2ZM307.258 171.2C306.758 170.334 306.757 170.334 306.757 170.334C306.757 170.335 306.756 170.335 306.756 170.335C306.755 170.336 306.754 170.336 306.752 170.337C306.75 170.339 306.746 170.341 306.741 170.344C306.731 170.35 306.717 170.358 306.699 170.369C306.662 170.39 306.609 170.422 306.54 170.463C306.403 170.546 306.203 170.667 305.95 170.826C305.443 171.145 304.721 171.612 303.85 172.216C302.112 173.421 299.774 175.174 297.383 177.362C292.64 181.701 287.508 187.911 286.665 195.083L287.658 195.2L288.651 195.317C289.407 188.889 294.076 183.099 298.733 178.838C301.041 176.726 303.304 175.028 304.99 173.859C305.832 173.275 306.529 172.824 307.013 172.52C307.255 172.368 307.444 172.253 307.571 172.177C307.634 172.139 307.682 172.11 307.714 172.092C307.73 172.083 307.741 172.076 307.749 172.071C307.752 172.069 307.755 172.068 307.757 172.067C307.757 172.066 307.758 172.066 307.758 172.066C307.758 172.066 307.758 172.066 307.758 172.066C307.758 172.066 307.758 172.066 307.258 171.2Z" fill="black" mask="url(#path-2-outside-1_167_249)"/>
<mask id="path-4-outside-2_167_249" maskUnits="userSpaceOnUse" x="6" y="7" width="228" height="329" fill="black">
<rect fill="white" x="6" y="7" width="228" height="329"/>
<path d="M24.4938 314.2C26.0938 294.6 28.8938 249.4 28.8938 170.6C28.8938 100.6 25.6938 50.2 23.6938 27.4C22.8938 20.2 10.0938 14.2 10.0938 14.2H161.294C202.494 14.2 232.094 9 232.094 9C232.094 9 227.294 28.6 224.894 44.6C222.494 65 222.094 100.2 222.094 100.2C222.094 100.2 205.694 27.4 158.494 27.4H71.6938C69.6938 49.8 66.8938 98.6 66.4938 164.6L126.894 164.2C160.894 163.4 168.494 142.6 168.494 142.6V200.2C168.494 200.2 159.694 179.4 127.294 178.2H66.4938C66.8938 252.2 70.0938 297 71.6938 316.2H158.894C205.694 315.8 222.094 242.2 222.094 242.2C222.094 242.2 222.494 277.8 224.894 297.8C227.294 313.8 232.094 333.8 232.094 333.8C232.094 333.8 202.494 328.6 161.294 328.6H10.0938C10.0938 328.6 22.8938 321.4 24.4938 314.2Z"/>
</mask>
<path d="M24.4938 314.2C26.0938 294.6 28.8938 249.4 28.8938 170.6C28.8938 100.6 25.6938 50.2 23.6938 27.4C22.8938 20.2 10.0938 14.2 10.0938 14.2H161.294C202.494 14.2 232.094 9 232.094 9C232.094 9 227.294 28.6 224.894 44.6C222.494 65 222.094 100.2 222.094 100.2C222.094 100.2 205.694 27.4 158.494 27.4H71.6938C69.6938 49.8 66.8938 98.6 66.4938 164.6L126.894 164.2C160.894 163.4 168.494 142.6 168.494 142.6V200.2C168.494 200.2 159.694 179.4 127.294 178.2H66.4938C66.8938 252.2 70.0938 297 71.6938 316.2H158.894C205.694 315.8 222.094 242.2 222.094 242.2C222.094 242.2 222.494 277.8 224.894 297.8C227.294 313.8 232.094 333.8 232.094 333.8C232.094 333.8 202.494 328.6 161.294 328.6H10.0938C10.0938 328.6 22.8938 321.4 24.4938 314.2Z" fill="#131213"/>
<path d="M24.4938 314.2L25.4699 314.417L25.4848 314.35L25.4904 314.281L24.4938 314.2ZM23.6938 27.4L24.6899 27.3126L24.6889 27.3011L24.6876 27.2896L23.6938 27.4ZM10.0938 14.2V13.2L9.66932 15.1054L10.0938 14.2ZM232.094 9L233.065 9.23786L233.429 7.75004L231.921 8.01508L232.094 9ZM224.894 44.6L223.905 44.4516L223.902 44.4674L223.901 44.4831L224.894 44.6ZM222.094 100.2L221.118 100.42L223.094 100.211L222.094 100.2ZM71.6938 27.4V26.4H70.7791L70.6977 27.3111L71.6938 27.4ZM66.4938 164.6L65.4938 164.594L65.4876 165.607L66.5004 165.6L66.4938 164.6ZM126.894 164.2L126.9 165.2L126.909 165.2L126.917 165.2L126.894 164.2ZM168.494 142.6H169.494L167.554 142.257L168.494 142.6ZM168.494 200.2L167.573 200.59L169.494 200.2H168.494ZM127.294 178.2L127.331 177.201L127.312 177.2H127.294V178.2ZM66.4938 178.2V177.2H65.4883L65.4938 178.205L66.4938 178.2ZM71.6938 316.2L70.6972 316.283L70.7736 317.2H71.6938V316.2ZM158.894 316.2L158.894 317.2L158.902 317.2L158.894 316.2ZM222.094 242.2L223.094 242.189L221.118 241.983L222.094 242.2ZM224.894 297.8L223.901 297.919L223.903 297.934L223.905 297.948L224.894 297.8ZM232.094 333.8L231.921 334.785L233.422 335.049L233.066 333.567L232.094 333.8ZM10.0938 328.6L9.60349 327.728L6.27624 329.6H10.0938V328.6ZM24.4938 314.2L25.4904 314.281C27.0929 294.651 29.8938 249.424 29.8938 170.6H28.8938H27.8938C27.8938 249.376 25.0946 294.549 23.4971 314.119L24.4938 314.2ZM28.8938 170.6H29.8938C29.8938 100.571 26.6925 50.1422 24.6899 27.3126L23.6938 27.4L22.6976 27.4874C24.695 50.2578 27.8938 100.629 27.8938 170.6H28.8938ZM23.6938 27.4L24.6876 27.2896C24.4576 25.2189 23.3777 23.3137 21.9995 21.6598C20.6151 19.9986 18.8693 18.5185 17.1819 17.2912C15.4901 16.0609 13.8288 15.0644 12.5927 14.3762C11.9736 14.0316 11.4589 13.763 11.0973 13.5798C10.9164 13.4882 10.7737 13.4178 10.6752 13.3699C10.6259 13.3459 10.5877 13.3276 10.5613 13.315C10.5481 13.3086 10.5378 13.3038 10.5306 13.3004C10.527 13.2987 10.5241 13.2973 10.5221 13.2963C10.521 13.2959 10.5202 13.2955 10.5195 13.2952C10.5192 13.295 10.5189 13.2948 10.5187 13.2948C10.5184 13.2946 10.5182 13.2945 10.0938 14.2C9.66932 15.1054 9.66917 15.1054 9.66907 15.1053C9.66911 15.1053 9.66906 15.1053 9.66912 15.1053C9.66925 15.1054 9.66958 15.1056 9.67009 15.1058C9.67112 15.1063 9.67291 15.1071 9.67546 15.1083C9.68056 15.1107 9.68868 15.1146 9.69971 15.1199C9.72179 15.1304 9.75554 15.1466 9.80023 15.1684C9.88961 15.2118 10.0227 15.2774 10.1933 15.3639C10.5348 15.5369 11.0264 15.7933 11.6198 16.1237C12.8087 16.7856 14.3974 17.7391 16.0056 18.9087C17.6182 20.0815 19.2224 21.4514 20.463 22.9402C21.7098 24.4363 22.5299 25.9811 22.6999 27.5104L23.6938 27.4ZM10.0938 14.2V15.2H161.294V14.2V13.2H10.0938V14.2ZM161.294 14.2V15.2C181.935 15.2 199.67 13.8974 212.247 12.5947C218.536 11.9432 223.536 11.2916 226.966 10.8025C228.681 10.5579 230.004 10.3539 230.899 10.2109C231.347 10.1394 231.687 10.0831 231.917 10.0446C232.032 10.0253 232.118 10.0105 232.177 10.0005C232.206 9.99544 232.228 9.99161 232.243 9.989C232.251 9.9877 232.257 9.9867 232.26 9.98602C232.262 9.98568 232.264 9.98541 232.265 9.98523C232.265 9.98514 232.266 9.98506 232.266 9.98501C232.267 9.98495 232.267 9.98491 232.094 9C231.921 8.01508 231.921 8.01508 231.921 8.0151C231.92 8.01513 231.92 8.01517 231.92 8.01524C231.919 8.01537 231.918 8.01558 231.916 8.01586C231.913 8.01644 231.908 8.01733 231.901 8.01853C231.887 8.02092 231.866 8.02454 231.838 8.02935C231.782 8.03898 231.698 8.05337 231.586 8.0722C231.361 8.10985 231.026 8.16529 230.584 8.23596C229.699 8.3773 228.387 8.57958 226.684 8.82251C223.277 9.30836 218.302 9.95675 212.041 10.6053C199.518 11.9025 181.853 13.2 161.294 13.2V14.2ZM232.094 9C231.122 8.76213 231.122 8.76224 231.122 8.76242C231.122 8.76258 231.122 8.76284 231.122 8.76316C231.122 8.76381 231.122 8.76475 231.122 8.76598C231.121 8.76846 231.12 8.77212 231.119 8.77695C231.116 8.78662 231.113 8.80099 231.108 8.81997C231.099 8.85793 231.085 8.91433 231.067 8.98846C231.031 9.13671 230.979 9.35591 230.91 9.64036C230.774 10.2093 230.577 11.0393 230.332 12.0851C229.844 14.1766 229.168 17.1316 228.417 20.5876C226.915 27.4957 225.11 36.4201 223.905 44.4516L224.894 44.6L225.883 44.7483C227.078 36.7799 228.873 27.9043 230.371 21.0124C231.12 17.5683 231.793 14.6234 232.28 12.5399C232.523 11.4982 232.72 10.672 232.855 10.1065C232.923 9.82377 232.976 9.60624 233.011 9.45958C233.029 9.38625 233.042 9.33064 233.051 9.29345C233.056 9.27485 233.059 9.26086 233.062 9.25157C233.063 9.24692 233.064 9.24345 233.064 9.24116C233.065 9.24002 233.065 9.23917 233.065 9.23862C233.065 9.23835 233.065 9.23816 233.065 9.23802C233.065 9.2379 233.065 9.23786 232.094 9ZM224.894 44.6L223.901 44.4831C222.695 54.7269 221.994 68.662 221.594 80.0148C221.394 85.6957 221.269 90.7382 221.194 94.3605C221.156 96.1718 221.131 97.6282 221.116 98.6321C221.108 99.134 221.102 99.5228 221.099 99.7863C221.097 99.9181 221.096 100.018 221.095 100.086C221.095 100.12 221.094 100.145 221.094 100.163C221.094 100.171 221.094 100.178 221.094 100.182C221.094 100.184 221.094 100.186 221.094 100.187C221.094 100.187 221.094 100.188 221.094 100.188C221.094 100.188 221.094 100.189 222.094 100.2C223.094 100.211 223.094 100.211 223.094 100.211C223.094 100.211 223.094 100.21 223.094 100.21C223.094 100.209 223.094 100.207 223.094 100.205C223.094 100.201 223.094 100.195 223.094 100.186C223.094 100.169 223.094 100.144 223.095 100.111C223.096 100.044 223.097 99.9441 223.099 99.8131C223.102 99.551 223.108 99.1636 223.116 98.6632C223.131 97.6624 223.156 96.2095 223.194 94.402C223.268 90.7868 223.393 85.7543 223.593 80.0852C223.993 68.738 224.692 54.8731 225.887 44.7168L224.894 44.6ZM222.094 100.2C223.069 99.9802 223.069 99.9796 223.069 99.9788C223.069 99.9781 223.069 99.977 223.068 99.9757C223.068 99.9731 223.067 99.9694 223.066 99.9646C223.064 99.955 223.06 99.941 223.056 99.9227C223.048 99.8861 223.035 99.8322 223.019 99.7617C222.985 99.6206 222.936 99.4128 222.869 99.1427C222.736 98.6025 222.534 97.813 222.262 96.8098C221.717 94.8035 220.887 91.9415 219.742 88.5088C217.455 81.6467 213.908 72.4871 208.87 63.3184C198.831 45.0468 182.674 26.4 158.494 26.4V27.4V28.4C181.514 28.4 197.157 46.1532 207.117 64.2815C212.08 73.3129 215.582 82.3533 217.845 89.1412C218.976 92.5335 219.795 95.359 220.332 97.334C220.6 98.3214 220.797 99.0959 220.927 99.6221C220.992 99.8852 221.04 100.086 221.072 100.221C221.088 100.288 221.1 100.338 221.107 100.372C221.111 100.388 221.114 100.401 221.116 100.409C221.117 100.413 221.117 100.416 221.118 100.418C221.118 100.419 221.118 100.419 221.118 100.42C221.118 100.42 221.118 100.42 222.094 100.2ZM158.494 27.4V26.4H71.6938V27.4V28.4H158.494V27.4ZM71.6938 27.4L70.6977 27.3111C68.6947 49.7444 65.8939 98.5727 65.4938 164.594L66.4938 164.6L67.4937 164.606C67.8936 98.6273 70.6928 49.8556 72.6898 27.4889L71.6938 27.4ZM66.4938 164.6L66.5004 165.6L126.9 165.2L126.894 164.2L126.887 163.2L66.4871 163.6L66.4938 164.6ZM126.894 164.2L126.917 165.2C144.137 164.795 154.762 159.316 161.097 153.858C164.256 151.135 166.331 148.432 167.62 146.398C168.264 145.381 168.712 144.531 169.002 143.929C169.147 143.627 169.252 143.388 169.322 143.22C169.357 143.137 169.384 143.071 169.402 143.024C169.411 143.001 169.418 142.982 169.423 142.969C169.426 142.962 169.428 142.957 169.43 142.952C169.43 142.95 169.431 142.948 169.432 142.947C169.432 142.946 169.432 142.945 169.432 142.945C169.433 142.944 169.433 142.943 168.494 142.6C167.554 142.257 167.555 142.256 167.555 142.256C167.555 142.256 167.555 142.255 167.555 142.255C167.555 142.255 167.555 142.255 167.555 142.255C167.555 142.256 167.554 142.258 167.553 142.261C167.55 142.268 167.546 142.279 167.54 142.295C167.527 142.327 167.507 142.378 167.478 142.447C167.42 142.585 167.329 142.793 167.2 143.062C166.941 143.6 166.53 144.382 165.93 145.327C164.732 147.218 162.782 149.765 159.791 152.342C153.825 157.484 143.651 162.805 126.87 163.2L126.894 164.2ZM168.494 142.6H167.494V200.2H168.494H169.494V142.6H168.494ZM168.494 200.2C169.415 199.81 169.414 199.81 169.414 199.809C169.414 199.809 169.414 199.808 169.413 199.807C169.413 199.806 169.412 199.804 169.411 199.802C169.409 199.798 169.407 199.792 169.404 199.786C169.398 199.773 169.39 199.755 169.38 199.732C169.36 199.686 169.33 199.621 169.291 199.538C169.212 199.372 169.095 199.134 168.935 198.834C168.616 198.235 168.128 197.387 167.441 196.371C166.067 194.339 163.897 191.632 160.694 188.89C154.275 183.396 143.76 177.809 127.331 177.201L127.294 178.2L127.257 179.199C143.227 179.791 153.312 185.204 159.393 190.41C162.441 193.018 164.495 195.586 165.784 197.491C166.428 198.444 166.881 199.231 167.17 199.774C167.314 200.045 167.417 200.255 167.483 200.394C167.516 200.464 167.54 200.516 167.555 200.549C167.562 200.565 167.567 200.577 167.57 200.584C167.572 200.587 167.573 200.59 167.573 200.591C167.573 200.591 167.573 200.591 167.573 200.591C167.573 200.591 167.573 200.591 167.573 200.591C167.573 200.59 167.573 200.59 168.494 200.2ZM127.294 178.2V177.2H66.4938V178.2V179.2H127.294V178.2ZM66.4938 178.2L65.4938 178.205C65.8939 252.233 69.0952 297.059 70.6972 316.283L71.6938 316.2L72.6903 316.117C71.0923 296.941 67.8936 252.167 67.4937 178.195L66.4938 178.2ZM71.6938 316.2V317.2H158.894V316.2V315.2H71.6938V316.2ZM158.894 316.2L158.902 317.2C182.887 316.995 198.94 298.039 208.924 279.525C213.935 270.232 217.469 260.961 219.75 254.018C220.891 250.545 221.72 247.651 222.264 245.622C222.536 244.608 222.736 243.81 222.87 243.264C222.936 242.991 222.986 242.781 223.019 242.638C223.036 242.567 223.048 242.512 223.057 242.476C223.061 242.457 223.064 242.443 223.066 242.433C223.067 242.428 223.068 242.425 223.069 242.422C223.069 242.421 223.069 242.42 223.07 242.419C223.07 242.418 223.07 242.417 222.094 242.2C221.118 241.983 221.118 241.982 221.118 241.983C221.118 241.983 221.117 241.984 221.117 241.985C221.117 241.987 221.116 241.99 221.115 241.994C221.113 242.002 221.111 242.014 221.107 242.031C221.099 242.065 221.087 242.116 221.071 242.184C221.04 242.32 220.992 242.523 220.927 242.79C220.797 243.322 220.6 244.105 220.332 245.104C219.796 247.102 218.978 249.961 217.85 253.394C215.593 260.264 212.102 269.418 207.164 278.575C197.248 296.961 181.701 315.005 158.885 315.2L158.894 316.2ZM222.094 242.2C221.094 242.211 221.094 242.211 221.094 242.212C221.094 242.212 221.094 242.212 221.094 242.213C221.094 242.214 221.094 242.216 221.094 242.218C221.094 242.222 221.094 242.229 221.094 242.238C221.094 242.255 221.095 242.281 221.095 242.315C221.096 242.383 221.097 242.485 221.099 242.618C221.102 242.884 221.108 243.277 221.116 243.784C221.131 244.798 221.156 246.269 221.194 248.096C221.269 251.749 221.394 256.829 221.594 262.535C221.994 273.937 222.695 287.874 223.901 297.919L224.894 297.8L225.887 297.681C224.692 287.726 223.993 273.863 223.593 262.465C223.393 256.771 223.268 251.701 223.194 248.054C223.156 246.231 223.131 244.764 223.116 243.753C223.108 243.248 223.102 242.856 223.099 242.591C223.097 242.459 223.096 242.358 223.095 242.291C223.095 242.257 223.094 242.231 223.094 242.214C223.094 242.206 223.094 242.199 223.094 242.195C223.094 242.193 223.094 242.191 223.094 242.19C223.094 242.19 223.094 242.189 223.094 242.189C223.094 242.189 223.094 242.189 222.094 242.2ZM224.894 297.8L223.905 297.948C225.109 305.979 226.914 315.002 228.416 322.01C229.167 325.515 229.843 328.52 230.332 330.649C230.576 331.713 230.773 332.559 230.909 333.138C230.978 333.428 231.03 333.652 231.066 333.803C231.084 333.878 231.098 333.936 231.107 333.974C231.112 333.994 231.115 334.008 231.118 334.018C231.119 334.023 231.12 334.027 231.12 334.029C231.121 334.031 231.121 334.032 231.121 334.032C231.121 334.033 231.121 334.033 231.121 334.033C231.121 334.033 231.121 334.033 232.094 333.8C233.066 333.567 233.066 333.567 233.066 333.566C233.066 333.566 233.066 333.566 233.066 333.566C233.066 333.565 233.066 333.564 233.065 333.563C233.065 333.561 233.064 333.557 233.063 333.553C233.061 333.543 233.057 333.529 233.053 333.51C233.043 333.472 233.03 333.415 233.012 333.34C232.977 333.191 232.924 332.969 232.856 332.68C232.721 332.104 232.524 331.262 232.281 330.201C231.794 328.08 231.12 325.085 230.372 321.59C228.873 314.598 227.078 305.621 225.883 297.652L224.894 297.8ZM232.094 333.8C232.267 332.815 232.267 332.815 232.266 332.815C232.266 332.815 232.266 332.815 232.265 332.815C232.264 332.815 232.262 332.814 232.26 332.814C232.257 332.813 232.251 332.812 232.243 332.811C232.228 332.808 232.206 332.805 232.177 332.8C232.118 332.789 232.032 332.775 231.917 332.755C231.687 332.717 231.347 332.661 230.899 332.589C230.004 332.446 228.681 332.242 226.966 331.998C223.536 331.508 218.536 330.857 212.247 330.205C199.67 328.903 181.935 327.6 161.294 327.6V328.6V329.6C181.853 329.6 199.518 330.897 212.041 332.195C218.302 332.843 223.277 333.492 226.684 333.977C228.387 334.22 229.699 334.423 230.584 334.564C231.026 334.635 231.361 334.69 231.586 334.728C231.698 334.747 231.782 334.761 231.838 334.771C231.866 334.775 231.887 334.779 231.901 334.781C231.908 334.783 231.913 334.784 231.916 334.784C231.918 334.784 231.919 334.785 231.92 334.785C231.92 334.785 231.92 334.785 231.921 334.785C231.921 334.785 231.921 334.785 232.094 333.8ZM161.294 328.6V327.6H10.0938V328.6V329.6H161.294V328.6ZM10.0938 328.6C10.584 329.472 10.5842 329.471 10.5845 329.471C10.5846 329.471 10.5849 329.471 10.5852 329.471C10.5858 329.471 10.5866 329.47 10.5876 329.47C10.5896 329.468 10.5924 329.467 10.5959 329.465C10.6029 329.461 10.613 329.455 10.626 329.448C10.652 329.433 10.6899 329.411 10.7389 329.383C10.8367 329.326 10.979 329.243 11.1597 329.135C11.521 328.919 12.0367 328.604 12.6595 328.204C13.9037 327.404 15.5825 326.259 17.3156 324.883C19.0455 323.509 20.8502 321.888 22.3328 320.133C23.8063 318.388 25.02 316.442 25.4699 314.417L24.4938 314.2L23.5176 313.983C23.1675 315.558 22.1812 317.212 20.8047 318.842C19.4373 320.462 17.742 321.991 16.0719 323.317C14.405 324.641 12.7838 325.746 11.578 326.521C10.9758 326.908 10.479 327.212 10.1341 327.418C9.96165 327.521 9.82732 327.6 9.73693 327.652C9.69173 327.678 9.65752 327.698 9.63504 327.711C9.6238 327.717 9.61548 327.722 9.6102 327.725C9.60755 327.726 9.60566 327.727 9.60454 327.728C9.60398 327.728 9.60361 327.728 9.60344 327.728C9.60335 327.729 9.60336 327.728 9.60332 327.729C9.60338 327.728 9.60349 327.728 10.0938 328.6Z" fill="black" mask="url(#path-4-outside-2_167_249)"/>
</g>
<defs>
<linearGradient id="paint0_linear_167_249" x1="0" y1="250" x2="500" y2="250" gradientUnits="userSpaceOnUse">
<stop offset="1" stop-color="#C566C5"/>
<stop offset="1" stop-color="#AD55AD"/>
</linearGradient>
<clipPath id="clip0_167_249">
<rect width="500" height="500" fill="white"/>
</clipPath>
</defs>
</svg>
