<svg width="32" height="32" viewBox="0 0 32 32" fill="none" xmlns="http://www.w3.org/2000/svg">
<path fill-rule="evenodd" clip-rule="evenodd" d="M10.2464 2.12838C5.07246 2.36463 2.35451 5.27564 2.1292 10.2462C1.95693 14.0092 1.95693 17.991 2.1292 21.7541C2.35451 26.7246 5.07246 29.6351 10.2464 29.8713C14.01 30.0425 17.9908 30.0425 21.7543 29.8713C26.726 29.6438 29.6348 26.9303 29.8716 21.7541C30.0428 17.9888 30.0422 14.0109 29.8716 10.2462C29.6397 5.17939 26.8211 2.35971 21.7543 2.12838C17.9908 1.95721 14.01 1.95721 10.2464 2.12838ZM25.1247 8.55033C25.1247 9.4751 24.3744 10.2254 23.4497 10.2254C22.5243 10.2254 21.7751 9.4751 21.7751 8.55033C21.7751 7.62557 22.5243 6.8758 23.4497 6.8758C24.3744 6.8758 25.1247 7.62557 25.1247 8.55033ZM16.0001 20.6516C13.4309 20.6516 11.349 18.5691 11.349 15.9999C11.349 13.4306 13.4309 11.3481 16.0001 11.3481C18.5693 11.3481 20.6524 13.4306 20.6524 15.9999C20.6524 18.5685 18.5693 20.6516 16.0001 20.6516ZM16.0001 8.83361C12.0429 8.83361 8.83387 12.0421 8.83387 15.9999C8.83387 19.9576 12.0429 23.1661 16.0001 23.1661C19.9584 23.1661 23.1669 19.9576 23.1669 15.9999C23.1669 12.0421 19.9584 8.83361 16.0001 8.83361ZM21.6395 4.64018C25.3982 4.81189 27.1886 6.60127 27.3593 10.361C27.5288 14.0464 27.5282 17.9533 27.3593 21.6392C27.1843 25.5067 25.3008 27.1928 21.6395 27.3595C17.9525 27.5274 14.0478 27.5274 10.3608 27.3595C6.69889 27.1928 4.81653 25.5067 4.64098 21.6392C4.47199 17.9538 4.47199 14.0459 4.64098 10.361C4.80723 6.69807 6.49326 4.81736 10.3608 4.64018C14.0472 4.47228 17.953 4.47174 21.6395 4.64018Z" fill="#DEDEE0"/>
</svg>
