<svg width="32" height="32" viewBox="0 0 32 32" fill="none" xmlns="http://www.w3.org/2000/svg">
<path fill-rule="evenodd" clip-rule="evenodd" d="M8.24645 2.12838C3.07246 2.36463 0.354512 5.27564 0.129199 10.2462C-0.0430664 14.0092 -0.0430664 17.991 0.129199 21.7541C0.354512 26.7246 3.07246 29.6351 8.24645 29.8713C12.01 30.0425 15.9908 30.0425 19.7543 29.8713C24.726 29.6438 27.6348 26.9303 27.8716 21.7541C28.0428 17.9888 28.0422 14.0109 27.8716 10.2462C27.6397 5.17939 24.8211 2.35971 19.7543 2.12838C15.9908 1.95721 12.01 1.95721 8.24645 2.12838ZM23.1247 8.55033C23.1247 9.4751 22.3744 10.2254 21.4497 10.2254C20.5243 10.2254 19.7751 9.4751 19.7751 8.55033C19.7751 7.62557 20.5243 6.8758 21.4497 6.8758C22.3744 6.8758 23.1247 7.62557 23.1247 8.55033ZM14.0001 20.6516C11.4309 20.6516 9.34896 18.5691 9.34896 15.9999C9.34896 13.4306 11.4309 11.3481 14.0001 11.3481C16.5693 11.3481 18.6524 13.4306 18.6524 15.9999C18.6524 18.5685 16.5693 20.6516 14.0001 20.6516ZM14.0001 8.83361C10.0429 8.83361 6.83387 12.0421 6.83387 15.9999C6.83387 19.9576 10.0429 23.1661 14.0001 23.1661C17.9584 23.1661 21.1669 19.9576 21.1669 15.9999C21.1669 12.0421 17.9584 8.83361 14.0001 8.83361ZM19.6395 4.64018C23.3982 4.81189 25.1886 6.60127 25.3593 10.361C25.5288 14.0464 25.5282 17.9533 25.3593 21.6392C25.1843 25.5067 23.3008 27.1928 19.6395 27.3595C15.9525 27.5274 12.0478 27.5274 8.36076 27.3595C4.69889 27.1928 2.81653 25.5067 2.64098 21.6392C2.47199 17.9538 2.47199 14.0459 2.64098 10.361C2.80723 6.69807 4.49326 4.81736 8.36076 4.64018C12.0472 4.47228 15.953 4.47174 19.6395 4.64018Z" fill="url(#paint0_linear_724_404)"/>
<defs>
<linearGradient id="paint0_linear_724_404" x1="13.9999" y1="2" x2="13.9999" y2="29.9997" gradientUnits="userSpaceOnUse">
<stop stop-color="#565AC9"/>
<stop offset="0.278846" stop-color="#9F3EA1"/>
<stop offset="0.639423" stop-color="#E85849"/>
<stop offset="0.975962" stop-color="#F9C668"/>
</linearGradient>
</defs>
</svg>
