<svg width="32" height="32" viewBox="0 0 32 32" fill="none" xmlns="http://www.w3.org/2000/svg">
<g clip-path="url(#clip0_724_398)">
<path d="M16.8592 18.9307H5.02066V14.1877H16.8592C17.5507 14.1877 18.0315 14.3097 18.2728 14.5228C18.5141 14.7359 18.6636 15.1312 18.6636 15.7086V17.4117C18.6636 18.02 18.5141 18.4153 18.2728 18.6284C18.0315 18.8415 17.5507 18.9326 16.8592 18.9326V18.9307ZM17.6713 9.71594H0V29.9998H5.02066V23.4006H14.2732L18.6636 29.9998H24.2857L19.4451 23.3697C21.2297 23.1019 22.0311 22.5482 22.692 21.6356C23.3529 20.7231 23.6843 19.2641 23.6843 17.3169V15.796C23.6843 14.6412 23.5636 13.7286 23.3529 13.0292C23.1422 12.3297 22.782 11.7214 22.2706 11.1749C21.7304 10.6576 21.1289 10.2933 20.4068 10.0493C19.6847 9.83614 18.7824 9.71411 17.6713 9.71411V9.71594Z" fill="#F5F5F5"/>
<path d="M28.1423 9.71429C30.2726 9.71429 31.9994 7.98737 31.9994 5.85714C31.9994 3.7269 30.2726 2 28.1423 2C26.0121 2 24.2852 3.7269 24.2852 5.85714C24.2852 7.98737 26.0121 9.71429 28.1423 9.71429Z" fill="#EC133B"/>
</g>
<defs>
<clipPath id="clip0_724_398">
<rect width="32" height="32" fill="white"/>
</clipPath>
</defs>
</svg>
