<svg width="32" height="32" viewBox="0 0 32 32" fill="none" xmlns="http://www.w3.org/2000/svg">
<g clip-path="url(#clip0_724_365)">
<path d="M16.8592 18.931H5.02066V14.1879H16.8592C17.5507 14.1879 18.0315 14.3099 18.2728 14.523C18.5141 14.7362 18.6636 15.1314 18.6636 15.7088V17.4119C18.6636 18.0203 18.5141 18.4155 18.2728 18.6286C18.0315 18.8418 17.5507 18.9328 16.8592 18.9328V18.931ZM17.6713 9.71618H0V30.0001H5.02066V23.4009H14.2732L18.6636 30.0001H24.2857L19.4451 23.3699C21.2297 23.1022 22.0311 22.5484 22.692 21.6359C23.3529 20.7233 23.6843 19.2643 23.6843 17.3172V15.7962C23.6843 14.6414 23.5636 13.7289 23.3529 13.0294C23.1422 12.33 22.782 11.7216 22.2706 11.1752C21.7304 10.6579 21.1289 10.2936 20.4068 10.0495C19.6847 9.83638 18.7824 9.71436 17.6713 9.71436V9.71618Z" fill="#DEDEE0"/>
<path d="M28.1423 9.71429C30.2726 9.71429 31.9994 7.98737 31.9994 5.85714C31.9994 3.7269 30.2726 2 28.1423 2C26.0121 2 24.2852 3.7269 24.2852 5.85714C24.2852 7.98737 26.0121 9.71429 28.1423 9.71429Z" fill="#DEDEE0"/>
</g>
<defs>
<clipPath id="clip0_724_365">
<rect width="32" height="32" fill="white"/>
</clipPath>
</defs>
</svg>
