<svg width="1097" height="1097" viewBox="0 0 1097 1097" fill="none" xmlns="http://www.w3.org/2000/svg">
<path d="M548.5 0C851.428 0 1097 245.572 1097 548.5C1097 851.428 851.428 1097 548.5 1097C245.572 1097 0 851.428 0 548.5C0 245.572 245.572 0 548.5 0ZM252.671 286.917C239.08 286.917 228.021 297.763 227.679 311.271L227.671 311.917V798.763C227.671 812.57 238.864 823.763 252.671 823.763H378.259C392.066 823.762 403.259 812.57 403.259 798.763V665.375H605.819L708.162 813.006C712.833 819.743 720.51 823.763 728.708 823.763H869.333C878.834 823.763 887.513 818.377 891.732 809.865C895.952 801.353 894.981 791.185 889.229 783.624L791.027 654.568C814.99 645.787 834.933 632.292 849.425 613.114L849.427 613.111C870.884 584.708 879.296 542.996 879.296 494.396V457.9C879.296 428.537 876.137 403.945 869.879 383.996C863.541 363.795 852.826 346.33 838.286 330.997L836.867 329.52C836.701 329.349 836.533 329.18 836.362 329.015L835.843 328.525L834.315 327.143C818.474 312.993 800.756 302.87 780.018 296.163C779.871 296.116 779.724 296.07 779.577 296.025L779.133 295.896L777.17 295.352C756.758 289.816 732.447 286.917 703.892 286.917H252.671ZM703.892 336.917C729.802 336.917 749.834 339.627 765.068 343.881C779.322 348.551 790.93 355.315 801.525 364.901C811.554 375.342 818.244 386.445 822.171 398.963C826.446 412.589 829.296 431.789 829.296 457.9V494.396C829.296 539.219 821.158 567.581 809.533 582.97L808.996 583.67C797.575 598.325 777.595 609.793 744.424 614.942C735.718 616.294 728.365 622.128 725.071 630.3C721.778 638.471 723.028 647.774 728.363 654.785L818.896 773.763H741.797L639.454 626.132C634.929 619.605 627.583 615.629 619.676 615.387L618.908 615.375H378.259C364.452 615.375 353.259 626.568 353.259 640.375V773.763H277.671V336.917H703.892ZM378.259 394.213C364.452 394.213 353.259 405.406 353.259 419.213V533.084C353.259 546.891 364.452 558.084 378.259 558.084H683.588C683.828 558.084 684.067 558.079 684.305 558.072C693.567 558.043 702.45 557.446 710.399 555.854C718.207 554.289 727.471 551.318 735.109 544.833C749.14 532.92 753.708 514.603 753.708 496.584V455.709C753.708 438.156 749.01 419.991 735.116 408.19H735.117C727.904 402.061 719.112 398.8 711.114 396.952C702.829 395.038 693.51 394.213 683.588 394.213H378.259ZM683.588 444.213C690.957 444.213 696.3 444.847 699.858 445.669C701.05 445.944 701.895 446.207 702.458 446.407C702.48 446.465 702.506 446.526 702.529 446.591C703.05 448.052 703.708 450.939 703.708 455.709V496.584C703.708 501.727 703.046 504.801 702.515 506.37C702.026 506.507 701.387 506.666 700.576 506.828C696.888 507.567 691.362 508.075 683.588 508.075C683.364 508.075 683.14 508.078 682.917 508.084H403.259V444.213H683.588ZM844.037 220.242C821.021 220.242 802.362 238.896 802.362 261.908C802.362 284.921 821.021 303.575 844.037 303.575C867.037 303.575 885.695 284.921 885.695 261.908C885.695 238.896 867.037 220.242 844.037 220.242Z" fill="#EAEAEA"/>
</svg>
