<svg width="30" height="30" viewBox="0 0 30 30" fill="none" xmlns="http://www.w3.org/2000/svg">
<g clip-path="url(#clip0_112_316)">
<path d="M7.87988 16.107H9.06914V22.5437H10.1943V16.107H11.4056V15.0528H7.87988V16.107Z" fill="#EAEAEA"/>
<path d="M17.3935 16.8939C17.0215 16.8939 16.6744 17.0971 16.3482 17.4991V15.0525H15.3369V22.5437H16.3482V22.003C16.6867 22.4207 17.0335 22.6208 17.3935 22.6208C17.7958 22.6208 18.0665 22.409 18.2016 21.9935C18.2694 21.7568 18.3041 21.3852 18.3041 20.8686V18.646C18.3041 18.1175 18.2694 17.7486 18.2016 17.5243C18.0668 17.1057 17.7955 16.8939 17.3935 16.8939ZM17.2922 20.9478C17.2922 21.4524 17.1443 21.701 16.8521 21.701C16.6861 21.701 16.517 21.6215 16.3479 21.4521V18.0503C16.517 17.8831 16.6861 17.8039 16.8521 17.8039C17.144 17.8039 17.2922 18.0623 17.2922 18.5656V20.9478Z" fill="#EAEAEA"/>
<path d="M13.4497 21.2277C13.2254 21.5448 13.0133 21.701 12.8101 21.701C12.6751 21.701 12.5981 21.6215 12.5735 21.4643C12.5643 21.4318 12.5643 21.3084 12.5643 21.0715V16.962H11.5527V21.375C11.5527 21.7694 11.5868 22.0358 11.642 22.2052C11.7436 22.4882 11.9683 22.6208 12.2936 22.6208C12.6659 22.6208 13.0477 22.3961 13.4497 21.9351V22.544H14.4619V16.962H13.4497V21.2277Z" fill="#EAEAEA"/>
<path d="M14.3181 11.8054C14.6474 11.8054 14.8054 11.5442 14.8054 11.0225V8.64982C14.8054 8.12778 14.6474 7.86783 14.3181 7.86783C13.9884 7.86783 13.8301 8.12808 13.8301 8.64982V11.0225C13.8301 11.5446 13.9884 11.8054 14.3181 11.8054Z" fill="#EAEAEA"/>
<path d="M15 0C6.7157 0 0 6.7157 0 15C0 23.2843 6.7157 30 15 30C23.2843 30 30 23.2843 30 15C30 6.7157 23.2843 0 15 0ZM16.6683 7.01586H17.6876V11.1689C17.6876 11.4086 17.6876 11.5329 17.6998 11.5663C17.7223 11.7247 17.8027 11.8057 17.9395 11.8057C18.1439 11.8057 18.3585 11.6474 18.5853 11.3273V7.01586H19.6073V12.6565H18.5853V12.0414C18.1783 12.5079 17.7904 12.7341 17.4175 12.7341C17.0885 12.7341 16.8614 12.6006 16.7589 12.3152C16.7024 12.1442 16.6683 11.8745 16.6683 11.4764V7.01586ZM12.8081 8.85514C12.8081 8.25207 12.9106 7.81136 13.1279 7.52624C13.4105 7.14046 13.8086 6.94772 14.3181 6.94772C14.83 6.94772 15.2277 7.14046 15.5104 7.52624C15.7246 7.81105 15.8271 8.25207 15.8271 8.85514V10.8304C15.8271 11.4301 15.7246 11.8748 15.5104 12.1568C15.2277 12.5417 14.83 12.7341 14.3181 12.7341C13.8086 12.7341 13.4105 12.5417 13.1279 12.1568C12.9106 11.8748 12.8081 11.4298 12.8081 10.8304V8.85514ZM10.0748 5.08726L10.8795 8.05964L11.6526 5.08726H12.7989L11.4353 9.5911V12.6568H10.3022V9.5911C10.1994 9.04788 9.97258 8.25207 9.6089 7.19632C9.37013 6.49381 9.12123 5.78916 8.88245 5.08726H10.0748ZM23.075 23.0366C22.87 23.9263 22.1423 24.5831 21.2661 24.681C19.1905 24.9127 17.0909 24.914 14.9991 24.9127C12.9081 24.914 10.8074 24.9127 8.73238 24.681C7.85616 24.5831 7.12818 23.9266 6.92378 23.0366C6.63192 21.7694 6.63192 20.3856 6.63192 19.0806C6.63192 17.7757 6.6356 16.3921 6.92716 15.1246C7.13187 14.2346 7.85923 13.5778 8.73545 13.4802C10.8107 13.2485 12.9112 13.2473 15.0028 13.2485C17.0937 13.2473 19.1942 13.2485 21.2695 13.4802C22.1457 13.5781 22.8737 14.2346 23.079 15.1246C23.3699 16.3921 23.3681 17.7757 23.3681 19.0806C23.3681 20.3856 23.3669 21.7694 23.075 23.0366Z" fill="#EAEAEA"/>
<path d="M20.6146 16.8939C20.0972 16.8939 19.6954 17.0839 19.4032 17.466C19.1887 17.7483 19.0908 18.1848 19.0908 18.7811V20.7364C19.0908 21.3296 19.2004 21.7691 19.4158 22.0487C19.7077 22.4299 20.1107 22.6205 20.6398 22.6205C21.168 22.6205 21.5826 22.4207 21.8625 22.0152C21.9852 21.836 22.065 21.6331 22.0988 21.4091C22.1083 21.3078 22.1203 21.0835 22.1203 20.7572V20.6102H21.0888C21.0888 21.0153 21.0756 21.2403 21.0667 21.2952C21.009 21.5656 20.8635 21.7007 20.6146 21.7007C20.2672 21.7007 20.0972 21.4429 20.0972 20.9266V19.9366H22.1203V18.7805C22.1203 18.1841 22.0193 17.7477 21.8072 17.4654C21.5246 17.0842 21.1222 16.8939 20.6146 16.8939ZM21.1093 19.095H20.0978V18.5785C20.0978 18.0623 20.2675 17.8042 20.6054 17.8042C20.9399 17.8042 21.1093 18.0626 21.1093 18.5785V19.095Z" fill="#EAEAEA"/>
</g>
<defs>
<clipPath id="clip0_112_316">
<rect width="30" height="30" fill="white"/>
</clipPath>
</defs>
</svg>
