<svg width="100" height="100" viewBox="0 0 100 100" fill="none" xmlns="http://www.w3.org/2000/svg">
<rect width="100" height="100" rx="50" fill="#131213"/>
<path d="M15.7954 55.5V45.42H23.3624V55.5H22.5574V46.204H16.6004V55.5H15.7954ZM28.4257 55.71C27.6744 55.71 27.0374 55.5397 26.5147 55.199C25.9921 54.8583 25.5931 54.387 25.3177 53.785C25.0424 53.183 24.9047 52.49 24.9047 51.706C24.9047 50.9173 25.0447 50.2243 25.3247 49.627C25.6047 49.025 26.0061 48.5583 26.5287 48.227C27.0561 47.8957 27.6884 47.73 28.4257 47.73C29.1771 47.73 29.8141 47.9003 30.3367 48.241C30.8641 48.577 31.2631 49.0437 31.5337 49.641C31.8091 50.2383 31.9467 50.9267 31.9467 51.706C31.9467 52.504 31.8091 53.204 31.5337 53.806C31.2584 54.4033 30.8571 54.87 30.3297 55.206C29.8024 55.542 29.1677 55.71 28.4257 55.71ZM28.4257 54.926C29.3171 54.926 29.9821 54.6273 30.4207 54.03C30.8641 53.4327 31.0857 52.658 31.0857 51.706C31.0857 50.7353 30.8641 49.9607 30.4207 49.382C29.9774 48.8033 29.3124 48.514 28.4257 48.514C27.8237 48.514 27.3267 48.6517 26.9347 48.927C26.5427 49.1977 26.2487 49.5733 26.0527 50.054C25.8614 50.53 25.7657 51.0807 25.7657 51.706C25.7657 52.6767 25.9897 53.456 26.4377 54.044C26.8904 54.632 27.5531 54.926 28.4257 54.926ZM36.1075 55.71C35.3328 55.71 34.6678 55.5397 34.1125 55.199C33.5571 54.8537 33.1185 54.373 32.7965 53.757L33.4545 53.358C33.7298 53.8667 34.0845 54.2563 34.5185 54.527C34.9571 54.793 35.4635 54.926 36.0375 54.926C36.6348 54.926 37.1155 54.786 37.4795 54.506C37.8481 54.2213 38.0325 53.8317 38.0325 53.337C38.0325 53.0197 37.9648 52.7583 37.8295 52.553C37.6941 52.3477 37.4795 52.196 37.1855 52.098C36.8915 52 36.5088 51.951 36.0375 51.951H35.0295V51.23H36.0305C36.5858 51.23 37.0268 51.1203 37.3535 50.901C37.6848 50.6817 37.8505 50.3573 37.8505 49.928C37.8505 49.452 37.6755 49.0973 37.3255 48.864C36.9755 48.6307 36.5531 48.514 36.0585 48.514C35.5825 48.514 35.1368 48.612 34.7215 48.808C34.3108 49.004 33.9725 49.2583 33.7065 49.571L33.1465 49.025C33.5058 48.5957 33.9375 48.2737 34.4415 48.059C34.9455 47.8397 35.5078 47.73 36.1285 47.73C36.6138 47.73 37.0478 47.8163 37.4305 47.989C37.8178 48.1617 38.1211 48.409 38.3405 48.731C38.5645 49.053 38.6765 49.438 38.6765 49.886C38.6765 50.3387 38.5645 50.7213 38.3405 51.034C38.1165 51.3467 37.8085 51.594 37.4165 51.776L37.3395 51.44C37.6941 51.482 37.9835 51.6057 38.2075 51.811C38.4361 52.0163 38.6018 52.2637 38.7045 52.553C38.8071 52.8377 38.8585 53.127 38.8585 53.421C38.8585 53.883 38.7395 54.2867 38.5015 54.632C38.2635 54.9727 37.9368 55.2387 37.5215 55.43C37.1061 55.6167 36.6348 55.71 36.1075 55.71ZM40.4048 55.5V47.94H43.4078C43.5385 47.94 43.7181 47.9493 43.9468 47.968C44.1801 47.982 44.4018 48.017 44.6118 48.073C45.0551 48.185 45.4005 48.4183 45.6478 48.773C45.8998 49.1277 46.0258 49.5407 46.0258 50.012C46.0258 50.264 45.9885 50.4973 45.9138 50.712C45.8438 50.922 45.7365 51.1087 45.5918 51.272C45.5265 51.3513 45.4518 51.4237 45.3678 51.489C45.2838 51.5497 45.2021 51.5987 45.1228 51.636C45.2628 51.664 45.4215 51.7363 45.5988 51.853C45.8695 52.021 46.0701 52.2427 46.2008 52.518C46.3315 52.7933 46.3968 53.1107 46.3968 53.47C46.3968 53.988 46.2708 54.408 46.0188 54.73C45.7715 55.052 45.4495 55.269 45.0528 55.381C44.8615 55.437 44.6585 55.472 44.4438 55.486C44.2291 55.4953 44.0331 55.5 43.8558 55.5H40.4048ZM41.2168 54.772H43.8348C43.9328 54.772 44.0611 54.765 44.2198 54.751C44.3785 54.7323 44.5185 54.709 44.6398 54.681C44.9571 54.6063 45.1858 54.4547 45.3258 54.226C45.4705 53.9927 45.5428 53.736 45.5428 53.456C45.5428 53.0873 45.4331 52.7863 45.2138 52.553C44.9945 52.315 44.6958 52.1727 44.3178 52.126C44.2105 52.1073 44.0961 52.098 43.9748 52.098C43.8581 52.0933 43.7485 52.091 43.6458 52.091H41.2168V54.772ZM41.2168 51.356H43.5688C43.6808 51.356 43.8138 51.349 43.9678 51.335C44.1218 51.3163 44.2595 51.286 44.3808 51.244C44.6515 51.1507 44.8521 50.992 44.9828 50.768C45.1135 50.5393 45.1788 50.2943 45.1788 50.033C45.1788 49.739 45.1088 49.4847 44.9688 49.27C44.8288 49.0507 44.6258 48.8943 44.3598 48.801C44.1731 48.7403 43.9771 48.7053 43.7718 48.696C43.5711 48.682 43.4451 48.675 43.3938 48.675H41.2168V51.356ZM50.9023 55.71C50.151 55.71 49.514 55.5397 48.9913 55.199C48.4686 54.8583 48.0696 54.387 47.7943 53.785C47.519 53.183 47.3813 52.49 47.3813 51.706C47.3813 50.9173 47.5213 50.2243 47.8013 49.627C48.0813 49.025 48.4826 48.5583 49.0053 48.227C49.5326 47.8957 50.165 47.73 50.9023 47.73C51.6536 47.73 52.2906 47.9003 52.8133 48.241C53.3406 48.577 53.7396 49.0437 54.0103 49.641C54.2856 50.2383 54.4233 50.9267 54.4233 51.706C54.4233 52.504 54.2856 53.204 54.0103 53.806C53.735 54.4033 53.3336 54.87 52.8063 55.206C52.279 55.542 51.6443 55.71 50.9023 55.71ZM50.9023 54.926C51.7936 54.926 52.4586 54.6273 52.8973 54.03C53.3406 53.4327 53.5623 52.658 53.5623 51.706C53.5623 50.7353 53.3406 49.9607 52.8973 49.382C52.454 48.8033 51.789 48.514 50.9023 48.514C50.3003 48.514 49.8033 48.6517 49.4113 48.927C49.0193 49.1977 48.7253 49.5733 48.5293 50.054C48.338 50.53 48.2423 51.0807 48.2423 51.706C48.2423 52.6767 48.4663 53.456 48.9143 54.044C49.367 54.632 50.0296 54.926 50.9023 54.926ZM55.9634 55.5V47.94H56.7684V51.328H61.3254V47.94H62.1304V55.5H61.3254V52.112H56.7684V55.5H55.9634ZM69.9085 47.94V55.5H69.1175V49.291L64.7915 55.5H64.0845V47.94H64.8755V54.121L69.2015 47.94H69.9085ZM73.9708 55.5V48.71H71.2338V47.94H77.5128V48.71H74.7758V55.5H73.9708ZM78.8434 55.5L78.8364 47.94H79.6554V50.894H81.5594C81.7834 50.894 81.9911 50.8987 82.1824 50.908C82.3784 50.9173 82.5581 50.9383 82.7214 50.971C83.0761 51.0317 83.3958 51.146 83.6804 51.314C83.9698 51.482 84.1984 51.72 84.3664 52.028C84.5391 52.3313 84.6254 52.721 84.6254 53.197C84.6254 53.8363 84.4574 54.338 84.1214 54.702C83.7901 55.066 83.3888 55.2993 82.9174 55.402C82.7261 55.444 82.5254 55.472 82.3154 55.486C82.1054 55.4953 81.8931 55.5 81.6784 55.5H78.8434ZM79.6554 54.765H81.5734C81.7461 54.765 81.9421 54.7603 82.1614 54.751C82.3808 54.7417 82.5698 54.716 82.7284 54.674C82.9898 54.5947 83.2301 54.4477 83.4494 54.233C83.6688 54.0183 83.7784 53.673 83.7784 53.197C83.7784 52.7303 83.6734 52.385 83.4634 52.161C83.2581 51.9323 82.9781 51.783 82.6234 51.713C82.4601 51.6757 82.2874 51.6523 82.1054 51.643C81.9234 51.6337 81.7461 51.629 81.5734 51.629H79.6554V54.765Z" fill="#F7F1F5"/>
</svg>
