<svg width="100" height="100" viewBox="0 0 100 100" fill="none" xmlns="http://www.w3.org/2000/svg">
<rect width="100" height="100" rx="50" fill="#F7F1F5"/>
<path d="M9.48586 55.5V45.42H17.2069V55.5H16.1779V46.407H10.5149V55.5H9.48586ZM23.2465 55.71C22.2432 55.71 21.3962 55.4883 20.7055 55.045C20.0149 54.597 19.4922 53.9787 19.1375 53.19C18.7829 52.4013 18.6055 51.4913 18.6055 50.46C18.6055 49.4287 18.7829 48.5187 19.1375 47.73C19.4922 46.9413 20.0149 46.3253 20.7055 45.882C21.3962 45.434 22.2432 45.21 23.2465 45.21C24.2545 45.21 25.1015 45.434 25.7875 45.882C26.4782 46.3253 27.0009 46.9413 27.3555 47.73C27.7149 48.5187 27.8945 49.4287 27.8945 50.46C27.8945 51.4913 27.7149 52.4013 27.3555 53.19C27.0009 53.9787 26.4782 54.597 25.7875 55.045C25.1015 55.4883 24.2545 55.71 23.2465 55.71ZM23.2465 54.723C24.0352 54.723 24.6932 54.5433 25.2205 54.184C25.7479 53.8247 26.1422 53.3253 26.4035 52.686C26.6695 52.042 26.8025 51.3 26.8025 50.46C26.8025 49.62 26.6695 48.8803 26.4035 48.241C26.1422 47.6017 25.7479 47.1023 25.2205 46.743C24.6932 46.3837 24.0352 46.2017 23.2465 46.197C22.4579 46.197 21.8022 46.3767 21.2795 46.736C20.7569 47.0953 20.3625 47.597 20.0965 48.241C19.8352 48.8803 19.7022 49.62 19.6975 50.46C19.6929 51.3 19.8212 52.0397 20.0825 52.679C20.3485 53.3137 20.7452 53.813 21.2725 54.177C21.7999 54.5363 22.4579 54.7183 23.2465 54.723ZM32.5234 55.71C31.8374 55.71 31.2424 55.6097 30.7384 55.409C30.2391 55.2083 29.8284 54.9447 29.5064 54.618C29.1844 54.2867 28.9441 53.9297 28.7854 53.547L29.7234 53.001C29.8354 53.3183 30.0127 53.6077 30.2554 53.869C30.4981 54.1303 30.8107 54.338 31.1934 54.492C31.5761 54.646 32.0311 54.723 32.5584 54.723C33.1044 54.723 33.5664 54.6367 33.9444 54.464C34.3271 54.2913 34.6164 54.0487 34.8124 53.736C35.0084 53.4233 35.1064 53.0593 35.1064 52.644C35.1064 52.1867 34.9967 51.832 34.7774 51.58C34.5581 51.328 34.2641 51.1507 33.8954 51.048C33.5267 50.9407 33.1161 50.88 32.6634 50.866C32.3227 50.852 32.0801 50.8427 31.9354 50.838C31.7907 50.8333 31.6951 50.831 31.6484 50.831C31.6017 50.831 31.5574 50.831 31.5154 50.831V49.837C31.5481 49.837 31.6344 49.837 31.7744 49.837C31.9144 49.837 32.0637 49.837 32.2224 49.837C32.3811 49.8323 32.5071 49.8277 32.6004 49.823C33.2677 49.7903 33.7927 49.6153 34.1754 49.298C34.5581 48.9807 34.7494 48.5513 34.7494 48.01C34.7494 47.436 34.5464 46.9903 34.1404 46.673C33.7391 46.3557 33.2187 46.197 32.5794 46.197C31.9774 46.197 31.4687 46.3417 31.0534 46.631C30.6427 46.9157 30.3067 47.2983 30.0454 47.779L29.2054 47.156C29.5227 46.5867 29.9707 46.12 30.5494 45.756C31.1281 45.392 31.8141 45.21 32.6074 45.21C33.0321 45.21 33.4381 45.2683 33.8254 45.385C34.2174 45.5017 34.5627 45.6743 34.8614 45.903C35.1647 46.1317 35.4027 46.421 35.5754 46.771C35.7527 47.1163 35.8414 47.5223 35.8414 47.989C35.8414 48.535 35.7201 49.011 35.4774 49.417C35.2394 49.823 34.9314 50.1287 34.5534 50.334C35.0667 50.488 35.4681 50.7587 35.7574 51.146C36.0514 51.5333 36.1984 52.0397 36.1984 52.665C36.1984 53.281 36.0467 53.8177 35.7434 54.275C35.4401 54.7323 35.0107 55.087 34.4554 55.339C33.9047 55.5863 33.2607 55.71 32.5234 55.71ZM37.6499 55.5V45.42H41.5419C42.1066 45.42 42.5989 45.5367 43.0189 45.77C43.4389 46.0033 43.7656 46.3183 43.9989 46.715C44.2323 47.107 44.3489 47.541 44.3489 48.017C44.3489 48.5583 44.2043 49.0413 43.9149 49.466C43.6256 49.886 43.2383 50.1777 42.7529 50.341L42.7389 49.998C43.3923 50.1847 43.9056 50.5113 44.2789 50.978C44.6523 51.4447 44.8389 52.0093 44.8389 52.672C44.8389 53.2553 44.7153 53.7593 44.4679 54.184C44.2206 54.604 43.8729 54.9283 43.4249 55.157C42.9769 55.3857 42.4566 55.5 41.8639 55.5H37.6499ZM38.6859 54.513H41.6119C42.0226 54.513 42.3913 54.4407 42.7179 54.296C43.0446 54.1467 43.3013 53.9367 43.4879 53.666C43.6793 53.3953 43.7749 53.0687 43.7749 52.686C43.7749 52.3127 43.6886 51.9767 43.5159 51.678C43.3433 51.3793 43.1076 51.1413 42.8089 50.964C42.5149 50.782 42.1789 50.691 41.8009 50.691H38.6859V54.513ZM38.6859 49.718H41.5349C41.8569 49.718 42.1509 49.6457 42.4169 49.501C42.6829 49.3517 42.8929 49.1487 43.0469 48.892C43.2056 48.6353 43.2849 48.339 43.2849 48.003C43.2849 47.527 43.1193 47.1397 42.7879 46.841C42.4613 46.5423 42.0436 46.393 41.5349 46.393H38.6859V49.718ZM50.3169 55.71C49.3135 55.71 48.4665 55.4883 47.7759 55.045C47.0852 54.597 46.5625 53.9787 46.2079 53.19C45.8532 52.4013 45.6759 51.4913 45.6759 50.46C45.6759 49.4287 45.8532 48.5187 46.2079 47.73C46.5625 46.9413 47.0852 46.3253 47.7759 45.882C48.4665 45.434 49.3135 45.21 50.3169 45.21C51.3249 45.21 52.1719 45.434 52.8579 45.882C53.5485 46.3253 54.0712 46.9413 54.4259 47.73C54.7852 48.5187 54.9649 49.4287 54.9649 50.46C54.9649 51.4913 54.7852 52.4013 54.4259 53.19C54.0712 53.9787 53.5485 54.597 52.8579 55.045C52.1719 55.4883 51.3249 55.71 50.3169 55.71ZM50.3169 54.723C51.1055 54.723 51.7635 54.5433 52.2909 54.184C52.8182 53.8247 53.2125 53.3253 53.4739 52.686C53.7399 52.042 53.8729 51.3 53.8729 50.46C53.8729 49.62 53.7399 48.8803 53.4739 48.241C53.2125 47.6017 52.8182 47.1023 52.2909 46.743C51.7635 46.3837 51.1055 46.2017 50.3169 46.197C49.5282 46.197 48.8725 46.3767 48.3499 46.736C47.8272 47.0953 47.4329 47.597 47.1669 48.241C46.9055 48.8803 46.7725 49.62 46.7679 50.46C46.7632 51.3 46.8915 52.0397 47.1529 52.679C47.4189 53.3137 47.8155 53.813 48.3429 54.177C48.8702 54.5363 49.5282 54.7183 50.3169 54.723ZM56.3667 55.5V45.42H57.3957V49.963H62.9677V45.42H63.9897V55.5H62.9677V50.95H57.3957V55.5H56.3667ZM73.5737 55.5H72.5377V47.233L66.9867 55.5H65.9507V45.42H66.9867V53.68L72.5377 45.42H73.5737V55.5ZM78.2157 55.5V46.407H74.6947V45.42H82.7657V46.407H79.2447V55.5H78.2157ZM83.8812 55.5V45.42H84.9102V49.249H87.7732C87.8712 49.249 87.9809 49.2537 88.1022 49.263C88.2282 49.2677 88.3565 49.2817 88.4872 49.305C89.0099 49.3843 89.4532 49.5687 89.8172 49.858C90.1859 50.1427 90.4635 50.502 90.6502 50.936C90.8415 51.37 90.9372 51.8483 90.9372 52.371C90.9372 52.8983 90.8415 53.379 90.6502 53.813C90.4635 54.247 90.1859 54.6087 89.8172 54.898C89.4532 55.1827 89.0099 55.3647 88.4872 55.444C88.3565 55.4627 88.2282 55.4767 88.1022 55.486C87.9809 55.4953 87.8712 55.5 87.7732 55.5H83.8812ZM84.9102 54.513H87.7452C87.8339 54.513 87.9342 54.5083 88.0462 54.499C88.1582 54.4897 88.2679 54.4757 88.3752 54.457C88.7159 54.3823 88.9982 54.24 89.2222 54.03C89.4462 53.82 89.6119 53.5703 89.7192 53.281C89.8265 52.987 89.8802 52.6837 89.8802 52.371C89.8802 52.0583 89.8265 51.7573 89.7192 51.468C89.6119 51.1787 89.4462 50.929 89.2222 50.719C88.9982 50.509 88.7159 50.3667 88.3752 50.292C88.2679 50.2687 88.1582 50.2523 88.0462 50.243C87.9342 50.2337 87.8339 50.229 87.7452 50.229H84.9102V54.513Z" fill="#131213"/>
</svg>
