<svg width="32" height="32" viewBox="0 0 32 32" fill="none" xmlns="http://www.w3.org/2000/svg">
<path d="M27.5405 18.4453C28.602 19.4754 29.7223 20.4446 30.6743 21.5786C31.0949 22.0825 31.493 22.6025 31.7977 23.1873C32.2293 24.0186 31.8383 24.9335 31.0884 24.9831L26.4265 24.981C25.2242 25.0802 24.265 24.5991 23.4585 23.7819C22.8131 23.1284 22.2153 22.4329 21.5947 21.7574C21.3402 21.4813 21.0739 21.2215 20.7558 21.0162C20.1194 20.6056 19.567 20.7313 19.2033 21.391C18.8329 22.0621 18.7489 22.8051 18.7125 23.5529C18.6626 24.644 18.3308 24.9309 17.2281 24.9809C14.8715 25.0913 12.635 24.737 10.5573 23.5553C8.72559 22.5136 7.30522 21.043 6.06885 19.3781C3.66179 16.1363 1.81836 12.574 0.161613 8.91198C-0.211324 8.08692 0.0614256 7.64404 0.977298 7.62832C2.49811 7.59893 4.01873 7.60105 5.54135 7.62621C6.15947 7.63521 6.56866 7.98758 6.80735 8.568C7.63016 10.579 8.63697 12.4923 9.90071 14.2657C10.2373 14.7379 10.5805 15.2101 11.0691 15.5424C11.6097 15.9103 12.0213 15.7884 12.2756 15.1898C12.437 14.8102 12.5077 14.4014 12.5441 13.9949C12.6646 12.5963 12.6805 11.2001 12.4691 9.80637C12.3394 8.93658 11.8465 8.37349 10.9733 8.20893C10.5278 8.125 10.5941 7.96018 10.8098 7.7074C11.1845 7.27142 11.537 7 12.2395 7H17.5081C18.3376 7.1627 18.5218 7.53308 18.6353 8.36262L18.6398 14.1797C18.6308 14.5008 18.8012 15.4538 19.3831 15.6664C19.8489 15.8177 20.1559 15.4473 20.4354 15.1538C21.6968 13.823 22.5971 12.2503 23.4014 10.6218C23.7584 9.90571 24.0653 9.16209 24.3627 8.41903C24.5831 7.86768 24.9289 7.59639 25.5537 7.60838L30.6245 7.61285C30.7748 7.61285 30.927 7.61502 31.0726 7.63981C31.927 7.78456 32.1612 8.14991 31.8973 8.97926C31.4815 10.2804 30.6724 11.3648 29.8813 12.4541C29.0357 13.6172 28.1313 14.7404 27.2927 15.9103C26.5222 16.9789 26.5834 17.5173 27.5405 18.4453Z" fill="#DEDEE0"/>
</svg>
