<svg width="32" height="32" viewBox="0 0 32 32" fill="none" xmlns="http://www.w3.org/2000/svg">
<path fill-rule="evenodd" clip-rule="evenodd" d="M16.7232 18.0783C16.2122 18.2871 15.8858 19.0871 15.5546 19.4958C15.3848 19.7051 15.1823 19.7378 14.9213 19.6329C13.0033 18.8687 11.5331 17.5889 10.4747 15.8239C10.2954 15.5502 10.3276 15.334 10.5438 15.0798C10.8634 14.7033 11.2652 14.2756 11.3517 13.7683C11.5436 12.6461 10.0766 9.16514 8.13912 10.7424C2.56407 15.2855 17.4393 27.3347 20.124 20.8178C20.8834 18.9705 17.5701 17.7313 16.7232 18.0783ZM13.5001 27.6416C11.5283 27.6416 9.58825 27.1174 7.88969 26.125C7.61705 25.9652 7.28747 25.923 6.98266 26.0058L3.2918 27.0188L4.57746 24.1865C4.75254 23.801 4.70771 23.3522 4.46039 23.0094C3.08509 21.1031 2.35788 18.8524 2.35788 16.4999C2.35788 10.3559 7.35602 5.35774 13.5001 5.35774C19.6441 5.35774 24.6417 10.3559 24.6417 16.4999C24.6417 22.6435 19.6436 27.6416 13.5001 27.6416ZM13.5001 3C6.05613 3 0.000141134 9.05598 0.000141134 16.4999C0.000141134 19.1187 0.743692 21.6336 2.15644 23.8163L0.105609 28.3329C-0.0837061 28.7501 -0.0146244 29.2384 0.281741 29.5859C0.509553 29.8522 0.839141 29.9999 1.17928 29.9999C1.9397 29.9999 6.08618 28.6968 7.14139 28.4073C9.09203 29.4509 11.28 29.9999 13.5001 29.9999C20.9435 29.9999 27 23.9433 27 16.4999C27 9.05598 20.9435 3 13.5001 3Z" fill="#1EA113"/>
</svg>
