<svg width="32" height="32" viewBox="0 0 32 32" fill="none" xmlns="http://www.w3.org/2000/svg">
<path fill-rule="evenodd" clip-rule="evenodd" d="M18.7232 18.0783C18.2122 18.2871 17.8858 19.0871 17.5546 19.4958C17.3848 19.7051 17.1823 19.7378 16.9213 19.6329C15.0033 18.8687 13.5331 17.5889 12.4747 15.8239C12.2954 15.5502 12.3276 15.334 12.5438 15.0798C12.8634 14.7033 13.2652 14.2756 13.3517 13.7683C13.5436 12.6461 12.0766 9.16514 10.1391 10.7424C4.56407 15.2855 19.4393 27.3347 22.124 20.8178C22.8834 18.9705 19.5701 17.7313 18.7232 18.0783ZM15.5001 27.6416C13.5283 27.6416 11.5883 27.1174 9.88969 26.125C9.61705 25.9652 9.28747 25.923 8.98266 26.0058L5.2918 27.0188L6.57746 24.1865C6.75254 23.801 6.70771 23.3522 6.46039 23.0094C5.08509 21.1031 4.35788 18.8524 4.35788 16.4999C4.35788 10.3559 9.35602 5.35774 15.5001 5.35774C21.6441 5.35774 26.6417 10.3559 26.6417 16.4999C26.6417 22.6435 21.6436 27.6416 15.5001 27.6416ZM15.5001 3C8.05613 3 2.00014 9.05598 2.00014 16.4999C2.00014 19.1187 2.74369 21.6336 4.15644 23.8163L2.10561 28.3329C1.91629 28.7501 1.98538 29.2384 2.28174 29.5859C2.50955 29.8522 2.83914 29.9999 3.17928 29.9999C3.9397 29.9999 8.08618 28.6968 9.14139 28.4073C11.092 29.4509 13.28 29.9999 15.5001 29.9999C22.9435 29.9999 29 23.9433 29 16.4999C29 9.05598 22.9435 3 15.5001 3Z" fill="#DEDEE0"/>
</svg>
