<svg width="32" height="32" viewBox="0 0 32 32" fill="none" xmlns="http://www.w3.org/2000/svg">
<path d="M6.66968 5.7795L4 0H6.32377L7.65261 4.31979L8.97632 0H11.2967L8.79651 5.7795V12.5101H6.66968V5.7795ZM11.1203 6.66278C11.1203 5.87444 11.1973 5.22003 11.3378 4.70972C11.5159 4.17738 11.795 3.79762 12.1871 3.56705C12.5793 3.28053 13.0776 3.13642 13.6855 3.13642C14.2198 3.13642 14.665 3.22458 15.0315 3.39412C15.3911 3.53823 15.689 3.78744 15.9202 4.14686C16.0949 4.40795 16.2267 4.69785 16.3124 5.03015C16.3946 5.38787 16.4408 5.86766 16.4408 6.47121V8.72434C16.4408 9.54321 16.3946 10.1298 16.3124 10.4909C16.2781 10.8181 16.1377 11.1843 15.874 11.5861C15.6154 11.9421 15.3346 12.1795 15.0315 12.2948C14.665 12.4677 14.2575 12.5508 13.7917 12.5508C13.319 12.5508 12.8789 12.4796 12.4919 12.3355C12.1272 12.2219 11.8583 12.0134 11.6888 11.715C11.5159 11.481 11.3686 11.1623 11.2504 10.7452C11.1665 10.3553 11.1203 9.77377 11.1203 8.98374V6.66278ZM12.9012 10.1654C12.9012 10.3943 12.9885 10.5994 13.1632 10.7791C13.3345 10.9554 13.5468 11.0453 13.79 11.0453C14.0194 11.0453 14.2283 10.9605 14.4099 10.7876C14.5914 10.6181 14.6787 10.4078 14.6787 10.1654V5.50146C14.6787 5.24376 14.5914 5.02845 14.4099 4.84874C14.2301 4.66903 14.0194 4.57748 13.7917 4.57748C13.5605 4.57748 13.3533 4.66903 13.1752 4.84874C12.9937 5.02845 12.9012 5.24376 12.9012 5.50146V10.1654ZM17.9152 11.6285C17.8638 11.5132 17.8227 11.3912 17.809 11.2725C17.7919 11.1521 17.7731 11.0317 17.7405 10.9181C17.7131 10.774 17.6994 10.5808 17.6994 10.3349V9.39232V3.48397H19.566V10.3163C19.566 10.4909 19.6293 10.6367 19.7595 10.769C19.8948 10.8961 20.0643 10.9622 20.2818 10.9622C20.4856 10.9622 20.6585 10.8961 20.8024 10.769C20.9496 10.6384 21.025 10.4909 21.025 10.3163V3.48397H22.7562V12.2524H20.5472L20.5866 11.5437C20.3828 11.8286 20.191 12.0523 20.0009 12.2083C19.7698 12.3507 19.518 12.4236 19.2406 12.4236C18.9101 12.4236 18.6327 12.3507 18.4152 12.2083C18.2252 12.0812 18.059 11.8862 17.9152 11.6285Z" fill="white"/>
<path d="M29 18.1248V27.5578C29 28.1478 28.875 28.6852 28.6216 29.1786C28.3698 29.6753 28.0256 30.1094 27.589 30.4823C27.154 30.857 26.6523 31.1469 26.082 31.3622C25.5084 31.5758 24.8919 31.6843 24.2275 31.6843H4.75199C4.10298 31.6843 3.49164 31.5758 2.91969 31.3622C2.34774 31.1469 1.84429 30.857 1.41104 30.4823C0.97951 30.1094 0.631887 29.6753 0.376735 29.1786C0.125007 28.6852 0 28.1478 0 27.5578V18.1248C0 17.5654 0.125007 17.0313 0.378447 16.5244C0.631887 16.0158 0.981222 15.5767 1.41275 15.2139C1.846 14.8494 2.34945 14.5527 2.92141 14.3323C3.49336 14.1119 4.10469 14 4.75371 14H24.2292C24.8782 14 25.4912 14.1119 26.0717 14.3323C26.6505 14.5527 27.1557 14.8494 27.5907 15.2139C28.0273 15.5784 28.3698 16.0175 28.6233 16.5244C28.8767 17.0313 29 17.5654 29 18.1248ZM6.05686 28.6107V18.6606H8.4457V17.1568H1.99669V18.6182H4.0636V28.6107H6.05686ZM13.3073 20.122H11.3123V25.4335C11.3123 25.8184 11.3157 26.1168 11.3311 26.3219C11.3448 26.5321 11.3157 26.6644 11.2438 26.7203C11.1839 26.9492 11.0161 27.117 10.7301 27.2255C10.4544 27.3306 10.2403 27.1815 10.0913 26.7627C10.0605 26.7068 10.0571 26.566 10.0725 26.3456C10.0862 26.1219 10.0913 25.8319 10.0913 25.4725L10.0503 20.122H8.05356L8.09979 25.3895C8.09979 25.8031 8.08952 26.149 8.07582 26.4287C8.06212 26.7084 8.06554 26.9187 8.09979 27.0628C8.12719 27.295 8.15288 27.5392 8.1837 27.8054C8.2111 28.0681 8.34809 28.2817 8.59811 28.4394C8.82929 28.5818 9.09985 28.6564 9.40809 28.6564C9.72318 28.6564 10.028 28.6039 10.3225 28.5021C10.6222 28.4004 10.8928 28.2631 11.1462 28.0868C11.3979 27.9088 11.5846 27.7155 11.6976 27.5154L11.6582 28.5666L13.3073 28.609V20.122ZM19.7529 26.1829V21.7766C19.7529 20.9323 19.4515 20.3288 18.8453 19.9728C18.6432 19.8592 18.4069 19.7998 18.1483 19.7998C17.6689 19.7998 17.1209 20.0219 16.4993 20.4661V17.1568H14.5026V28.5259L16.1533 28.4835L16.2818 27.7748C16.8178 28.2207 17.3024 28.492 17.7254 28.592C18.1552 28.6903 18.5131 28.6513 18.811 28.4716C19.109 28.2953 19.3402 28.002 19.5046 27.59C19.669 27.1831 19.7529 26.7101 19.7529 26.1829ZM17.3469 20.8967C17.5781 20.8967 17.7802 20.9646 17.9634 21.1019C18.1432 21.2375 18.234 21.3918 18.234 21.5613V26.5491C18.234 26.7203 18.1432 26.8678 17.9634 26.9984C17.7802 27.1272 17.5764 27.1933 17.3469 27.1933C17.1123 27.1933 16.9085 27.1272 16.7236 26.9984C16.5455 26.8695 16.4582 26.7203 16.4582 26.5491V21.5613C16.4582 21.3901 16.5472 21.2375 16.7236 21.1019C16.9085 20.9646 17.1123 20.8967 17.3469 20.8967ZM26.0478 25.6268H24.5528V25.8404V26.5915C24.5528 26.822 24.4689 26.9984 24.3028 27.1272C24.1367 27.2577 23.9381 27.3188 23.7086 27.3188H23.3986C23.1692 27.3188 22.9808 27.2577 22.8267 27.1272C22.6743 26.9984 22.5955 26.8203 22.5955 26.5915V26.5067V25.6675V24.5486H26.0478V23.3669C26.0478 22.9244 26.0409 22.4972 26.0255 22.0903C26.0118 21.68 25.9776 21.3613 25.9193 21.1358C25.8611 20.7459 25.6864 20.4339 25.3851 20.1983C25.0905 19.9626 24.7446 19.8015 24.3456 19.7168C23.9483 19.6269 23.5425 19.6134 23.1281 19.6727C22.7171 19.7303 22.3626 19.8643 22.0527 20.0796C21.6657 20.3373 21.3848 20.6899 21.2084 21.1358C21.0338 21.5766 20.9482 22.1937 20.9482 22.9837V25.6285C20.9482 26.7424 21.2478 27.5409 21.8403 28.0122C22.3883 28.4547 22.9654 28.6785 23.5733 28.6785C23.6332 28.6785 23.6898 28.6785 23.7514 28.6785C24.4329 28.6378 25.0323 28.3496 25.5546 27.8189C25.945 27.4324 26.1402 26.9221 26.1402 26.2948C26.118 26.0913 26.094 25.8675 26.0478 25.6268ZM24.5066 23.1075H22.5972L22.64 22.0581C22.64 21.8275 22.7274 21.641 22.9003 21.4867C23.075 21.3358 23.2822 21.2595 23.5322 21.2595H23.6195C23.8764 21.2595 24.0973 21.3324 24.2805 21.4749C24.4586 21.619 24.5528 21.8122 24.5528 22.0581L24.5066 23.1075Z" fill="#FF0000"/>
</svg>
