<svg width="32" height="32" viewBox="0 0 32 32" fill="none" xmlns="http://www.w3.org/2000/svg">
<path d="M31 18.4405V27.8735C31 28.4635 30.875 29.0009 30.6216 29.4943C30.3698 29.991 30.0256 30.425 29.589 30.798C29.154 31.1727 28.6523 31.4626 28.082 31.6779C27.5084 31.8915 26.8919 32 26.2275 32H6.75199C6.10298 32 5.49164 31.8915 4.91969 31.6779C4.34774 31.4626 3.84429 31.1727 3.41104 30.798C2.97951 30.425 2.63189 29.991 2.37673 29.4943C2.12501 29.0009 2 28.4635 2 27.8735V18.4405C2 17.881 2.12501 17.347 2.37845 16.8401C2.63189 16.3314 2.98122 15.8923 3.41275 15.5295C3.846 15.165 4.34945 14.8683 4.92141 14.6479C5.49336 14.4276 6.10469 14.3157 6.75371 14.3157H26.2292C26.8782 14.3157 27.4912 14.4276 28.0717 14.6479C28.6505 14.8683 29.1557 15.165 29.5907 15.5295C30.0273 15.894 30.3698 16.3331 30.6233 16.8401C30.8767 17.347 31 17.881 31 18.4405ZM8.05686 28.9263V18.9762H10.4457V17.4724H3.99669V18.9338H6.0636V28.9263H8.05686ZM9.03124 5.7795L6.36156 0H8.68533L10.0142 4.31979L11.3379 0H13.6582L11.1581 5.7795V12.5101H9.03124V5.7795ZM15.3073 20.4376H13.3123V25.7492C13.3123 26.134 13.3157 26.4324 13.3311 26.6376C13.3448 26.8478 13.3157 26.98 13.2438 27.036C13.1839 27.2648 13.0161 27.4327 12.7301 27.5412C12.4544 27.6463 12.2403 27.4971 12.0913 27.0784C12.0605 27.0224 12.0571 26.8817 12.0725 26.6613C12.0862 26.4375 12.0913 26.1476 12.0913 25.7882L12.0503 20.4376H10.0536L10.0998 25.7051C10.0998 26.1188 10.0895 26.4646 10.0758 26.7444C10.0621 27.0241 10.0655 27.2343 10.0998 27.3784C10.1272 27.6107 10.1529 27.8548 10.1837 28.121C10.2111 28.3838 10.3481 28.5974 10.5981 28.7551C10.8293 28.8975 11.0999 28.9721 11.4081 28.9721C11.7232 28.9721 12.028 28.9195 12.3225 28.8178C12.6222 28.7161 12.8928 28.5788 13.1462 28.4024C13.3979 28.2244 13.5846 28.0312 13.6976 27.8311L13.6582 28.8822L15.3073 28.9246V20.4376ZM13.4818 6.66278C13.4818 5.87444 13.5589 5.22003 13.6993 4.70972C13.8774 4.17738 14.1565 3.79762 14.5487 3.56705C14.9408 3.28053 15.4391 3.13642 16.0471 3.13642C16.5813 3.13642 17.0266 3.22458 17.393 3.39412C17.7526 3.53823 18.0506 3.78744 18.2818 4.14686C18.4564 4.40795 18.5883 4.69785 18.6739 5.03015C18.7561 5.38787 18.8024 5.86766 18.8024 6.47121V8.72434C18.8024 9.54321 18.7561 10.1298 18.6739 10.4909C18.6397 10.8181 18.4993 11.1843 18.2355 11.5861C17.977 11.9421 17.6961 12.1795 17.393 12.2948C17.0266 12.4677 16.619 12.5508 16.1532 12.5508C15.6806 12.5508 15.2405 12.4796 14.8535 12.3355C14.4887 12.2219 14.2199 12.0134 14.0504 11.715C13.8774 11.481 13.7301 11.1623 13.612 10.7452C13.5281 10.3553 13.4818 9.77377 13.4818 8.98373V6.66278ZM15.2628 10.1654C15.2628 10.3943 15.3501 10.5994 15.5248 10.7791C15.696 10.9554 15.9084 11.0453 16.1515 11.0453C16.381 11.0453 16.5899 10.9605 16.7714 10.7876C16.9529 10.6181 17.0403 10.4078 17.0403 10.1654V5.50146C17.0403 5.24376 16.9529 5.02845 16.7714 4.84874C16.5916 4.66903 16.381 4.57748 16.1532 4.57748C15.9221 4.57748 15.7148 4.66903 15.5368 4.84874C15.3552 5.02845 15.2628 5.24376 15.2628 5.50146V10.1654ZM21.7529 26.4985V22.0923C21.7529 21.248 21.4515 20.6445 20.8453 20.2884C20.6432 20.1748 20.4069 20.1155 20.1483 20.1155C19.6688 20.1155 19.1209 20.3376 18.4993 20.7818V17.4724H16.5026V28.8415L18.1533 28.7992L18.2818 28.0905C18.8178 28.5364 19.3024 28.8076 19.7254 28.9077C20.1552 29.006 20.5131 28.967 20.811 28.7873C21.109 28.611 21.3402 28.3177 21.5046 27.9057C21.669 27.4988 21.7529 27.0258 21.7529 26.4985ZM19.3469 21.2124C19.5781 21.2124 19.7802 21.2802 19.9634 21.4175C20.1432 21.5532 20.234 21.7074 20.234 21.877V26.8647C20.234 27.036 20.1432 27.1835 19.9634 27.314C19.7802 27.4429 19.5764 27.509 19.3469 27.509C19.1123 27.509 18.9085 27.4429 18.7236 27.314C18.5455 27.1852 18.4582 27.036 18.4582 26.8647V21.877C18.4582 21.7057 18.5472 21.5532 18.7236 21.4175C18.9085 21.2802 19.1123 21.2124 19.3469 21.2124ZM20.2768 11.6285C20.2254 11.5132 20.1843 11.3912 20.1706 11.2725C20.1535 11.1521 20.1346 11.0317 20.1021 10.9181C20.0747 10.774 20.061 10.5808 20.061 10.3349V9.39232V3.48397H21.9275V10.3163C21.9275 10.4909 21.9909 10.6367 22.121 10.769C22.2563 10.8961 22.4259 10.9622 22.6433 10.9622C22.8471 10.9622 23.0201 10.8961 23.1639 10.769C23.3112 10.6384 23.3865 10.4909 23.3865 10.3163V3.48397H25.1178V12.2524H22.9088L22.9482 11.5437C22.7444 11.8286 22.5526 12.0523 22.3625 12.2083C22.1313 12.3507 21.8796 12.4236 21.6022 12.4236C21.2717 12.4236 20.9943 12.3507 20.7768 12.2083C20.5867 12.0812 20.4206 11.8862 20.2768 11.6285ZM28.0478 25.9425H26.5528V26.1561V26.9071C26.5528 27.1377 26.4689 27.314 26.3028 27.4429C26.1367 27.5734 25.9381 27.6344 25.7086 27.6344H25.3986C25.1692 27.6344 24.9808 27.5734 24.8267 27.4429C24.6743 27.314 24.5955 27.136 24.5955 26.9071V26.8224V25.9832V24.8642H28.0478V23.6825C28.0478 23.2401 28.0409 22.8128 28.0255 22.4059C28.0118 21.9957 27.9776 21.6769 27.9193 21.4514C27.8611 21.0615 27.6864 20.7496 27.3851 20.5139C27.0905 20.2783 26.7446 20.1172 26.3456 20.0324C25.9483 19.9426 25.5425 19.929 25.1281 19.9883C24.7171 20.046 24.3626 20.1799 24.0527 20.3952C23.6657 20.6529 23.3848 21.0056 23.2084 21.4514C23.0338 21.8922 22.9482 22.5094 22.9482 23.2994V25.9442C22.9482 27.058 23.2478 27.8565 23.8403 28.3278C24.3883 28.7703 24.9654 28.9941 25.5733 28.9941C25.6332 28.9941 25.6898 28.9941 25.7514 28.9941C26.4329 28.9534 27.0323 28.6652 27.5546 28.1346C27.945 27.748 28.1402 27.2377 28.1402 26.6104C28.118 26.407 28.094 26.1832 28.0478 25.9425ZM26.5066 23.4232H24.5972L24.64 22.3737C24.64 22.1432 24.7274 21.9567 24.9003 21.8024C25.075 21.6515 25.2822 21.5752 25.5322 21.5752H25.6195C25.8764 21.5752 26.0973 21.6481 26.2805 21.7905C26.4586 21.9346 26.5528 22.1279 26.5528 22.3737L26.5066 23.4232Z" fill="#DEDEE0"/>
</svg>
