<svg width="84" height="84" viewBox="0 0 84 84" fill="none" xmlns="http://www.w3.org/2000/svg">
<path d="M62.36 35.92C55.4 49 34.16 50.92 27.92 57.52C27.92 57.52 28.04 57.52 28.16 57.52C28.4 57.52 28.64 57.52 29.12 57.52C31.64 57.52 38.24 57.76 45.08 60.4C45.8 60.64 46.64 60.76 47.48 60.76C51.2 60.76 56 58.36 57.44 54.52C57.8 53.44 58.4 52.96 58.64 52.96C58.88 52.96 59 53.08 59 53.44C59 53.8 58.88 54.28 58.52 55C56.12 59.56 51.92 64 45.8 64.48C45.44 64.48 45.08 64.48 44.84 64.48C39.08 64.48 32.36 60.76 27.68 60.76C27.44 60.76 27.2 60.76 26.96 60.76C23.36 61 22.76 61.48 21.44 63.4C20.84 64.24 20.36 64.72 20.12 64.72C20.12 64.72 20 64.6 20 64.48C20 64.12 20.24 63.4 20.84 62.32C26.72 51.4 48.32 50.32 57.08 34.96C58.88 31.84 59.84 28.48 59.84 25.72C59.84 22.48 58.52 20.2 55.4 20.2C46.04 20.2 37.64 30.88 37.64 36.88C37.64 39.4 39.32 40.72 41.72 40.72C46.76 40.72 53.96 34.6 53.96 28.36C53.96 28 53.96 28.24 53.96 27.88C53.96 26.8 54.2 26.2 54.56 26.2C54.8 26.2 55.16 26.8 55.16 28.12C55.16 34.6 48.44 42.04 41.72 42.04C38.12 42.04 35.96 39.52 35.96 35.92C35.96 29.08 43.28 19 55.52 19C61.64 19 64.16 23.56 64.16 28.6C64.16 31 63.56 33.64 62.36 35.92Z" fill="white"/>
</svg>
