<svg width="83" height="84" viewBox="0 0 83 84" fill="none" xmlns="http://www.w3.org/2000/svg">
<path d="M64.72 26.96C64.72 28.04 64.48 29.12 64 30.2C61.6 35.12 54.4 36.68 54.4 36.68C58.12 36.92 59.68 40.04 59.68 43.76C59.68 46.76 58.6 50 56.92 52.52C51.52 60.2 41.92 64.64 31.96 64.64C23.08 64.64 19 59.6 19 56C19 54.2 20.2 52.76 22 52.76C23.32 52.76 24.64 54.2 24.64 55.64C24.64 56.96 23.56 57.92 22.24 57.92C21.88 57.92 21.4 57.8 21.28 57.8C21.16 57.8 21.04 57.8 21.04 57.92C21.28 61.16 27.64 63.68 32.2 63.68C39.52 63.68 44.68 59.96 51.16 53.12C55.12 48.92 56.32 45.32 56.32 42.68C56.32 39.32 54.4 37.28 52.84 37.28C52.72 37.28 52.48 37.28 52.36 37.4C49.84 38.48 45.88 39.56 42.76 40.64C42.64 40.64 42.52 40.76 42.4 40.76C42.04 40.76 41.8 40.4 41.8 40.16C41.8 39.68 42.04 39.2 42.76 39.08C52.36 36.8 58.72 33.68 61.84 28.16C62.2 27.44 62.44 26.6 62.44 25.76C62.44 23.48 61.12 21.08 57.64 21.08C49.72 21.08 44.32 26.12 44.32 29.96C44.32 32.12 45.88 33.32 47.92 33.32C51.28 33.32 56.2 30.56 56.92 26.72C57.04 26.12 57.28 25.88 57.52 25.88C57.76 25.88 57.88 26.12 57.88 26.48C57.88 26.6 57.88 26.84 57.76 27.08C56.44 31.76 51.64 34.16 47.92 34.16C44.92 34.16 43 32.36 43 29.24C43 25.04 46.96 20 57.76 20C62.08 20 64.72 23.36 64.72 26.96Z" fill="white"/>
</svg>
