<svg width="83" height="84" viewBox="0 0 83 84" fill="none" xmlns="http://www.w3.org/2000/svg">
<path d="M59.36 20.24C45.92 30.08 41.6 34.88 27.2 48.8C27.2 48.8 27.2 48.8 27.32 48.8C27.8 48.8 29.84 48.68 33.8 48.68C36.8 48.68 41 48.8 46.76 49.16C47 49.16 55.28 38.12 56.96 34.64C57.32 33.92 57.8 33.56 58.16 33.56C58.52 33.56 58.76 33.8 58.76 34.28C58.76 34.52 58.76 34.88 58.52 35.24C56.96 38 51.44 46.52 49.76 49.28C49.76 49.28 49.76 49.28 49.88 49.28C50.24 49.28 52.04 49.16 54.32 48.2C54.68 48.08 54.92 47.96 55.04 47.96C55.28 47.96 55.4 48.08 55.4 48.2C55.4 48.44 55.04 48.8 54.32 49.16C52.28 50.12 50.6 50.24 49.76 50.24C49.4 50.24 49.28 50.24 49.28 50.24C47.48 53.48 43.04 61.52 41.84 63.56C41.72 63.68 40.04 63.68 38.36 63.68C36.68 63.68 35.12 63.68 35.12 63.68C37.64 60.92 45.68 50.6 45.68 50.12C39.56 49.76 35.48 49.64 32.48 49.64C29.12 49.64 27.08 49.88 25.28 50.48C24.32 50.84 23.6 50.96 23.24 50.96C23.12 50.96 23 50.96 23 50.84C23 50.6 23.48 50.12 24.56 49.16C37.4 38.12 42.68 28.4 51.92 20.24C52.16 20 53.6 20 55.16 20C57.2 20 59.36 20.12 59.36 20.24Z" fill="white"/>
</svg>
