<svg width="83" height="84" viewBox="0 0 83 84" fill="none" xmlns="http://www.w3.org/2000/svg">
<path d="M54.28 26.48C51.4 26.48 49.84 25.76 46.72 24.68C46.72 24.68 37.12 38.36 37.12 38.6C40.24 36.92 43.36 34.88 47.32 34.88C52.96 34.88 55.72 38.72 55.72 44.12C55.72 46.88 55 49.64 53.68 51.8C50.32 57.32 41.08 64.64 27.76 64.64C19.84 64.64 16 59.6 16 56.12C16 54.2 17.08 52.76 18.88 52.76C20.2 52.76 21.52 54.2 21.52 55.64C21.52 56.84 20.44 57.92 19.24 57.92C18.76 57.92 18.4 57.8 18.28 57.8C18.16 57.8 18.04 57.8 18.04 57.92C18.16 61.16 23.56 63.68 28 63.68C37.48 63.68 43.72 56.36 48.52 50.24C50.8 47.48 52.48 43.76 52.48 40.88C52.48 37.64 50.08 35.96 47.08 35.96C43.12 35.96 38.56 38.72 35.56 40.64C35.56 40.64 35.56 40.64 35.44 40.64C35.2 40.64 34.72 40.28 34.72 40.04C34.72 39.92 34.72 39.92 34.72 39.92C37.96 35.24 47.92 20 48.52 20C51.52 20.12 53.08 22.4 56.08 22.64C57.4 22.76 58.6 22.88 59.68 22.88C61.6 22.88 63.28 22.52 65.56 21.08C65.68 21.08 66.4 21.44 66.4 21.56C62.68 24.2 59.8 26.48 54.28 26.48Z" fill="white"/>
</svg>
