<svg width="1052" height="765" viewBox="0 0 1052 765" fill="none" xmlns="http://www.w3.org/2000/svg">
<g filter="url(#filter0_f_551_308)">
<ellipse cx="512.865" cy="382.618" rx="417.189" ry="237" transform="rotate(14.3283 512.865 382.618)" fill="#111111" fill-opacity="0.64"/>
</g>
<g filter="url(#filter1_d_551_308)">
<path d="M138.621 369.455C139.301 361.125 140.491 341.915 140.491 308.425C140.491 278.675 139.131 257.255 138.281 247.565C137.941 244.505 132.501 241.955 132.501 241.955H196.761C214.271 241.955 226.851 239.745 226.851 239.745C226.851 239.745 224.811 248.075 223.791 254.875C222.771 263.545 222.601 278.505 222.601 278.505C222.601 278.505 215.631 247.565 195.571 247.565H158.681C157.831 257.085 156.641 277.825 156.471 305.875L182.141 305.705C196.591 305.365 199.821 296.525 199.821 296.525V321.005C199.821 321.005 196.081 312.165 182.311 311.655H156.471C156.641 343.105 158.001 362.145 158.681 370.305H195.741C215.631 370.135 222.601 338.855 222.601 338.855C222.601 338.855 222.771 353.985 223.791 362.485C224.811 369.285 226.851 377.785 226.851 377.785C226.851 377.785 214.271 375.575 196.761 375.575H132.501C132.501 375.575 137.941 372.515 138.621 369.455ZM329.621 366.055C331.661 372.855 337.441 375.745 337.441 375.745H301.571C301.571 375.745 309.901 371.495 309.901 366.055C309.901 354.665 304.801 334.605 298.851 308.595C292.391 280.375 286.951 261.335 283.891 251.135L251.591 365.885C251.421 366.395 251.421 367.075 251.421 367.585C251.421 373.195 259.581 375.745 259.581 375.745H231.871C231.871 375.745 241.561 370.475 243.431 365.035C247.341 354.155 254.311 334.435 261.961 308.085C270.801 277.485 277.261 256.745 277.261 248.925C277.261 244.675 270.631 241.955 270.631 241.955H310.241C310.241 241.955 303.271 243.655 303.271 249.605C303.271 249.945 303.441 250.285 303.441 250.795C304.971 260.825 308.201 279.695 314.831 308.595C320.781 335.115 326.391 355.175 329.621 366.055ZM350.391 369.455C351.071 361.125 352.261 341.915 352.261 308.425C352.261 278.675 350.901 257.255 350.051 247.565C349.711 244.505 344.271 241.955 344.271 241.955H408.531C426.041 241.955 438.621 239.745 438.621 239.745C438.621 239.745 436.581 248.075 435.561 254.875C434.541 263.545 434.371 278.505 434.371 278.505C434.371 278.505 427.401 247.565 407.341 247.565H370.451C369.601 257.085 368.411 277.825 368.241 305.875L393.911 305.705C408.361 305.365 411.591 296.525 411.591 296.525V321.005C411.591 321.005 407.851 312.165 394.081 311.655H368.241C368.411 343.105 369.771 362.145 370.451 370.305H407.511C427.401 370.135 434.371 338.855 434.371 338.855C434.371 338.855 434.541 353.985 435.561 362.485C436.581 369.285 438.621 377.785 438.621 377.785C438.621 377.785 426.041 375.575 408.531 375.575H344.271C344.271 375.575 349.711 372.515 350.391 369.455ZM453.501 366.055C454.351 355.855 455.371 337.155 455.371 308.765C455.371 282.075 454.351 261.845 453.501 251.135C452.991 243.995 445.511 241.955 445.511 241.955H481.211C479.681 242.465 473.901 245.355 473.221 251.135C471.861 262.865 471.351 280.885 471.351 305.875C472.371 305.875 489.201 306.385 502.121 306.385C514.871 306.385 532.551 305.875 533.061 305.875C533.061 280.545 531.701 261.505 531.021 251.135C530.511 243.995 523.201 241.955 523.201 241.955L558.901 241.785C557.881 242.635 551.421 247.225 550.911 251.135C549.721 260.145 548.871 275.615 548.871 295.845C548.871 299.925 549.041 304.345 549.041 308.765C549.551 336.985 549.381 353.645 551.081 366.225C551.761 371.835 558.901 375.745 558.901 375.745H523.201C523.201 375.745 530.681 373.195 531.191 366.055C531.871 356.195 533.061 338.515 533.061 311.655C532.891 311.655 513.851 311.145 501.951 311.145C489.541 311.145 472.371 311.655 471.351 311.655C471.351 338.175 473.391 365.885 473.391 365.885C473.901 371.495 481.381 375.745 481.381 375.745H445.341C445.341 375.745 452.991 373.195 453.501 366.055ZM600.179 305.875H630.099C623.809 278.675 618.539 260.315 615.649 250.625L600.179 305.875ZM563.969 375.575C563.969 375.575 572.809 371.325 575.189 365.035C587.259 332.565 598.479 292.785 608.849 247.735C608.849 247.735 608.849 247.565 608.849 247.395C608.849 244.845 602.729 241.955 602.729 241.955H642.169C642.169 241.955 635.369 243.825 635.369 249.775C635.369 250.115 635.539 250.455 635.539 250.965C637.069 260.995 640.129 279.865 646.759 308.765C652.709 335.285 658.489 355.345 661.719 366.225C663.759 373.025 669.369 375.575 669.369 375.575H633.499C633.499 375.575 641.829 371.665 641.829 366.225C641.829 355.345 636.899 336.135 631.459 311.485H598.479L583.349 365.715C583.179 366.225 583.179 366.905 583.179 367.415C583.179 373.025 591.509 375.575 591.509 375.575H563.969Z" fill="#FFE1FF"/>
</g>
<g filter="url(#filter2_d_551_308)">
<path d="M159.871 421.155C158.851 429.655 158.681 446.145 158.681 464.335L203.561 419.455C204.751 417.925 205.261 416.565 205.261 415.545C205.261 412.485 201.861 410.955 201.861 410.955H230.251C230.251 410.955 222.091 413.505 212.401 422.515L163.441 471.645C163.441 471.645 208.491 517.035 223.621 531.995C232.971 541.175 243.171 544.575 243.171 544.575H203.391C203.391 544.575 209.851 542.365 209.851 538.625C209.851 537.605 209.341 536.415 208.151 535.225L158.681 485.755C158.851 508.025 159.701 523.665 160.381 533.185C160.891 538.965 168.881 544.575 168.881 544.575H132.671C132.671 544.575 140.321 541.175 141.001 534.205C141.851 523.835 142.701 505.305 142.701 477.595C142.701 451.415 141.681 431.695 140.831 420.815C140.151 414.015 132.501 410.955 132.501 410.955H168.201C168.201 410.955 160.551 415.375 159.871 421.155ZM258.167 534.715C259.017 524.515 259.867 505.815 259.867 477.425C259.867 450.735 258.847 430.675 257.997 419.965C257.487 412.825 250.177 410.955 250.177 410.955H285.537C285.537 410.955 278.227 414.355 277.887 419.965H277.717C276.867 430.845 275.847 451.075 275.847 477.425C275.847 501.565 276.697 518.735 277.377 529.615C284.347 517.885 294.377 499.525 305.767 476.065C325.317 435.605 334.837 413.165 334.837 411.125C334.837 411.125 334.837 411.125 334.837 410.955H363.227C363.227 410.955 356.427 414.695 355.407 420.305C354.387 425.745 353.537 444.955 353.537 467.055V477.425C353.877 505.645 355.237 534.715 355.237 534.715C355.747 540.325 363.227 544.575 363.227 544.575H327.697C327.697 544.575 335.177 541.855 335.687 534.715C336.537 524.515 337.557 505.815 337.557 477.425C337.557 454.815 336.707 436.965 336.027 425.405L278.567 544.575V544.745L250.007 544.575C250.007 544.575 257.657 541.855 258.167 534.715ZM387.343 454.815C386.663 460.425 386.153 465.865 386.153 471.305C386.153 476.915 386.663 482.355 387.853 488.135C390.063 498.505 395.503 510.065 399.753 516.695C408.933 530.805 424.743 539.475 441.913 539.475C445.483 539.475 449.223 539.135 452.963 538.285C468.433 534.885 480.673 524.855 487.303 511.765L483.563 533.865C482.713 533.525 481.013 534.035 479.653 535.055C472.343 540.155 463.843 543.895 454.493 545.935C449.393 546.955 444.293 547.635 439.363 547.635C406.723 547.635 377.313 524.855 370.003 491.705C368.983 486.605 368.303 481.505 368.303 476.575C368.303 443.935 391.083 414.525 424.233 407.215C429.333 406.025 434.603 405.515 439.703 405.515C449.053 405.515 458.233 407.385 466.563 410.955C467.243 411.295 470.473 410.615 470.983 409.255L477.103 433.395C467.583 421.325 452.793 413.845 436.983 413.845C433.413 413.845 429.843 414.185 426.273 415.035C406.043 419.455 389.893 435.435 387.343 454.815ZM578.246 535.055C580.286 541.855 586.066 544.745 586.066 544.745H550.196C550.196 544.745 558.526 540.495 558.526 535.055C558.526 523.665 553.426 503.605 547.476 477.595C541.016 449.375 535.576 430.335 532.516 420.135L500.216 534.885C500.046 535.395 500.046 536.075 500.046 536.585C500.046 542.195 508.206 544.745 508.206 544.745H480.496C480.496 544.745 490.186 539.475 492.056 534.035C495.966 523.155 502.936 503.435 510.586 477.085C519.426 446.485 525.886 425.745 525.886 417.925C525.886 413.675 519.256 410.955 519.256 410.955H558.866C558.866 410.955 551.896 412.655 551.896 418.605C551.896 418.945 552.066 419.285 552.066 419.795C553.596 429.825 556.826 448.695 563.456 477.595C569.406 504.115 575.016 524.175 578.246 535.055ZM597.942 454.985C597.092 459.405 596.582 464.505 596.582 469.945C596.582 476.065 597.262 482.355 598.452 488.305C600.662 498.675 606.272 510.235 610.352 516.695C618.852 529.955 635.682 539.475 653.362 539.475C656.762 539.475 660.162 539.135 663.562 538.455C684.472 533.865 699.772 516.015 702.662 496.975C703.342 493.235 703.682 487.965 703.682 482.525C703.682 477.085 703.172 471.135 702.152 466.035C699.772 454.815 695.182 443.425 688.892 435.265C679.372 423.025 663.732 414.355 647.072 414.355C643.672 414.355 640.272 414.695 636.872 415.375C616.642 419.795 601.512 437.135 597.942 454.985ZM580.602 491.875C579.582 487.285 579.242 482.525 579.242 478.105C579.242 443.255 606.272 413.675 634.662 407.555C639.762 406.365 644.692 405.855 649.792 405.855C682.432 405.855 712.012 428.465 719.152 461.615C720.342 466.715 720.852 471.815 720.852 476.745C720.852 509.385 698.242 538.795 665.092 545.935C659.142 547.295 653.362 547.805 647.582 547.805C615.962 547.805 588.082 528.595 580.602 491.875ZM732.297 416.735C731.787 414.015 726.007 410.955 726.007 410.955H738.417L771.567 410.615C790.437 410.615 805.737 426.085 805.737 444.955C805.737 457.365 799.107 468.245 789.077 474.195C807.097 475.895 821.207 491.025 821.207 509.385C821.207 528.935 805.397 544.575 785.847 544.575H726.177C726.177 544.575 731.787 541.515 732.127 538.625C732.977 529.615 734.167 510.065 734.167 477.935C734.167 445.975 733.827 425.405 732.297 416.735ZM807.097 509.385C807.097 494.255 795.197 480.485 780.067 479.805C775.477 479.635 769.187 479.465 762.897 479.465C758.477 479.465 754.057 479.635 750.147 479.635C750.147 509.555 751.337 528.425 752.187 537.605C761.197 538.285 771.907 539.135 779.387 539.135C794.517 539.135 807.097 524.515 807.097 509.385ZM766.297 416.395H762.727C759.327 416.395 755.757 416.565 752.357 416.735C751.677 425.915 750.317 446.145 750.147 473.685H765.447C780.067 473.685 792.137 459.575 792.137 444.955C792.137 430.335 780.747 417.075 766.297 416.395ZM850.63 474.875H880.55C874.26 447.675 868.99 429.315 866.1 419.625L850.63 474.875ZM814.42 544.575C814.42 544.575 823.26 540.325 825.64 534.035C837.71 501.565 848.93 461.785 859.3 416.735C859.3 416.735 859.3 416.565 859.3 416.395C859.3 413.845 853.18 410.955 853.18 410.955H892.62C892.62 410.955 885.82 412.825 885.82 418.775C885.82 419.115 885.99 419.455 885.99 419.965C887.52 429.995 890.58 448.865 897.21 477.765C903.16 504.285 908.94 524.345 912.17 535.225C914.21 542.025 919.82 544.575 919.82 544.575H883.95C883.95 544.575 892.28 540.665 892.28 535.225C892.28 524.345 887.35 505.135 881.91 480.485H848.93L833.8 534.715C833.63 535.225 833.63 535.905 833.63 536.415C833.63 542.025 841.96 544.575 841.96 544.575H814.42Z" fill="#FFE1FF"/>
</g>
<defs>
<filter id="filter0_f_551_308" x="-25.6338" y="0.784912" width="1077" height="763.666" filterUnits="userSpaceOnUse" color-interpolation-filters="sRGB">
<feFlood flood-opacity="0" result="BackgroundImageFix"/>
<feBlend mode="normal" in="SourceGraphic" in2="BackgroundImageFix" result="shape"/>
<feGaussianBlur stdDeviation="65" result="effect1_foregroundBlur_551_308"/>
</filter>
<filter id="filter1_d_551_308" x="120.501" y="227.745" width="568.868" height="170.04" filterUnits="userSpaceOnUse" color-interpolation-filters="sRGB">
<feFlood flood-opacity="0" result="BackgroundImageFix"/>
<feColorMatrix in="SourceAlpha" type="matrix" values="0 0 0 0 0 0 0 0 0 0 0 0 0 0 0 0 0 0 127 0" result="hardAlpha"/>
<feOffset dx="4" dy="4"/>
<feGaussianBlur stdDeviation="8"/>
<feComposite in2="hardAlpha" operator="out"/>
<feColorMatrix type="matrix" values="0 0 0 0 0.00013146 0 0 0 0 0.00013146 0 0 0 0 0.00013146 0 0 0 0.6 0"/>
<feBlend mode="normal" in2="BackgroundImageFix" result="effect1_dropShadow_551_308"/>
<feBlend mode="normal" in="SourceGraphic" in2="effect1_dropShadow_551_308" result="shape"/>
</filter>
<filter id="filter2_d_551_308" x="120.501" y="393.515" width="819.319" height="174.29" filterUnits="userSpaceOnUse" color-interpolation-filters="sRGB">
<feFlood flood-opacity="0" result="BackgroundImageFix"/>
<feColorMatrix in="SourceAlpha" type="matrix" values="0 0 0 0 0 0 0 0 0 0 0 0 0 0 0 0 0 0 127 0" result="hardAlpha"/>
<feOffset dx="4" dy="4"/>
<feGaussianBlur stdDeviation="8"/>
<feComposite in2="hardAlpha" operator="out"/>
<feColorMatrix type="matrix" values="0 0 0 0 0.00013146 0 0 0 0 0.00013146 0 0 0 0 0.00013146 0 0 0 0.6 0"/>
<feBlend mode="normal" in2="BackgroundImageFix" result="effect1_dropShadow_551_308"/>
<feBlend mode="normal" in="SourceGraphic" in2="effect1_dropShadow_551_308" result="shape"/>
</filter>
</defs>
</svg>
