<svg width="1240" height="540" viewBox="0 0 1240 540" fill="none" xmlns="http://www.w3.org/2000/svg">
<path d="M42.5314 252.894C43.1143 245.754 44.1343 229.289 44.1343 200.583C44.1343 175.083 42.9686 156.723 42.24 148.417C41.9486 145.794 37.2857 143.609 37.2857 143.609H92.3657C107.374 143.609 118.157 141.714 118.157 141.714C118.157 141.714 116.409 148.854 115.534 154.683C114.66 162.114 114.514 174.937 114.514 174.937C114.514 174.937 108.54 148.417 91.3457 148.417H59.7257C58.9971 156.577 57.9771 174.354 57.8314 198.397L79.8343 198.251C92.22 197.96 94.9886 190.383 94.9886 190.383V211.366C94.9886 211.366 91.7829 203.789 79.98 203.351H57.8314C57.9771 230.309 59.1429 246.629 59.7257 253.623H91.4914C108.54 253.477 114.514 226.666 114.514 226.666C114.514 226.666 114.66 239.634 115.534 246.92C116.409 252.749 118.157 260.034 118.157 260.034C118.157 260.034 107.374 258.14 92.3657 258.14H37.2857C37.2857 258.14 41.9486 255.517 42.5314 252.894ZM206.246 249.98C207.995 255.809 212.949 258.286 212.949 258.286H182.203C182.203 258.286 189.343 254.643 189.343 249.98C189.343 240.217 184.972 223.023 179.872 200.729C174.335 176.54 169.672 160.22 167.049 151.477L139.363 249.834C139.217 250.271 139.217 250.854 139.217 251.291C139.217 256.1 146.212 258.286 146.212 258.286H122.46C122.46 258.286 130.766 253.769 132.369 249.106C135.72 239.78 141.695 222.877 148.252 200.291C155.829 174.063 161.366 156.286 161.366 149.583C161.366 145.94 155.683 143.609 155.683 143.609H189.635C189.635 143.609 183.66 145.066 183.66 150.166C183.66 150.457 183.806 150.749 183.806 151.186C185.117 159.783 187.886 175.957 193.569 200.729C198.669 223.46 203.477 240.654 206.246 249.98ZM224.048 252.894C224.631 245.754 225.651 229.289 225.651 200.583C225.651 175.083 224.485 156.723 223.757 148.417C223.465 145.794 218.802 143.609 218.802 143.609H273.882C288.891 143.609 299.674 141.714 299.674 141.714C299.674 141.714 297.925 148.854 297.051 154.683C296.177 162.114 296.031 174.937 296.031 174.937C296.031 174.937 290.057 148.417 272.862 148.417H241.242C240.514 156.577 239.494 174.354 239.348 198.397L261.351 198.251C273.737 197.96 276.505 190.383 276.505 190.383V211.366C276.505 211.366 273.3 203.789 261.497 203.351H239.348C239.494 230.309 240.66 246.629 241.242 253.623H273.008C290.057 253.477 296.031 226.666 296.031 226.666C296.031 226.666 296.177 239.634 297.051 246.92C297.925 252.749 299.674 260.034 299.674 260.034C299.674 260.034 288.891 258.14 273.882 258.14H218.802C218.802 258.14 223.465 255.517 224.048 252.894ZM312.428 249.98C313.157 241.237 314.031 225.209 314.031 200.874C314.031 177.997 313.157 160.657 312.428 151.477C311.991 145.357 305.58 143.609 305.58 143.609H336.18C334.868 144.046 329.914 146.523 329.331 151.477C328.166 161.531 327.728 176.977 327.728 198.397C328.603 198.397 343.028 198.834 354.103 198.834C365.031 198.834 380.186 198.397 380.623 198.397C380.623 176.686 379.457 160.366 378.874 151.477C378.437 145.357 372.171 143.609 372.171 143.609L402.771 143.463C401.897 144.191 396.36 148.126 395.923 151.477C394.903 159.2 394.174 172.46 394.174 189.8C394.174 193.297 394.32 197.086 394.32 200.874C394.757 225.063 394.611 239.343 396.068 250.126C396.651 254.934 402.771 258.286 402.771 258.286H372.171C372.171 258.286 378.583 256.1 379.02 249.98C379.603 241.529 380.623 226.374 380.623 203.351C380.477 203.351 364.157 202.914 353.957 202.914C343.32 202.914 328.603 203.351 327.728 203.351C327.728 226.083 329.477 249.834 329.477 249.834C329.914 254.643 336.326 258.286 336.326 258.286H305.434C305.434 258.286 311.991 256.1 312.428 249.98ZM438.153 198.397H463.798C458.407 175.083 453.89 159.346 451.413 151.04L438.153 198.397ZM407.115 258.14C407.115 258.14 414.693 254.497 416.733 249.106C427.078 221.274 436.695 187.177 445.584 148.563C445.584 148.563 445.584 148.417 445.584 148.271C445.584 146.086 440.338 143.609 440.338 143.609H474.144C474.144 143.609 468.315 145.211 468.315 150.311C468.315 150.603 468.461 150.894 468.461 151.331C469.773 159.929 472.395 176.103 478.078 200.874C483.178 223.606 488.133 240.8 490.901 250.126C492.65 255.954 497.458 258.14 497.458 258.14H466.713C466.713 258.14 473.853 254.789 473.853 250.126C473.853 240.8 469.627 224.334 464.964 203.206H436.695L423.727 249.689C423.581 250.126 423.581 250.709 423.581 251.146C423.581 255.954 430.721 258.14 430.721 258.14H407.115Z" fill="url(#paint0_linear_445_297)"/>
<path d="M511.603 298.066C510.729 305.351 510.583 319.486 510.583 335.077L549.052 296.609C550.072 295.297 550.509 294.131 550.509 293.257C550.509 290.634 547.595 289.323 547.595 289.323H571.929C571.929 289.323 564.935 291.509 556.629 299.231L514.663 341.343C514.663 341.343 553.277 380.249 566.246 393.071C574.26 400.94 583.003 403.854 583.003 403.854H548.906C548.906 403.854 554.443 401.96 554.443 398.754C554.443 397.88 554.006 396.86 552.986 395.84L510.583 353.437C510.729 372.526 511.457 385.931 512.04 394.091C512.477 399.046 519.326 403.854 519.326 403.854H488.289C488.289 403.854 494.846 400.94 495.429 394.966C496.157 386.077 496.886 370.194 496.886 346.443C496.886 324.003 496.012 307.1 495.283 297.774C494.7 291.946 488.143 289.323 488.143 289.323H518.743C518.743 289.323 512.186 293.111 511.603 298.066ZM595.857 395.403C596.585 386.66 597.314 370.631 597.314 346.297C597.314 323.42 596.44 306.226 595.711 297.046C595.274 290.926 589.008 289.323 589.008 289.323H619.317C619.317 289.323 613.051 292.237 612.76 297.046H612.614C611.885 306.371 611.011 323.711 611.011 346.297C611.011 366.989 611.74 381.706 612.322 391.031C618.297 380.977 626.894 365.24 636.657 345.131C653.414 310.451 661.574 291.217 661.574 289.469C661.574 289.469 661.574 289.469 661.574 289.323H685.908C685.908 289.323 680.08 292.529 679.205 297.337C678.331 302 677.602 318.466 677.602 337.409V346.297C677.894 370.486 679.06 395.403 679.06 395.403C679.497 400.211 685.908 403.854 685.908 403.854H655.454C655.454 403.854 661.865 401.523 662.302 395.403C663.031 386.66 663.905 370.631 663.905 346.297C663.905 326.917 663.177 311.617 662.594 301.709L613.342 403.854V404L588.862 403.854C588.862 403.854 595.42 401.523 595.857 395.403ZM706.579 326.917C705.996 331.726 705.559 336.389 705.559 341.051C705.559 345.86 705.996 350.523 707.016 355.477C708.911 364.366 713.573 374.274 717.216 379.957C725.085 392.051 738.636 399.483 753.353 399.483C756.413 399.483 759.619 399.191 762.825 398.463C776.085 395.549 786.576 386.951 792.259 375.731L789.053 394.674C788.325 394.383 786.868 394.82 785.702 395.694C779.436 400.066 772.151 403.271 764.136 405.02C759.765 405.894 755.393 406.477 751.168 406.477C723.191 406.477 697.982 386.951 691.716 358.537C690.842 354.166 690.259 349.794 690.259 345.569C690.259 317.591 709.785 292.383 738.199 286.117C742.571 285.097 747.088 284.66 751.459 284.66C759.473 284.66 767.342 286.263 774.482 289.323C775.065 289.614 777.833 289.031 778.271 287.866L783.516 308.557C775.356 298.211 762.679 291.8 749.128 291.8C746.068 291.8 743.008 292.091 739.948 292.82C722.608 296.609 708.765 310.306 706.579 326.917ZM870.211 395.694C871.959 401.523 876.913 404 876.913 404H846.168C846.168 404 853.308 400.357 853.308 395.694C853.308 385.931 848.936 368.737 843.836 346.443C838.299 322.254 833.636 305.934 831.013 297.191L803.328 395.549C803.182 395.986 803.182 396.569 803.182 397.006C803.182 401.814 810.176 404 810.176 404H786.425C786.425 404 794.731 399.483 796.333 394.82C799.685 385.494 805.659 368.591 812.216 346.006C819.793 319.777 825.331 302 825.331 295.297C825.331 291.654 819.648 289.323 819.648 289.323H853.599C853.599 289.323 847.625 290.78 847.625 295.88C847.625 296.171 847.771 296.463 847.771 296.9C849.082 305.497 851.851 321.671 857.533 346.443C862.633 369.174 867.442 386.369 870.211 395.694ZM887.093 327.063C886.364 330.851 885.927 335.223 885.927 339.886C885.927 345.131 886.51 350.523 887.53 355.623C889.424 364.511 894.233 374.42 897.73 379.957C905.016 391.323 919.442 399.483 934.596 399.483C937.51 399.483 940.424 399.191 943.339 398.609C961.262 394.674 974.376 379.374 976.853 363.054C977.436 359.849 977.727 355.331 977.727 350.669C977.727 346.006 977.29 340.906 976.416 336.534C974.376 326.917 970.442 317.154 965.05 310.16C956.89 299.669 943.484 292.237 929.204 292.237C926.29 292.237 923.376 292.529 920.462 293.111C903.122 296.9 890.153 311.763 887.093 327.063ZM872.23 358.683C871.356 354.749 871.064 350.669 871.064 346.88C871.064 317.009 894.233 291.654 918.567 286.409C922.939 285.389 927.164 284.951 931.536 284.951C959.513 284.951 984.867 304.331 990.987 332.746C992.007 337.117 992.444 341.489 992.444 345.714C992.444 373.691 973.064 398.9 944.65 405.02C939.55 406.186 934.596 406.623 929.642 406.623C902.539 406.623 878.642 390.157 872.23 358.683ZM1002.25 294.277C1001.82 291.946 996.862 289.323 996.862 289.323H1007.5L1035.91 289.031C1052.09 289.031 1065.2 302.291 1065.2 318.466C1065.2 329.103 1059.52 338.429 1050.92 343.529C1066.37 344.986 1078.46 357.954 1078.46 373.691C1078.46 390.449 1064.91 403.854 1048.15 403.854H997.008C997.008 403.854 1001.82 401.231 1002.11 398.754C1002.84 391.031 1003.86 374.274 1003.86 346.734C1003.86 319.34 1003.57 301.709 1002.25 294.277ZM1066.37 373.691C1066.37 360.723 1056.17 348.92 1043.2 348.337C1039.27 348.191 1033.87 348.046 1028.48 348.046C1024.69 348.046 1020.91 348.191 1017.55 348.191C1017.55 373.837 1018.57 390.011 1019.3 397.88C1027.03 398.463 1036.21 399.191 1042.62 399.191C1055.59 399.191 1066.37 386.66 1066.37 373.691ZM1031.4 293.986H1028.34C1025.42 293.986 1022.36 294.131 1019.45 294.277C1018.87 302.146 1017.7 319.486 1017.55 343.091H1030.67C1043.2 343.091 1053.55 330.997 1053.55 318.466C1053.55 305.934 1043.78 294.569 1031.4 293.986ZM1103.68 344.111H1129.33C1123.94 320.797 1119.42 305.06 1116.94 296.754L1103.68 344.111ZM1072.65 403.854C1072.65 403.854 1080.22 400.211 1082.26 394.82C1092.61 366.989 1102.23 332.891 1111.11 294.277C1111.11 294.277 1111.11 294.131 1111.11 293.986C1111.11 291.8 1105.87 289.323 1105.87 289.323H1139.67C1139.67 289.323 1133.85 290.926 1133.85 296.026C1133.85 296.317 1133.99 296.609 1133.99 297.046C1135.3 305.643 1137.93 321.817 1143.61 346.589C1148.71 369.32 1153.66 386.514 1156.43 395.84C1158.18 401.669 1162.99 403.854 1162.99 403.854H1132.24C1132.24 403.854 1139.38 400.503 1139.38 395.84C1139.38 386.514 1135.16 370.049 1130.49 348.92H1102.23L1089.26 395.403C1089.11 395.84 1089.11 396.423 1089.11 396.86C1089.11 401.669 1096.25 403.854 1096.25 403.854H1072.65Z" fill="url(#paint1_linear_445_297)"/>
<defs>
<linearGradient id="paint0_linear_445_297" x1="30" y1="206.286" x2="504" y2="206.286" gradientUnits="userSpaceOnUse">
<stop stop-color="#F2F2F2"/>
<stop offset="1" stop-color="#E3E3E3"/>
</linearGradient>
<linearGradient id="paint1_linear_445_297" x1="480.857" y1="352" x2="1168.86" y2="352" gradientUnits="userSpaceOnUse">
<stop stop-color="#F2F2F2"/>
<stop offset="1" stop-color="#E3E3E3"/>
</linearGradient>
</defs>
</svg>
