<svg width="167" height="98" viewBox="0 0 167 98" fill="none" xmlns="http://www.w3.org/2000/svg">
<path d="M166.848 14.592C166.848 19.9253 164.16 24.2133 158.784 27.456C154.176 30.2293 148.992 31.616 143.232 31.616C139.605 31.616 136.491 30.976 133.888 29.696C130.56 28.032 128.896 25.5573 128.896 22.272C128.896 19.9253 130.005 17.7707 132.224 15.808C134.357 13.9733 136.619 13.056 139.008 13.056C139.435 13.056 139.648 13.1413 139.648 13.312C137.344 13.3973 135.211 14.3573 133.248 16.192C131.285 17.984 130.304 19.9893 130.304 22.208C130.304 25.1093 131.819 27.3707 134.848 28.992C137.28 30.272 140.075 30.912 143.232 30.912C148.693 30.912 153.515 29.6107 157.696 27.008C162.56 23.9787 164.992 19.8827 164.992 14.72C164.992 10.0267 162.581 6.4 157.76 3.84C153.835 1.74933 149.312 0.703995 144.192 0.703995C132.629 0.703995 121.835 4.39466 111.808 11.776C115.605 14.6347 117.504 18.2613 117.504 22.656C117.504 26.5387 115.84 29.9947 112.512 33.024C109.739 35.5413 106.261 37.4613 102.08 38.784C104.512 41.088 105.728 43.7973 105.728 46.912C105.728 53.6107 101.803 59.3707 93.952 64.192C97.28 66.1973 98.944 68.3733 98.944 70.72C98.944 71.36 98.816 71.7013 98.56 71.744L98.432 71.552C97.9627 68.5227 96.256 66.1973 93.312 64.576C88.4907 67.392 83.6693 68.8 78.848 68.8C75.8613 68.8 74.368 67.968 74.368 66.304C74.368 64.7253 75.8187 63.5093 78.72 62.656C80.768 62.0587 82.8587 61.76 84.992 61.76C87.552 61.76 89.8987 62.2293 92.032 63.168C95.0187 60.6507 97.408 57.8133 99.2 54.656C101.291 51.072 102.336 47.5307 102.336 44.032C102.336 41.8133 101.845 40.192 100.864 39.168C99.5413 39.5947 97.9413 39.808 96.064 39.808C92.3093 39.808 90.432 39.0613 90.432 37.568C90.432 36.16 91.6053 35.456 93.952 35.456C96.3413 35.456 98.7733 36.3093 101.248 38.016C104.747 36.5653 107.797 34.3467 110.4 31.36C113.301 28.032 114.752 24.6187 114.752 21.12C114.752 17.7067 113.472 14.8053 110.912 12.416C107.797 15.0613 103.488 19.6267 97.984 26.112C93.12 31.9147 88.2773 37.7387 83.456 43.584C77.696 50.1973 72.32 55.5093 67.328 59.52C68.1813 61.952 68.608 64.384 68.608 66.816C68.608 74.88 65.4933 82.0267 59.264 88.256C53.0347 94.4853 45.888 97.6 37.824 97.6C30.2293 97.6 24.4053 95.232 20.352 90.496C16.4267 85.9733 14.6773 79.872 15.104 72.192C10.5387 70.8267 6.95467 68.7573 4.352 65.984C1.45067 62.8693 0 59.072 0 54.592C0 47.552 3.22133 41.6427 9.664 36.864C16.1493 32.0427 24.0427 29.632 33.344 29.632C35.0507 29.632 36.8427 29.7813 38.72 30.08C39.8293 29.056 41.1947 27.9253 42.816 26.688C59.8827 13.76 77.0773 7.296 94.4 7.296C101.141 7.296 106.517 8.46933 110.528 10.816C120.683 3.60533 131.925 0 144.256 0C149.845 0 154.731 1.024 158.912 3.072C164.203 5.71733 166.848 9.55733 166.848 14.592ZM100.16 38.464V38.4C98.6667 36.9067 96.6613 36.16 94.144 36.16C92.1813 36.16 91.2 36.608 91.2 37.504C91.2 38.0587 91.8613 38.5067 93.184 38.848C94.1227 39.0613 95.0187 39.168 95.872 39.168C97.0667 39.168 98.496 38.9333 100.16 38.464ZM109.696 11.328C106.368 9.152 101.269 8.064 94.4 8.064C86.2507 8.064 78.272 9.57867 70.464 12.608C63.8933 15.168 56.7467 19.1147 49.024 24.448C45.696 26.752 43.0507 28.736 41.088 30.4V30.464C50.5173 32.7253 55.232 37.4187 55.232 44.544C55.232 46.1227 54.976 47.5733 54.464 48.896C60.0533 50.2613 63.936 52.928 66.112 56.896C70.1227 53.184 74.9013 48.0427 80.448 41.472C88 32.512 92.5653 27.1787 94.144 25.472C99.52 19.6267 104.704 14.912 109.696 11.328ZM91.392 63.744V63.68C89.3867 62.912 87.36 62.528 85.312 62.528C83.3493 62.528 81.5787 62.7413 80 63.168C77.6533 63.808 76.48 64.7893 76.48 66.112C76.48 67.4773 77.6533 68.16 80 68.16C83.7973 68.16 87.5947 66.688 91.392 63.744ZM54.592 44.224C54.592 40.7253 52.864 37.8667 49.408 35.648C46.72 33.8987 43.3707 32.7253 39.36 32.128C30.3573 40.192 23.8507 48.7253 19.84 57.728C22.8267 59.5627 26.3253 60.4373 30.336 60.352L31.744 60.288L31.808 60.224C33.1733 56.4693 35.776 53.5467 39.616 51.456C43.1147 49.5787 47.0187 48.64 51.328 48.64C52.1387 48.64 52.928 48.6827 53.696 48.768C54.2933 47.4027 54.592 45.888 54.592 44.224ZM53.376 49.472C52.608 49.3867 51.7973 49.344 50.944 49.344C47.0187 49.344 43.392 50.24 40.064 52.032C36.3093 53.9947 33.792 56.6827 32.512 60.096L32.576 60.16C36.8853 59.9467 40.8533 59.0293 44.48 57.408C48.7893 55.4453 51.7547 52.8 53.376 49.472ZM65.152 57.856C63.104 53.7173 59.456 50.9653 54.208 49.6C52.544 53.568 49.472 56.6187 44.992 58.752C41.1093 60.6293 36.8 61.6107 32.064 61.696C31.8507 62.336 31.744 63.296 31.744 64.576C31.744 64.7467 31.7653 65.0027 31.808 65.344C31.8933 65.6427 31.936 65.856 31.936 65.984C31.936 66.112 31.872 66.2187 31.744 66.304C31.36 66.3467 31.168 65.6213 31.168 64.128C31.168 63.1467 31.2533 62.336 31.424 61.696C26.6453 61.6533 22.656 60.608 19.456 58.56C17.4933 63.168 16.3627 67.4987 16.064 71.552C19.5627 72.576 23.616 73.088 28.224 73.088C35.52 73.088 42.176 71.7867 48.192 69.184C53.696 66.8373 59.3493 63.0613 65.152 57.856ZM36.928 31.808C36.032 31.68 34.7947 31.616 33.216 31.616C24.512 31.616 16.9813 33.7707 10.624 38.08C4.05333 42.5173 0.768 48.0213 0.768 54.592C0.768 62.7413 5.58933 68.3093 15.232 71.296C15.5307 67.072 16.6187 62.6133 18.496 57.92C17.472 57.152 16.5547 56.1707 15.744 54.976C14.848 53.6107 14.4 52.352 14.4 51.2C14.4 50.9867 14.4853 50.8587 14.656 50.816C15.2107 53.2907 16.5973 55.3813 18.816 57.088C22.5707 47.9147 28.608 39.488 36.928 31.808ZM67.136 66.368C67.136 64.448 66.816 62.4427 66.176 60.352C60.2453 65.0027 54.336 68.416 48.448 70.592C42.304 72.8107 35.5413 73.92 28.16 73.92C23.8933 73.92 19.84 73.408 16 72.384C15.9573 72.7253 15.936 73.4293 15.936 74.496C15.936 81.2373 17.92 86.656 21.888 90.752C25.856 94.848 31.2107 96.896 37.952 96.896C45.6747 96.896 52.5013 93.7173 58.432 87.36C64.2347 81.1307 67.136 74.1333 67.136 66.368Z" fill="#131213"/>
</svg>
