<svg width="180" height="180" viewBox="0 0 180 180" fill="none" xmlns="http://www.w3.org/2000/svg">
<path d="M173.848 64.592C173.848 69.9253 171.16 74.2133 165.784 77.456C161.176 80.2293 155.992 81.616 150.232 81.616C146.605 81.616 143.491 80.976 140.888 79.696C137.56 78.032 135.896 75.5573 135.896 72.272C135.896 69.9253 137.005 67.7707 139.224 65.808C141.357 63.9733 143.619 63.056 146.008 63.056C146.435 63.056 146.648 63.1413 146.648 63.312C144.344 63.3973 142.211 64.3573 140.248 66.192C138.285 67.984 137.304 69.9893 137.304 72.208C137.304 75.1093 138.819 77.3707 141.848 78.992C144.28 80.272 147.075 80.912 150.232 80.912C155.693 80.912 160.515 79.6107 164.696 77.008C169.56 73.9787 171.992 69.8827 171.992 64.72C171.992 60.0267 169.581 56.4 164.76 53.84C160.835 51.7493 156.312 50.704 151.192 50.704C139.629 50.704 128.835 54.3947 118.808 61.776C122.605 64.6347 124.504 68.2613 124.504 72.656C124.504 76.5387 122.84 79.9947 119.512 83.024C116.739 85.5413 113.261 87.4613 109.08 88.784C111.512 91.088 112.728 93.7973 112.728 96.912C112.728 103.611 108.803 109.371 100.952 114.192C104.28 116.197 105.944 118.373 105.944 120.72C105.944 121.36 105.816 121.701 105.56 121.744L105.432 121.552C104.963 118.523 103.256 116.197 100.312 114.576C95.4907 117.392 90.6693 118.8 85.848 118.8C82.8613 118.8 81.368 117.968 81.368 116.304C81.368 114.725 82.8187 113.509 85.72 112.656C87.768 112.059 89.8587 111.76 91.992 111.76C94.552 111.76 96.8987 112.229 99.032 113.168C102.019 110.651 104.408 107.813 106.2 104.656C108.291 101.072 109.336 97.5307 109.336 94.032C109.336 91.8133 108.845 90.192 107.864 89.168C106.541 89.5947 104.941 89.808 103.064 89.808C99.3093 89.808 97.432 89.0613 97.432 87.568C97.432 86.16 98.6053 85.456 100.952 85.456C103.341 85.456 105.773 86.3093 108.248 88.016C111.747 86.5653 114.797 84.3467 117.4 81.36C120.301 78.032 121.752 74.6187 121.752 71.12C121.752 67.7067 120.472 64.8053 117.912 62.416C114.797 65.0613 110.488 69.6267 104.984 76.112C100.12 81.9147 95.2773 87.7387 90.456 93.584C84.696 100.197 79.32 105.509 74.328 109.52C75.1813 111.952 75.608 114.384 75.608 116.816C75.608 124.88 72.4933 132.027 66.264 138.256C60.0347 144.485 52.888 147.6 44.824 147.6C37.2293 147.6 31.4053 145.232 27.352 140.496C23.4267 135.973 21.6773 129.872 22.104 122.192C17.5387 120.827 13.9547 118.757 11.352 115.984C8.45067 112.869 7 109.072 7 104.592C7 97.552 10.2213 91.6427 16.664 86.864C23.1493 82.0427 31.0427 79.632 40.344 79.632C42.0507 79.632 43.8427 79.7813 45.72 80.08C46.8293 79.056 48.1947 77.9253 49.816 76.688C66.8827 63.76 84.0773 57.296 101.4 57.296C108.141 57.296 113.517 58.4693 117.528 60.816C127.683 53.6053 138.925 50 151.256 50C156.845 50 161.731 51.024 165.912 53.072C171.203 55.7173 173.848 59.5573 173.848 64.592ZM107.16 88.464V88.4C105.667 86.9067 103.661 86.16 101.144 86.16C99.1813 86.16 98.2 86.608 98.2 87.504C98.2 88.0587 98.8613 88.5067 100.184 88.848C101.123 89.0613 102.019 89.168 102.872 89.168C104.067 89.168 105.496 88.9333 107.16 88.464ZM116.696 61.328C113.368 59.152 108.269 58.064 101.4 58.064C93.2507 58.064 85.272 59.5787 77.464 62.608C70.8933 65.168 63.7467 69.1147 56.024 74.448C52.696 76.752 50.0507 78.736 48.088 80.4V80.464C57.5173 82.7253 62.232 87.4187 62.232 94.544C62.232 96.1227 61.976 97.5733 61.464 98.896C67.0533 100.261 70.936 102.928 73.112 106.896C77.1227 103.184 81.9013 98.0427 87.448 91.472C95 82.512 99.5653 77.1787 101.144 75.472C106.52 69.6267 111.704 64.912 116.696 61.328ZM98.392 113.744V113.68C96.3867 112.912 94.36 112.528 92.312 112.528C90.3493 112.528 88.5787 112.741 87 113.168C84.6533 113.808 83.48 114.789 83.48 116.112C83.48 117.477 84.6533 118.16 87 118.16C90.7973 118.16 94.5947 116.688 98.392 113.744ZM61.592 94.224C61.592 90.7253 59.864 87.8667 56.408 85.648C53.72 83.8987 50.3707 82.7253 46.36 82.128C37.3573 90.192 30.8507 98.7253 26.84 107.728C29.8267 109.563 33.3253 110.437 37.336 110.352L38.744 110.288L38.808 110.224C40.1733 106.469 42.776 103.547 46.616 101.456C50.1147 99.5787 54.0187 98.64 58.328 98.64C59.1387 98.64 59.928 98.6827 60.696 98.768C61.2933 97.4027 61.592 95.888 61.592 94.224ZM60.376 99.472C59.608 99.3867 58.7973 99.344 57.944 99.344C54.0187 99.344 50.392 100.24 47.064 102.032C43.3093 103.995 40.792 106.683 39.512 110.096L39.576 110.16C43.8853 109.947 47.8533 109.029 51.48 107.408C55.7893 105.445 58.7547 102.8 60.376 99.472ZM72.152 107.856C70.104 103.717 66.456 100.965 61.208 99.6C59.544 103.568 56.472 106.619 51.992 108.752C48.1093 110.629 43.8 111.611 39.064 111.696C38.8507 112.336 38.744 113.296 38.744 114.576C38.744 114.747 38.7653 115.003 38.808 115.344C38.8933 115.643 38.936 115.856 38.936 115.984C38.936 116.112 38.872 116.219 38.744 116.304C38.36 116.347 38.168 115.621 38.168 114.128C38.168 113.147 38.2533 112.336 38.424 111.696C33.6453 111.653 29.656 110.608 26.456 108.56C24.4933 113.168 23.3627 117.499 23.064 121.552C26.5627 122.576 30.616 123.088 35.224 123.088C42.52 123.088 49.176 121.787 55.192 119.184C60.696 116.837 66.3493 113.061 72.152 107.856ZM43.928 81.808C43.032 81.68 41.7947 81.616 40.216 81.616C31.512 81.616 23.9813 83.7707 17.624 88.08C11.0533 92.5173 7.768 98.0213 7.768 104.592C7.768 112.741 12.5893 118.309 22.232 121.296C22.5307 117.072 23.6187 112.613 25.496 107.92C24.472 107.152 23.5547 106.171 22.744 104.976C21.848 103.611 21.4 102.352 21.4 101.2C21.4 100.987 21.4853 100.859 21.656 100.816C22.2107 103.291 23.5973 105.381 25.816 107.088C29.5707 97.9147 35.608 89.488 43.928 81.808ZM74.136 116.368C74.136 114.448 73.816 112.443 73.176 110.352C67.2453 115.003 61.336 118.416 55.448 120.592C49.304 122.811 42.5413 123.92 35.16 123.92C30.8933 123.92 26.84 123.408 23 122.384C22.9573 122.725 22.936 123.429 22.936 124.496C22.936 131.237 24.92 136.656 28.888 140.752C32.856 144.848 38.2107 146.896 44.952 146.896C52.6747 146.896 59.5013 143.717 65.432 137.36C71.2347 131.131 74.136 124.133 74.136 116.368Z" fill="#131213"/>
</svg>
