<svg width="180" height="180" viewBox="0 0 180 180" fill="none" xmlns="http://www.w3.org/2000/svg">
<path d="M173.848 56.592C173.848 61.9253 171.16 66.2133 165.784 69.456C161.176 72.2293 155.992 73.616 150.232 73.616C146.605 73.616 143.491 72.976 140.888 71.696C137.56 70.032 135.896 67.5573 135.896 64.272C135.896 61.9253 137.005 59.7707 139.224 57.808C141.357 55.9733 143.619 55.056 146.008 55.056C146.435 55.056 146.648 55.1413 146.648 55.312C144.344 55.3973 142.211 56.3573 140.248 58.192C138.285 59.984 137.304 61.9893 137.304 64.208C137.304 67.1093 138.819 69.3707 141.848 70.992C144.28 72.272 147.075 72.912 150.232 72.912C155.693 72.912 160.515 71.6107 164.696 69.008C169.56 65.9787 171.992 61.8827 171.992 56.72C171.992 52.0267 169.581 48.4 164.76 45.84C160.835 43.7493 156.312 42.704 151.192 42.704C139.629 42.704 128.835 46.3947 118.808 53.776C122.605 56.6347 124.504 60.2613 124.504 64.656C124.504 68.5387 122.84 71.9947 119.512 75.024C116.739 77.5413 113.261 79.4613 109.08 80.784C111.512 83.088 112.728 85.7973 112.728 88.912C112.728 95.6107 108.803 101.371 100.952 106.192C104.28 108.197 105.944 110.373 105.944 112.72C105.944 113.36 105.816 113.701 105.56 113.744L105.432 113.552C104.963 110.523 103.256 108.197 100.312 106.576C95.4907 109.392 90.6693 110.8 85.848 110.8C82.8613 110.8 81.368 109.968 81.368 108.304C81.368 106.725 82.8187 105.509 85.72 104.656C87.768 104.059 89.8587 103.76 91.992 103.76C94.552 103.76 96.8987 104.229 99.032 105.168C102.019 102.651 104.408 99.8133 106.2 96.656C108.291 93.072 109.336 89.5307 109.336 86.032C109.336 83.8133 108.845 82.192 107.864 81.168C106.541 81.5947 104.941 81.808 103.064 81.808C99.3093 81.808 97.432 81.0613 97.432 79.568C97.432 78.16 98.6053 77.456 100.952 77.456C103.341 77.456 105.773 78.3093 108.248 80.016C111.747 78.5653 114.797 76.3467 117.4 73.36C120.301 70.032 121.752 66.6187 121.752 63.12C121.752 59.7067 120.472 56.8053 117.912 54.416C114.797 57.0613 110.488 61.6267 104.984 68.112C100.12 73.9147 95.2773 79.7387 90.456 85.584C84.696 92.1973 79.32 97.5093 74.328 101.52C75.1813 103.952 75.608 106.384 75.608 108.816C75.608 116.88 72.4933 124.027 66.264 130.256C60.0347 136.485 52.888 139.6 44.824 139.6C37.2293 139.6 31.4053 137.232 27.352 132.496C23.4267 127.973 21.6773 121.872 22.104 114.192C17.5387 112.827 13.9547 110.757 11.352 107.984C8.45067 104.869 7 101.072 7 96.592C7 89.552 10.2213 83.6427 16.664 78.864C23.1493 74.0427 31.0427 71.632 40.344 71.632C42.0507 71.632 43.8427 71.7813 45.72 72.08C46.8293 71.056 48.1947 69.9253 49.816 68.688C66.8827 55.76 84.0773 49.296 101.4 49.296C108.141 49.296 113.517 50.4693 117.528 52.816C127.683 45.6053 138.925 42 151.256 42C156.845 42 161.731 43.024 165.912 45.072C171.203 47.7173 173.848 51.5573 173.848 56.592ZM107.16 80.464V80.4C105.667 78.9067 103.661 78.16 101.144 78.16C99.1813 78.16 98.2 78.608 98.2 79.504C98.2 80.0587 98.8613 80.5067 100.184 80.848C101.123 81.0613 102.019 81.168 102.872 81.168C104.067 81.168 105.496 80.9333 107.16 80.464ZM116.696 53.328C113.368 51.152 108.269 50.064 101.4 50.064C93.2507 50.064 85.272 51.5787 77.464 54.608C70.8933 57.168 63.7467 61.1147 56.024 66.448C52.696 68.752 50.0507 70.736 48.088 72.4V72.464C57.5173 74.7253 62.232 79.4187 62.232 86.544C62.232 88.1227 61.976 89.5733 61.464 90.896C67.0533 92.2613 70.936 94.928 73.112 98.896C77.1227 95.184 81.9013 90.0427 87.448 83.472C95 74.512 99.5653 69.1787 101.144 67.472C106.52 61.6267 111.704 56.912 116.696 53.328ZM98.392 105.744V105.68C96.3867 104.912 94.36 104.528 92.312 104.528C90.3493 104.528 88.5787 104.741 87 105.168C84.6533 105.808 83.48 106.789 83.48 108.112C83.48 109.477 84.6533 110.16 87 110.16C90.7973 110.16 94.5947 108.688 98.392 105.744ZM61.592 86.224C61.592 82.7253 59.864 79.8667 56.408 77.648C53.72 75.8987 50.3707 74.7253 46.36 74.128C37.3573 82.192 30.8507 90.7253 26.84 99.728C29.8267 101.563 33.3253 102.437 37.336 102.352L38.744 102.288L38.808 102.224C40.1733 98.4693 42.776 95.5467 46.616 93.456C50.1147 91.5787 54.0187 90.64 58.328 90.64C59.1387 90.64 59.928 90.6827 60.696 90.768C61.2933 89.4027 61.592 87.888 61.592 86.224ZM60.376 91.472C59.608 91.3867 58.7973 91.344 57.944 91.344C54.0187 91.344 50.392 92.24 47.064 94.032C43.3093 95.9947 40.792 98.6827 39.512 102.096L39.576 102.16C43.8853 101.947 47.8533 101.029 51.48 99.408C55.7893 97.4453 58.7547 94.8 60.376 91.472ZM72.152 99.856C70.104 95.7173 66.456 92.9653 61.208 91.6C59.544 95.568 56.472 98.6187 51.992 100.752C48.1093 102.629 43.8 103.611 39.064 103.696C38.8507 104.336 38.744 105.296 38.744 106.576C38.744 106.747 38.7653 107.003 38.808 107.344C38.8933 107.643 38.936 107.856 38.936 107.984C38.936 108.112 38.872 108.219 38.744 108.304C38.36 108.347 38.168 107.621 38.168 106.128C38.168 105.147 38.2533 104.336 38.424 103.696C33.6453 103.653 29.656 102.608 26.456 100.56C24.4933 105.168 23.3627 109.499 23.064 113.552C26.5627 114.576 30.616 115.088 35.224 115.088C42.52 115.088 49.176 113.787 55.192 111.184C60.696 108.837 66.3493 105.061 72.152 99.856ZM43.928 73.808C43.032 73.68 41.7947 73.616 40.216 73.616C31.512 73.616 23.9813 75.7707 17.624 80.08C11.0533 84.5173 7.768 90.0213 7.768 96.592C7.768 104.741 12.5893 110.309 22.232 113.296C22.5307 109.072 23.6187 104.613 25.496 99.92C24.472 99.152 23.5547 98.1707 22.744 96.976C21.848 95.6107 21.4 94.352 21.4 93.2C21.4 92.9867 21.4853 92.8587 21.656 92.816C22.2107 95.2907 23.5973 97.3813 25.816 99.088C29.5707 89.9147 35.608 81.488 43.928 73.808ZM74.136 108.368C74.136 106.448 73.816 104.443 73.176 102.352C67.2453 107.003 61.336 110.416 55.448 112.592C49.304 114.811 42.5413 115.92 35.16 115.92C30.8933 115.92 26.84 115.408 23 114.384C22.9573 114.725 22.936 115.429 22.936 116.496C22.936 123.237 24.92 128.656 28.888 132.752C32.856 136.848 38.2107 138.896 44.952 138.896C52.6747 138.896 59.5013 135.717 65.432 129.36C71.2347 123.131 74.136 116.133 74.136 108.368Z" fill="#131213"/>
</svg>
