<svg width="156" height="92" viewBox="0 0 156 92" fill="none" xmlns="http://www.w3.org/2000/svg">
<path d="M155.84 30.08C155.2 30.72 152.896 31.04 148.928 31.04C142.101 31.04 133.888 28.1173 124.288 22.272C118.784 18.9013 112.32 17.216 104.896 17.216C102.635 26.2187 97.472 33.8133 89.408 40C81.3867 46.1867 72.7253 49.28 63.424 49.28C56.6827 49.28 53.312 47.5733 53.312 44.16C53.312 41.4293 55.3387 37.6747 59.392 32.896C58.1547 30.592 57.536 28.288 57.536 25.984C57.536 22.016 59.4987 17.8987 63.424 13.632C66.9653 9.83467 71.3173 6.61333 76.48 3.968C81.6853 1.32267 86.208 0 90.048 0C92.9493 0 95.5733 0.597333 97.92 1.792C100.48 3.11467 102.357 4.992 103.552 7.424C104.021 8.36267 104.384 9.68533 104.64 11.392C104.896 12.8853 104.981 14.1013 104.896 15.04C111.083 15.04 117.44 16.7467 123.968 20.16C129.088 22.8907 135.147 25.5573 142.144 28.16C144.491 29.0133 146.667 29.44 148.672 29.44C150.677 29.44 153.067 29.6533 155.84 30.08ZM120.128 35.52C118.251 36.8427 115.477 39.68 111.808 44.032C108.693 47.7013 104.363 53.2267 98.816 60.608C88.1493 74.688 82.816 83.776 82.816 87.872C82.816 87.9573 82.8373 88.0427 82.88 88.128H83.2C84.864 88.128 89.984 84.096 98.56 76.032L99.2 76.48C96.5547 78.9547 93.9093 81.408 91.264 83.84C87.3387 87.2107 84.4373 88.896 82.56 88.896C81.4507 88.896 80.896 88.1067 80.896 86.528C80.896 85.6747 80.9813 84.864 81.152 84.096C82.432 78.464 88.7467 68.2667 100.096 53.504C109.696 41.0027 115.947 34.752 118.848 34.752C119.275 34.752 119.701 35.008 120.128 35.52ZM118.592 24.64C118.592 25.1947 118.165 25.7067 117.312 26.176C116.544 26.176 115.392 26.6027 113.856 27.456C112.32 28.3093 111.211 29.0347 110.528 29.632C108.224 31.8507 105.408 35.136 102.08 39.488C97.088 45.888 91.136 53.9307 84.224 63.616C77.0133 73.6853 69.5253 80.9387 61.76 85.376C57.792 87.68 53.8027 89.3013 49.792 90.24C46.1227 91.0933 41.8347 91.52 36.928 91.52C31.9787 91.52 28.5013 91.072 26.496 90.176C25.0453 89.5787 23.5947 88.96 22.144 88.32C20.5653 87.552 19.264 86.656 18.24 85.632C12.5653 85.12 7.70133 83.008 3.648 79.296C2.41067 78.1867 1.472 76.736 0.832 74.944C0.277333 73.5787 0 72.5333 0 71.808C0 68.992 0.704 66.7733 2.112 65.152C4.45867 62.4213 7.872 60.672 12.352 59.904C13.248 59.776 15.2107 59.712 18.24 59.712C19.3493 58.2613 21.2267 56.5973 23.872 54.72C30.1867 50.1973 37.0773 47.936 44.544 47.936C45.8667 47.936 47.552 48.0853 49.6 48.384C50.0693 45.8667 50.7947 44.352 51.776 43.84L52.032 43.904C51.648 44.032 51.264 44.48 50.88 45.248C50.7093 45.5893 50.4533 46.656 50.112 48.448C52.16 48.7467 54.208 49.4507 56.256 50.56C58.5173 51.7547 60.1387 53.1413 61.12 54.72C62.144 54.6347 63.8933 54.272 66.368 53.632C72.5547 51.968 78.848 49.0667 85.248 44.928C90.9227 40.9173 96.5973 36.9067 102.272 32.896C105.045 31.0187 107.456 29.5253 109.504 28.416C110.272 28.032 111.424 27.4347 112.96 26.624C113.771 26.0693 114.603 25.4933 115.456 24.896C116.267 24.4267 117.248 24.192 118.4 24.192C118.528 24.32 118.592 24.4693 118.592 24.64ZM104.512 15.104C104.512 14.1653 104.299 13.0773 103.872 11.84C103.488 10.816 103.104 9.792 102.72 8.768C102.208 8.08533 101.397 7.14667 100.288 5.952C97.216 3.05067 93.3973 1.6 88.832 1.6C85.12 1.6 80.8107 2.83733 75.904 5.312C71.04 7.744 66.9653 10.752 63.68 14.336C60.0533 18.3467 58.24 22.272 58.24 26.112C58.24 28.288 58.7733 30.4853 59.84 32.704C73.152 20.544 88.0427 14.6773 104.512 15.104ZM103.808 17.216C92.1173 17.216 80.128 20.7787 67.84 27.904C64.7253 29.7387 62.1867 31.488 60.224 33.152C61.4187 35.2427 63.744 36.608 67.2 37.248C68.48 37.504 69.3333 37.632 69.76 37.632C71.68 37.632 73.728 37.376 75.904 36.864C77.8667 36.352 80.064 35.328 82.496 33.792C84.9707 32.256 86.7413 30.6987 87.808 29.12C88.1493 28.608 88.4693 27.9253 88.768 27.072C88.896 26.7307 89.0453 26.5813 89.216 26.624L89.344 27.008C88.2347 29.9947 85.824 32.704 82.112 35.136C78.4427 37.568 75.008 38.784 71.808 38.784C69.504 38.784 67.264 38.3787 65.088 37.568C62.4427 36.5867 60.6933 35.264 59.84 33.6C58.688 34.624 57.5573 36.0533 56.448 37.888C55.2533 39.936 54.656 41.5787 54.656 42.816C54.656 44.7787 55.936 46.3147 58.496 47.424C60.5013 48.32 62.6133 48.768 64.832 48.768C68.416 48.768 72.8533 47.616 78.144 45.312C82.752 43.264 86.8053 40.9387 90.304 38.336C97.5573 32.96 102.059 25.92 103.808 17.216ZM112.32 27.456C111.936 27.712 111.339 28.0747 110.528 28.544C108.523 29.7387 105.557 31.552 101.632 33.984C95.36 38.464 89.1093 42.9227 82.88 47.36C75.4133 52.224 68.4587 55.2533 62.016 56.448C62.7413 57.856 63.104 59.5627 63.104 61.568C63.104 67.2 60.7147 72.1707 55.936 76.48C52.0107 80.0213 46.9973 82.7093 40.896 84.544C36.9707 85.696 32.384 86.272 27.136 86.272C26.4107 86.272 25.344 86.208 23.936 86.08C22.5707 85.9093 21.5467 85.824 20.864 85.824C22.6987 87.4027 25.2587 88.6613 28.544 89.6C31.488 90.4107 34.368 90.816 37.184 90.816C43.456 90.816 49.3013 89.5573 54.72 87.04C59.4133 84.864 64.2987 81.408 69.376 76.672C72.7893 73.5147 75.6267 70.464 77.888 67.52C79.296 65.5573 81.408 62.592 84.224 58.624C85.4187 57.088 87.232 54.7627 89.664 51.648C90.56 50.368 91.9253 48.4907 93.76 46.016C94.6987 44.9067 96.0853 43.2213 97.92 40.96C102.699 35.072 107.499 30.5707 112.32 27.456ZM59.84 54.72C57.7493 52.1173 54.464 50.304 49.984 49.28C50.4107 51.1147 51.2213 52.48 52.416 53.376C53.6107 54.272 54.912 54.72 56.32 54.72H59.84ZM62.08 61.44C62.08 59.8187 61.6107 58.1547 60.672 56.448C59.776 56.576 59.136 56.64 58.752 56.64C52.608 56.64 49.536 54.1653 49.536 49.216C47.9573 48.7893 46.2293 48.576 44.352 48.576C39.872 48.576 35.584 49.536 31.488 51.456C29.6107 52.3093 28.5227 52.8213 28.224 52.992C26.9867 53.632 25.984 54.272 25.216 54.912C24.192 55.7653 22.4427 57.4293 19.968 59.904C22.5707 60.7147 24.0853 61.2053 24.512 61.376C26.1333 62.1013 27.392 63.0827 28.288 64.32C28.8427 65.0453 29.1627 65.6 29.248 65.984C29.3333 66.368 29.44 66.88 29.568 67.52H29.44C29.2693 67.0507 28.9493 66.3253 28.48 65.344C27.5413 63.936 26.1973 62.8907 24.448 62.208C24.0213 62.0373 22.3573 61.5893 19.456 60.864C16.5973 64.32 15.168 68.736 15.168 74.112C15.168 76.1173 15.5947 78.1227 16.448 80.128C17.344 82.0907 18.5173 83.712 19.968 84.992C21.504 85.248 23.9787 85.376 27.392 85.376C41.6427 85.376 52.0107 80.8747 58.496 71.872C60.8853 68.6293 62.08 65.152 62.08 61.44ZM17.792 60.608C16.5547 60.48 15.5093 60.416 14.656 60.416C11.5413 60.416 8.704 61.312 6.144 63.104C3.328 65.1093 1.92 67.6053 1.92 70.592C1.92 72.2133 2.048 73.5147 2.304 74.496C2.64533 75.6053 3.52 76.928 4.928 78.464C6.50667 80.0853 8.10667 81.3013 9.728 82.112C12.4587 83.4773 15.0827 84.288 17.6 84.544C14.528 81.6853 12.992 77.952 12.992 73.344C12.992 71.168 13.4187 68.864 14.272 66.432C15.168 64 16.3413 62.0587 17.792 60.608Z" fill="#DA79DA"/>
</svg>
