<svg width="180" height="180" viewBox="0 0 180 180" fill="none" xmlns="http://www.w3.org/2000/svg">
<path d="M167.84 50.08C167.2 50.72 164.896 51.04 160.928 51.04C154.101 51.04 145.888 48.1173 136.288 42.272C130.784 38.9013 124.32 37.216 116.896 37.216C114.635 46.2187 109.472 53.8133 101.408 60C93.3867 66.1867 84.7253 69.28 75.424 69.28C68.6827 69.28 65.312 67.5733 65.312 64.16C65.312 61.4293 67.3387 57.6747 71.392 52.896C70.1547 50.592 69.536 48.288 69.536 45.984C69.536 42.016 71.4987 37.8987 75.424 33.632C78.9653 29.8347 83.3173 26.6133 88.48 23.968C93.6853 21.3227 98.208 20 102.048 20C104.949 20 107.573 20.5973 109.92 21.792C112.48 23.1147 114.357 24.992 115.552 27.424C116.021 28.3627 116.384 29.6853 116.64 31.392C116.896 32.8853 116.981 34.1013 116.896 35.04C123.083 35.04 129.44 36.7467 135.968 40.16C141.088 42.8907 147.147 45.5573 154.144 48.16C156.491 49.0133 158.667 49.44 160.672 49.44C162.677 49.44 165.067 49.6533 167.84 50.08ZM132.128 55.52C130.251 56.8427 127.477 59.68 123.808 64.032C120.693 67.7013 116.363 73.2267 110.816 80.608C100.149 94.688 94.816 103.776 94.816 107.872C94.816 107.957 94.8373 108.043 94.88 108.128H95.2C96.864 108.128 101.984 104.096 110.56 96.032L111.2 96.48C108.555 98.9547 105.909 101.408 103.264 103.84C99.3387 107.211 96.4373 108.896 94.56 108.896C93.4507 108.896 92.896 108.107 92.896 106.528C92.896 105.675 92.9813 104.864 93.152 104.096C94.432 98.464 100.747 88.2667 112.096 73.504C121.696 61.0027 127.947 54.752 130.848 54.752C131.275 54.752 131.701 55.008 132.128 55.52ZM130.592 44.64C130.592 45.1947 130.165 45.7067 129.312 46.176C128.544 46.176 127.392 46.6027 125.856 47.456C124.32 48.3093 123.211 49.0347 122.528 49.632C120.224 51.8507 117.408 55.136 114.08 59.488C109.088 65.888 103.136 73.9307 96.224 83.616C89.0133 93.6853 81.5253 100.939 73.76 105.376C69.792 107.68 65.8027 109.301 61.792 110.24C58.1227 111.093 53.8347 111.52 48.928 111.52C43.9787 111.52 40.5013 111.072 38.496 110.176C37.0453 109.579 35.5947 108.96 34.144 108.32C32.5653 107.552 31.264 106.656 30.24 105.632C24.5653 105.12 19.7013 103.008 15.648 99.296C14.4107 98.1867 13.472 96.736 12.832 94.944C12.2773 93.5787 12 92.5333 12 91.808C12 88.992 12.704 86.7733 14.112 85.152C16.4587 82.4213 19.872 80.672 24.352 79.904C25.248 79.776 27.2107 79.712 30.24 79.712C31.3493 78.2613 33.2267 76.5973 35.872 74.72C42.1867 70.1973 49.0773 67.936 56.544 67.936C57.8667 67.936 59.552 68.0853 61.6 68.384C62.0693 65.8667 62.7947 64.352 63.776 63.84L64.032 63.904C63.648 64.032 63.264 64.48 62.88 65.248C62.7093 65.5893 62.4533 66.656 62.112 68.448C64.16 68.7467 66.208 69.4507 68.256 70.56C70.5173 71.7547 72.1387 73.1413 73.12 74.72C74.144 74.6347 75.8933 74.272 78.368 73.632C84.5547 71.968 90.848 69.0667 97.248 64.928C102.923 60.9173 108.597 56.9067 114.272 52.896C117.045 51.0187 119.456 49.5253 121.504 48.416C122.272 48.032 123.424 47.4347 124.96 46.624C125.771 46.0693 126.603 45.4933 127.456 44.896C128.267 44.4267 129.248 44.192 130.4 44.192C130.528 44.32 130.592 44.4693 130.592 44.64ZM116.512 35.104C116.512 34.1653 116.299 33.0773 115.872 31.84C115.488 30.816 115.104 29.792 114.72 28.768C114.208 28.0853 113.397 27.1467 112.288 25.952C109.216 23.0507 105.397 21.6 100.832 21.6C97.12 21.6 92.8107 22.8373 87.904 25.312C83.04 27.744 78.9653 30.752 75.68 34.336C72.0533 38.3467 70.24 42.272 70.24 46.112C70.24 48.288 70.7733 50.4853 71.84 52.704C85.152 40.544 100.043 34.6773 116.512 35.104ZM115.808 37.216C104.117 37.216 92.128 40.7787 79.84 47.904C76.7253 49.7387 74.1867 51.488 72.224 53.152C73.4187 55.2427 75.744 56.608 79.2 57.248C80.48 57.504 81.3333 57.632 81.76 57.632C83.68 57.632 85.728 57.376 87.904 56.864C89.8667 56.352 92.064 55.328 94.496 53.792C96.9707 52.256 98.7413 50.6987 99.808 49.12C100.149 48.608 100.469 47.9253 100.768 47.072C100.896 46.7307 101.045 46.5813 101.216 46.624L101.344 47.008C100.235 49.9947 97.824 52.704 94.112 55.136C90.4427 57.568 87.008 58.784 83.808 58.784C81.504 58.784 79.264 58.3787 77.088 57.568C74.4427 56.5867 72.6933 55.264 71.84 53.6C70.688 54.624 69.5573 56.0533 68.448 57.888C67.2533 59.936 66.656 61.5787 66.656 62.816C66.656 64.7787 67.936 66.3147 70.496 67.424C72.5013 68.32 74.6133 68.768 76.832 68.768C80.416 68.768 84.8533 67.616 90.144 65.312C94.752 63.264 98.8053 60.9387 102.304 58.336C109.557 52.96 114.059 45.92 115.808 37.216ZM124.32 47.456C123.936 47.712 123.339 48.0747 122.528 48.544C120.523 49.7387 117.557 51.552 113.632 53.984C107.36 58.464 101.109 62.9227 94.88 67.36C87.4133 72.224 80.4587 75.2533 74.016 76.448C74.7413 77.856 75.104 79.5627 75.104 81.568C75.104 87.2 72.7147 92.1707 67.936 96.48C64.0107 100.021 58.9973 102.709 52.896 104.544C48.9707 105.696 44.384 106.272 39.136 106.272C38.4107 106.272 37.344 106.208 35.936 106.08C34.5707 105.909 33.5467 105.824 32.864 105.824C34.6987 107.403 37.2587 108.661 40.544 109.6C43.488 110.411 46.368 110.816 49.184 110.816C55.456 110.816 61.3013 109.557 66.72 107.04C71.4133 104.864 76.2987 101.408 81.376 96.672C84.7893 93.5147 87.6267 90.464 89.888 87.52C91.296 85.5573 93.408 82.592 96.224 78.624C97.4187 77.088 99.232 74.7627 101.664 71.648C102.56 70.368 103.925 68.4907 105.76 66.016C106.699 64.9067 108.085 63.2213 109.92 60.96C114.699 55.072 119.499 50.5707 124.32 47.456ZM71.84 74.72C69.7493 72.1173 66.464 70.304 61.984 69.28C62.4107 71.1147 63.2213 72.48 64.416 73.376C65.6107 74.272 66.912 74.72 68.32 74.72H71.84ZM74.08 81.44C74.08 79.8187 73.6107 78.1547 72.672 76.448C71.776 76.576 71.136 76.64 70.752 76.64C64.608 76.64 61.536 74.1653 61.536 69.216C59.9573 68.7893 58.2293 68.576 56.352 68.576C51.872 68.576 47.584 69.536 43.488 71.456C41.6107 72.3093 40.5227 72.8213 40.224 72.992C38.9867 73.632 37.984 74.272 37.216 74.912C36.192 75.7653 34.4427 77.4293 31.968 79.904C34.5707 80.7147 36.0853 81.2053 36.512 81.376C38.1333 82.1013 39.392 83.0827 40.288 84.32C40.8427 85.0453 41.1627 85.6 41.248 85.984C41.3333 86.368 41.44 86.88 41.568 87.52H41.44C41.2693 87.0507 40.9493 86.3253 40.48 85.344C39.5413 83.936 38.1973 82.8907 36.448 82.208C36.0213 82.0373 34.3573 81.5893 31.456 80.864C28.5973 84.32 27.168 88.736 27.168 94.112C27.168 96.1173 27.5947 98.1227 28.448 100.128C29.344 102.091 30.5173 103.712 31.968 104.992C33.504 105.248 35.9787 105.376 39.392 105.376C53.6427 105.376 64.0107 100.875 70.496 91.872C72.8853 88.6293 74.08 85.152 74.08 81.44ZM29.792 80.608C28.5547 80.48 27.5093 80.416 26.656 80.416C23.5413 80.416 20.704 81.312 18.144 83.104C15.328 85.1093 13.92 87.6053 13.92 90.592C13.92 92.2133 14.048 93.5147 14.304 94.496C14.6453 95.6053 15.52 96.928 16.928 98.464C18.5067 100.085 20.1067 101.301 21.728 102.112C24.4587 103.477 27.0827 104.288 29.6 104.544C26.528 101.685 24.992 97.952 24.992 93.344C24.992 91.168 25.4187 88.864 26.272 86.432C27.168 84 28.3413 82.0587 29.792 80.608Z" fill="#131213"/>
</svg>
