<svg width="180" height="180" viewBox="0 0 180 180" fill="none" xmlns="http://www.w3.org/2000/svg">
<path d="M167.84 58.08C167.2 58.72 164.896 59.04 160.928 59.04C154.101 59.04 145.888 56.1173 136.288 50.272C130.784 46.9013 124.32 45.216 116.896 45.216C114.635 54.2187 109.472 61.8133 101.408 68C93.3867 74.1867 84.7253 77.28 75.424 77.28C68.6827 77.28 65.312 75.5733 65.312 72.16C65.312 69.4293 67.3387 65.6747 71.392 60.896C70.1547 58.592 69.536 56.288 69.536 53.984C69.536 50.016 71.4987 45.8987 75.424 41.632C78.9653 37.8347 83.3173 34.6133 88.48 31.968C93.6853 29.3227 98.208 28 102.048 28C104.949 28 107.573 28.5973 109.92 29.792C112.48 31.1147 114.357 32.992 115.552 35.424C116.021 36.3627 116.384 37.6853 116.64 39.392C116.896 40.8853 116.981 42.1013 116.896 43.04C123.083 43.04 129.44 44.7467 135.968 48.16C141.088 50.8907 147.147 53.5573 154.144 56.16C156.491 57.0133 158.667 57.44 160.672 57.44C162.677 57.44 165.067 57.6533 167.84 58.08ZM132.128 63.52C130.251 64.8427 127.477 67.68 123.808 72.032C120.693 75.7013 116.363 81.2267 110.816 88.608C100.149 102.688 94.816 111.776 94.816 115.872C94.816 115.957 94.8373 116.043 94.88 116.128H95.2C96.864 116.128 101.984 112.096 110.56 104.032L111.2 104.48C108.555 106.955 105.909 109.408 103.264 111.84C99.3387 115.211 96.4373 116.896 94.56 116.896C93.4507 116.896 92.896 116.107 92.896 114.528C92.896 113.675 92.9813 112.864 93.152 112.096C94.432 106.464 100.747 96.2667 112.096 81.504C121.696 69.0027 127.947 62.752 130.848 62.752C131.275 62.752 131.701 63.008 132.128 63.52ZM130.592 52.64C130.592 53.1947 130.165 53.7067 129.312 54.176C128.544 54.176 127.392 54.6027 125.856 55.456C124.32 56.3093 123.211 57.0347 122.528 57.632C120.224 59.8507 117.408 63.136 114.08 67.488C109.088 73.888 103.136 81.9307 96.224 91.616C89.0133 101.685 81.5253 108.939 73.76 113.376C69.792 115.68 65.8027 117.301 61.792 118.24C58.1227 119.093 53.8347 119.52 48.928 119.52C43.9787 119.52 40.5013 119.072 38.496 118.176C37.0453 117.579 35.5947 116.96 34.144 116.32C32.5653 115.552 31.264 114.656 30.24 113.632C24.5653 113.12 19.7013 111.008 15.648 107.296C14.4107 106.187 13.472 104.736 12.832 102.944C12.2773 101.579 12 100.533 12 99.808C12 96.992 12.704 94.7733 14.112 93.152C16.4587 90.4213 19.872 88.672 24.352 87.904C25.248 87.776 27.2107 87.712 30.24 87.712C31.3493 86.2613 33.2267 84.5973 35.872 82.72C42.1867 78.1973 49.0773 75.936 56.544 75.936C57.8667 75.936 59.552 76.0853 61.6 76.384C62.0693 73.8667 62.7947 72.352 63.776 71.84L64.032 71.904C63.648 72.032 63.264 72.48 62.88 73.248C62.7093 73.5893 62.4533 74.656 62.112 76.448C64.16 76.7467 66.208 77.4507 68.256 78.56C70.5173 79.7547 72.1387 81.1413 73.12 82.72C74.144 82.6347 75.8933 82.272 78.368 81.632C84.5547 79.968 90.848 77.0667 97.248 72.928C102.923 68.9173 108.597 64.9067 114.272 60.896C117.045 59.0187 119.456 57.5253 121.504 56.416C122.272 56.032 123.424 55.4347 124.96 54.624C125.771 54.0693 126.603 53.4933 127.456 52.896C128.267 52.4267 129.248 52.192 130.4 52.192C130.528 52.32 130.592 52.4693 130.592 52.64ZM116.512 43.104C116.512 42.1653 116.299 41.0773 115.872 39.84C115.488 38.816 115.104 37.792 114.72 36.768C114.208 36.0853 113.397 35.1467 112.288 33.952C109.216 31.0507 105.397 29.6 100.832 29.6C97.12 29.6 92.8107 30.8373 87.904 33.312C83.04 35.744 78.9653 38.752 75.68 42.336C72.0533 46.3467 70.24 50.272 70.24 54.112C70.24 56.288 70.7733 58.4853 71.84 60.704C85.152 48.544 100.043 42.6773 116.512 43.104ZM115.808 45.216C104.117 45.216 92.128 48.7787 79.84 55.904C76.7253 57.7387 74.1867 59.488 72.224 61.152C73.4187 63.2427 75.744 64.608 79.2 65.248C80.48 65.504 81.3333 65.632 81.76 65.632C83.68 65.632 85.728 65.376 87.904 64.864C89.8667 64.352 92.064 63.328 94.496 61.792C96.9707 60.256 98.7413 58.6987 99.808 57.12C100.149 56.608 100.469 55.9253 100.768 55.072C100.896 54.7307 101.045 54.5813 101.216 54.624L101.344 55.008C100.235 57.9947 97.824 60.704 94.112 63.136C90.4427 65.568 87.008 66.784 83.808 66.784C81.504 66.784 79.264 66.3787 77.088 65.568C74.4427 64.5867 72.6933 63.264 71.84 61.6C70.688 62.624 69.5573 64.0533 68.448 65.888C67.2533 67.936 66.656 69.5787 66.656 70.816C66.656 72.7787 67.936 74.3147 70.496 75.424C72.5013 76.32 74.6133 76.768 76.832 76.768C80.416 76.768 84.8533 75.616 90.144 73.312C94.752 71.264 98.8053 68.9387 102.304 66.336C109.557 60.96 114.059 53.92 115.808 45.216ZM124.32 55.456C123.936 55.712 123.339 56.0747 122.528 56.544C120.523 57.7387 117.557 59.552 113.632 61.984C107.36 66.464 101.109 70.9227 94.88 75.36C87.4133 80.224 80.4587 83.2533 74.016 84.448C74.7413 85.856 75.104 87.5627 75.104 89.568C75.104 95.2 72.7147 100.171 67.936 104.48C64.0107 108.021 58.9973 110.709 52.896 112.544C48.9707 113.696 44.384 114.272 39.136 114.272C38.4107 114.272 37.344 114.208 35.936 114.08C34.5707 113.909 33.5467 113.824 32.864 113.824C34.6987 115.403 37.2587 116.661 40.544 117.6C43.488 118.411 46.368 118.816 49.184 118.816C55.456 118.816 61.3013 117.557 66.72 115.04C71.4133 112.864 76.2987 109.408 81.376 104.672C84.7893 101.515 87.6267 98.464 89.888 95.52C91.296 93.5573 93.408 90.592 96.224 86.624C97.4187 85.088 99.232 82.7627 101.664 79.648C102.56 78.368 103.925 76.4907 105.76 74.016C106.699 72.9067 108.085 71.2213 109.92 68.96C114.699 63.072 119.499 58.5707 124.32 55.456ZM71.84 82.72C69.7493 80.1173 66.464 78.304 61.984 77.28C62.4107 79.1147 63.2213 80.48 64.416 81.376C65.6107 82.272 66.912 82.72 68.32 82.72H71.84ZM74.08 89.44C74.08 87.8187 73.6107 86.1547 72.672 84.448C71.776 84.576 71.136 84.64 70.752 84.64C64.608 84.64 61.536 82.1653 61.536 77.216C59.9573 76.7893 58.2293 76.576 56.352 76.576C51.872 76.576 47.584 77.536 43.488 79.456C41.6107 80.3093 40.5227 80.8213 40.224 80.992C38.9867 81.632 37.984 82.272 37.216 82.912C36.192 83.7653 34.4427 85.4293 31.968 87.904C34.5707 88.7147 36.0853 89.2053 36.512 89.376C38.1333 90.1013 39.392 91.0827 40.288 92.32C40.8427 93.0453 41.1627 93.6 41.248 93.984C41.3333 94.368 41.44 94.88 41.568 95.52H41.44C41.2693 95.0507 40.9493 94.3253 40.48 93.344C39.5413 91.936 38.1973 90.8907 36.448 90.208C36.0213 90.0373 34.3573 89.5893 31.456 88.864C28.5973 92.32 27.168 96.736 27.168 102.112C27.168 104.117 27.5947 106.123 28.448 108.128C29.344 110.091 30.5173 111.712 31.968 112.992C33.504 113.248 35.9787 113.376 39.392 113.376C53.6427 113.376 64.0107 108.875 70.496 99.872C72.8853 96.6293 74.08 93.152 74.08 89.44ZM29.792 88.608C28.5547 88.48 27.5093 88.416 26.656 88.416C23.5413 88.416 20.704 89.312 18.144 91.104C15.328 93.1093 13.92 95.6053 13.92 98.592C13.92 100.213 14.048 101.515 14.304 102.496C14.6453 103.605 15.52 104.928 16.928 106.464C18.5067 108.085 20.1067 109.301 21.728 110.112C24.4587 111.477 27.0827 112.288 29.6 112.544C26.528 109.685 24.992 105.952 24.992 101.344C24.992 99.168 25.4187 96.864 26.272 94.432C27.168 92 28.3413 90.0587 29.792 88.608Z" fill="#131213"/>
</svg>
