<svg width="179" height="180" viewBox="0 0 179 180" fill="none" xmlns="http://www.w3.org/2000/svg">
<path d="M143.632 49.28C143.632 49.664 143.44 50.2613 143.056 51.072C142.587 51.4987 141.883 52.16 140.944 53.056C139.579 54.1227 137.552 55.744 134.864 57.92C133.755 58.9867 132.048 60.5867 129.744 62.72C129.616 62.848 123.408 68.8427 111.12 80.704C106.768 84.8853 102.672 89.152 98.832 93.504C97.1253 95.4667 95.9947 96.768 95.44 97.408C94.16 98.9867 93.1573 100.395 92.432 101.632C89.7867 106.027 88.464 109.163 88.464 111.04C88.464 112.405 88.848 113.621 89.616 114.688C90.4267 115.925 91.4933 116.544 92.816 116.544C93.968 116.544 95.8027 115.883 98.32 114.56C100.709 113.323 102.395 112.235 103.376 111.296C103.632 110.997 104.016 110.635 104.528 110.208C104.699 110.421 104.763 110.635 104.72 110.848L104.08 113.472C103.867 114.325 103.099 115.84 101.776 118.016L101.2 118.976C101.157 119.061 100.432 120 99.024 121.792C97.4027 123.883 95.2267 125.995 92.496 128.128C89.7653 130.261 87.3973 131.755 85.392 132.608C83.472 135.765 80.4427 138.667 76.304 141.312C71.952 144.128 68.0267 145.536 64.528 145.536H63.696C62.672 145.536 61.5627 145.173 60.368 144.448L60.56 144.32C60.6453 144.32 60.752 144.341 60.88 144.384C61.9893 144.981 62.8213 145.28 63.376 145.28C63.632 145.28 64.2293 145.195 65.168 145.024C67.5147 144.597 70.5227 143.445 74.192 141.568C75.3013 141.013 76.3253 140.437 77.264 139.84C79.5253 138.389 81.7227 136.235 83.856 133.376C83.728 133.376 83.6427 133.376 83.6 133.376C83.5573 133.419 83.4933 133.44 83.408 133.44C83.28 133.568 82.896 133.76 82.256 134.016C80.7627 134.613 79.312 134.912 77.904 134.912C76.0693 134.912 74.6187 134.357 73.552 133.248C73.2533 132.693 73.104 132.096 73.104 131.456C73.104 129.92 74.1707 128.533 76.304 127.296C78.1813 126.272 79.9733 125.76 81.68 125.76C82.7893 125.76 83.7707 126.037 84.624 126.592C85.4773 127.189 85.904 128.021 85.904 129.088V129.856C85.904 130.709 85.7333 131.413 85.392 131.968C89.0613 130.091 92.5173 127.275 95.76 123.52C98.832 120.021 101.243 116.224 102.992 112.128C98.384 115.627 94.9067 117.376 92.56 117.376C90.5547 117.376 88.9547 116.651 87.76 115.2C86.608 113.749 86.032 112 86.032 109.952C86.032 106.624 87.696 102.656 91.024 98.048C92.3467 96.2133 95.2267 92.7787 99.664 87.744C101.84 85.312 105.36 81.792 110.224 77.184C111.547 75.8187 113.595 73.7707 116.368 71.04C120.421 67.2853 127.376 61.2907 137.232 53.056C137.275 53.0133 138.192 52.3733 139.984 51.136C141.349 50.1973 142.16 49.4933 142.416 49.024C142.203 48.9387 141.797 48.896 141.2 48.896C140.176 48.896 138.789 49.5787 137.04 50.944C136.827 51.072 136.507 51.264 136.08 51.52C133.093 53.6107 127.845 58.0053 120.336 64.704C118.459 66.3253 115.664 68.8 111.952 72.128C110.032 73.8347 107.173 76.48 103.376 80.064C96.8907 86.8053 91.1093 93.0987 86.032 98.944C79.8453 106.112 74.64 111.168 70.416 114.112C67.088 116.459 63.6107 117.632 59.984 117.632C59.0027 117.632 58.2987 117.355 57.872 116.8C57.488 116.672 57.0827 116.203 56.656 115.392C56.656 115.179 56.6133 114.859 56.528 114.432C56.4427 113.963 56.4 113.621 56.4 113.408C56.4 109.952 58.1707 105.984 61.712 101.504C62.096 101.035 62.672 100.331 63.44 99.392C64.848 97.3867 66.192 95.7227 67.472 94.4C68.112 93.8027 69.0293 92.9067 70.224 91.712C74.2773 87.488 77.7973 83.6907 80.784 80.32C82.832 78.0587 84.88 75.8187 86.928 73.6C89.2747 70.912 91.024 68.4587 92.176 66.24C92.944 64.832 93.328 63.36 93.328 61.824C93.328 59.52 92.1333 57.5787 89.744 56C87.6107 54.592 85.328 53.888 82.896 53.888C76.88 53.888 71.4187 54.6773 66.512 56.256C61.648 57.8347 56.6987 60.352 51.664 63.808C50.768 64.3627 49.488 65.2373 47.824 66.432C46.7147 67.328 44.944 69.1627 42.512 71.936C37.3493 77.9093 34.768 83.328 34.768 88.192C34.768 91.3493 35.6427 93.824 37.392 95.616C39.1413 97.408 41.5947 98.304 44.752 98.304C48.464 98.304 52.4747 97.0027 56.784 94.4C60.752 92.0533 63.9947 89.2587 66.512 86.016C69.6267 81.9627 71.184 78.7627 71.184 76.416C71.184 74.1973 70.544 72.4907 69.264 71.296C68.0267 70.1013 66.2987 69.504 64.08 69.504C61.7333 69.504 59.728 70.1867 58.064 71.552L58.192 71.104C60.112 69.6107 62.0747 68.864 64.08 68.864C69.3707 68.864 72.016 71.6373 72.016 77.184C72.016 77.824 71.632 79.104 70.864 81.024C70.1387 82.7733 69.5627 83.9893 69.136 84.672C66.448 88.768 62.9493 92.1387 58.64 94.784C54.032 97.5573 49.4027 98.944 44.752 98.944C41.6373 98.944 39.056 98.0267 37.008 96.192C35.0027 94.3573 34 91.904 34 88.832C34 85.0773 35.152 81.0667 37.456 76.8C42.2347 68.096 50.896 61.2053 63.44 56.128C68.4747 54.08 74.4693 53.056 81.424 53.056C83.6427 53.056 85.968 53.44 88.4 54.208C91.2587 55.0613 93.264 56.2133 94.416 57.664C95.44 58.944 95.952 60.5653 95.952 62.528C95.952 64.448 95.6533 66.112 95.056 67.52C93.8613 70.3787 91.0027 74.112 86.48 78.72C84.0907 81.4507 80.4213 85.4827 75.472 90.816C70.1813 96.2773 66.768 99.9467 65.232 101.824C60.6667 107.243 58.384 111.339 58.384 114.112C58.384 115.861 59.3227 116.736 61.2 116.736C63.76 116.736 66.768 115.563 70.224 113.216C71.2907 112.533 72.912 111.147 75.088 109.056C78.16 106.112 83.5787 100.395 91.344 91.904C101.285 81.024 110.8 71.6587 119.888 63.808C122.192 61.76 124.496 59.6907 126.8 57.6C129.531 55.2107 131.984 53.3333 134.16 51.968C135.525 50.9867 137.211 49.9627 139.216 48.896C139.941 48.2987 141.051 48 142.544 48C143.269 48.256 143.632 48.6827 143.632 49.28ZM85.136 129.536C85.136 128.213 84.8587 127.403 84.304 127.104C83.3653 126.592 82.5333 126.357 81.808 126.4C80.6987 126.443 79.696 126.635 78.8 126.976C77.904 127.317 77.008 127.68 76.112 128.064C74.5333 129.643 73.744 130.773 73.744 131.456C73.744 132.181 74.064 132.821 74.704 133.376C75.3867 133.931 76.0907 134.208 76.816 134.208C77.072 134.293 77.4347 134.336 77.904 134.336C79.6533 134.336 81.7013 133.76 84.048 132.608C84.7733 131.712 85.136 130.688 85.136 129.536Z" fill="#131213"/>
</svg>
