<svg width="179" height="180" viewBox="0 0 179 180" fill="none" xmlns="http://www.w3.org/2000/svg">
<path d="M143.632 41.28C143.632 41.664 143.44 42.2613 143.056 43.072C142.587 43.4987 141.883 44.16 140.944 45.056C139.579 46.1227 137.552 47.744 134.864 49.92C133.755 50.9867 132.048 52.5867 129.744 54.72C129.616 54.848 123.408 60.8427 111.12 72.704C106.768 76.8853 102.672 81.152 98.832 85.504C97.1253 87.4667 95.9947 88.768 95.44 89.408C94.16 90.9867 93.1573 92.3947 92.432 93.632C89.7867 98.0267 88.464 101.163 88.464 103.04C88.464 104.405 88.848 105.621 89.616 106.688C90.4267 107.925 91.4933 108.544 92.816 108.544C93.968 108.544 95.8027 107.883 98.32 106.56C100.709 105.323 102.395 104.235 103.376 103.296C103.632 102.997 104.016 102.635 104.528 102.208C104.699 102.421 104.763 102.635 104.72 102.848L104.08 105.472C103.867 106.325 103.099 107.84 101.776 110.016L101.2 110.976C101.157 111.061 100.432 112 99.024 113.792C97.4027 115.883 95.2267 117.995 92.496 120.128C89.7653 122.261 87.3973 123.755 85.392 124.608C83.472 127.765 80.4427 130.667 76.304 133.312C71.952 136.128 68.0267 137.536 64.528 137.536H63.696C62.672 137.536 61.5627 137.173 60.368 136.448L60.56 136.32C60.6453 136.32 60.752 136.341 60.88 136.384C61.9893 136.981 62.8213 137.28 63.376 137.28C63.632 137.28 64.2293 137.195 65.168 137.024C67.5147 136.597 70.5227 135.445 74.192 133.568C75.3013 133.013 76.3253 132.437 77.264 131.84C79.5253 130.389 81.7227 128.235 83.856 125.376C83.728 125.376 83.6427 125.376 83.6 125.376C83.5573 125.419 83.4933 125.44 83.408 125.44C83.28 125.568 82.896 125.76 82.256 126.016C80.7627 126.613 79.312 126.912 77.904 126.912C76.0693 126.912 74.6187 126.357 73.552 125.248C73.2533 124.693 73.104 124.096 73.104 123.456C73.104 121.92 74.1707 120.533 76.304 119.296C78.1813 118.272 79.9733 117.76 81.68 117.76C82.7893 117.76 83.7707 118.037 84.624 118.592C85.4773 119.189 85.904 120.021 85.904 121.088V121.856C85.904 122.709 85.7333 123.413 85.392 123.968C89.0613 122.091 92.5173 119.275 95.76 115.52C98.832 112.021 101.243 108.224 102.992 104.128C98.384 107.627 94.9067 109.376 92.56 109.376C90.5547 109.376 88.9547 108.651 87.76 107.2C86.608 105.749 86.032 104 86.032 101.952C86.032 98.624 87.696 94.656 91.024 90.048C92.3467 88.2133 95.2267 84.7787 99.664 79.744C101.84 77.312 105.36 73.792 110.224 69.184C111.547 67.8187 113.595 65.7707 116.368 63.04C120.421 59.2853 127.376 53.2907 137.232 45.056C137.275 45.0133 138.192 44.3733 139.984 43.136C141.349 42.1973 142.16 41.4933 142.416 41.024C142.203 40.9387 141.797 40.896 141.2 40.896C140.176 40.896 138.789 41.5787 137.04 42.944C136.827 43.072 136.507 43.264 136.08 43.52C133.093 45.6107 127.845 50.0053 120.336 56.704C118.459 58.3253 115.664 60.8 111.952 64.128C110.032 65.8347 107.173 68.48 103.376 72.064C96.8907 78.8053 91.1093 85.0987 86.032 90.944C79.8453 98.112 74.64 103.168 70.416 106.112C67.088 108.459 63.6107 109.632 59.984 109.632C59.0027 109.632 58.2987 109.355 57.872 108.8C57.488 108.672 57.0827 108.203 56.656 107.392C56.656 107.179 56.6133 106.859 56.528 106.432C56.4427 105.963 56.4 105.621 56.4 105.408C56.4 101.952 58.1707 97.984 61.712 93.504C62.096 93.0347 62.672 92.3307 63.44 91.392C64.848 89.3867 66.192 87.7227 67.472 86.4C68.112 85.8027 69.0293 84.9067 70.224 83.712C74.2773 79.488 77.7973 75.6907 80.784 72.32C82.832 70.0587 84.88 67.8187 86.928 65.6C89.2747 62.912 91.024 60.4587 92.176 58.24C92.944 56.832 93.328 55.36 93.328 53.824C93.328 51.52 92.1333 49.5787 89.744 48C87.6107 46.592 85.328 45.888 82.896 45.888C76.88 45.888 71.4187 46.6773 66.512 48.256C61.648 49.8347 56.6987 52.352 51.664 55.808C50.768 56.3627 49.488 57.2373 47.824 58.432C46.7147 59.328 44.944 61.1627 42.512 63.936C37.3493 69.9093 34.768 75.328 34.768 80.192C34.768 83.3493 35.6427 85.824 37.392 87.616C39.1413 89.408 41.5947 90.304 44.752 90.304C48.464 90.304 52.4747 89.0027 56.784 86.4C60.752 84.0533 63.9947 81.2587 66.512 78.016C69.6267 73.9627 71.184 70.7627 71.184 68.416C71.184 66.1973 70.544 64.4907 69.264 63.296C68.0267 62.1013 66.2987 61.504 64.08 61.504C61.7333 61.504 59.728 62.1867 58.064 63.552L58.192 63.104C60.112 61.6107 62.0747 60.864 64.08 60.864C69.3707 60.864 72.016 63.6373 72.016 69.184C72.016 69.824 71.632 71.104 70.864 73.024C70.1387 74.7733 69.5627 75.9893 69.136 76.672C66.448 80.768 62.9493 84.1387 58.64 86.784C54.032 89.5573 49.4027 90.944 44.752 90.944C41.6373 90.944 39.056 90.0267 37.008 88.192C35.0027 86.3573 34 83.904 34 80.832C34 77.0773 35.152 73.0667 37.456 68.8C42.2347 60.096 50.896 53.2053 63.44 48.128C68.4747 46.08 74.4693 45.056 81.424 45.056C83.6427 45.056 85.968 45.44 88.4 46.208C91.2587 47.0613 93.264 48.2133 94.416 49.664C95.44 50.944 95.952 52.5653 95.952 54.528C95.952 56.448 95.6533 58.112 95.056 59.52C93.8613 62.3787 91.0027 66.112 86.48 70.72C84.0907 73.4507 80.4213 77.4827 75.472 82.816C70.1813 88.2773 66.768 91.9467 65.232 93.824C60.6667 99.2427 58.384 103.339 58.384 106.112C58.384 107.861 59.3227 108.736 61.2 108.736C63.76 108.736 66.768 107.563 70.224 105.216C71.2907 104.533 72.912 103.147 75.088 101.056C78.16 98.112 83.5787 92.3947 91.344 83.904C101.285 73.024 110.8 63.6587 119.888 55.808C122.192 53.76 124.496 51.6907 126.8 49.6C129.531 47.2107 131.984 45.3333 134.16 43.968C135.525 42.9867 137.211 41.9627 139.216 40.896C139.941 40.2987 141.051 40 142.544 40C143.269 40.256 143.632 40.6827 143.632 41.28ZM85.136 121.536C85.136 120.213 84.8587 119.403 84.304 119.104C83.3653 118.592 82.5333 118.357 81.808 118.4C80.6987 118.443 79.696 118.635 78.8 118.976C77.904 119.317 77.008 119.68 76.112 120.064C74.5333 121.643 73.744 122.773 73.744 123.456C73.744 124.181 74.064 124.821 74.704 125.376C75.3867 125.931 76.0907 126.208 76.816 126.208C77.072 126.293 77.4347 126.336 77.904 126.336C79.6533 126.336 81.7013 125.76 84.048 124.608C84.7733 123.712 85.136 122.688 85.136 121.536Z" fill="#131213"/>
</svg>
