<svg width="110" height="98" viewBox="0 0 110 98" fill="none" xmlns="http://www.w3.org/2000/svg">
<path d="M109.632 1.28C109.632 1.664 109.44 2.26134 109.056 3.072C108.587 3.49867 107.883 4.16 106.944 5.056C105.579 6.12267 103.552 7.744 100.864 9.92C99.7547 10.9867 98.048 12.5867 95.744 14.72C95.616 14.848 89.408 20.8427 77.12 32.704C72.768 36.8853 68.672 41.152 64.832 45.504C63.1253 47.4667 61.9947 48.768 61.44 49.408C60.16 50.9867 59.1573 52.3947 58.432 53.632C55.7867 58.0267 54.464 61.1627 54.464 63.04C54.464 64.4053 54.848 65.6213 55.616 66.688C56.4267 67.9253 57.4933 68.544 58.816 68.544C59.968 68.544 61.8027 67.8827 64.32 66.56C66.7093 65.3227 68.3947 64.2347 69.376 63.296C69.632 62.9973 70.016 62.6347 70.528 62.208C70.6987 62.4213 70.7627 62.6347 70.72 62.848L70.08 65.472C69.8667 66.3253 69.0987 67.84 67.776 70.016L67.2 70.976C67.1573 71.0613 66.432 72 65.024 73.792C63.4027 75.8827 61.2267 77.9947 58.496 80.128C55.7653 82.2613 53.3973 83.7547 51.392 84.608C49.472 87.7653 46.4427 90.6667 42.304 93.312C37.952 96.128 34.0267 97.536 30.528 97.536H29.696C28.672 97.536 27.5627 97.1733 26.368 96.448L26.56 96.32C26.6453 96.32 26.752 96.3413 26.88 96.384C27.9893 96.9813 28.8213 97.28 29.376 97.28C29.632 97.28 30.2293 97.1947 31.168 97.024C33.5147 96.5973 36.5227 95.4453 40.192 93.568C41.3013 93.0133 42.3253 92.4373 43.264 91.84C45.5253 90.3893 47.7227 88.2347 49.856 85.376C49.728 85.376 49.6427 85.376 49.6 85.376C49.5573 85.4187 49.4933 85.44 49.408 85.44C49.28 85.568 48.896 85.76 48.256 86.016C46.7627 86.6133 45.312 86.912 43.904 86.912C42.0693 86.912 40.6187 86.3573 39.552 85.248C39.2533 84.6933 39.104 84.096 39.104 83.456C39.104 81.92 40.1707 80.5333 42.304 79.296C44.1813 78.272 45.9733 77.76 47.68 77.76C48.7893 77.76 49.7707 78.0373 50.624 78.592C51.4773 79.1893 51.904 80.0213 51.904 81.088V81.856C51.904 82.7093 51.7333 83.4133 51.392 83.968C55.0613 82.0907 58.5173 79.2747 61.76 75.52C64.832 72.0213 67.2427 68.224 68.992 64.128C64.384 67.6267 60.9067 69.376 58.56 69.376C56.5547 69.376 54.9547 68.6507 53.76 67.2C52.608 65.7493 52.032 64 52.032 61.952C52.032 58.624 53.696 54.656 57.024 50.048C58.3467 48.2133 61.2267 44.7787 65.664 39.744C67.84 37.312 71.36 33.792 76.224 29.184C77.5467 27.8187 79.5947 25.7707 82.368 23.04C86.4213 19.2853 93.376 13.2907 103.232 5.056C103.275 5.01333 104.192 4.37333 105.984 3.136C107.349 2.19733 108.16 1.49333 108.416 1.024C108.203 0.93867 107.797 0.896004 107.2 0.896004C106.176 0.896004 104.789 1.57867 103.04 2.944C102.827 3.072 102.507 3.264 102.08 3.52C99.0933 5.61067 93.8453 10.0053 86.336 16.704C84.4587 18.3253 81.664 20.8 77.952 24.128C76.032 25.8347 73.1733 28.48 69.376 32.064C62.8907 38.8053 57.1093 45.0987 52.032 50.944C45.8453 58.112 40.64 63.168 36.416 66.112C33.088 68.4587 29.6107 69.632 25.984 69.632C25.0027 69.632 24.2987 69.3547 23.872 68.8C23.488 68.672 23.0827 68.2027 22.656 67.392C22.656 67.1787 22.6133 66.8587 22.528 66.432C22.4427 65.9627 22.4 65.6213 22.4 65.408C22.4 61.952 24.1707 57.984 27.712 53.504C28.096 53.0347 28.672 52.3307 29.44 51.392C30.848 49.3867 32.192 47.7227 33.472 46.4C34.112 45.8027 35.0293 44.9067 36.224 43.712C40.2773 39.488 43.7973 35.6907 46.784 32.32C48.832 30.0587 50.88 27.8187 52.928 25.6C55.2747 22.912 57.024 20.4587 58.176 18.24C58.944 16.832 59.328 15.36 59.328 13.824C59.328 11.52 58.1333 9.57867 55.744 8C53.6107 6.592 51.328 5.888 48.896 5.888C42.88 5.888 37.4187 6.67733 32.512 8.256C27.648 9.83467 22.6987 12.352 17.664 15.808C16.768 16.3627 15.488 17.2373 13.824 18.432C12.7147 19.328 10.944 21.1627 8.512 23.936C3.34933 29.9093 0.768 35.328 0.768 40.192C0.768 43.3493 1.64267 45.824 3.392 47.616C5.14133 49.408 7.59467 50.304 10.752 50.304C14.464 50.304 18.4747 49.0027 22.784 46.4C26.752 44.0533 29.9947 41.2587 32.512 38.016C35.6267 33.9627 37.184 30.7627 37.184 28.416C37.184 26.1973 36.544 24.4907 35.264 23.296C34.0267 22.1013 32.2987 21.504 30.08 21.504C27.7333 21.504 25.728 22.1867 24.064 23.552L24.192 23.104C26.112 21.6107 28.0747 20.864 30.08 20.864C35.3707 20.864 38.016 23.6373 38.016 29.184C38.016 29.824 37.632 31.104 36.864 33.024C36.1387 34.7733 35.5627 35.9893 35.136 36.672C32.448 40.768 28.9493 44.1387 24.64 46.784C20.032 49.5573 15.4027 50.944 10.752 50.944C7.63733 50.944 5.056 50.0267 3.008 48.192C1.00267 46.3573 0 43.904 0 40.832C0 37.0773 1.152 33.0667 3.456 28.8C8.23467 20.096 16.896 13.2053 29.44 8.128C34.4747 6.08 40.4693 5.056 47.424 5.056C49.6427 5.056 51.968 5.44 54.4 6.208C57.2587 7.06133 59.264 8.21333 60.416 9.664C61.44 10.944 61.952 12.5653 61.952 14.528C61.952 16.448 61.6533 18.112 61.056 19.52C59.8613 22.3787 57.0027 26.112 52.48 30.72C50.0907 33.4507 46.4213 37.4827 41.472 42.816C36.1813 48.2773 32.768 51.9467 31.232 53.824C26.6667 59.2427 24.384 63.3387 24.384 66.112C24.384 67.8613 25.3227 68.736 27.2 68.736C29.76 68.736 32.768 67.5627 36.224 65.216C37.2907 64.5333 38.912 63.1467 41.088 61.056C44.16 58.112 49.5787 52.3947 57.344 43.904C67.2853 33.024 76.8 23.6587 85.888 15.808C88.192 13.76 90.496 11.6907 92.8 9.6C95.5307 7.21067 97.984 5.33333 100.16 3.968C101.525 2.98667 103.211 1.96267 105.216 0.896004C105.941 0.298668 107.051 0 108.544 0C109.269 0.256002 109.632 0.682668 109.632 1.28ZM51.136 81.536C51.136 80.2133 50.8587 79.4027 50.304 79.104C49.3653 78.592 48.5333 78.3573 47.808 78.4C46.6987 78.4427 45.696 78.6347 44.8 78.976C43.904 79.3173 43.008 79.68 42.112 80.064C40.5333 81.6427 39.744 82.7733 39.744 83.456C39.744 84.1813 40.064 84.8213 40.704 85.376C41.3867 85.9307 42.0907 86.208 42.816 86.208C43.072 86.2933 43.4347 86.336 43.904 86.336C45.6533 86.336 47.7013 85.76 50.048 84.608C50.7733 83.712 51.136 82.688 51.136 81.536Z" fill="#DA79DA"/>
</svg>
