<svg width="1920" height="1000" viewBox="0 0 1920 1000" fill="none" xmlns="http://www.w3.org/2000/svg">
<g clip-path="url(#clip0_140_268)">
<path d="M337.812 521.8C279.012 521.8 196.212 581.8 187.212 725.8C287.412 715.6 394.812 643.6 394.812 573.4C394.812 540.4 370.212 521.8 337.812 521.8ZM424.212 460C424.212 452.2 411.612 440.8 370.212 437.8C384.612 458.8 406.212 468.4 414.012 468.4C419.412 468.4 424.212 464.8 424.212 460ZM643.812 170.8C547.812 170.8 363.012 263.2 356.412 383.2C514.212 358 699.012 271 699.012 207.4C699.012 205 702.612 170.8 643.812 170.8ZM162.012 735.4C76.8117 735.4 17.4117 701.8 17.4117 641.8C17.4117 548.2 157.212 429.4 353.412 429.4H355.812C350.412 418.6 346.212 406.6 344.412 392.8C319.212 396.4 294.612 398.2 272.412 398.2C125.412 398.2 121.812 310.6 121.812 298.6V297.4C121.812 247 165.012 195.4 230.412 195.4C265.212 195.4 299.412 211 317.412 239.2L309.612 243.4C309.612 243.4 286.212 203.2 230.412 203.2C169.812 203.2 130.212 250.6 130.212 297.4C130.212 310 131.412 389.8 274.812 389.8C296.412 389.8 319.212 388 343.812 385C343.212 382 343.212 379 343.212 376C343.212 245.2 504.612 157.6 628.212 157.6C680.412 157.6 708.612 177.4 708.612 206.8C708.612 280 515.412 365.8 356.412 391C356.412 406.6 360.012 419.2 365.412 429.4C427.812 431.8 432.012 454 432.012 460C432.012 469 424.212 476.2 414.012 476.2C399.612 476.2 376.212 462.4 360.012 437.2H349.812C166.212 437.2 48.6117 552.4 48.6117 641.2C48.6117 697 81.6117 727.6 162.612 727.6C168.012 727.6 172.812 727 177.612 727V725.8C177.612 578.8 255.012 514 337.812 514C374.412 514 402.612 535.6 402.612 573.4C402.612 650.8 288.612 723.4 187.212 734.2C186.612 739.6 186.612 746.2 186.612 752.2C186.612 781 189.612 803.8 189.612 803.8L181.212 805C179.412 788.2 177.612 735.4 177.612 734.8C172.212 735.4 167.412 735.4 162.012 735.4ZM471.143 709C450.743 709 424.943 700 424.943 662.8C424.943 606.4 526.943 478.6 580.343 385H613.943C547.343 485.2 451.943 621.4 451.943 674.2C451.943 686.8 459.143 698.8 471.743 698.8C549.743 698.8 714.143 477.4 714.143 386.2C714.143 370.6 704.543 365.8 694.943 365.8H694.343C697.943 357.4 706.943 352.6 716.543 352.6C735.743 352.6 744.143 364 744.143 382C744.143 467.8 562.943 709 471.143 709ZM930.321 385C881.721 385 800.121 475 753.921 558.4C874.521 545.8 958.521 453.4 958.521 408.4C958.521 394 949.521 385 930.321 385ZM990.921 519.4L999.321 522.4C963.321 573.4 843.921 709 762.321 709C713.121 709 693.321 682 693.321 643.6C693.321 546.4 821.121 374.2 923.721 374.2C954.321 374.2 968.721 387.4 968.721 407.8C968.721 460.6 876.321 556 747.921 569.8C730.521 603.4 719.121 635.8 719.121 659.2C719.121 683.8 731.121 700 759.321 700C846.321 700 959.721 560.2 990.921 519.4ZM1113.83 700C1140.23 700 1193.03 665.8 1299.83 519.4L1308.23 522.4C1200.83 673 1142.63 709 1110.23 709C1086.83 709 1072.43 688.6 1072.43 667C1072.43 588.4 1227.83 450.4 1227.83 400C1227.83 390.4 1221.83 383.8 1206.23 383.8C1158.83 383.8 1063.43 464.8 1011.83 541.6L909.232 709H875.032C1071.83 386.8 1071.83 386.8 1071.83 386.2L1108.43 386.8C1092.23 411.4 1095.23 406 1052.63 475C1124.63 398.8 1183.43 371.2 1219.43 371.2C1235.63 371.2 1253.63 380.2 1253.63 404.2C1253.63 473.8 1093.43 634 1093.43 684.4C1093.43 694.6 1099.43 700 1113.83 700ZM1284.62 709C1261.82 709 1242.02 691 1242.02 656.2C1242.02 595.6 1305.02 510.4 1382.42 397C1382.42 396.4 1382.42 396.4 1383.02 395.8H1312.82V387.4H1388.42C1429.82 325.6 1461.62 280.6 1486.82 237.4H1522.82C1497.62 270.4 1464.02 320.2 1420.22 387.4H1501.22V395.8H1414.82C1391.42 431.2 1365.62 472 1336.82 517C1299.02 578.8 1267.82 639.4 1267.82 672.4C1267.82 688.6 1275.02 697.6 1293.02 697.6C1337.42 697.6 1420.22 593.2 1476.02 519.4L1484.42 522.4C1366.22 680.2 1318.22 709 1284.62 709Z" fill="white" fill-opacity="0.01"/>
<path d="M1437.29 -290.2C1342.49 -290.2 1109.69 -123.4 1086.29 93.8C1108.49 100.4 1131.89 102.8 1152.29 102.8C1167.89 102.8 1182.89 101 1197.89 98C1194.89 84.2 1193.69 70.4 1193.69 56C1193.69 -98.2 1359.29 -251.2 1469.09 -251.2C1474.49 -251.2 1481.69 -251.2 1490.09 -249.4C1489.49 -254.2 1488.29 -258.4 1486.49 -262C1486.49 -265 1476.89 -290.2 1437.29 -290.2ZM1560.29 -134.2C1560.29 -200.8 1528.49 -230.2 1499.09 -239.8V-236.8C1499.09 -141.4 1377.29 60.8 1211.09 102.2C1216.49 137.6 1232.09 171.2 1261.49 201.2L1257.89 206C1226.69 174.2 1208.09 140 1199.09 104.6C1183.49 108.2 1167.29 109.4 1151.09 109.4C1130.69 109.4 1107.89 107.6 1085.09 101C1084.49 110.6 1083.89 119.6 1083.89 129.2C1083.89 253.4 1158.89 287.6 1210.49 287.6C1358.09 287.6 1560.29 48.2 1560.29 -134.2ZM1208.69 71.6C1208.69 79.4 1209.29 87.8 1209.89 95.6C1373.69 55.4 1490.69 -145.6 1490.69 -236.8V-241.6C1485.89 -242.8 1481.69 -242.8 1476.89 -242.8C1373.09 -242.8 1208.69 -79.6 1208.69 71.6ZM995.092 -13.6C995.092 -105.4 1083.89 -219.4 1230.89 -246.4L1232.09 -239.2C1089.89 -214.6 1002.89 -103.6 1002.89 -14.8C1002.89 27.2 1022.09 64.4 1064.69 85.4C1092.89 -132.4 1321.49 -298 1435.49 -298C1470.29 -298 1494.29 -281.8 1498.49 -247C1541.69 -233.8 1568.69 -191.2 1568.69 -135.4C1568.69 50 1365.29 295.4 1210.49 295.4C1149.89 295.4 1061.69 253.4 1061.69 129.2C1061.69 117.2 1062.29 105.2 1064.09 93.2C1016.69 71.6 995.092 32 995.092 -13.6ZM1486.49 -262V-262.6C1486.49 -262.6 1486.49 -262.6 1486.49 -262Z" fill="white" fill-opacity="0.01"/>
<path d="M852.33 909L856.564 934.49C856.712 935.381 857.439 936.063 858.337 936.153L901.66 940.5L858.337 944.847C857.439 944.937 856.712 945.619 856.564 946.51L852.33 972L848.096 946.51C847.948 945.619 847.222 944.937 846.323 944.847L803 940.5L846.323 936.153C847.222 936.063 847.948 935.381 848.096 934.49L852.33 909Z" fill="white" fill-opacity="0.01"/>
<path d="M838.857 22L849.32 84.7767C849.468 85.6673 850.195 86.3481 851.094 86.4379L956.714 97L851.094 107.562C850.195 107.652 849.468 108.333 849.32 109.223L838.857 172L828.394 109.223C828.246 108.333 827.519 107.652 826.621 107.562L721 97L826.621 86.4379C827.519 86.3481 828.246 85.6673 828.394 84.7767L838.857 22Z" fill="white" fill-opacity="0.01"/>
<path d="M1190.57 709L1197.46 750.348C1197.61 751.239 1198.34 751.92 1199.24 752.009L1269.14 759L1199.24 765.991C1198.34 766.08 1197.61 766.761 1197.46 767.652L1190.57 809L1183.68 767.652C1183.53 766.761 1182.8 766.08 1181.91 765.991L1112 759L1181.91 752.009C1182.8 751.92 1183.53 751.239 1183.68 750.348L1190.57 709Z" fill="white" fill-opacity="0.01"/>
<path d="M941.5 228L946.658 259.062C946.806 259.953 947.533 260.634 948.432 260.724L1001 266L948.432 271.276C947.533 271.366 946.806 272.047 946.658 272.938L941.5 304L936.342 272.938C936.194 272.047 935.467 271.366 934.568 271.276L882 266L934.568 260.724C935.467 260.634 936.194 259.953 936.342 259.062L941.5 228Z" fill="white" fill-opacity="0.01"/>
<path d="M365.786 709L386.606 833.92C386.754 834.81 387.481 835.491 388.379 835.581L597.571 856.5L388.379 877.419C387.481 877.509 386.754 878.19 386.606 879.08L365.786 1004L344.966 879.08C344.817 878.19 344.09 877.509 343.192 877.419L134 856.5L343.192 835.581C344.09 835.491 344.817 834.81 344.966 833.92L365.786 709Z" fill="white" fill-opacity="0.01"/>
</g>
<defs>
<clipPath id="clip0_140_268">
<rect width="1920" height="1000" fill="white"/>
</clipPath>
</defs>
</svg>
