<svg width="1876" height="1861" viewBox="0 0 1876 1861" fill="none" xmlns="http://www.w3.org/2000/svg">
<g clip-path="url(#clip0_117_389)">
<path d="M334.114 487.6C265.514 487.6 168.914 557.6 158.414 725.6C275.314 713.7 400.614 629.7 400.614 547.8C400.614 509.3 371.914 487.6 334.114 487.6ZM434.914 415.5C434.914 406.4 420.214 393.1 371.914 389.6C388.714 414.1 413.914 425.3 423.014 425.3C429.314 425.3 434.914 421.1 434.914 415.5ZM691.114 78.1C579.114 78.1 363.514 185.9 355.814 325.9C539.914 296.5 755.514 195 755.514 120.8C755.514 118 759.714 78.1 691.114 78.1ZM129.014 736.8C29.6137 736.8 -39.6863 697.6 -39.6863 627.6C-39.6863 518.4 123.414 379.8 352.314 379.8H355.114C348.814 367.2 343.914 353.2 341.814 337.1C312.414 341.3 283.714 343.4 257.814 343.4C86.3137 343.4 82.1137 241.2 82.1137 227.2V225.8C82.1137 167 132.514 106.8 208.814 106.8C249.414 106.8 289.314 125 310.314 157.9L301.214 162.8C301.214 162.8 273.914 115.9 208.814 115.9C138.114 115.9 91.9137 171.2 91.9137 225.8C91.9137 240.5 93.3137 333.6 260.614 333.6C285.814 333.6 312.414 331.5 341.114 328C340.414 324.5 340.414 321 340.414 317.5C340.414 164.9 528.714 62.7 672.914 62.7C733.814 62.7 766.714 85.8 766.714 120.1C766.714 205.5 541.314 305.6 355.814 335C355.814 353.2 360.014 367.9 366.314 379.8C439.114 382.6 444.014 408.5 444.014 415.5C444.014 426 434.914 434.4 423.014 434.4C406.214 434.4 378.914 418.3 360.014 388.9H348.114C133.914 388.9 -3.28633 523.3 -3.28633 626.9C-3.28633 692 35.2137 727.7 129.714 727.7C136.014 727.7 141.614 727 147.214 727V725.6C147.214 554.1 237.514 478.5 334.114 478.5C376.814 478.5 409.714 503.7 409.714 547.8C409.714 638.1 276.714 722.8 158.414 735.4C157.714 741.7 157.714 749.4 157.714 756.4C157.714 790 161.214 816.6 161.214 816.6L151.414 818C149.314 798.4 147.214 736.8 147.214 736.1C140.914 736.8 135.314 736.8 129.014 736.8ZM489.667 706C465.867 706 435.767 695.5 435.767 652.1C435.767 586.3 554.767 437.2 617.067 328H656.267C578.567 444.9 467.267 603.8 467.267 665.4C467.267 680.1 475.667 694.1 490.367 694.1C581.367 694.1 773.167 435.8 773.167 329.4C773.167 311.2 761.967 305.6 750.767 305.6H750.067C754.267 295.8 764.767 290.2 775.967 290.2C798.367 290.2 808.167 303.5 808.167 324.5C808.167 424.6 596.767 706 489.667 706ZM1025.37 328C968.675 328 873.475 433 819.575 530.3C960.275 515.6 1058.27 407.8 1058.27 355.3C1058.27 338.5 1047.77 328 1025.37 328ZM1096.07 484.8L1105.87 488.3C1063.87 547.8 924.575 706 829.375 706C771.975 706 748.875 674.5 748.875 629.7C748.875 516.3 897.975 315.4 1017.67 315.4C1053.37 315.4 1070.17 330.8 1070.17 354.6C1070.17 416.2 962.375 527.5 812.575 543.6C792.275 582.8 778.975 620.6 778.975 647.9C778.975 676.6 792.975 695.5 825.875 695.5C927.375 695.5 1059.67 532.4 1096.07 484.8ZM1239.47 695.5C1270.27 695.5 1331.87 655.6 1456.47 484.8L1466.27 488.3C1340.97 664 1273.07 706 1235.27 706C1207.97 706 1191.17 682.2 1191.17 657C1191.17 565.3 1372.47 404.3 1372.47 345.5C1372.47 334.3 1365.47 326.6 1347.27 326.6C1291.97 326.6 1180.67 421.1 1120.47 510.7L1000.77 706H960.871C1190.47 330.1 1190.47 330.1 1190.47 329.4L1233.17 330.1C1214.27 358.8 1217.77 352.5 1168.07 433C1252.07 344.1 1320.67 311.9 1362.67 311.9C1381.57 311.9 1402.57 322.4 1402.57 350.4C1402.57 431.6 1215.67 618.5 1215.67 677.3C1215.67 689.2 1222.67 695.5 1239.47 695.5ZM1438.72 706C1412.12 706 1389.02 685 1389.02 644.4C1389.02 573.7 1462.52 474.3 1552.82 342C1552.82 341.3 1552.82 341.3 1553.52 340.6H1471.62V330.8H1559.82C1608.12 258.7 1645.22 206.2 1674.62 155.8H1716.62C1687.22 194.3 1648.02 252.4 1596.92 330.8H1691.42V340.6H1590.62C1563.32 381.9 1533.22 429.5 1499.62 482C1455.52 554.1 1419.12 624.8 1419.12 663.3C1419.12 682.2 1427.52 692.7 1448.52 692.7C1500.32 692.7 1596.92 570.9 1662.02 484.8L1671.82 488.3C1533.92 672.4 1477.92 706 1438.72 706Z" fill="white" fill-opacity="0.02"/>
<path d="M1157.1 1038.9C1148.7 1041 1121.4 1085.1 1088.5 1176.1C1137.5 1108.2 1162 1061.3 1162 1045.2C1162 1041 1159.9 1037.5 1157.1 1038.9ZM1771 791.1C1482.6 791.1 1259.3 1486.2 1074.5 1486.2C1036 1486.2 1020.6 1451.2 1020.6 1400.1C1020.6 1367.9 1026.9 1329.4 1036 1289.5C945.704 1395.9 824.604 1491.1 718.904 1491.1C697.204 1491.1 674.104 1485.5 660.804 1481.3C657.304 1480.6 655.204 1479.9 653.104 1479.2L659.404 1472.9C662.904 1468.7 970.204 1180.3 970.204 947.2C970.204 834.5 863.804 802.3 794.504 802.3C671.304 802.3 518.004 905.9 518.004 1055C518.004 1135.5 569.104 1177.5 630.704 1177.5C690.204 1177.5 758.804 1139 802.904 1057.8L812.004 1059.9C796.604 1088.6 738.504 1188 624.404 1188C556.504 1188 499.104 1144.6 499.104 1053.6C499.104 903.8 662.204 793.9 791.004 793.9C912.104 793.9 1000.3 865.3 1000.3 982.9C1000.3 1181.7 730.804 1431.6 672.004 1475C680.404 1477.1 692.304 1479.9 705.604 1479.9C772.104 1479.9 911.404 1400.1 1056.3 1218.1C1066.1 1187.3 1122.8 1026.3 1162 1026.3C1171.8 1026.3 1178.1 1035.4 1178.1 1046.6C1178.1 1084.4 1131.9 1169.1 1061.2 1258.7C1045.8 1313.3 1034.6 1367.9 1034.6 1409.2C1034.6 1449.8 1045.8 1476.4 1074.5 1476.4C1221.5 1476.4 1415.4 782 1771 782C1862.7 782 1923.6 862.5 1923.6 862.5L1916.6 868.1C1916.6 868.1 1859.2 791.1 1771 791.1ZM1654.37 1055C1597.67 1055 1502.47 1160 1448.57 1257.3C1589.27 1242.6 1687.27 1134.8 1687.27 1082.3C1687.27 1065.5 1676.77 1055 1654.37 1055ZM1725.07 1211.8L1734.87 1215.3C1692.87 1274.8 1553.57 1433 1458.37 1433C1400.97 1433 1377.87 1401.5 1377.87 1356.7C1377.87 1243.3 1526.97 1042.4 1646.67 1042.4C1682.37 1042.4 1699.17 1057.8 1699.17 1081.6C1699.17 1143.2 1591.37 1254.5 1441.57 1270.6C1421.27 1309.8 1407.97 1347.6 1407.97 1374.9C1407.97 1403.6 1421.97 1422.5 1454.87 1422.5C1556.37 1422.5 1688.67 1259.4 1725.07 1211.8ZM1951.76 1054.3C1886.66 1054.3 1709.56 1227.9 1709.56 1380.5C1709.56 1403.6 1721.46 1423.2 1738.96 1423.2C1778.16 1423.2 1832.76 1352.5 1874.76 1288.1C1895.06 1253.1 1920.96 1213.9 1947.56 1173.3C1972.76 1131.3 1982.56 1104 1982.56 1085.8C1982.56 1062 1964.36 1054.3 1951.76 1054.3ZM1738.96 1433C1703.96 1433 1680.86 1398.7 1680.86 1349C1680.86 1219.5 1835.56 1041.7 1944.06 1041.7C1952.46 1041.7 1992.36 1046.6 1992.36 1087.9C1992.36 1093.5 1991.66 1099.8 1989.56 1107.5C2143.56 863.9 2226.86 800.2 2315.06 772.2L2318.56 781.3C2232.46 811.4 2179.96 873 2014.06 1125.7C1902.06 1297.2 1867.06 1365.1 1867.06 1395.9C1867.06 1408.5 1870.56 1419.7 1883.16 1419.7C1921.66 1419.7 2018.26 1299.3 2084.06 1211.8L2093.86 1215.3C1956.66 1397.3 1910.46 1433 1875.46 1433C1865.66 1433 1834.16 1426.7 1834.16 1391C1834.16 1379.8 1837.66 1365.8 1843.26 1350.4C1809.66 1395.9 1772.56 1433 1738.96 1433ZM2310.65 1054.3C2245.55 1054.3 2068.45 1227.9 2068.45 1380.5C2068.45 1403.6 2080.35 1423.2 2097.85 1423.2C2137.05 1423.2 2191.65 1352.5 2233.65 1288.1C2253.95 1253.1 2279.85 1213.9 2306.45 1173.3C2331.65 1131.3 2341.45 1104 2341.45 1085.8C2341.45 1062 2323.25 1054.3 2310.65 1054.3ZM2097.85 1433C2062.85 1433 2039.75 1398.7 2039.75 1349C2039.75 1219.5 2194.45 1041.7 2302.95 1041.7C2311.35 1041.7 2351.25 1046.6 2351.25 1087.9C2351.25 1093.5 2350.55 1099.8 2348.45 1107.5C2502.45 863.9 2585.75 800.2 2673.95 772.2L2677.45 781.3C2591.35 811.4 2538.85 873 2372.95 1125.7C2260.95 1297.2 2225.95 1365.1 2225.95 1395.9C2225.95 1408.5 2229.45 1419.7 2242.05 1419.7C2280.55 1419.7 2377.15 1299.3 2442.95 1211.8L2452.75 1215.3C2315.55 1397.3 2269.35 1433 2234.35 1433C2224.55 1433 2193.05 1426.7 2193.05 1391C2193.05 1379.8 2196.55 1365.8 2202.15 1350.4C2168.55 1395.9 2131.45 1433 2097.85 1433ZM2633.84 1211.8L2643.64 1215.3C2526.04 1371.4 2458.14 1433 2414.74 1433C2406.34 1433 2399.34 1431.6 2393.04 1427.4C2327.24 1387.5 2414.04 1257.3 2467.94 1171.9C2513.44 1099.8 2521.14 1086.5 2537.24 1057.8H2582.04C2535.84 1127.1 2333.54 1422.5 2421.04 1422.5C2465.84 1422.5 2568.74 1297.9 2633.84 1211.8ZM2613.54 960.5C2600.24 960.5 2595.34 947.9 2603.04 931.8C2610.74 916.4 2628.24 903.8 2641.54 903.8C2654.84 903.8 2659.74 916.4 2652.04 931.8C2644.34 947.9 2627.54 960.5 2613.54 960.5ZM2777.64 1422.5C2808.44 1422.5 2870.04 1382.6 2994.64 1211.8L3004.44 1215.3C2879.14 1391 2811.24 1433 2773.44 1433C2746.14 1433 2729.34 1409.2 2729.34 1384C2729.34 1292.3 2910.64 1131.3 2910.64 1072.5C2910.64 1061.3 2903.64 1053.6 2885.44 1053.6C2830.14 1053.6 2718.84 1148.1 2658.64 1237.7L2538.94 1433H2499.04C2728.64 1057.1 2728.64 1057.1 2728.64 1056.4L2771.34 1057.1C2752.44 1085.8 2755.94 1079.5 2706.24 1160C2790.24 1071.1 2858.84 1038.9 2900.84 1038.9C2919.74 1038.9 2940.74 1049.4 2940.74 1077.4C2940.74 1158.6 2753.84 1345.5 2753.84 1404.3C2753.84 1416.2 2760.84 1422.5 2777.64 1422.5ZM3009.8 1421.8C3072.1 1421.8 3158.2 1272 3235.2 1147.4C3248.5 1121.5 3254.1 1101.9 3254.1 1087.9C3254.1 1053.6 3223.3 1052.2 3221.9 1052.2C3157.5 1052.2 2979.7 1226.5 2979.7 1379.1C2979.7 1391.7 2985.3 1421.8 3009.8 1421.8ZM3287.7 1057.1H3329C3085.4 1458.2 2957.3 1692 2818 1692C2787.9 1692 2764.8 1678.7 2748.7 1661.9L2754.3 1656.3C2768.3 1670.3 2785.8 1680.1 2806.8 1680.1C2865.6 1680.1 2951 1605.9 3094.5 1376.3L3098 1370.7C3069.3 1405.7 3038.5 1431.6 3009.1 1431.6C2974.1 1431.6 2951 1397.3 2951 1347.6C2951 1218.1 3106.4 1041.7 3214.2 1041.7C3222.6 1041.7 3264.6 1045.9 3264.6 1087.9C3264.6 1092.1 3263.9 1097 3262.5 1102.6C3268.1 1094.2 3271.6 1087.9 3272.3 1086.5C3280 1074.6 3287.7 1057.1 3287.7 1057.1Z" fill="white" fill-opacity="0.02"/>
<path d="M767 945L771.292 970.492C771.441 971.382 772.169 972.062 773.067 972.151L817 976.5L773.067 980.849C772.169 980.938 771.441 981.618 771.292 982.508L767 1008L762.708 982.508C762.559 981.618 761.831 980.938 760.933 980.849L717 976.5L760.933 972.151C761.831 972.062 762.559 971.382 762.708 970.492L767 945Z" fill="white" fill-opacity="0.02"/>
<path d="M1319.86 44L1330.32 106.777C1330.47 107.667 1331.2 108.348 1332.09 108.438L1437.71 119L1332.09 129.562C1331.2 129.652 1330.47 130.333 1330.32 131.223L1319.86 194L1309.39 131.223C1309.25 130.333 1308.52 129.652 1307.62 129.562L1202 119L1307.62 108.438C1308.52 108.348 1309.25 107.667 1309.39 106.777L1319.86 44Z" fill="white" fill-opacity="0.02"/>
<path d="M1740.57 656L1747.46 697.348C1747.61 698.239 1748.34 698.92 1749.24 699.009L1819.14 706L1749.24 712.991C1748.34 713.08 1747.61 713.761 1747.46 714.652L1740.57 756L1733.68 714.652C1733.53 713.761 1732.8 713.08 1731.91 712.991L1662 706L1731.91 699.009C1732.8 698.92 1733.53 698.239 1733.68 697.348L1740.57 656Z" fill="white" fill-opacity="0.02"/>
<path d="M545.643 1555L550.177 1582.21C550.326 1583.1 551.052 1583.78 551.951 1583.87L598.286 1588.5L551.951 1593.13C551.052 1593.22 550.326 1593.9 550.177 1594.79L545.643 1622L541.109 1594.79C540.96 1593.9 540.233 1593.22 539.335 1593.13L493 1588.5L539.335 1583.87C540.233 1583.78 540.96 1583.1 541.109 1582.21L545.643 1555Z" fill="white" fill-opacity="0.02"/>
<path d="M171.786 1102L192.606 1226.92C192.754 1227.81 193.481 1228.49 194.379 1228.58L403.571 1249.5L194.379 1270.42C193.481 1270.51 192.754 1271.19 192.606 1272.08L171.786 1397L150.966 1272.08C150.817 1271.19 150.09 1270.51 149.192 1270.42L-60 1249.5L149.192 1228.58C150.09 1228.49 150.817 1227.81 150.966 1226.92L171.786 1102Z" fill="white" fill-opacity="0.02"/>
</g>
<defs>
<clipPath id="clip0_117_389">
<rect width="1876" height="1861" fill="white"/>
</clipPath>
</defs>
</svg>
