<svg width="1200" height="220" viewBox="0 0 1200 220" fill="none" xmlns="http://www.w3.org/2000/svg">
<g filter="url(#filter0_d_140_254)">
<path d="M292.552 173.6C293.352 163.8 294.752 141.2 294.752 101.8C294.752 66.8 293.152 41.6 292.152 30.2C291.752 26.6 285.352 23.6 285.352 23.6H360.952C381.552 23.6 396.352 21 396.352 21C396.352 21 393.952 30.8 392.752 38.8C391.552 49 391.352 66.6 391.352 66.6C391.352 66.6 383.152 30.2 359.552 30.2H316.152C315.152 41.4 313.752 65.8 313.552 98.8L343.752 98.6C360.752 98.2 364.552 87.8 364.552 87.8V116.6C364.552 116.6 360.152 106.2 343.952 105.6H313.552C313.752 142.6 315.352 165 316.152 174.6H359.752C383.152 174.4 391.352 137.6 391.352 137.6C391.352 137.6 391.552 155.4 392.752 165.4C393.952 173.4 396.352 183.4 396.352 183.4C396.352 183.4 381.552 180.8 360.952 180.8H285.352C285.352 180.8 291.752 177.2 292.552 173.6ZM517.258 169.6C519.658 177.6 526.458 181 526.458 181H484.258C484.258 181 494.058 176 494.058 169.6C494.058 156.2 488.058 132.6 481.058 102C473.458 68.8 467.058 46.4 463.458 34.4L425.458 169.4C425.258 170 425.258 170.8 425.258 171.4C425.258 178 434.858 181 434.858 181H402.258C402.258 181 413.658 174.8 415.858 168.4C420.458 155.6 428.658 132.4 437.658 101.4C448.058 65.4 455.658 41 455.658 31.8C455.658 26.8 447.858 23.6 447.858 23.6H494.458C494.458 23.6 486.258 25.6 486.258 32.6C486.258 33 486.458 33.4 486.458 34C488.258 45.8 492.058 68 499.858 102C506.858 133.2 513.458 156.8 517.258 169.6ZM541.692 173.6C542.492 163.8 543.892 141.2 543.892 101.8C543.892 66.8 542.292 41.6 541.292 30.2C540.892 26.6 534.492 23.6 534.492 23.6H610.092C630.692 23.6 645.492 21 645.492 21C645.492 21 643.092 30.8 641.892 38.8C640.692 49 640.492 66.6 640.492 66.6C640.492 66.6 632.292 30.2 608.692 30.2H565.292C564.292 41.4 562.892 65.8 562.692 98.8L592.892 98.6C609.892 98.2 613.692 87.8 613.692 87.8V116.6C613.692 116.6 609.292 106.2 593.092 105.6H562.692C562.892 142.6 564.492 165 565.292 174.6H608.892C632.292 174.4 640.492 137.6 640.492 137.6C640.492 137.6 640.692 155.4 641.892 165.4C643.092 173.4 645.492 183.4 645.492 183.4C645.492 183.4 630.692 180.8 610.092 180.8H534.492C534.492 180.8 540.892 177.2 541.692 173.6ZM662.998 169.6C663.998 157.6 665.198 135.6 665.198 102.2C665.198 70.8 663.998 47 662.998 34.4C662.398 26 653.598 23.6 653.598 23.6H695.598C693.798 24.2 686.998 27.6 686.198 34.4C684.598 48.2 683.998 69.4 683.998 98.8C685.198 98.8 704.998 99.4 720.198 99.4C735.198 99.4 755.998 98.8 756.598 98.8C756.598 69 754.998 46.6 754.198 34.4C753.598 26 744.998 23.6 744.998 23.6L786.998 23.4C785.798 24.4 778.198 29.8 777.598 34.4C776.198 45 775.198 63.2 775.198 87C775.198 91.8 775.398 97 775.398 102.2C775.998 135.4 775.798 155 777.798 169.8C778.598 176.4 786.998 181 786.998 181H744.998C744.998 181 753.798 178 754.398 169.6C755.198 158 756.598 137.2 756.598 105.6C756.398 105.6 733.998 105 719.998 105C705.398 105 685.198 105.6 683.998 105.6C683.998 136.8 686.398 169.4 686.398 169.4C686.998 176 695.798 181 695.798 181H653.398C653.398 181 662.398 178 662.998 169.6ZM835.561 98.8H870.761C863.361 66.8 857.161 45.2 853.761 33.8L835.561 98.8ZM792.961 180.8C792.961 180.8 803.361 175.8 806.161 168.4C820.361 130.2 833.561 83.4 845.761 30.4C845.761 30.4 845.761 30.2 845.761 30C845.761 27 838.561 23.6 838.561 23.6H884.961C884.961 23.6 876.961 25.8 876.961 32.8C876.961 33.2 877.161 33.6 877.161 34.2C878.961 46 882.561 68.2 890.361 102.2C897.361 133.4 904.161 157 907.961 169.8C910.361 177.8 916.961 180.8 916.961 180.8H874.761C874.761 180.8 884.561 176.2 884.561 169.8C884.561 157 878.761 134.4 872.361 105.4H833.561L815.761 169.2C815.561 169.8 815.561 170.6 815.561 171.2C815.561 177.8 825.361 180.8 825.361 180.8H792.961Z" fill="#DD7CDD"/>
</g>
<defs>
<filter id="filter0_d_140_254" x="273.352" y="9" width="663.609" height="194.4" filterUnits="userSpaceOnUse" color-interpolation-filters="sRGB">
<feFlood flood-opacity="0" result="BackgroundImageFix"/>
<feColorMatrix in="SourceAlpha" type="matrix" values="0 0 0 0 0 0 0 0 0 0 0 0 0 0 0 0 0 0 127 0" result="hardAlpha"/>
<feOffset dx="4" dy="4"/>
<feGaussianBlur stdDeviation="8"/>
<feComposite in2="hardAlpha" operator="out"/>
<feColorMatrix type="matrix" values="0 0 0 0 0.00013146 0 0 0 0 0.00013146 0 0 0 0 0.00013146 0 0 0 0.6 0"/>
<feBlend mode="normal" in2="BackgroundImageFix" result="effect1_dropShadow_140_254"/>
<feBlend mode="normal" in="SourceGraphic" in2="effect1_dropShadow_140_254" result="shape"/>
</filter>
</defs>
</svg>
