<svg width="748" height="294" viewBox="0 0 748 294" fill="none" xmlns="http://www.w3.org/2000/svg">
<g filter="url(#filter0_d_272_253)">
<path d="M149.531 127.609C150.114 120.469 151.134 104.003 151.134 75.2971C151.134 49.7971 149.969 31.4371 149.24 23.1314C148.949 20.5086 144.286 18.3228 144.286 18.3228H199.366C214.374 18.3228 225.157 16.4286 225.157 16.4286C225.157 16.4286 223.409 23.5686 222.534 29.3971C221.66 36.8286 221.514 49.6514 221.514 49.6514C221.514 49.6514 215.54 23.1314 198.346 23.1314H166.726C165.997 31.2914 164.977 49.0686 164.831 73.1114L186.834 72.9657C199.22 72.6743 201.989 65.0971 201.989 65.0971V86.08C201.989 86.08 198.783 78.5029 186.98 78.0657H164.831C164.977 105.023 166.143 121.343 166.726 128.337H198.491C215.54 128.191 221.514 101.38 221.514 101.38C221.514 101.38 221.66 114.349 222.534 121.634C223.409 127.463 225.157 134.749 225.157 134.749C225.157 134.749 214.374 132.854 199.366 132.854H144.286C144.286 132.854 148.949 130.231 149.531 127.609ZM313.246 124.694C314.995 130.523 319.949 133 319.949 133H289.203C289.203 133 296.343 129.357 296.343 124.694C296.343 114.931 291.972 97.7371 286.872 75.4429C281.335 51.2543 276.672 34.9343 274.049 26.1914L246.363 124.549C246.217 124.986 246.217 125.569 246.217 126.006C246.217 130.814 253.212 133 253.212 133H229.46C229.46 133 237.766 128.483 239.369 123.82C242.72 114.494 248.695 97.5914 255.252 75.0057C262.829 48.7771 268.366 31 268.366 24.2971C268.366 20.6543 262.683 18.3228 262.683 18.3228H296.635C296.635 18.3228 290.66 19.78 290.66 24.88C290.66 25.1714 290.806 25.4628 290.806 25.9C292.117 34.4971 294.886 50.6714 300.569 75.4429C305.669 98.1743 310.477 115.369 313.246 124.694ZM331.048 127.609C331.631 120.469 332.651 104.003 332.651 75.2971C332.651 49.7971 331.485 31.4371 330.757 23.1314C330.465 20.5086 325.802 18.3228 325.802 18.3228H380.882C395.891 18.3228 406.674 16.4286 406.674 16.4286C406.674 16.4286 404.925 23.5686 404.051 29.3971C403.177 36.8286 403.031 49.6514 403.031 49.6514C403.031 49.6514 397.057 23.1314 379.862 23.1314H348.242C347.514 31.2914 346.494 49.0686 346.348 73.1114L368.351 72.9657C380.737 72.6743 383.505 65.0971 383.505 65.0971V86.08C383.505 86.08 380.3 78.5029 368.497 78.0657H346.348C346.494 105.023 347.66 121.343 348.242 128.337H380.008C397.057 128.191 403.031 101.38 403.031 101.38C403.031 101.38 403.177 114.349 404.051 121.634C404.925 127.463 406.674 134.749 406.674 134.749C406.674 134.749 395.891 132.854 380.882 132.854H325.802C325.802 132.854 330.465 130.231 331.048 127.609ZM419.428 124.694C420.157 115.951 421.031 99.9229 421.031 75.5886C421.031 52.7114 420.157 35.3714 419.428 26.1914C418.991 20.0714 412.58 18.3228 412.58 18.3228H443.18C441.868 18.76 436.914 21.2371 436.331 26.1914C435.166 36.2457 434.728 51.6914 434.728 73.1114C435.603 73.1114 450.028 73.5486 461.103 73.5486C472.031 73.5486 487.186 73.1114 487.623 73.1114C487.623 51.4 486.457 35.08 485.874 26.1914C485.437 20.0714 479.171 18.3228 479.171 18.3228L509.771 18.1771C508.897 18.9057 503.36 22.84 502.923 26.1914C501.903 33.9143 501.174 47.1743 501.174 64.5143C501.174 68.0114 501.32 71.8 501.32 75.5886C501.757 99.7771 501.611 114.057 503.068 124.84C503.651 129.649 509.771 133 509.771 133H479.171C479.171 133 485.583 130.814 486.02 124.694C486.603 116.243 487.623 101.089 487.623 78.0657C487.477 78.0657 471.157 77.6286 460.957 77.6286C450.32 77.6286 435.603 78.0657 434.728 78.0657C434.728 100.797 436.477 124.549 436.477 124.549C436.914 129.357 443.326 133 443.326 133H412.434C412.434 133 418.991 130.814 419.428 124.694ZM545.153 73.1114H570.798C565.407 49.7971 560.89 34.06 558.413 25.7543L545.153 73.1114ZM514.115 132.854C514.115 132.854 521.693 129.211 523.733 123.82C534.078 95.9886 543.695 61.8914 552.584 23.2771C552.584 23.2771 552.584 23.1314 552.584 22.9857C552.584 20.8 547.338 18.3228 547.338 18.3228H581.144C581.144 18.3228 575.315 19.9257 575.315 25.0257C575.315 25.3171 575.461 25.6086 575.461 26.0457C576.773 34.6428 579.395 50.8171 585.078 75.5886C590.178 98.32 595.133 115.514 597.901 124.84C599.65 130.669 604.458 132.854 604.458 132.854H573.713C573.713 132.854 580.853 129.503 580.853 124.84C580.853 115.514 576.627 99.0486 571.964 77.92H543.695L530.727 124.403C530.581 124.84 530.581 125.423 530.581 125.86C530.581 130.669 537.721 132.854 537.721 132.854H514.115Z" fill="white"/>
</g>
<g filter="url(#filter1_d_272_253)">
<path d="M60.7457 159.066C59.8714 166.351 59.7257 180.486 59.7257 196.077L98.1943 157.609C99.2143 156.297 99.6514 155.131 99.6514 154.257C99.6514 151.634 96.7372 150.323 96.7372 150.323H121.071C121.071 150.323 114.077 152.509 105.771 160.231L63.8057 202.343C63.8057 202.343 102.42 241.249 115.389 254.071C123.403 261.94 132.146 264.854 132.146 264.854H98.0486C98.0486 264.854 103.586 262.96 103.586 259.754C103.586 258.88 103.149 257.86 102.129 256.84L59.7257 214.437C59.8714 233.526 60.6 246.931 61.1829 255.091C61.62 260.046 68.4686 264.854 68.4686 264.854H37.4314C37.4314 264.854 43.9886 261.94 44.5714 255.966C45.3 247.077 46.0286 231.194 46.0286 207.443C46.0286 185.003 45.1543 168.1 44.4257 158.774C43.8429 152.946 37.2857 150.323 37.2857 150.323H67.8857C67.8857 150.323 61.3286 154.111 60.7457 159.066ZM144.999 256.403C145.728 247.66 146.456 231.631 146.456 207.297C146.456 184.42 145.582 167.226 144.854 158.046C144.416 151.926 138.151 150.323 138.151 150.323H168.459C168.459 150.323 162.194 153.237 161.902 158.046H161.756C161.028 167.371 160.154 184.711 160.154 207.297C160.154 227.989 160.882 242.706 161.465 252.031C167.439 241.977 176.036 226.24 185.799 206.131C202.556 171.451 210.716 152.217 210.716 150.469C210.716 150.469 210.716 150.469 210.716 150.323H235.051C235.051 150.323 229.222 153.529 228.348 158.337C227.474 163 226.745 179.466 226.745 198.409V207.297C227.036 231.486 228.202 256.403 228.202 256.403C228.639 261.211 235.051 264.854 235.051 264.854H204.596C204.596 264.854 211.008 262.523 211.445 256.403C212.174 247.66 213.048 231.631 213.048 207.297C213.048 187.917 212.319 172.617 211.736 162.709L162.485 264.854V265L138.005 264.854C138.005 264.854 144.562 262.523 144.999 256.403ZM255.722 187.917C255.139 192.726 254.702 197.389 254.702 202.051C254.702 206.86 255.139 211.523 256.159 216.477C258.053 225.366 262.716 235.274 266.359 240.957C274.227 253.051 287.779 260.483 302.496 260.483C305.556 260.483 308.762 260.191 311.967 259.463C325.227 256.549 335.719 247.951 341.402 236.731L338.196 255.674C337.467 255.383 336.01 255.82 334.845 256.694C328.579 261.066 321.293 264.271 313.279 266.02C308.907 266.894 304.536 267.477 300.31 267.477C272.333 267.477 247.125 247.951 240.859 219.537C239.985 215.166 239.402 210.794 239.402 206.569C239.402 178.591 258.927 153.383 287.342 147.117C291.713 146.097 296.23 145.66 300.602 145.66C308.616 145.66 316.485 147.263 323.625 150.323C324.207 150.614 326.976 150.031 327.413 148.866L332.659 169.557C324.499 159.211 311.822 152.8 298.27 152.8C295.21 152.8 292.15 153.091 289.09 153.82C271.75 157.609 257.907 171.306 255.722 187.917ZM419.353 256.694C421.102 262.523 426.056 265 426.056 265H395.31C395.31 265 402.45 261.357 402.45 256.694C402.45 246.931 398.079 229.737 392.979 207.443C387.442 183.254 382.779 166.934 380.156 158.191L352.47 256.549C352.325 256.986 352.325 257.569 352.325 258.006C352.325 262.814 359.319 265 359.319 265H335.567C335.567 265 343.873 260.483 345.476 255.82C348.827 246.494 354.802 229.591 361.359 207.006C368.936 180.777 374.473 163 374.473 156.297C374.473 152.654 368.79 150.323 368.79 150.323H402.742C402.742 150.323 396.767 151.78 396.767 156.88C396.767 157.171 396.913 157.463 396.913 157.9C398.225 166.497 400.993 182.671 406.676 207.443C411.776 230.174 416.585 247.369 419.353 256.694ZM436.236 188.063C435.507 191.851 435.07 196.223 435.07 200.886C435.07 206.131 435.653 211.523 436.673 216.623C438.567 225.511 443.376 235.42 446.873 240.957C454.158 252.323 468.584 260.483 483.738 260.483C486.653 260.483 489.567 260.191 492.481 259.609C510.404 255.674 523.518 240.374 525.996 224.054C526.578 220.849 526.87 216.331 526.87 211.669C526.87 207.006 526.433 201.906 525.558 197.534C523.518 187.917 519.584 178.154 514.193 171.16C506.033 160.669 492.627 153.237 478.347 153.237C475.433 153.237 472.518 153.529 469.604 154.111C452.264 157.9 439.296 172.763 436.236 188.063ZM421.373 219.683C420.498 215.749 420.207 211.669 420.207 207.88C420.207 178.009 443.376 152.654 467.71 147.409C472.081 146.389 476.307 145.951 480.678 145.951C508.656 145.951 534.01 165.331 540.13 193.746C541.15 198.117 541.587 202.489 541.587 206.714C541.587 234.691 522.207 259.9 493.793 266.02C488.693 267.186 483.738 267.623 478.784 267.623C451.681 267.623 427.784 251.157 421.373 219.683ZM551.396 155.277C550.959 152.946 546.005 150.323 546.005 150.323H556.642L585.056 150.031C601.231 150.031 614.345 163.291 614.345 179.466C614.345 190.103 608.662 199.429 600.065 204.529C615.511 205.986 627.605 218.954 627.605 234.691C627.605 251.449 614.054 264.854 597.296 264.854H546.151C546.151 264.854 550.959 262.231 551.251 259.754C551.979 252.031 552.999 235.274 552.999 207.734C552.999 180.34 552.708 162.709 551.396 155.277ZM615.511 234.691C615.511 221.723 605.311 209.92 592.342 209.337C588.408 209.191 583.016 209.046 577.625 209.046C573.836 209.046 570.048 209.191 566.696 209.191C566.696 234.837 567.716 251.011 568.445 258.88C576.168 259.463 585.348 260.191 591.759 260.191C604.728 260.191 615.511 247.66 615.511 234.691ZM580.539 154.986H577.479C574.565 154.986 571.505 155.131 568.591 155.277C568.008 163.146 566.842 180.486 566.696 204.091H579.811C592.342 204.091 602.688 191.997 602.688 179.466C602.688 166.934 592.925 155.569 580.539 154.986ZM652.825 205.111H678.471C673.079 181.797 668.562 166.06 666.085 157.754L652.825 205.111ZM621.788 264.854C621.788 264.854 629.365 261.211 631.405 255.82C641.751 227.989 651.368 193.891 660.256 155.277C660.256 155.277 660.256 155.131 660.256 154.986C660.256 152.8 655.011 150.323 655.011 150.323H688.816C688.816 150.323 682.988 151.926 682.988 157.026C682.988 157.317 683.134 157.609 683.134 158.046C684.445 166.643 687.068 182.817 692.751 207.589C697.851 230.32 702.805 247.514 705.574 256.84C707.322 262.669 712.131 264.854 712.131 264.854H681.385C681.385 264.854 688.525 261.503 688.525 256.84C688.525 247.514 684.299 231.049 679.636 209.92H651.368L638.399 256.403C638.254 256.84 638.254 257.423 638.254 257.86C638.254 262.669 645.394 264.854 645.394 264.854H621.788Z" fill="white"/>
</g>
<defs>
<filter id="filter0_d_272_253" x="134" y="6.14275" width="487.6" height="145.749" filterUnits="userSpaceOnUse" color-interpolation-filters="sRGB">
<feFlood flood-opacity="0" result="BackgroundImageFix"/>
<feColorMatrix in="SourceAlpha" type="matrix" values="0 0 0 0 0 0 0 0 0 0 0 0 0 0 0 0 0 0 127 0" result="hardAlpha"/>
<feOffset dx="3.42857" dy="3.42857"/>
<feGaussianBlur stdDeviation="6.85714"/>
<feComposite in2="hardAlpha" operator="out"/>
<feColorMatrix type="matrix" values="0 0 0 0 0.00013146 0 0 0 0 0.00013146 0 0 0 0 0.00013146 0 0 0 0.6 0"/>
<feBlend mode="normal" in2="BackgroundImageFix" result="effect1_dropShadow_272_253"/>
<feBlend mode="normal" in="SourceGraphic" in2="effect1_dropShadow_272_253" result="shape"/>
</filter>
<filter id="filter1_d_272_253" x="27.0004" y="135.374" width="702.273" height="149.391" filterUnits="userSpaceOnUse" color-interpolation-filters="sRGB">
<feFlood flood-opacity="0" result="BackgroundImageFix"/>
<feColorMatrix in="SourceAlpha" type="matrix" values="0 0 0 0 0 0 0 0 0 0 0 0 0 0 0 0 0 0 127 0" result="hardAlpha"/>
<feOffset dx="3.42857" dy="3.42857"/>
<feGaussianBlur stdDeviation="6.85714"/>
<feComposite in2="hardAlpha" operator="out"/>
<feColorMatrix type="matrix" values="0 0 0 0 0.00013146 0 0 0 0 0.00013146 0 0 0 0 0.00013146 0 0 0 0.6 0"/>
<feBlend mode="normal" in2="BackgroundImageFix" result="effect1_dropShadow_272_253"/>
<feBlend mode="normal" in="SourceGraphic" in2="effect1_dropShadow_272_253" result="shape"/>
</filter>
</defs>
</svg>
