<svg width="1243" height="285" viewBox="0 0 1243 285" fill="none" xmlns="http://www.w3.org/2000/svg">
<g clip-path="url(#clip0_583_341)">
<g opacity="0.1" filter="url(#filter0_d_583_341)">
<path d="M165.3 102.8C162 100.4 156.9 99.5 151.2 99.5C150.3 99.5 149.7 99.5 148.8 99.5C148.8 107 152.7 110.9 158.4 111.8C159.6 112.1 160.5 112.1 161.7 112.1C166.2 112.1 169.2 110.6 169.2 108.2C169.2 106.7 168 104.9 165.3 102.8ZM218.4 37.1C217.2 32.3 212.4 29.6 206.1 29.6C193.8 29.6 174.6 39.8 161.1 63.8C155.7 73.4 152.4 81.5 150.3 88.1C154.5 87.5 158.7 86.9 162.6 86C188.1 80 219 60.5 219 41.6C219 40.1 218.7 38.6 218.4 37.1ZM218.4 28.7C221.4 32.6 222.9 36.8 222.9 41.3C222.9 61.1 192.6 82.7 163.8 88.7C159 89.6 154.2 90.5 149.7 91.1C149.1 93.2 148.8 95.3 148.8 97.1C150.3 97.1 151.8 96.8 153 96.8C159.6 96.8 164.7 98 167.4 100.4C171 103.4 172.5 106.1 172.5 108.5C172.5 111.8 168.9 114.2 162 114.2C161.1 114.2 159.6 113.9 158.4 113.9C149.1 113 143.7 107.9 141.3 100.4C113.4 105.8 73.5 128.6 65.4 163.1C64.2 168.8 63.3 174.5 63.3 179.6C63.3 197.3 71.7 211.4 96.9 211.4C129.9 211.4 149.7 186.5 155.1 172.7C156.6 168.8 157.5 164 157.5 158.6C157.5 146.6 152.1 133.4 133.8 133.4C129 133.4 123.3 134.3 116.4 136.4C93.6 143.6 82.8 181.1 82.8 181.1C82.8 180.5 82.8 180.2 82.8 179.3C82.8 169.7 93 140 116.4 132.8C123.3 130.7 129.3 129.8 134.4 129.8C155.4 129.8 162.3 145.4 162.3 159.5C162.3 164.9 161.1 170 159.6 173.9C150.9 194.6 125.7 215.3 97.5 215.3C97.2 215.3 97.2 215.3 96.9 215.3C73.5 215 51.6 200 51.6 173.6C51.6 169.7 52.2 165.5 53.1 161C61.8 123.2 109.2 102.2 140.7 98C140.4 95.9 140.1 93.8 140.1 91.7C138 91.7 136.2 91.7 134.1 91.7C95.7 91.7 61.2 76.7 61.2 53.9C61.2 47.6 63.9 40.7 69.9 33.2C82.8 17.6 114.6 15.5 128.1 15.5C132 15.5 134.1 15.8 134.4 15.8C134.4 15.8 133.8 15.8 132.9 15.8C125.1 15.8 86.7 16.7 72 35.9C67.2 42.2 65.1 47.9 65.1 53C65.1 75.2 102 88.7 137.4 88.7C138.3 88.7 139.2 88.7 140.1 88.7C140.4 80.3 143.1 71.3 147.3 63.5C164.1 33.8 190.2 25.4 205.8 25.4C212.4 25.4 216.9 26.9 218.4 28.7ZM252.424 179C247.024 185.6 222.724 213.8 209.224 213.8C198.724 213.8 195.424 208.4 195.424 202.7C195.424 198.2 197.224 193.1 199.024 189.8C202.024 183.8 210.424 171.8 210.424 171.5C210.124 171.5 209.824 172.1 208.624 173.6C204.724 178.7 201.424 181.4 196.624 187.7C186.724 200.3 176.524 212 163.024 212C154.624 212 145.924 209 145.924 197.6C145.924 185 153.124 175.1 160.624 175.1C163.924 175.1 166.024 177.5 166.024 180.5C166.024 181.4 166.024 182.6 165.424 183.5C164.224 186.5 162.124 187.1 160.024 187.1C158.224 187.1 156.424 186.5 155.524 186.5C152.524 186.5 148.924 191.6 148.924 196.7C148.924 208.1 157.024 209 163.624 209C174.424 209 183.424 198.8 195.724 184.4C208.924 169.1 218.524 158.3 229.624 144.2H243.424L219.724 177.2C218.224 179.3 204.424 196.7 204.424 205.1C204.424 207.5 205.624 209 208.924 209C222.424 209 243.124 183.2 250.324 176C251.224 174.8 252.124 174.5 252.724 174.5C253.624 174.5 253.924 174.8 253.924 175.7C253.924 176.6 253.624 177.5 252.424 179ZM281.109 146.9C273.909 146.9 267.909 151.1 263.109 155.9C257.109 162.2 253.509 169.4 253.509 170.6C253.509 170.9 254.109 170.9 254.709 170.9C258.309 170.9 267.009 168.8 275.409 165.8C281.709 163.4 288.309 157.4 288.309 152.6C288.309 148.7 284.409 146.9 281.109 146.9ZM297.009 178.1C292.209 184.4 268.809 214.4 250.509 214.4C239.409 214.4 232.809 205.1 232.809 192.2C232.809 184.4 235.209 175.1 240.909 166.1C252.009 148.4 271.509 143.6 278.409 143.6C285.909 143.6 291.909 145.7 291.909 152.9C291.909 159.2 284.109 166.1 276.309 169.4C269.109 172.4 258.009 174.5 251.109 174.8C246.909 182.9 242.109 193.1 242.109 200.6C242.109 206 244.509 209.6 251.409 209.6C267.609 209.6 289.509 180.5 294.909 176C295.509 175.4 296.109 175.1 296.709 175.1C297.309 175.1 297.909 175.4 297.909 176.3C297.909 176.6 297.609 177.5 297.009 178.1ZM388.282 179C382.882 185.6 358.582 213.8 345.082 213.8C333.982 213.8 330.982 208.1 330.982 201.8C330.982 197.6 332.482 191.6 335.182 188L341.482 179H318.982L296.782 212H281.182L318.982 159.2C320.482 156.8 324.682 152 324.682 149.3C324.682 148.1 323.782 147.5 321.982 147.5C312.382 147.5 285.682 174.8 281.182 179C280.582 179.6 279.982 179.6 279.682 179.6C279.082 179.6 278.482 179 278.482 178.4C278.482 177.8 278.782 176.9 279.382 176.3C281.782 173 310.582 143 324.982 143C330.982 143 332.782 146.6 332.782 151.1C332.782 155.3 331.282 159.8 329.482 163.1C326.782 167.9 325.582 169.4 321.682 175.4H343.882L365.482 144.2H379.582L355.582 177.2C351.982 182 340.282 196.7 340.282 205.1C340.282 207.5 341.482 209 344.782 209C358.282 209 378.982 183.2 386.182 176C387.082 174.8 387.982 174.5 388.582 174.5C389.482 174.5 389.782 174.8 389.782 175.7C389.782 176.6 389.482 177.5 388.282 179ZM435.816 156.2C435.816 155.9 435.816 155.9 435.816 155.6C435.816 153.2 434.616 148.1 430.716 146.3C429.516 145.7 428.316 145.7 426.816 145.7C418.416 145.7 404.316 154.1 390.216 171.5C381.816 181.7 374.616 195.5 374.616 203.3C374.616 207.5 376.416 210.2 381.216 210.2C389.616 210.2 403.716 198.8 416.316 185.3C424.716 176.3 434.616 160.7 435.816 156.2ZM466.716 178.4C461.916 183.2 437.616 214.7 419.616 214.7C413.916 214.7 409.416 209.9 409.416 203C409.416 200.3 410.016 197.3 412.116 194C412.116 194 394.716 213.8 380.316 213.8C371.616 213.8 367.116 205.7 367.116 195.5C367.116 186.8 370.116 176.3 376.716 167.6C391.716 147.2 412.716 142.7 423.216 142.7C424.116 142.7 425.016 142.7 425.916 142.7C436.416 143.6 438.216 152.3 438.216 152.3L444.216 144.2H457.716L423.216 194C421.416 196.4 418.116 200.9 418.116 204.5C418.116 206.6 419.616 208.4 424.116 208.4C428.616 208.4 433.716 204.5 437.316 201.8C447.816 193.4 460.716 179.3 464.016 175.7C465.216 174.2 466.416 173.6 467.316 173.6C468.216 173.6 468.516 174.2 468.516 175.1C468.516 175.7 467.916 176.9 466.716 178.4Z" fill="#D5D5D5"/>
</g>
<g opacity="0.1" filter="url(#filter1_d_583_341)">
<path d="M521.746 106.066C520.871 113.351 520.726 127.486 520.726 143.077L559.194 104.609C560.214 103.297 560.651 102.131 560.651 101.257C560.651 98.6343 557.737 97.3228 557.737 97.3228H582.071C582.071 97.3228 575.077 99.5086 566.771 107.231L524.806 149.343C524.806 149.343 563.42 188.249 576.389 201.071C584.403 208.94 593.146 211.854 593.146 211.854H559.049C559.049 211.854 564.586 209.96 564.586 206.754C564.586 205.88 564.149 204.86 563.129 203.84L520.726 161.437C520.871 180.526 521.6 193.931 522.183 202.091C522.62 207.046 529.469 211.854 529.469 211.854H498.431C498.431 211.854 504.989 208.94 505.571 202.966C506.3 194.077 507.029 178.194 507.029 154.443C507.029 132.003 506.154 115.1 505.426 105.774C504.843 99.9457 498.286 97.3228 498.286 97.3228H528.886C528.886 97.3228 522.329 101.111 521.746 106.066ZM605.999 203.403C606.728 194.66 607.456 178.631 607.456 154.297C607.456 131.42 606.582 114.226 605.854 105.046C605.416 98.9257 599.151 97.3228 599.151 97.3228H629.459C629.459 97.3228 623.194 100.237 622.902 105.046H622.756C622.028 114.371 621.154 131.711 621.154 154.297C621.154 174.989 621.882 189.706 622.465 199.031C628.439 188.977 637.036 173.24 646.799 153.131C663.556 118.451 671.716 99.2171 671.716 97.4686C671.716 97.4686 671.716 97.4686 671.716 97.3228H696.051C696.051 97.3228 690.222 100.529 689.348 105.337C688.474 110 687.745 126.466 687.745 145.409V154.297C688.036 178.486 689.202 203.403 689.202 203.403C689.639 208.211 696.051 211.854 696.051 211.854H665.596C665.596 211.854 672.008 209.523 672.445 203.403C673.174 194.66 674.048 178.631 674.048 154.297C674.048 134.917 673.319 119.617 672.736 109.709L623.485 211.854V212L599.005 211.854C599.005 211.854 605.562 209.523 605.999 203.403ZM716.722 134.917C716.139 139.726 715.702 144.389 715.702 149.051C715.702 153.86 716.139 158.523 717.159 163.477C719.053 172.366 723.716 182.274 727.359 187.957C735.227 200.051 748.779 207.483 763.496 207.483C766.556 207.483 769.762 207.191 772.967 206.463C786.227 203.549 796.719 194.951 802.402 183.731L799.196 202.674C798.467 202.383 797.01 202.82 795.845 203.694C789.579 208.066 782.293 211.271 774.279 213.02C769.907 213.894 765.536 214.477 761.31 214.477C733.333 214.477 708.125 194.951 701.859 166.537C700.985 162.166 700.402 157.794 700.402 153.569C700.402 125.591 719.927 100.383 748.342 94.1171C752.713 93.0971 757.23 92.66 761.602 92.66C769.616 92.66 777.485 94.2628 784.625 97.3228C785.207 97.6143 787.976 97.0314 788.413 95.8657L793.659 116.557C785.499 106.211 772.822 99.8 759.27 99.8C756.21 99.8 753.15 100.091 750.09 100.82C732.75 104.609 718.907 118.306 716.722 134.917ZM880.353 203.694C882.102 209.523 887.056 212 887.056 212H856.31C856.31 212 863.45 208.357 863.45 203.694C863.45 193.931 859.079 176.737 853.979 154.443C848.442 130.254 843.779 113.934 841.156 105.191L813.47 203.549C813.325 203.986 813.325 204.569 813.325 205.006C813.325 209.814 820.319 212 820.319 212H796.567C796.567 212 804.873 207.483 806.476 202.82C809.827 193.494 815.802 176.591 822.359 154.006C829.936 127.777 835.473 110 835.473 103.297C835.473 99.6543 829.79 97.3228 829.79 97.3228H863.742C863.742 97.3228 857.767 98.78 857.767 103.88C857.767 104.171 857.913 104.463 857.913 104.9C859.225 113.497 861.993 129.671 867.676 154.443C872.776 177.174 877.585 194.369 880.353 203.694ZM897.236 135.063C896.507 138.851 896.07 143.223 896.07 147.886C896.07 153.131 896.653 158.523 897.673 163.623C899.567 172.511 904.376 182.42 907.873 187.957C915.158 199.323 929.584 207.483 944.738 207.483C947.653 207.483 950.567 207.191 953.481 206.609C971.404 202.674 984.518 187.374 986.996 171.054C987.578 167.849 987.87 163.331 987.87 158.669C987.87 154.006 987.433 148.906 986.558 144.534C984.518 134.917 980.584 125.154 975.193 118.16C967.033 107.669 953.627 100.237 939.347 100.237C936.433 100.237 933.518 100.529 930.604 101.111C913.264 104.9 900.296 119.763 897.236 135.063ZM882.373 166.683C881.498 162.749 881.207 158.669 881.207 154.88C881.207 125.009 904.376 99.6543 928.71 94.4086C933.081 93.3886 937.307 92.9514 941.678 92.9514C969.656 92.9514 995.01 112.331 1001.13 140.746C1002.15 145.117 1002.59 149.489 1002.59 153.714C1002.59 181.691 983.207 206.9 954.793 213.02C949.693 214.186 944.738 214.623 939.784 214.623C912.681 214.623 888.784 198.157 882.373 166.683ZM1012.4 102.277C1011.96 99.9457 1007.01 97.3228 1007.01 97.3228H1017.64L1046.06 97.0314C1062.23 97.0314 1075.35 110.291 1075.35 126.466C1075.35 137.103 1069.66 146.429 1061.07 151.529C1076.51 152.986 1088.61 165.954 1088.61 181.691C1088.61 198.449 1075.05 211.854 1058.3 211.854H1007.15C1007.15 211.854 1011.96 209.231 1012.25 206.754C1012.98 199.031 1014 182.274 1014 154.734C1014 127.34 1013.71 109.709 1012.4 102.277ZM1076.51 181.691C1076.51 168.723 1066.31 156.92 1053.34 156.337C1049.41 156.191 1044.02 156.046 1038.63 156.046C1034.84 156.046 1031.05 156.191 1027.7 156.191C1027.7 181.837 1028.72 198.011 1029.45 205.88C1037.17 206.463 1046.35 207.191 1052.76 207.191C1065.73 207.191 1076.51 194.66 1076.51 181.691ZM1041.54 101.986H1038.48C1035.57 101.986 1032.51 102.131 1029.59 102.277C1029.01 110.146 1027.84 127.486 1027.7 151.091H1040.81C1053.34 151.091 1063.69 138.997 1063.69 126.466C1063.69 113.934 1053.93 102.569 1041.54 101.986ZM1113.83 152.111H1139.47C1134.08 128.797 1129.56 113.06 1127.09 104.754L1113.83 152.111ZM1082.79 211.854C1082.79 211.854 1090.37 208.211 1092.41 202.82C1102.75 174.989 1112.37 140.891 1121.26 102.277C1121.26 102.277 1121.26 102.131 1121.26 101.986C1121.26 99.8 1116.01 97.3228 1116.01 97.3228H1149.82C1149.82 97.3228 1143.99 98.9257 1143.99 104.026C1143.99 104.317 1144.13 104.609 1144.13 105.046C1145.45 113.643 1148.07 129.817 1153.75 154.589C1158.85 177.32 1163.81 194.514 1166.57 203.84C1168.32 209.669 1173.13 211.854 1173.13 211.854H1142.39C1142.39 211.854 1149.53 208.503 1149.53 203.84C1149.53 194.514 1145.3 178.049 1140.64 156.92H1112.37L1099.4 203.403C1099.25 203.84 1099.25 204.423 1099.25 204.86C1099.25 209.669 1106.39 211.854 1106.39 211.854H1082.79Z" fill="#D5D5D5"/>
</g>
</g>
<defs>
<filter id="filter0_d_583_341" x="41.3139" y="5.21429" width="444.345" height="227.229" filterUnits="userSpaceOnUse" color-interpolation-filters="sRGB">
<feFlood flood-opacity="0" result="BackgroundImageFix"/>
<feColorMatrix in="SourceAlpha" type="matrix" values="0 0 0 0 0 0 0 0 0 0 0 0 0 0 0 0 0 0 127 0" result="hardAlpha"/>
<feOffset dx="3.42857" dy="3.42857"/>
<feGaussianBlur stdDeviation="6.85714"/>
<feComposite in2="hardAlpha" operator="out"/>
<feColorMatrix type="matrix" values="0 0 0 0 0.00013146 0 0 0 0 0.00013146 0 0 0 0 0.00013146 0 0 0 0.6 0"/>
<feBlend mode="normal" in2="BackgroundImageFix" result="effect1_dropShadow_583_341"/>
<feBlend mode="normal" in="SourceGraphic" in2="effect1_dropShadow_583_341" result="shape"/>
</filter>
<filter id="filter1_d_583_341" x="488" y="82.3743" width="702.273" height="149.391" filterUnits="userSpaceOnUse" color-interpolation-filters="sRGB">
<feFlood flood-opacity="0" result="BackgroundImageFix"/>
<feColorMatrix in="SourceAlpha" type="matrix" values="0 0 0 0 0 0 0 0 0 0 0 0 0 0 0 0 0 0 127 0" result="hardAlpha"/>
<feOffset dx="3.42857" dy="3.42857"/>
<feGaussianBlur stdDeviation="6.85714"/>
<feComposite in2="hardAlpha" operator="out"/>
<feColorMatrix type="matrix" values="0 0 0 0 0.00013146 0 0 0 0 0.00013146 0 0 0 0 0.00013146 0 0 0 0.6 0"/>
<feBlend mode="normal" in2="BackgroundImageFix" result="effect1_dropShadow_583_341"/>
<feBlend mode="normal" in="SourceGraphic" in2="effect1_dropShadow_583_341" result="shape"/>
</filter>
<clipPath id="clip0_583_341">
<rect width="1243" height="285" fill="white"/>
</clipPath>
</defs>
</svg>
