<svg width="1078" height="836" viewBox="0 0 1078 836" fill="none" xmlns="http://www.w3.org/2000/svg">
<g filter="url(#filter0_f_117_375)">
<ellipse cx="538.866" cy="381.873" rx="417.189" ry="237" transform="rotate(14.3283 538.866 381.873)" fill="#111111" fill-opacity="0.7"/>
</g>
<g filter="url(#filter1_d_117_375)">
<path d="M164.622 368.71C165.302 360.38 166.492 341.17 166.492 307.68C166.492 277.93 165.132 256.51 164.282 246.82C163.942 243.76 158.502 241.21 158.502 241.21H222.762C240.272 241.21 252.852 239 252.852 239C252.852 239 250.812 247.33 249.792 254.13C248.772 262.8 248.602 277.76 248.602 277.76C248.602 277.76 241.632 246.82 221.572 246.82H184.682C183.832 256.34 182.642 277.08 182.472 305.13L208.142 304.96C222.592 304.62 225.822 295.78 225.822 295.78V320.26C225.822 320.26 222.082 311.42 208.312 310.91H182.472C182.642 342.36 184.002 361.4 184.682 369.56H221.742C241.632 369.39 248.602 338.11 248.602 338.11C248.602 338.11 248.772 353.24 249.792 361.74C250.812 368.54 252.852 377.04 252.852 377.04C252.852 377.04 240.272 374.83 222.762 374.83H158.502C158.502 374.83 163.942 371.77 164.622 368.71ZM355.622 365.31C357.662 372.11 363.442 375 363.442 375H327.572C327.572 375 335.902 370.75 335.902 365.31C335.902 353.92 330.802 333.86 324.852 307.85C318.392 279.63 312.952 260.59 309.892 250.39L277.592 365.14C277.422 365.65 277.422 366.33 277.422 366.84C277.422 372.45 285.582 375 285.582 375H257.872C257.872 375 267.562 369.73 269.432 364.29C273.342 353.41 280.312 333.69 287.962 307.34C296.802 276.74 303.262 256 303.262 248.18C303.262 243.93 296.632 241.21 296.632 241.21H336.242C336.242 241.21 329.272 242.91 329.272 248.86C329.272 249.2 329.442 249.54 329.442 250.05C330.972 260.08 334.202 278.95 340.832 307.85C346.782 334.37 352.392 354.43 355.622 365.31ZM376.391 368.71C377.071 360.38 378.261 341.17 378.261 307.68C378.261 277.93 376.901 256.51 376.051 246.82C375.711 243.76 370.271 241.21 370.271 241.21H434.531C452.041 241.21 464.621 239 464.621 239C464.621 239 462.581 247.33 461.561 254.13C460.541 262.8 460.371 277.76 460.371 277.76C460.371 277.76 453.401 246.82 433.341 246.82H396.451C395.601 256.34 394.411 277.08 394.241 305.13L419.911 304.96C434.361 304.62 437.591 295.78 437.591 295.78V320.26C437.591 320.26 433.851 311.42 420.081 310.91H394.241C394.411 342.36 395.771 361.4 396.451 369.56H433.511C453.401 369.39 460.371 338.11 460.371 338.11C460.371 338.11 460.541 353.24 461.561 361.74C462.581 368.54 464.621 377.04 464.621 377.04C464.621 377.04 452.041 374.83 434.531 374.83H370.271C370.271 374.83 375.711 371.77 376.391 368.71ZM479.502 365.31C480.352 355.11 481.372 336.41 481.372 308.02C481.372 281.33 480.352 261.1 479.502 250.39C478.992 243.25 471.512 241.21 471.512 241.21H507.212C505.682 241.72 499.902 244.61 499.222 250.39C497.862 262.12 497.352 280.14 497.352 305.13C498.372 305.13 515.202 305.64 528.122 305.64C540.872 305.64 558.552 305.13 559.062 305.13C559.062 279.8 557.702 260.76 557.022 250.39C556.512 243.25 549.202 241.21 549.202 241.21L584.902 241.04C583.882 241.89 577.422 246.48 576.912 250.39C575.722 259.4 574.872 274.87 574.872 295.1C574.872 299.18 575.042 303.6 575.042 308.02C575.552 336.24 575.382 352.9 577.082 365.48C577.762 371.09 584.902 375 584.902 375H549.202C549.202 375 556.682 372.45 557.192 365.31C557.872 355.45 559.062 337.77 559.062 310.91C558.892 310.91 539.852 310.4 527.952 310.4C515.542 310.4 498.372 310.91 497.352 310.91C497.352 337.43 499.392 365.14 499.392 365.14C499.902 370.75 507.382 375 507.382 375H471.342C471.342 375 478.992 372.45 479.502 365.31ZM626.18 305.13H656.1C649.81 277.93 644.54 259.57 641.65 249.88L626.18 305.13ZM589.97 374.83C589.97 374.83 598.81 370.58 601.19 364.29C613.26 331.82 624.48 292.04 634.85 246.99C634.85 246.99 634.85 246.82 634.85 246.65C634.85 244.1 628.73 241.21 628.73 241.21H668.17C668.17 241.21 661.37 243.08 661.37 249.03C661.37 249.37 661.54 249.71 661.54 250.22C663.07 260.25 666.13 279.12 672.76 308.02C678.71 334.54 684.49 354.6 687.72 365.48C689.76 372.28 695.37 374.83 695.37 374.83H659.5C659.5 374.83 667.83 370.92 667.83 365.48C667.83 354.6 662.9 335.39 657.46 310.74H624.48L609.35 364.97C609.18 365.48 609.18 366.16 609.18 366.67C609.18 372.28 617.51 374.83 617.51 374.83H589.97Z" fill="#DD7CDD"/>
</g>
<g filter="url(#filter2_d_117_375)">
<path d="M185.872 420.41C184.852 428.91 184.682 445.4 184.682 463.59L229.562 418.71C230.752 417.18 231.262 415.82 231.262 414.8C231.262 411.74 227.862 410.21 227.862 410.21H256.252C256.252 410.21 248.092 412.76 238.402 421.77L189.442 470.9C189.442 470.9 234.492 516.29 249.622 531.25C258.972 540.43 269.172 543.83 269.172 543.83H229.392C229.392 543.83 235.852 541.62 235.852 537.88C235.852 536.86 235.342 535.67 234.152 534.48L184.682 485.01C184.852 507.28 185.702 522.92 186.382 532.44C186.892 538.22 194.882 543.83 194.882 543.83H158.672C158.672 543.83 166.322 540.43 167.002 533.46C167.852 523.09 168.702 504.56 168.702 476.85C168.702 450.67 167.682 430.95 166.832 420.07C166.152 413.27 158.502 410.21 158.502 410.21H194.202C194.202 410.21 186.552 414.63 185.872 420.41ZM284.168 533.97C285.018 523.77 285.868 505.07 285.868 476.68C285.868 449.99 284.848 429.93 283.998 419.22C283.488 412.08 276.178 410.21 276.178 410.21H311.538C311.538 410.21 304.228 413.61 303.888 419.22H303.718C302.868 430.1 301.848 450.33 301.848 476.68C301.848 500.82 302.698 517.99 303.378 528.87C310.348 517.14 320.378 498.78 331.768 475.32C351.318 434.86 360.838 412.42 360.838 410.38C360.838 410.38 360.838 410.38 360.838 410.21H389.228C389.228 410.21 382.428 413.95 381.408 419.56C380.388 425 379.538 444.21 379.538 466.31V476.68C379.878 504.9 381.238 533.97 381.238 533.97C381.748 539.58 389.228 543.83 389.228 543.83H353.698C353.698 543.83 361.178 541.11 361.688 533.97C362.538 523.77 363.558 505.07 363.558 476.68C363.558 454.07 362.708 436.22 362.028 424.66L304.568 543.83V544L276.008 543.83C276.008 543.83 283.658 541.11 284.168 533.97ZM413.344 454.07C412.664 459.68 412.154 465.12 412.154 470.56C412.154 476.17 412.664 481.61 413.854 487.39C416.064 497.76 421.504 509.32 425.754 515.95C434.934 530.06 450.744 538.73 467.914 538.73C471.484 538.73 475.224 538.39 478.964 537.54C494.434 534.14 506.674 524.11 513.304 511.02L509.564 533.12C508.714 532.78 507.014 533.29 505.654 534.31C498.344 539.41 489.844 543.15 480.494 545.19C475.394 546.21 470.294 546.89 465.364 546.89C432.724 546.89 403.314 524.11 396.004 490.96C394.984 485.86 394.304 480.76 394.304 475.83C394.304 443.19 417.084 413.78 450.234 406.47C455.334 405.28 460.604 404.77 465.704 404.77C475.054 404.77 484.234 406.64 492.564 410.21C493.244 410.55 496.474 409.87 496.984 408.51L503.104 432.65C493.584 420.58 478.794 413.1 462.984 413.1C459.414 413.1 455.844 413.44 452.274 414.29C432.044 418.71 415.894 434.69 413.344 454.07ZM604.247 534.31C606.287 541.11 612.067 544 612.067 544H576.197C576.197 544 584.527 539.75 584.527 534.31C584.527 522.92 579.427 502.86 573.477 476.85C567.017 448.63 561.577 429.59 558.517 419.39L526.217 534.14C526.047 534.65 526.047 535.33 526.047 535.84C526.047 541.45 534.207 544 534.207 544H506.497C506.497 544 516.187 538.73 518.057 533.29C521.967 522.41 528.937 502.69 536.587 476.34C545.427 445.74 551.887 425 551.887 417.18C551.887 412.93 545.257 410.21 545.257 410.21H584.867C584.867 410.21 577.897 411.91 577.897 417.86C577.897 418.2 578.067 418.54 578.067 419.05C579.597 429.08 582.827 447.95 589.457 476.85C595.407 503.37 601.017 523.43 604.247 534.31ZM623.943 454.24C623.093 458.66 622.583 463.76 622.583 469.2C622.583 475.32 623.263 481.61 624.453 487.56C626.663 497.93 632.273 509.49 636.353 515.95C644.853 529.21 661.683 538.73 679.363 538.73C682.763 538.73 686.163 538.39 689.563 537.71C710.473 533.12 725.773 515.27 728.663 496.23C729.343 492.49 729.683 487.22 729.683 481.78C729.683 476.34 729.173 470.39 728.153 465.29C725.773 454.07 721.183 442.68 714.893 434.52C705.373 422.28 689.733 413.61 673.073 413.61C669.673 413.61 666.273 413.95 662.873 414.63C642.643 419.05 627.513 436.39 623.943 454.24ZM606.603 491.13C605.583 486.54 605.243 481.78 605.243 477.36C605.243 442.51 632.273 412.93 660.663 406.81C665.763 405.62 670.693 405.11 675.793 405.11C708.433 405.11 738.013 427.72 745.153 460.87C746.343 465.97 746.853 471.07 746.853 476C746.853 508.64 724.243 538.05 691.093 545.19C685.143 546.55 679.363 547.06 673.583 547.06C641.963 547.06 614.083 527.85 606.603 491.13ZM758.298 415.99C757.788 413.27 752.008 410.21 752.008 410.21H764.418L797.568 409.87C816.438 409.87 831.738 425.34 831.738 444.21C831.738 456.62 825.108 467.5 815.078 473.45C833.098 475.15 847.208 490.28 847.208 508.64C847.208 528.19 831.398 543.83 811.848 543.83H752.178C752.178 543.83 757.788 540.77 758.128 537.88C758.978 528.87 760.168 509.32 760.168 477.19C760.168 445.23 759.828 424.66 758.298 415.99ZM833.098 508.64C833.098 493.51 821.198 479.74 806.068 479.06C801.478 478.89 795.188 478.72 788.898 478.72C784.478 478.72 780.058 478.89 776.148 478.89C776.148 508.81 777.338 527.68 778.188 536.86C787.198 537.54 797.908 538.39 805.388 538.39C820.518 538.39 833.098 523.77 833.098 508.64ZM792.298 415.65H788.728C785.328 415.65 781.758 415.82 778.358 415.99C777.678 425.17 776.318 445.4 776.148 472.94H791.448C806.068 472.94 818.138 458.83 818.138 444.21C818.138 429.59 806.748 416.33 792.298 415.65ZM876.631 474.13H906.551C900.261 446.93 894.991 428.57 892.101 418.88L876.631 474.13ZM840.421 543.83C840.421 543.83 849.261 539.58 851.641 533.29C863.711 500.82 874.931 461.04 885.301 415.99C885.301 415.99 885.301 415.82 885.301 415.65C885.301 413.1 879.181 410.21 879.181 410.21H918.621C918.621 410.21 911.821 412.08 911.821 418.03C911.821 418.37 911.991 418.71 911.991 419.22C913.521 429.25 916.581 448.12 923.211 477.02C929.161 503.54 934.941 523.6 938.171 534.48C940.211 541.28 945.821 543.83 945.821 543.83H909.951C909.951 543.83 918.281 539.92 918.281 534.48C918.281 523.6 913.351 504.39 907.911 479.74H874.931L859.801 533.97C859.631 534.48 859.631 535.16 859.631 535.67C859.631 541.28 867.961 543.83 867.961 543.83H840.421Z" fill="#DD7CDD"/>
</g>
<defs>
<filter id="filter0_f_117_375" x="0.367188" y="0.0397339" width="1077" height="763.666" filterUnits="userSpaceOnUse" color-interpolation-filters="sRGB">
<feFlood flood-opacity="0" result="BackgroundImageFix"/>
<feBlend mode="normal" in="SourceGraphic" in2="BackgroundImageFix" result="shape"/>
<feGaussianBlur stdDeviation="65" result="effect1_foregroundBlur_117_375"/>
</filter>
<filter id="filter1_d_117_375" x="146.502" y="227" width="568.868" height="170.04" filterUnits="userSpaceOnUse" color-interpolation-filters="sRGB">
<feFlood flood-opacity="0" result="BackgroundImageFix"/>
<feColorMatrix in="SourceAlpha" type="matrix" values="0 0 0 0 0 0 0 0 0 0 0 0 0 0 0 0 0 0 127 0" result="hardAlpha"/>
<feOffset dx="4" dy="4"/>
<feGaussianBlur stdDeviation="8"/>
<feComposite in2="hardAlpha" operator="out"/>
<feColorMatrix type="matrix" values="0 0 0 0 0.00013146 0 0 0 0 0.00013146 0 0 0 0 0.00013146 0 0 0 0.6 0"/>
<feBlend mode="normal" in2="BackgroundImageFix" result="effect1_dropShadow_117_375"/>
<feBlend mode="normal" in="SourceGraphic" in2="effect1_dropShadow_117_375" result="shape"/>
</filter>
<filter id="filter2_d_117_375" x="146.502" y="392.77" width="819.319" height="174.29" filterUnits="userSpaceOnUse" color-interpolation-filters="sRGB">
<feFlood flood-opacity="0" result="BackgroundImageFix"/>
<feColorMatrix in="SourceAlpha" type="matrix" values="0 0 0 0 0 0 0 0 0 0 0 0 0 0 0 0 0 0 127 0" result="hardAlpha"/>
<feOffset dx="4" dy="4"/>
<feGaussianBlur stdDeviation="8"/>
<feComposite in2="hardAlpha" operator="out"/>
<feColorMatrix type="matrix" values="0 0 0 0 0.00013146 0 0 0 0 0.00013146 0 0 0 0 0.00013146 0 0 0 0.6 0"/>
<feBlend mode="normal" in2="BackgroundImageFix" result="effect1_dropShadow_117_375"/>
<feBlend mode="normal" in="SourceGraphic" in2="effect1_dropShadow_117_375" result="shape"/>
</filter>
</defs>
</svg>
