<svg width="1078" height="764" viewBox="0 0 1078 764" fill="none" xmlns="http://www.w3.org/2000/svg">
<g filter="url(#filter0_f_552_311)">
<ellipse cx="538.864" cy="381.873" rx="417.189" ry="237" transform="rotate(14.3283 538.864 381.873)" fill="#111111" fill-opacity="0.64"/>
</g>
<g filter="url(#filter1_d_552_311)">
<path d="M164.62 368.71C165.3 360.38 166.49 341.17 166.49 307.68C166.49 277.93 165.13 256.51 164.28 246.82C163.94 243.76 158.5 241.21 158.5 241.21H222.76C240.27 241.21 252.85 239 252.85 239C252.85 239 250.81 247.33 249.79 254.13C248.77 262.8 248.6 277.76 248.6 277.76C248.6 277.76 241.63 246.82 221.57 246.82H184.68C183.83 256.34 182.64 277.08 182.47 305.13L208.14 304.96C222.59 304.62 225.82 295.78 225.82 295.78V320.26C225.82 320.26 222.08 311.42 208.31 310.91H182.47C182.64 342.36 184 361.4 184.68 369.56H221.74C241.63 369.39 248.6 338.11 248.6 338.11C248.6 338.11 248.77 353.24 249.79 361.74C250.81 368.54 252.85 377.04 252.85 377.04C252.85 377.04 240.27 374.83 222.76 374.83H158.5C158.5 374.83 163.94 371.77 164.62 368.71ZM355.62 365.31C357.66 372.11 363.44 375 363.44 375H327.57C327.57 375 335.9 370.75 335.9 365.31C335.9 353.92 330.8 333.86 324.85 307.85C318.39 279.63 312.95 260.59 309.89 250.39L277.59 365.14C277.42 365.65 277.42 366.33 277.42 366.84C277.42 372.45 285.58 375 285.58 375H257.87C257.87 375 267.56 369.73 269.43 364.29C273.34 353.41 280.31 333.69 287.96 307.34C296.8 276.74 303.26 256 303.26 248.18C303.26 243.93 296.63 241.21 296.63 241.21H336.24C336.24 241.21 329.27 242.91 329.27 248.86C329.27 249.2 329.44 249.54 329.44 250.05C330.97 260.08 334.2 278.95 340.83 307.85C346.78 334.37 352.39 354.43 355.62 365.31ZM376.39 368.71C377.07 360.38 378.26 341.17 378.26 307.68C378.26 277.93 376.9 256.51 376.05 246.82C375.71 243.76 370.27 241.21 370.27 241.21H434.53C452.04 241.21 464.62 239 464.62 239C464.62 239 462.58 247.33 461.56 254.13C460.54 262.8 460.37 277.76 460.37 277.76C460.37 277.76 453.4 246.82 433.34 246.82H396.45C395.6 256.34 394.41 277.08 394.24 305.13L419.91 304.96C434.36 304.62 437.59 295.78 437.59 295.78V320.26C437.59 320.26 433.85 311.42 420.08 310.91H394.24C394.41 342.36 395.77 361.4 396.45 369.56H433.51C453.4 369.39 460.37 338.11 460.37 338.11C460.37 338.11 460.54 353.24 461.56 361.74C462.58 368.54 464.62 377.04 464.62 377.04C464.62 377.04 452.04 374.83 434.53 374.83H370.27C370.27 374.83 375.71 371.77 376.39 368.71ZM479.5 365.31C480.35 355.11 481.37 336.41 481.37 308.02C481.37 281.33 480.35 261.1 479.5 250.39C478.99 243.25 471.51 241.21 471.51 241.21H507.21C505.68 241.72 499.9 244.61 499.22 250.39C497.86 262.12 497.35 280.14 497.35 305.13C498.37 305.13 515.2 305.64 528.12 305.64C540.87 305.64 558.55 305.13 559.06 305.13C559.06 279.8 557.7 260.76 557.02 250.39C556.51 243.25 549.2 241.21 549.2 241.21L584.9 241.04C583.88 241.89 577.42 246.48 576.91 250.39C575.72 259.4 574.87 274.87 574.87 295.1C574.87 299.18 575.04 303.6 575.04 308.02C575.55 336.24 575.38 352.9 577.08 365.48C577.76 371.09 584.9 375 584.9 375H549.2C549.2 375 556.68 372.45 557.19 365.31C557.87 355.45 559.06 337.77 559.06 310.91C558.89 310.91 539.85 310.4 527.95 310.4C515.54 310.4 498.37 310.91 497.35 310.91C497.35 337.43 499.39 365.14 499.39 365.14C499.9 370.75 507.38 375 507.38 375H471.34C471.34 375 478.99 372.45 479.5 365.31ZM626.178 305.13H656.098C649.808 277.93 644.538 259.57 641.648 249.88L626.178 305.13ZM589.968 374.83C589.968 374.83 598.808 370.58 601.188 364.29C613.258 331.82 624.478 292.04 634.848 246.99C634.848 246.99 634.848 246.82 634.848 246.65C634.848 244.1 628.728 241.21 628.728 241.21H668.168C668.168 241.21 661.368 243.08 661.368 249.03C661.368 249.37 661.538 249.71 661.538 250.22C663.068 260.25 666.128 279.12 672.758 308.02C678.708 334.54 684.488 354.6 687.718 365.48C689.758 372.28 695.368 374.83 695.368 374.83H659.498C659.498 374.83 667.828 370.92 667.828 365.48C667.828 354.6 662.898 335.39 657.458 310.74H624.478L609.348 364.97C609.178 365.48 609.178 366.16 609.178 366.67C609.178 372.28 617.508 374.83 617.508 374.83H589.968Z" fill="url(#paint0_linear_552_311)"/>
</g>
<g filter="url(#filter2_d_552_311)">
<path d="M185.87 420.41C184.85 428.91 184.68 445.4 184.68 463.59L229.56 418.71C230.75 417.18 231.26 415.82 231.26 414.8C231.26 411.74 227.86 410.21 227.86 410.21H256.25C256.25 410.21 248.09 412.76 238.4 421.77L189.44 470.9C189.44 470.9 234.49 516.29 249.62 531.25C258.97 540.43 269.17 543.83 269.17 543.83H229.39C229.39 543.83 235.85 541.62 235.85 537.88C235.85 536.86 235.34 535.67 234.15 534.48L184.68 485.01C184.85 507.28 185.7 522.92 186.38 532.44C186.89 538.22 194.88 543.83 194.88 543.83H158.67C158.67 543.83 166.32 540.43 167 533.46C167.85 523.09 168.7 504.56 168.7 476.85C168.7 450.67 167.68 430.95 166.83 420.07C166.15 413.27 158.5 410.21 158.5 410.21H194.2C194.2 410.21 186.55 414.63 185.87 420.41ZM284.166 533.97C285.016 523.77 285.866 505.07 285.866 476.68C285.866 449.99 284.846 429.93 283.996 419.22C283.486 412.08 276.176 410.21 276.176 410.21H311.536C311.536 410.21 304.226 413.61 303.886 419.22H303.716C302.866 430.1 301.846 450.33 301.846 476.68C301.846 500.82 302.696 517.99 303.376 528.87C310.346 517.14 320.376 498.78 331.766 475.32C351.316 434.86 360.836 412.42 360.836 410.38C360.836 410.38 360.836 410.38 360.836 410.21H389.226C389.226 410.21 382.426 413.95 381.406 419.56C380.386 425 379.536 444.21 379.536 466.31V476.68C379.876 504.9 381.236 533.97 381.236 533.97C381.746 539.58 389.226 543.83 389.226 543.83H353.696C353.696 543.83 361.176 541.11 361.686 533.97C362.536 523.77 363.556 505.07 363.556 476.68C363.556 454.07 362.706 436.22 362.026 424.66L304.566 543.83V544L276.006 543.83C276.006 543.83 283.656 541.11 284.166 533.97ZM413.342 454.07C412.662 459.68 412.152 465.12 412.152 470.56C412.152 476.17 412.662 481.61 413.852 487.39C416.062 497.76 421.502 509.32 425.752 515.95C434.932 530.06 450.742 538.73 467.912 538.73C471.482 538.73 475.222 538.39 478.962 537.54C494.432 534.14 506.672 524.11 513.302 511.02L509.562 533.12C508.712 532.78 507.012 533.29 505.652 534.31C498.342 539.41 489.842 543.15 480.492 545.19C475.392 546.21 470.292 546.89 465.362 546.89C432.722 546.89 403.312 524.11 396.002 490.96C394.982 485.86 394.302 480.76 394.302 475.83C394.302 443.19 417.082 413.78 450.232 406.47C455.332 405.28 460.602 404.77 465.702 404.77C475.052 404.77 484.232 406.64 492.562 410.21C493.242 410.55 496.472 409.87 496.982 408.51L503.102 432.65C493.582 420.58 478.792 413.1 462.982 413.1C459.412 413.1 455.842 413.44 452.272 414.29C432.042 418.71 415.892 434.69 413.342 454.07ZM604.245 534.31C606.285 541.11 612.065 544 612.065 544H576.195C576.195 544 584.525 539.75 584.525 534.31C584.525 522.92 579.425 502.86 573.475 476.85C567.015 448.63 561.575 429.59 558.515 419.39L526.215 534.14C526.045 534.65 526.045 535.33 526.045 535.84C526.045 541.45 534.205 544 534.205 544H506.495C506.495 544 516.185 538.73 518.055 533.29C521.965 522.41 528.935 502.69 536.585 476.34C545.425 445.74 551.885 425 551.885 417.18C551.885 412.93 545.255 410.21 545.255 410.21H584.865C584.865 410.21 577.895 411.91 577.895 417.86C577.895 418.2 578.065 418.54 578.065 419.05C579.595 429.08 582.825 447.95 589.455 476.85C595.405 503.37 601.015 523.43 604.245 534.31ZM623.941 454.24C623.091 458.66 622.581 463.76 622.581 469.2C622.581 475.32 623.261 481.61 624.451 487.56C626.661 497.93 632.271 509.49 636.351 515.95C644.851 529.21 661.681 538.73 679.361 538.73C682.761 538.73 686.161 538.39 689.561 537.71C710.471 533.12 725.771 515.27 728.661 496.23C729.341 492.49 729.681 487.22 729.681 481.78C729.681 476.34 729.171 470.39 728.151 465.29C725.771 454.07 721.181 442.68 714.891 434.52C705.371 422.28 689.731 413.61 673.071 413.61C669.671 413.61 666.271 413.95 662.871 414.63C642.641 419.05 627.511 436.39 623.941 454.24ZM606.601 491.13C605.581 486.54 605.241 481.78 605.241 477.36C605.241 442.51 632.271 412.93 660.661 406.81C665.761 405.62 670.691 405.11 675.791 405.11C708.431 405.11 738.011 427.72 745.151 460.87C746.341 465.97 746.851 471.07 746.851 476C746.851 508.64 724.241 538.05 691.091 545.19C685.141 546.55 679.361 547.06 673.581 547.06C641.961 547.06 614.081 527.85 606.601 491.13ZM758.296 415.99C757.786 413.27 752.006 410.21 752.006 410.21H764.416L797.566 409.87C816.436 409.87 831.736 425.34 831.736 444.21C831.736 456.62 825.106 467.5 815.076 473.45C833.096 475.15 847.206 490.28 847.206 508.64C847.206 528.19 831.396 543.83 811.846 543.83H752.176C752.176 543.83 757.786 540.77 758.126 537.88C758.976 528.87 760.166 509.32 760.166 477.19C760.166 445.23 759.826 424.66 758.296 415.99ZM833.096 508.64C833.096 493.51 821.196 479.74 806.066 479.06C801.476 478.89 795.186 478.72 788.896 478.72C784.476 478.72 780.056 478.89 776.146 478.89C776.146 508.81 777.336 527.68 778.186 536.86C787.196 537.54 797.906 538.39 805.386 538.39C820.516 538.39 833.096 523.77 833.096 508.64ZM792.296 415.65H788.726C785.326 415.65 781.756 415.82 778.356 415.99C777.676 425.17 776.316 445.4 776.146 472.94H791.446C806.066 472.94 818.136 458.83 818.136 444.21C818.136 429.59 806.746 416.33 792.296 415.65ZM876.629 474.13H906.549C900.259 446.93 894.989 428.57 892.099 418.88L876.629 474.13ZM840.419 543.83C840.419 543.83 849.259 539.58 851.639 533.29C863.709 500.82 874.929 461.04 885.299 415.99C885.299 415.99 885.299 415.82 885.299 415.65C885.299 413.1 879.179 410.21 879.179 410.21H918.619C918.619 410.21 911.819 412.08 911.819 418.03C911.819 418.37 911.989 418.71 911.989 419.22C913.519 429.25 916.579 448.12 923.209 477.02C929.159 503.54 934.939 523.6 938.169 534.48C940.209 541.28 945.819 543.83 945.819 543.83H909.949C909.949 543.83 918.279 539.92 918.279 534.48C918.279 523.6 913.349 504.39 907.909 479.74H874.929L859.799 533.97C859.629 534.48 859.629 535.16 859.629 535.67C859.629 541.28 867.959 543.83 867.959 543.83H840.419Z" fill="url(#paint1_linear_552_311)"/>
</g>
<defs>
<filter id="filter0_f_552_311" x="0.365234" y="0.0397949" width="1077" height="763.666" filterUnits="userSpaceOnUse" color-interpolation-filters="sRGB">
<feFlood flood-opacity="0" result="BackgroundImageFix"/>
<feBlend mode="normal" in="SourceGraphic" in2="BackgroundImageFix" result="shape"/>
<feGaussianBlur stdDeviation="65" result="effect1_foregroundBlur_552_311"/>
</filter>
<filter id="filter1_d_552_311" x="146.5" y="227" width="568.868" height="170.04" filterUnits="userSpaceOnUse" color-interpolation-filters="sRGB">
<feFlood flood-opacity="0" result="BackgroundImageFix"/>
<feColorMatrix in="SourceAlpha" type="matrix" values="0 0 0 0 0 0 0 0 0 0 0 0 0 0 0 0 0 0 127 0" result="hardAlpha"/>
<feOffset dx="4" dy="4"/>
<feGaussianBlur stdDeviation="8"/>
<feComposite in2="hardAlpha" operator="out"/>
<feColorMatrix type="matrix" values="0 0 0 0 0.00013146 0 0 0 0 0.00013146 0 0 0 0 0.00013146 0 0 0 0.6 0"/>
<feBlend mode="normal" in2="BackgroundImageFix" result="effect1_dropShadow_552_311"/>
<feBlend mode="normal" in="SourceGraphic" in2="effect1_dropShadow_552_311" result="shape"/>
</filter>
<filter id="filter2_d_552_311" x="146.5" y="392.77" width="819.319" height="174.29" filterUnits="userSpaceOnUse" color-interpolation-filters="sRGB">
<feFlood flood-opacity="0" result="BackgroundImageFix"/>
<feColorMatrix in="SourceAlpha" type="matrix" values="0 0 0 0 0 0 0 0 0 0 0 0 0 0 0 0 0 0 127 0" result="hardAlpha"/>
<feOffset dx="4" dy="4"/>
<feGaussianBlur stdDeviation="8"/>
<feComposite in2="hardAlpha" operator="out"/>
<feColorMatrix type="matrix" values="0 0 0 0 0.00013146 0 0 0 0 0.00013146 0 0 0 0 0.00013146 0 0 0 0.6 0"/>
<feBlend mode="normal" in2="BackgroundImageFix" result="effect1_dropShadow_552_311"/>
<feBlend mode="normal" in="SourceGraphic" in2="effect1_dropShadow_552_311" result="shape"/>
</filter>
<linearGradient id="paint0_linear_552_311" x1="150" y1="314.5" x2="703" y2="314.5" gradientUnits="userSpaceOnUse">
<stop stop-color="#F2F2F2"/>
<stop offset="1" stop-color="#E3E3E3"/>
</linearGradient>
<linearGradient id="paint1_linear_552_311" x1="150" y1="483.5" x2="953" y2="483.5" gradientUnits="userSpaceOnUse">
<stop stop-color="#F2F2F2"/>
<stop offset="1" stop-color="#E3E3E3"/>
</linearGradient>
</defs>
</svg>
