<svg width="830" height="432" viewBox="0 0 830 432" fill="none" xmlns="http://www.w3.org/2000/svg">
<path d="M186.3 122.8C183 120.4 177.9 119.5 172.2 119.5C171.3 119.5 170.7 119.5 169.8 119.5C169.8 127 173.7 130.9 179.4 131.8C180.6 132.1 181.5 132.1 182.7 132.1C187.2 132.1 190.2 130.6 190.2 128.2C190.2 126.7 189 124.9 186.3 122.8ZM239.4 57.1C238.2 52.3 233.4 49.6 227.1 49.6C214.8 49.6 195.6 59.8 182.1 83.8C176.7 93.4 173.4 101.5 171.3 108.1C175.5 107.5 179.7 106.9 183.6 106C209.1 100 240 80.5 240 61.6C240 60.1 239.7 58.6 239.4 57.1ZM239.4 48.7C242.4 52.6 243.9 56.8 243.9 61.3C243.9 81.1 213.6 102.7 184.8 108.7C180 109.6 175.2 110.5 170.7 111.1C170.1 113.2 169.8 115.3 169.8 117.1C171.3 117.1 172.8 116.8 174 116.8C180.6 116.8 185.7 118 188.4 120.4C192 123.4 193.5 126.1 193.5 128.5C193.5 131.8 189.9 134.2 183 134.2C182.1 134.2 180.6 133.9 179.4 133.9C170.1 133 164.7 127.9 162.3 120.4C134.4 125.8 94.5 148.6 86.4 183.1C85.2 188.8 84.3 194.5 84.3 199.6C84.3 217.3 92.7 231.4 117.9 231.4C150.9 231.4 170.7 206.5 176.1 192.7C177.6 188.8 178.5 184 178.5 178.6C178.5 166.6 173.1 153.4 154.8 153.4C150 153.4 144.3 154.3 137.4 156.4C114.6 163.6 103.8 201.1 103.8 201.1C103.8 200.5 103.8 200.2 103.8 199.3C103.8 189.7 114 160 137.4 152.8C144.3 150.7 150.3 149.8 155.4 149.8C176.4 149.8 183.3 165.4 183.3 179.5C183.3 184.9 182.1 190 180.6 193.9C171.9 214.6 146.7 235.3 118.5 235.3C118.2 235.3 118.2 235.3 117.9 235.3C94.5 235 72.6 220 72.6 193.6C72.6 189.7 73.2 185.5 74.1 181C82.8 143.2 130.2 122.2 161.7 118C161.4 115.9 161.1 113.8 161.1 111.7C159 111.7 157.2 111.7 155.1 111.7C116.7 111.7 82.2 96.7 82.2 73.9C82.2 67.6 84.9 60.7 90.9 53.2C103.8 37.6 135.6 35.5 149.1 35.5C153 35.5 155.1 35.8 155.4 35.8C155.4 35.8 154.8 35.8 153.9 35.8C146.1 35.8 107.7 36.7 93 55.9C88.2 62.2 86.1 67.9 86.1 73C86.1 95.2 123 108.7 158.4 108.7C159.3 108.7 160.2 108.7 161.1 108.7C161.4 100.3 164.1 91.3 168.3 83.5C185.1 53.8 211.2 45.4 226.8 45.4C233.4 45.4 237.9 46.9 239.4 48.7ZM273.424 199C268.024 205.6 243.724 233.8 230.224 233.8C219.724 233.8 216.424 228.4 216.424 222.7C216.424 218.2 218.224 213.1 220.024 209.8C223.024 203.8 231.424 191.8 231.424 191.5C231.124 191.5 230.824 192.1 229.624 193.6C225.724 198.7 222.424 201.4 217.624 207.7C207.724 220.3 197.524 232 184.024 232C175.624 232 166.924 229 166.924 217.6C166.924 205 174.124 195.1 181.624 195.1C184.924 195.1 187.024 197.5 187.024 200.5C187.024 201.4 187.024 202.6 186.424 203.5C185.224 206.5 183.124 207.1 181.024 207.1C179.224 207.1 177.424 206.5 176.524 206.5C173.524 206.5 169.924 211.6 169.924 216.7C169.924 228.1 178.024 229 184.624 229C195.424 229 204.424 218.8 216.724 204.4C229.924 189.1 239.524 178.3 250.624 164.2H264.424L240.724 197.2C239.224 199.3 225.424 216.7 225.424 225.1C225.424 227.5 226.624 229 229.924 229C243.424 229 264.124 203.2 271.324 196C272.224 194.8 273.124 194.5 273.724 194.5C274.624 194.5 274.924 194.8 274.924 195.7C274.924 196.6 274.624 197.5 273.424 199ZM302.109 166.9C294.909 166.9 288.909 171.1 284.109 175.9C278.109 182.2 274.509 189.4 274.509 190.6C274.509 190.9 275.109 190.9 275.709 190.9C279.309 190.9 288.009 188.8 296.409 185.8C302.709 183.4 309.309 177.4 309.309 172.6C309.309 168.7 305.409 166.9 302.109 166.9ZM318.009 198.1C313.209 204.4 289.809 234.4 271.509 234.4C260.409 234.4 253.809 225.1 253.809 212.2C253.809 204.4 256.209 195.1 261.909 186.1C273.009 168.4 292.509 163.6 299.409 163.6C306.909 163.6 312.909 165.7 312.909 172.9C312.909 179.2 305.109 186.1 297.309 189.4C290.109 192.4 279.009 194.5 272.109 194.8C267.909 202.9 263.109 213.1 263.109 220.6C263.109 226 265.509 229.6 272.409 229.6C288.609 229.6 310.509 200.5 315.909 196C316.509 195.4 317.109 195.1 317.709 195.1C318.309 195.1 318.909 195.4 318.909 196.3C318.909 196.6 318.609 197.5 318.009 198.1ZM409.282 199C403.882 205.6 379.582 233.8 366.082 233.8C354.982 233.8 351.982 228.1 351.982 221.8C351.982 217.6 353.482 211.6 356.182 208L362.482 199H339.982L317.782 232H302.182L339.982 179.2C341.482 176.8 345.682 172 345.682 169.3C345.682 168.1 344.782 167.5 342.982 167.5C333.382 167.5 306.682 194.8 302.182 199C301.582 199.6 300.982 199.6 300.682 199.6C300.082 199.6 299.482 199 299.482 198.4C299.482 197.8 299.782 196.9 300.382 196.3C302.782 193 331.582 163 345.982 163C351.982 163 353.782 166.6 353.782 171.1C353.782 175.3 352.282 179.8 350.482 183.1C347.782 187.9 346.582 189.4 342.682 195.4H364.882L386.482 164.2H400.582L376.582 197.2C372.982 202 361.282 216.7 361.282 225.1C361.282 227.5 362.482 229 365.782 229C379.282 229 399.982 203.2 407.182 196C408.082 194.8 408.982 194.5 409.582 194.5C410.482 194.5 410.782 194.8 410.782 195.7C410.782 196.6 410.482 197.5 409.282 199ZM456.816 176.2C456.816 175.9 456.816 175.9 456.816 175.6C456.816 173.2 455.616 168.1 451.716 166.3C450.516 165.7 449.316 165.7 447.816 165.7C439.416 165.7 425.316 174.1 411.216 191.5C402.816 201.7 395.616 215.5 395.616 223.3C395.616 227.5 397.416 230.2 402.216 230.2C410.616 230.2 424.716 218.8 437.316 205.3C445.716 196.3 455.616 180.7 456.816 176.2ZM487.716 198.4C482.916 203.2 458.616 234.7 440.616 234.7C434.916 234.7 430.416 229.9 430.416 223C430.416 220.3 431.016 217.3 433.116 214C433.116 214 415.716 233.8 401.316 233.8C392.616 233.8 388.116 225.7 388.116 215.5C388.116 206.8 391.116 196.3 397.716 187.6C412.716 167.2 433.716 162.7 444.216 162.7C445.116 162.7 446.016 162.7 446.916 162.7C457.416 163.6 459.216 172.3 459.216 172.3L465.216 164.2H478.716L444.216 214C442.416 216.4 439.116 220.9 439.116 224.5C439.116 226.6 440.616 228.4 445.116 228.4C449.616 228.4 454.716 224.5 458.316 221.8C468.816 213.4 481.716 199.3 485.016 195.7C486.216 194.2 487.416 193.6 488.316 193.6C489.216 193.6 489.516 194.2 489.516 195.1C489.516 195.7 488.916 196.9 487.716 198.4Z" fill="#E5E5E5"/>
<path d="M101.746 260.066C100.871 267.351 100.726 281.486 100.726 297.077L139.194 258.609C140.214 257.297 140.651 256.131 140.651 255.257C140.651 252.634 137.737 251.323 137.737 251.323H162.071C162.071 251.323 155.077 253.509 146.771 261.231L104.806 303.343C104.806 303.343 143.42 342.249 156.389 355.071C164.403 362.94 173.146 365.854 173.146 365.854H139.049C139.049 365.854 144.586 363.96 144.586 360.754C144.586 359.88 144.149 358.86 143.129 357.84L100.726 315.437C100.871 334.526 101.6 347.931 102.183 356.091C102.62 361.046 109.469 365.854 109.469 365.854H78.4314C78.4314 365.854 84.9886 362.94 85.5714 356.966C86.3 348.077 87.0286 332.194 87.0286 308.443C87.0286 286.003 86.1543 269.1 85.4257 259.774C84.8429 253.946 78.2857 251.323 78.2857 251.323H108.886C108.886 251.323 102.329 255.111 101.746 260.066ZM185.999 357.403C186.728 348.66 187.456 332.631 187.456 308.297C187.456 285.42 186.582 268.226 185.854 259.046C185.416 252.926 179.151 251.323 179.151 251.323H209.459C209.459 251.323 203.194 254.237 202.902 259.046H202.756C202.028 268.371 201.154 285.711 201.154 308.297C201.154 328.989 201.882 343.706 202.465 353.031C208.439 342.977 217.036 327.24 226.799 307.131C243.556 272.451 251.716 253.217 251.716 251.469C251.716 251.469 251.716 251.469 251.716 251.323H276.051C276.051 251.323 270.222 254.529 269.348 259.337C268.474 264 267.745 280.466 267.745 299.409V308.297C268.036 332.486 269.202 357.403 269.202 357.403C269.639 362.211 276.051 365.854 276.051 365.854H245.596C245.596 365.854 252.008 363.523 252.445 357.403C253.174 348.66 254.048 332.631 254.048 308.297C254.048 288.917 253.319 273.617 252.736 263.709L203.485 365.854V366L179.005 365.854C179.005 365.854 185.562 363.523 185.999 357.403ZM296.722 288.917C296.139 293.726 295.702 298.389 295.702 303.051C295.702 307.86 296.139 312.523 297.159 317.477C299.053 326.366 303.716 336.274 307.359 341.957C315.227 354.051 328.779 361.483 343.496 361.483C346.556 361.483 349.762 361.191 352.967 360.463C366.227 357.549 376.719 348.951 382.402 337.731L379.196 356.674C378.467 356.383 377.01 356.82 375.845 357.694C369.579 362.066 362.293 365.271 354.279 367.02C349.907 367.894 345.536 368.477 341.31 368.477C313.333 368.477 288.125 348.951 281.859 320.537C280.985 316.166 280.402 311.794 280.402 307.569C280.402 279.591 299.927 254.383 328.342 248.117C332.713 247.097 337.23 246.66 341.602 246.66C349.616 246.66 357.485 248.263 364.625 251.323C365.207 251.614 367.976 251.031 368.413 249.866L373.659 270.557C365.499 260.211 352.822 253.8 339.27 253.8C336.21 253.8 333.15 254.091 330.09 254.82C312.75 258.609 298.907 272.306 296.722 288.917ZM460.353 357.694C462.102 363.523 467.056 366 467.056 366H436.31C436.31 366 443.45 362.357 443.45 357.694C443.45 347.931 439.079 330.737 433.979 308.443C428.442 284.254 423.779 267.934 421.156 259.191L393.47 357.549C393.325 357.986 393.325 358.569 393.325 359.006C393.325 363.814 400.319 366 400.319 366H376.567C376.567 366 384.873 361.483 386.476 356.82C389.827 347.494 395.802 330.591 402.359 308.006C409.936 281.777 415.473 264 415.473 257.297C415.473 253.654 409.79 251.323 409.79 251.323H443.742C443.742 251.323 437.767 252.78 437.767 257.88C437.767 258.171 437.913 258.463 437.913 258.9C439.225 267.497 441.993 283.671 447.676 308.443C452.776 331.174 457.585 348.369 460.353 357.694ZM477.236 289.063C476.507 292.851 476.07 297.223 476.07 301.886C476.07 307.131 476.653 312.523 477.673 317.623C479.567 326.511 484.376 336.42 487.873 341.957C495.158 353.323 509.584 361.483 524.738 361.483C527.653 361.483 530.567 361.191 533.481 360.609C551.404 356.674 564.518 341.374 566.996 325.054C567.578 321.849 567.87 317.331 567.87 312.669C567.87 308.006 567.433 302.906 566.558 298.534C564.518 288.917 560.584 279.154 555.193 272.16C547.033 261.669 533.627 254.237 519.347 254.237C516.433 254.237 513.518 254.529 510.604 255.111C493.264 258.9 480.296 273.763 477.236 289.063ZM462.373 320.683C461.498 316.749 461.207 312.669 461.207 308.88C461.207 279.009 484.376 253.654 508.71 248.409C513.081 247.389 517.307 246.951 521.678 246.951C549.656 246.951 575.01 266.331 581.13 294.746C582.15 299.117 582.587 303.489 582.587 307.714C582.587 335.691 563.207 360.9 534.793 367.02C529.693 368.186 524.738 368.623 519.784 368.623C492.681 368.623 468.784 352.157 462.373 320.683ZM592.396 256.277C591.959 253.946 587.005 251.323 587.005 251.323H597.642L626.056 251.031C642.231 251.031 655.345 264.291 655.345 280.466C655.345 291.103 649.662 300.429 641.065 305.529C656.511 306.986 668.605 319.954 668.605 335.691C668.605 352.449 655.054 365.854 638.296 365.854H587.151C587.151 365.854 591.959 363.231 592.251 360.754C592.979 353.031 593.999 336.274 593.999 308.734C593.999 281.34 593.708 263.709 592.396 256.277ZM656.511 335.691C656.511 322.723 646.311 310.92 633.342 310.337C629.408 310.191 624.016 310.046 618.625 310.046C614.836 310.046 611.048 310.191 607.696 310.191C607.696 335.837 608.716 352.011 609.445 359.88C617.168 360.463 626.348 361.191 632.759 361.191C645.728 361.191 656.511 348.66 656.511 335.691ZM621.539 255.986H618.479C615.565 255.986 612.505 256.131 609.591 256.277C609.008 264.146 607.842 281.486 607.696 305.091H620.811C633.342 305.091 643.688 292.997 643.688 280.466C643.688 267.934 633.925 256.569 621.539 255.986ZM693.825 306.111H719.471C714.079 282.797 709.562 267.06 707.085 258.754L693.825 306.111ZM662.788 365.854C662.788 365.854 670.365 362.211 672.405 356.82C682.751 328.989 692.368 294.891 701.256 256.277C701.256 256.277 701.256 256.131 701.256 255.986C701.256 253.8 696.011 251.323 696.011 251.323H729.816C729.816 251.323 723.988 252.926 723.988 258.026C723.988 258.317 724.134 258.609 724.134 259.046C725.445 267.643 728.068 283.817 733.751 308.589C738.851 331.32 743.805 348.514 746.574 357.84C748.322 363.669 753.131 365.854 753.131 365.854H722.385C722.385 365.854 729.525 362.503 729.525 357.84C729.525 348.514 725.299 332.049 720.636 310.92H692.368L679.399 357.403C679.254 357.84 679.254 358.423 679.254 358.86C679.254 363.669 686.394 365.854 686.394 365.854H662.788Z" fill="#E5E5E5"/>
</svg>
