<svg width="1200" height="220" viewBox="0 0 1200 220" fill="none" xmlns="http://www.w3.org/2000/svg">
<path d="M169.552 35.6C168.352 45.6 168.152 65 168.152 86.4L220.952 33.6C222.352 31.8 222.952 30.2 222.952 29C222.952 25.4 218.952 23.6 218.952 23.6H252.352C252.352 23.6 242.752 26.6 231.352 37.2L173.752 95C173.752 95 226.752 148.4 244.552 166C255.552 176.8 267.552 180.8 267.552 180.8H220.752C220.752 180.8 228.352 178.2 228.352 173.8C228.352 172.6 227.752 171.2 226.352 169.8L168.152 111.6C168.352 137.8 169.352 156.2 170.152 167.4C170.752 174.2 180.152 180.8 180.152 180.8H137.552C137.552 180.8 146.552 176.8 147.352 168.6C148.352 156.4 149.352 134.6 149.352 102C149.352 71.2 148.152 48 147.152 35.2C146.352 27.2 137.352 23.6 137.352 23.6H179.352C179.352 23.6 170.352 28.8 169.552 35.6ZM285.194 169.2C286.194 157.2 287.194 135.2 287.194 101.8C287.194 70.4 285.994 46.8 284.994 34.2C284.394 25.8 275.794 23.6 275.794 23.6H317.394C317.394 23.6 308.794 27.6 308.394 34.2H308.194C307.194 47 305.994 70.8 305.994 101.8C305.994 130.2 306.994 150.4 307.794 163.2C315.994 149.4 327.794 127.8 341.194 100.2C364.194 52.6 375.394 26.2 375.394 23.8C375.394 23.8 375.394 23.8 375.394 23.6H408.794C408.794 23.6 400.794 28 399.594 34.6C398.394 41 397.394 63.6 397.394 89.6V101.8C397.794 135 399.394 169.2 399.394 169.2C399.994 175.8 408.794 180.8 408.794 180.8H366.994C366.994 180.8 375.794 177.6 376.394 169.2C377.394 157.2 378.594 135.2 378.594 101.8C378.594 75.2 377.594 54.2 376.794 40.6L309.194 180.8V181L275.594 180.8C275.594 180.8 284.594 177.6 285.194 169.2ZM437.166 75.2C436.366 81.8 435.766 88.2 435.766 94.6C435.766 101.2 436.366 107.6 437.766 114.4C440.366 126.6 446.766 140.2 451.766 148C462.566 164.6 481.166 174.8 501.366 174.8C505.566 174.8 509.966 174.4 514.366 173.4C532.566 169.4 546.966 157.6 554.766 142.2L550.366 168.2C549.366 167.8 547.366 168.4 545.766 169.6C537.166 175.6 527.166 180 516.166 182.4C510.166 183.6 504.166 184.4 498.366 184.4C459.966 184.4 425.366 157.6 416.766 118.6C415.566 112.6 414.766 106.6 414.766 100.8C414.766 62.4 441.566 27.8 480.566 19.2C486.566 17.8 492.766 17.2 498.766 17.2C509.766 17.2 520.566 19.4 530.366 23.6C531.166 24 534.966 23.2 535.566 21.6L542.766 50C531.566 35.8 514.166 27 495.566 27C491.366 27 487.166 27.4 482.966 28.4C459.166 33.6 440.166 52.4 437.166 75.2ZM661.758 169.6C664.158 177.6 670.958 181 670.958 181H628.758C628.758 181 638.558 176 638.558 169.6C638.558 156.2 632.558 132.6 625.558 102C617.958 68.8 611.558 46.4 607.958 34.4L569.958 169.4C569.758 170 569.758 170.8 569.758 171.4C569.758 178 579.358 181 579.358 181H546.758C546.758 181 558.158 174.8 560.358 168.4C564.958 155.6 573.158 132.4 582.158 101.4C592.558 65.4 600.158 41 600.158 31.8C600.158 26.8 592.358 23.6 592.358 23.6H638.958C638.958 23.6 630.758 25.6 630.758 32.6C630.758 33 630.958 33.4 630.958 34C632.758 45.8 636.558 68 644.358 102C651.358 133.2 657.958 156.8 661.758 169.6ZM684.93 75.4C683.93 80.6 683.33 86.6 683.33 93C683.33 100.2 684.13 107.6 685.53 114.6C688.13 126.8 694.73 140.4 699.53 148C709.53 163.6 729.33 174.8 750.13 174.8C754.13 174.8 758.13 174.4 762.13 173.6C786.73 168.2 804.73 147.2 808.13 124.8C808.93 120.4 809.33 114.2 809.33 107.8C809.33 101.4 808.73 94.4 807.53 88.4C804.73 75.2 799.33 61.8 791.93 52.2C780.73 37.8 762.33 27.6 742.73 27.6C738.73 27.6 734.73 28 730.73 28.8C706.93 34 689.13 54.4 684.93 75.4ZM664.53 118.8C663.33 113.4 662.93 107.8 662.93 102.6C662.93 61.6 694.73 26.8 728.13 19.6C734.13 18.2 739.93 17.6 745.93 17.6C784.33 17.6 819.13 44.2 827.53 83.2C828.93 89.2 829.53 95.2 829.53 101C829.53 139.4 802.93 174 763.93 182.4C756.93 184 750.13 184.6 743.33 184.6C706.13 184.6 673.33 162 664.53 118.8ZM842.994 30.4C842.394 27.2 835.594 23.6 835.594 23.6H850.194L889.194 23.2C911.394 23.2 929.394 41.4 929.394 63.6C929.394 78.2 921.594 91 909.794 98C930.994 100 947.594 117.8 947.594 139.4C947.594 162.4 928.994 180.8 905.994 180.8H835.794C835.794 180.8 842.394 177.2 842.794 173.8C843.794 163.2 845.194 140.2 845.194 102.4C845.194 64.8 844.794 40.6 842.994 30.4ZM930.994 139.4C930.994 121.6 916.994 105.4 899.194 104.6C893.794 104.4 886.394 104.2 878.994 104.2C873.794 104.2 868.594 104.4 863.994 104.4C863.994 139.6 865.394 161.8 866.394 172.6C876.994 173.4 889.594 174.4 898.394 174.4C916.194 174.4 930.994 157.2 930.994 139.4ZM882.994 30H878.794C874.794 30 870.594 30.2 866.594 30.4C865.794 41.2 864.194 65 863.994 97.4H881.994C899.194 97.4 913.394 80.8 913.394 63.6C913.394 46.4 899.994 30.8 882.994 30ZM982.209 98.8H1017.41C1010.01 66.8 1003.81 45.2 1000.41 33.8L982.209 98.8ZM939.609 180.8C939.609 180.8 950.009 175.8 952.809 168.4C967.009 130.2 980.209 83.4 992.409 30.4C992.409 30.4 992.409 30.2 992.409 30C992.409 27 985.209 23.6 985.209 23.6H1031.61C1031.61 23.6 1023.61 25.8 1023.61 32.8C1023.61 33.2 1023.81 33.6 1023.81 34.2C1025.61 46 1029.21 68.2 1037.01 102.2C1044.01 133.4 1050.81 157 1054.61 169.8C1057.01 177.8 1063.61 180.8 1063.61 180.8H1021.41C1021.41 180.8 1031.21 176.2 1031.21 169.8C1031.21 157 1025.41 134.4 1019.01 105.4H980.209L962.409 169.2C962.209 169.8 962.209 170.6 962.209 171.2C962.209 177.8 972.009 180.8 972.009 180.8H939.609Z" fill="url(#paint0_linear_142_279)"/>
<defs>
<linearGradient id="paint0_linear_142_279" x1="127" y1="110" x2="1072" y2="110" gradientUnits="userSpaceOnUse">
<stop stop-color="#222222"/>
<stop offset="1" stop-color="#212121"/>
</linearGradient>
</defs>
</svg>
