<svg width="3454" height="1861" viewBox="0 0 3454 1861" fill="none" xmlns="http://www.w3.org/2000/svg">
<g clip-path="url(#clip0_586_303)">
<path d="M483.114 496.6C414.514 496.6 317.914 566.6 307.414 734.6C424.314 722.7 549.614 638.7 549.614 556.8C549.614 518.3 520.914 496.6 483.114 496.6ZM583.914 424.5C583.914 415.4 569.214 402.1 520.914 398.6C537.714 423.1 562.914 434.3 572.014 434.3C578.314 434.3 583.914 430.1 583.914 424.5ZM840.114 87.1C728.114 87.1 512.514 194.9 504.814 334.9C688.914 305.5 904.514 204 904.514 129.8C904.514 127 908.714 87.1 840.114 87.1ZM278.014 745.8C178.614 745.8 109.314 706.6 109.314 636.6C109.314 527.4 272.414 388.8 501.314 388.8H504.114C497.814 376.2 492.914 362.2 490.814 346.1C461.414 350.3 432.714 352.4 406.814 352.4C235.314 352.4 231.114 250.2 231.114 236.2V234.8C231.114 176 281.514 115.8 357.814 115.8C398.414 115.8 438.314 134 459.314 166.9L450.214 171.8C450.214 171.8 422.914 124.9 357.814 124.9C287.114 124.9 240.914 180.2 240.914 234.8C240.914 249.5 242.314 342.6 409.614 342.6C434.814 342.6 461.414 340.5 490.114 337C489.414 333.5 489.414 330 489.414 326.5C489.414 173.9 677.714 71.7 821.914 71.7C882.814 71.7 915.714 94.8 915.714 129.1C915.714 214.5 690.314 314.6 504.814 344C504.814 362.2 509.014 376.9 515.314 388.8C588.114 391.6 593.014 417.5 593.014 424.5C593.014 435 583.914 443.4 572.014 443.4C555.214 443.4 527.914 427.3 509.014 397.9H497.114C282.914 397.9 145.714 532.3 145.714 635.9C145.714 701 184.214 736.7 278.714 736.7C285.014 736.7 290.614 736 296.214 736V734.6C296.214 563.1 386.514 487.5 483.114 487.5C525.814 487.5 558.714 512.7 558.714 556.8C558.714 647.1 425.714 731.8 307.414 744.4C306.714 750.7 306.714 758.4 306.714 765.4C306.714 799 310.214 825.6 310.214 825.6L300.414 827C298.314 807.4 296.214 745.8 296.214 745.1C289.914 745.8 284.314 745.8 278.014 745.8ZM638.667 715C614.867 715 584.767 704.5 584.767 661.1C584.767 595.3 703.767 446.2 766.067 337H805.267C727.567 453.9 616.267 612.8 616.267 674.4C616.267 689.1 624.667 703.1 639.367 703.1C730.367 703.1 922.167 444.8 922.167 338.4C922.167 320.2 910.967 314.6 899.767 314.6H899.067C903.267 304.8 913.767 299.2 924.967 299.2C947.367 299.2 957.167 312.5 957.167 333.5C957.167 433.6 745.767 715 638.667 715ZM1174.37 337C1117.67 337 1022.47 442 968.575 539.3C1109.27 524.6 1207.27 416.8 1207.27 364.3C1207.27 347.5 1196.77 337 1174.37 337ZM1245.07 493.8L1254.87 497.3C1212.87 556.8 1073.57 715 978.375 715C920.975 715 897.875 683.5 897.875 638.7C897.875 525.3 1046.97 324.4 1166.67 324.4C1202.37 324.4 1219.17 339.8 1219.17 363.6C1219.17 425.2 1111.37 536.5 961.575 552.6C941.275 591.8 927.975 629.6 927.975 656.9C927.975 685.6 941.975 704.5 974.875 704.5C1076.37 704.5 1208.67 541.4 1245.07 493.8ZM1388.47 704.5C1419.27 704.5 1480.87 664.6 1605.47 493.8L1615.27 497.3C1489.97 673 1422.07 715 1384.27 715C1356.97 715 1340.17 691.2 1340.17 666C1340.17 574.3 1521.47 413.3 1521.47 354.5C1521.47 343.3 1514.47 335.6 1496.27 335.6C1440.97 335.6 1329.67 430.1 1269.47 519.7L1149.77 715H1109.87C1339.47 339.1 1339.47 339.1 1339.47 338.4L1382.17 339.1C1363.27 367.8 1366.77 361.5 1317.07 442C1401.07 353.1 1469.67 320.9 1511.67 320.9C1530.57 320.9 1551.57 331.4 1551.57 359.4C1551.57 440.6 1364.67 627.5 1364.67 686.3C1364.67 698.2 1371.67 704.5 1388.47 704.5ZM1587.72 715C1561.12 715 1538.02 694 1538.02 653.4C1538.02 582.7 1611.52 483.3 1701.82 351C1701.82 350.3 1701.82 350.3 1702.52 349.6H1620.62V339.8H1708.82C1757.12 267.7 1794.22 215.2 1823.62 164.8H1865.62C1836.22 203.3 1797.02 261.4 1745.92 339.8H1840.42V349.6H1739.62C1712.32 390.9 1682.22 438.5 1648.62 491C1604.52 563.1 1568.12 633.8 1568.12 672.3C1568.12 691.2 1576.52 701.7 1597.52 701.7C1649.32 701.7 1745.92 579.9 1811.02 493.8L1820.82 497.3C1682.92 681.4 1626.92 715 1587.72 715Z" fill="white" fill-opacity="0.02"/>
<path d="M1306.1 1047.9C1297.7 1050 1270.4 1094.1 1237.5 1185.1C1286.5 1117.2 1311 1070.3 1311 1054.2C1311 1050 1308.9 1046.5 1306.1 1047.9ZM1920 800.1C1631.6 800.1 1408.3 1495.2 1223.5 1495.2C1185 1495.2 1169.6 1460.2 1169.6 1409.1C1169.6 1376.9 1175.9 1338.4 1185 1298.5C1094.7 1404.9 973.604 1500.1 867.904 1500.1C846.204 1500.1 823.104 1494.5 809.804 1490.3C806.304 1489.6 804.204 1488.9 802.104 1488.2L808.404 1481.9C811.904 1477.7 1119.2 1189.3 1119.2 956.2C1119.2 843.5 1012.8 811.3 943.504 811.3C820.304 811.3 667.004 914.9 667.004 1064C667.004 1144.5 718.104 1186.5 779.704 1186.5C839.204 1186.5 907.804 1148 951.904 1066.8L961.004 1068.9C945.604 1097.6 887.504 1197 773.404 1197C705.504 1197 648.104 1153.6 648.104 1062.6C648.104 912.8 811.204 802.9 940.004 802.9C1061.1 802.9 1149.3 874.3 1149.3 991.9C1149.3 1190.7 879.804 1440.6 821.004 1484C829.404 1486.1 841.304 1488.9 854.604 1488.9C921.104 1488.9 1060.4 1409.1 1205.3 1227.1C1215.1 1196.3 1271.8 1035.3 1311 1035.3C1320.8 1035.3 1327.1 1044.4 1327.1 1055.6C1327.1 1093.4 1280.9 1178.1 1210.2 1267.7C1194.8 1322.3 1183.6 1376.9 1183.6 1418.2C1183.6 1458.8 1194.8 1485.4 1223.5 1485.4C1370.5 1485.4 1564.4 791 1920 791C2011.7 791 2072.6 871.5 2072.6 871.5L2065.6 877.1C2065.6 877.1 2008.2 800.1 1920 800.1ZM1803.37 1064C1746.67 1064 1651.47 1169 1597.57 1266.3C1738.27 1251.6 1836.27 1143.8 1836.27 1091.3C1836.27 1074.5 1825.77 1064 1803.37 1064ZM1874.07 1220.8L1883.87 1224.3C1841.87 1283.8 1702.57 1442 1607.37 1442C1549.97 1442 1526.87 1410.5 1526.87 1365.7C1526.87 1252.3 1675.97 1051.4 1795.67 1051.4C1831.37 1051.4 1848.17 1066.8 1848.17 1090.6C1848.17 1152.2 1740.37 1263.5 1590.57 1279.6C1570.27 1318.8 1556.97 1356.6 1556.97 1383.9C1556.97 1412.6 1570.97 1431.5 1603.87 1431.5C1705.37 1431.5 1837.67 1268.4 1874.07 1220.8ZM2100.76 1063.3C2035.66 1063.3 1858.56 1236.9 1858.56 1389.5C1858.56 1412.6 1870.46 1432.2 1887.96 1432.2C1927.16 1432.2 1981.76 1361.5 2023.76 1297.1C2044.06 1262.1 2069.96 1222.9 2096.56 1182.3C2121.76 1140.3 2131.56 1113 2131.56 1094.8C2131.56 1071 2113.36 1063.3 2100.76 1063.3ZM1887.96 1442C1852.96 1442 1829.86 1407.7 1829.86 1358C1829.86 1228.5 1984.56 1050.7 2093.06 1050.7C2101.46 1050.7 2141.36 1055.6 2141.36 1096.9C2141.36 1102.5 2140.66 1108.8 2138.56 1116.5C2292.56 872.9 2375.86 809.2 2464.06 781.2L2467.56 790.3C2381.46 820.4 2328.96 882 2163.06 1134.7C2051.06 1306.2 2016.06 1374.1 2016.06 1404.9C2016.06 1417.5 2019.56 1428.7 2032.16 1428.7C2070.66 1428.7 2167.26 1308.3 2233.06 1220.8L2242.86 1224.3C2105.66 1406.3 2059.46 1442 2024.46 1442C2014.66 1442 1983.16 1435.7 1983.16 1400C1983.16 1388.8 1986.66 1374.8 1992.26 1359.4C1958.66 1404.9 1921.56 1442 1887.96 1442ZM2459.65 1063.3C2394.55 1063.3 2217.45 1236.9 2217.45 1389.5C2217.45 1412.6 2229.35 1432.2 2246.85 1432.2C2286.05 1432.2 2340.65 1361.5 2382.65 1297.1C2402.95 1262.1 2428.85 1222.9 2455.45 1182.3C2480.65 1140.3 2490.45 1113 2490.45 1094.8C2490.45 1071 2472.25 1063.3 2459.65 1063.3ZM2246.85 1442C2211.85 1442 2188.75 1407.7 2188.75 1358C2188.75 1228.5 2343.45 1050.7 2451.95 1050.7C2460.35 1050.7 2500.25 1055.6 2500.25 1096.9C2500.25 1102.5 2499.55 1108.8 2497.45 1116.5C2651.45 872.9 2734.75 809.2 2822.95 781.2L2826.45 790.3C2740.35 820.4 2687.85 882 2521.95 1134.7C2409.95 1306.2 2374.95 1374.1 2374.95 1404.9C2374.95 1417.5 2378.45 1428.7 2391.05 1428.7C2429.55 1428.7 2526.15 1308.3 2591.95 1220.8L2601.75 1224.3C2464.55 1406.3 2418.35 1442 2383.35 1442C2373.55 1442 2342.05 1435.7 2342.05 1400C2342.05 1388.8 2345.55 1374.8 2351.15 1359.4C2317.55 1404.9 2280.45 1442 2246.85 1442ZM2782.84 1220.8L2792.64 1224.3C2675.04 1380.4 2607.14 1442 2563.74 1442C2555.34 1442 2548.34 1440.6 2542.04 1436.4C2476.24 1396.5 2563.04 1266.3 2616.94 1180.9C2662.44 1108.8 2670.14 1095.5 2686.24 1066.8H2731.04C2684.84 1136.1 2482.54 1431.5 2570.04 1431.5C2614.84 1431.5 2717.74 1306.9 2782.84 1220.8ZM2762.54 969.5C2749.24 969.5 2744.34 956.9 2752.04 940.8C2759.74 925.4 2777.24 912.8 2790.54 912.8C2803.84 912.8 2808.74 925.4 2801.04 940.8C2793.34 956.9 2776.54 969.5 2762.54 969.5ZM2926.64 1431.5C2957.44 1431.5 3019.04 1391.6 3143.64 1220.8L3153.44 1224.3C3028.14 1400 2960.24 1442 2922.44 1442C2895.14 1442 2878.34 1418.2 2878.34 1393C2878.34 1301.3 3059.64 1140.3 3059.64 1081.5C3059.64 1070.3 3052.64 1062.6 3034.44 1062.6C2979.14 1062.6 2867.84 1157.1 2807.64 1246.7L2687.94 1442H2648.04C2877.64 1066.1 2877.64 1066.1 2877.64 1065.4L2920.34 1066.1C2901.44 1094.8 2904.94 1088.5 2855.24 1169C2939.24 1080.1 3007.84 1047.9 3049.84 1047.9C3068.74 1047.9 3089.74 1058.4 3089.74 1086.4C3089.74 1167.6 2902.84 1354.5 2902.84 1413.3C2902.84 1425.2 2909.84 1431.5 2926.64 1431.5ZM3158.8 1430.8C3221.1 1430.8 3307.2 1281 3384.2 1156.4C3397.5 1130.5 3403.1 1110.9 3403.1 1096.9C3403.1 1062.6 3372.3 1061.2 3370.9 1061.2C3306.5 1061.2 3128.7 1235.5 3128.7 1388.1C3128.7 1400.7 3134.3 1430.8 3158.8 1430.8ZM3436.7 1066.1H3478C3234.4 1467.2 3106.3 1701 2967 1701C2936.9 1701 2913.8 1687.7 2897.7 1670.9L2903.3 1665.3C2917.3 1679.3 2934.8 1689.1 2955.8 1689.1C3014.6 1689.1 3100 1614.9 3243.5 1385.3L3247 1379.7C3218.3 1414.7 3187.5 1440.6 3158.1 1440.6C3123.1 1440.6 3100 1406.3 3100 1356.6C3100 1227.1 3255.4 1050.7 3363.2 1050.7C3371.6 1050.7 3413.6 1054.9 3413.6 1096.9C3413.6 1101.1 3412.9 1106 3411.5 1111.6C3417.1 1103.2 3420.6 1096.9 3421.3 1095.5C3429 1083.6 3436.7 1066.1 3436.7 1066.1Z" fill="white" fill-opacity="0.02"/>
<path d="M915.33 954L919.564 979.49C919.712 980.381 920.439 981.063 921.337 981.153L964.66 985.5L921.337 989.847C920.439 989.937 919.712 990.619 919.564 991.51L915.33 1017L911.096 991.51C910.948 990.619 910.222 989.937 909.323 989.847L866 985.5L909.323 981.153C910.222 981.063 910.948 980.381 911.096 979.49L915.33 954Z" fill="white" fill-opacity="0.02"/>
<path d="M1468.86 53L1479.32 115.777C1479.47 116.667 1480.2 117.348 1481.09 117.438L1586.71 128L1481.09 138.562C1480.2 138.652 1479.47 139.333 1479.32 140.223L1468.86 203L1458.39 140.223C1458.25 139.333 1457.52 138.652 1456.62 138.562L1351 128L1456.62 117.438C1457.52 117.348 1458.25 116.667 1458.39 115.777L1468.86 53Z" fill="white" fill-opacity="0.02"/>
<path d="M2115.57 715L2122.46 756.348C2122.61 757.239 2123.34 757.92 2124.24 758.009L2194.14 765L2124.24 771.991C2123.34 772.08 2122.61 772.761 2122.46 773.652L2115.57 815L2108.68 773.652C2108.53 772.761 2107.8 772.08 2106.91 771.991L2037 765L2106.91 758.009C2107.8 757.92 2108.53 757.239 2108.68 756.348L2115.57 715Z" fill="white" fill-opacity="0.02"/>
<path d="M584.643 1555L589.177 1582.21C589.326 1583.1 590.052 1583.78 590.951 1583.87L637.286 1588.5L590.951 1593.13C590.052 1593.22 589.326 1593.9 589.177 1594.79L584.643 1622L580.109 1594.79C579.96 1593.9 579.233 1593.22 578.335 1593.13L532 1588.5L578.335 1583.87C579.233 1583.78 579.96 1583.1 580.109 1582.21L584.643 1555Z" fill="white" fill-opacity="0.02"/>
<path d="M246.786 1102L267.606 1226.92C267.754 1227.81 268.481 1228.49 269.379 1228.58L478.571 1249.5L269.379 1270.42C268.481 1270.51 267.754 1271.19 267.606 1272.08L246.786 1397L225.966 1272.08C225.817 1271.19 225.09 1270.51 224.192 1270.42L15 1249.5L224.192 1228.58C225.09 1228.49 225.817 1227.81 225.966 1226.92L246.786 1102Z" fill="white" fill-opacity="0.02"/>
<path d="M2850.29 329L2863.61 408.92C2863.75 409.81 2864.48 410.491 2865.38 410.581L2999.57 424L2865.38 437.419C2864.48 437.509 2863.75 438.19 2863.61 439.08L2850.29 519L2836.97 439.08C2836.82 438.19 2836.09 437.509 2835.19 437.419L2701 424L2835.19 410.581C2836.09 410.491 2836.82 409.81 2836.97 408.92L2850.29 329Z" fill="white" fill-opacity="0.02"/>
<path d="M1359.86 1588L1367.32 1632.78C1367.47 1633.67 1368.2 1634.35 1369.09 1634.44L1444.71 1642L1369.09 1649.56C1368.2 1649.65 1367.47 1650.33 1367.32 1651.22L1359.86 1696L1352.39 1651.22C1352.25 1650.33 1351.52 1649.65 1350.62 1649.56L1275 1642L1350.62 1634.44C1351.52 1634.35 1352.25 1633.67 1352.39 1632.78L1359.86 1588Z" fill="white" fill-opacity="0.02"/>
</g>
<defs>
<clipPath id="clip0_586_303">
<rect width="3454" height="1861" fill="white"/>
</clipPath>
</defs>
</svg>
